<svg width="29" height="29" viewBox="0 0 29 29" fill="none" xmlns="http://www.w3.org/2000/svg">
<g clip-path="url(#clip0_2284_3253)">
<path d="M14.5098 0.87207C7.16386 0.87207 1.20898 6.82728 1.20898 14.1736C1.20898 21.5199 7.16386 27.4751 14.5098 27.4751C21.8557 27.4751 27.8106 21.5199 27.8106 14.1736C27.8106 6.82728 21.8557 0.87207 14.5098 0.87207ZM11.2539 19.6868H8.56045V11.0186H11.2539V19.6868ZM9.89053 9.95453C9.03983 9.95453 8.48979 9.3518 8.48979 8.60636C8.48979 7.84568 9.05646 7.26096 9.92516 7.26096C10.7939 7.26096 11.3259 7.84568 11.3425 8.60636C11.3425 9.3518 10.7939 9.95453 9.89053 9.95453ZM21.0909 19.6868H18.3975V14.883C18.3975 13.7649 18.0068 13.0056 17.0328 13.0056C16.2888 13.0056 15.8468 13.5196 15.6514 14.0143C15.5794 14.1902 15.5614 14.4396 15.5614 14.6877V19.6854H12.8666V13.7829C12.8666 12.7007 12.8319 11.796 12.7959 11.0173H15.136L15.2593 12.2213H15.3134C15.6681 11.656 16.5368 10.8219 17.9902 10.8219C19.7622 10.8219 21.0909 12.0093 21.0909 14.5616V19.6868Z" fill="white"/>
</g>
<defs>
<clipPath id="clip0_2284_3253">
<rect width="27.71" height="27.7115" fill="white" transform="translate(0.654297 0.317383)"/>
</clipPath>
</defs>
</svg>
