<svg width="28" height="27" viewBox="0 0 28 27" fill="none" xmlns="http://www.w3.org/2000/svg">
<path d="M14.1093 0.421875C6.86649 0.421875 0.988281 6.30008 0.988281 13.5429C0.988281 20.7857 6.86649 26.6639 14.1093 26.6639C21.3521 26.6639 27.2303 20.7857 27.2303 13.5429C27.2303 6.30008 21.3521 0.421875 14.1093 0.421875ZM20.1974 9.34415C20.0006 11.4173 19.1477 16.4557 18.7147 18.7781C18.531 19.7622 18.1637 20.0902 17.8225 20.1296C17.0615 20.1952 16.4842 19.631 15.7494 19.1455C14.5948 18.3845 13.9387 17.9122 12.8234 17.1774C11.5244 16.3245 12.3642 15.8522 13.1121 15.0911C13.3089 14.8943 16.6679 11.8371 16.7335 11.5616C16.7426 11.5199 16.7414 11.4765 16.7299 11.4354C16.7185 11.3942 16.6972 11.3565 16.6679 11.3254C16.5891 11.2598 16.4842 11.2861 16.3923 11.2992C16.2742 11.3254 14.4373 12.5457 10.8553 14.9599C10.3304 15.3142 9.85807 15.4979 9.4382 15.4848C8.96584 15.4717 8.07362 15.2224 7.40445 14.9993C6.57782 14.7369 5.9349 14.5925 5.98738 14.1333C6.01362 13.8971 6.34165 13.661 6.95833 13.4117C10.7897 11.7453 13.3351 10.6431 14.6079 10.1183C18.2555 8.59625 19.0034 8.33383 19.502 8.33383C19.607 8.33383 19.8563 8.36008 20.0137 8.49129C20.1449 8.59625 20.1843 8.74059 20.1974 8.84555C20.1843 8.92428 20.2105 9.16046 20.1974 9.34415Z" fill="white"/>
</svg>
