<svg width="27" height="27" viewBox="0 0 27 27" fill="none" xmlns="http://www.w3.org/2000/svg">
<path d="M13.226 0.317383C20.538 0.317383 26.4519 6.23128 26.4519 13.5433C26.4519 20.8554 20.538 26.7693 13.226 26.7693C5.91389 26.7693 0 20.8554 0 13.5433C0 6.23128 5.91389 0.317383 13.226 0.317383ZM10.8075 20.5153C16.6647 20.5153 19.8767 15.6595 19.8767 11.4461V11.0304C20.5002 10.577 21.0482 10.0101 21.4638 9.36772C20.897 9.61334 20.2735 9.78339 19.6311 9.87786C20.2924 9.48108 20.8025 8.85758 21.0293 8.1207C20.4058 8.47969 19.7256 8.74421 19.0076 8.89536C18.4219 8.27185 17.5905 7.89397 16.6836 7.89397C14.9264 7.89397 13.4905 9.32993 13.4905 11.0871C13.4905 11.3327 13.5094 11.5783 13.585 11.8051C10.9398 11.6728 8.57798 10.4069 7.00976 8.47969C6.74524 8.95205 6.57519 9.49998 6.57519 10.0857C6.57519 11.1816 7.14202 12.1641 7.99226 12.7309C7.46322 12.7309 6.97197 12.5797 6.5563 12.3341V12.3719C6.5563 13.9212 7.65216 15.206 9.10702 15.5083C8.8425 15.5839 8.55909 15.6217 8.27567 15.6217C8.06784 15.6217 7.87889 15.6028 7.67106 15.565C8.06784 16.8309 9.25817 17.7568 10.6375 17.7757C9.54159 18.6259 8.16231 19.136 6.66966 19.136C6.40514 19.136 6.15952 19.136 5.91389 19.0982C7.31207 20.0052 8.99365 20.5342 10.7886 20.5342" fill="white"/>
</svg>
