<svg width="29" height="29" viewBox="0 0 29 29" fill="none" xmlns="http://www.w3.org/2000/svg">
<g clip-path="url(#clip0_2284_3249)">
<path d="M17.0187 13.9422L13.9067 12.4901C13.6351 12.364 13.4121 12.5054 13.4121 12.806V15.5412C13.4121 15.8418 13.6351 15.9832 13.9067 15.8571L17.0173 14.405C17.2903 14.2775 17.2903 14.0697 17.0187 13.9422ZM14.7976 0.87207C7.4513 0.87207 1.49609 6.82728 1.49609 14.1736C1.49609 21.5199 7.4513 27.4751 14.7976 27.4751C22.144 27.4751 28.0992 21.5199 28.0992 14.1736C28.0992 6.82728 22.144 0.87207 14.7976 0.87207ZM14.7976 19.5774C7.98891 19.5774 7.86975 18.9635 7.86975 14.1736C7.86975 9.38367 7.98891 8.76986 14.7976 8.76986C21.6064 8.76986 21.7255 9.38367 21.7255 14.1736C21.7255 18.9635 21.6064 19.5774 14.7976 19.5774Z" fill="white"/>
</g>
<defs>
<clipPath id="clip0_2284_3249">
<rect width="27.7115" height="27.7115" fill="white" transform="translate(0.941406 0.317383)"/>
</clipPath>
</defs>
</svg>
