<svg width="130" height="50" viewBox="0 0 130 50" fill="none" xmlns="http://www.w3.org/2000/svg">
<path d="M5 1H102.929C103.99 1 105.007 1.42143 105.757 2.17157L125.757 22.1716C127.319 23.7337 127.319 26.2663 125.757 27.8284L105.757 47.8284C105.007 48.5786 103.99 49 102.929 49H5C2.79086 49 1 47.2091 1 45V5C1 2.79086 2.79086 1 5 1Z" fill="black" stroke="url(#paint0_linear_221_1523)" stroke-width="2"/>
<path d="M18.774 31H9.846L9.846 18.94H12.546L12.546 28.57H18.774V31ZM22.3495 31.18C20.7475 31.18 19.5055 30.334 19.5055 28.696C19.5055 27.292 20.5135 26.428 22.3855 26.14L25.4815 25.672V25.384C25.4815 24.322 24.9055 24.124 23.8435 24.124C22.7455 24.124 22.3135 24.43 22.3135 25.348V25.546H19.7395V25.348C19.7395 23.188 21.4135 21.766 23.9695 21.766C26.6335 21.766 28.0375 23.224 28.0375 25.636L28.0375 31H25.5355V29.776H25.4275C24.9415 30.442 24.0235 31.18 22.3495 31.18ZM22.0795 28.48C22.0795 28.966 22.4575 29.128 23.2495 29.128C24.3475 29.128 25.4815 28.84 25.4815 27.436L22.8895 27.832C22.3315 27.922 22.0795 28.102 22.0795 28.48ZM32.9505 31.18C30.5745 31.18 29.5845 29.614 29.5845 27.688V21.946H32.2665V27.148C32.2665 28.408 32.6985 28.858 34.0485 28.858C35.3445 28.858 35.9025 28.444 35.9025 27.076V21.946H38.5845V31H36.0825V29.416H35.9925C35.4885 30.46 34.5345 31.18 32.9505 31.18ZM42.9202 31H40.2382V21.946H42.7402V23.53H42.8482C43.3342 22.504 44.3062 21.766 45.8902 21.766C48.2482 21.766 49.2562 23.332 49.2562 25.258V31H46.5562V25.798C46.5562 24.538 46.1422 24.088 44.7742 24.088C43.4782 24.088 42.9202 24.502 42.9202 25.87V31ZM55.051 31.18C52.063 31.18 50.461 29.362 50.461 26.5C50.461 23.602 52.171 21.766 55.195 21.766C57.607 21.766 59.371 23.242 59.371 25.474V25.69H56.671V25.546C56.671 24.52 56.095 24.178 54.979 24.178C53.683 24.178 53.125 24.79 53.125 26.482C53.125 28.156 53.683 28.768 54.979 28.768C56.095 28.768 56.671 28.426 56.671 27.4V27.256H59.371V27.472C59.371 29.704 57.553 31.18 55.051 31.18ZM63.2932 31H60.6112V18.94H63.2932V23.35H63.4012C63.8872 22.504 64.8772 21.766 66.3172 21.766C68.6572 21.766 69.6292 23.332 69.6292 25.258V31H66.9292V25.798C66.9292 24.538 66.5152 24.088 65.1472 24.088C63.8512 24.088 63.2932 24.52 63.2932 25.888V31ZM76.6545 31H73.8465L78.2925 18.94H82.2165L86.6625 31H83.7285L82.7565 28.318H77.6445L76.6545 31ZM79.2105 24.034L78.5265 25.906H81.8745L81.1905 24.034L80.3085 21.316H80.1285L79.2105 24.034ZM89.9558 34.024H87.2558V21.946H89.7578V23.278H89.8478C90.3338 22.306 91.3778 21.766 92.7278 21.766C95.2838 21.766 96.6158 23.62 96.6158 26.482C96.6158 29.326 95.2298 31.18 92.7818 31.18C91.3418 31.18 90.4598 30.586 90.0458 29.812H89.9558V34.024ZM89.9558 27.202C89.9558 28.426 90.6578 28.876 91.9358 28.876C93.5018 28.876 93.9158 28.12 93.9158 26.482C93.9158 24.826 93.5018 24.07 91.9358 24.07C90.6578 24.07 89.9558 24.52 89.9558 25.744V27.202ZM100.52 34.024H97.8203V21.946H100.322V23.278H100.412C100.898 22.306 101.942 21.766 103.292 21.766C105.848 21.766 107.18 23.62 107.18 26.482C107.18 29.326 105.794 31.18 103.346 31.18C101.906 31.18 101.024 30.586 100.61 29.812H100.52V34.024ZM100.52 27.202C100.52 28.426 101.222 28.876 102.5 28.876C104.066 28.876 104.48 28.12 104.48 26.482C104.48 24.826 104.066 24.07 102.5 24.07C101.222 24.07 100.52 24.52 100.52 25.744V27.202Z" fill="url(#paint1_linear_221_1523)"/>
<defs>
<linearGradient id="paint0_linear_221_1523" x1="0" y1="0" x2="134.358" y2="24.252" gradientUnits="userSpaceOnUse">
<stop stop-color="#30BBEE"/>
<stop offset="1" stop-color="#C659FC"/>
</linearGradient>
<linearGradient id="paint1_linear_221_1523" x1="9" y1="14" x2="105.258" y2="44.0718" gradientUnits="userSpaceOnUse">
<stop stop-color="#30BBEE"/>
<stop offset="1" stop-color="#C659FC"/>
</linearGradient>
</defs>
</svg>
