<svg width="263" height="64" viewBox="0 0 263 64" fill="none" xmlns="http://www.w3.org/2000/svg">
<path fill-rule="evenodd" clip-rule="evenodd" d="M37.9448 12.2056L39.4694 10.6233L36.2831 7.29115L32.1803 2.99988L31.9166 3.26365L28.0654 7.29115L26.9767 8.42984L21.6014 14.0517L17.7503 18.0792L17.5901 18.247L16.6615 19.2179L13.9451 22.0706L13.051 22.9936L10.2891 25.8825L7.43557 28.8672L6.34681 30.0059L3 33.5062L29.6245 61.351V46.1042L28.6273 45.0612L28.157 44.5697L26.9767 43.3351L24.8792 41.1296L17.5901 33.5062L22.0253 28.8672L24.8792 25.8825L27.6297 22.9936L31.9166 18.5108L32.1683 18.247L32.3289 18.0792L37.9448 12.2056ZM55.6928 39.3486L61.5724 33.1992L50.7648 21.896L50.7303 21.8599L47.8534 18.8511L47.0168 17.9762L46.8566 17.8083L43.2232 13.853L41.8477 15.2913L39.7158 17.5208L36.9078 20.4574L31.5326 26.0793L29.4006 28.3088L28.3809 29.3877L26.5927 31.2455L24.7363 33.1992L26.9824 35.7046L28.5295 37.3227L30.765 39.6602L31.9223 40.8708L32.2776 41.2425L35.5328 37.8382L35.934 37.4307L36.507 36.8192L39.4065 33.7866L41.1487 31.9646L42.2374 30.8259L43.2231 29.8069L43.4753 29.5315L46.9823 33.1992L36.4039 44.2631L36.0482 44.6466L34.8749 45.9996V61.2468L35.5053 60.5995L52.7703 42.405L54.2833 40.835L55.6928 39.3486Z" fill="url(#paint0_linear_221_1517)"/>
<path d="M79.0073 44.7858V20.6306H86.5299V38.747H94.1215V44.7858H79.0073ZM103.724 33.8814H105.933L105.243 26.7039H104.414L103.724 33.8814ZM98.5482 20.6306H111.109L114.491 41.7836V44.7858H106.933L106.485 39.9202H103.172L102.689 44.7858H95.1664V41.7836L98.5482 20.6306ZM119.357 38.1948L113.457 23.6327V20.6306H121.014L122.843 30.0166H123.395L125.258 20.6306H132.781V23.6327L126.88 38.1948V44.7858H119.357V38.1948ZM150.658 44.7858H134.509V20.6306H150.658V23.6327L149.451 26.7039H142.032V29.3955H149.451V35.4343H142.032V38.747H150.658V44.7858ZM163.299 26.7039H160.297V31.2243H163.299V26.7039ZM152.74 20.6306H167.854C169.614 20.6306 170.856 21.8728 170.856 23.6327V33.1223C170.856 34.261 169.994 35.5378 168.855 35.8483L171.236 41.7836V44.7858H163.851L161.815 37.2631H160.297V44.7858H152.74V20.6306ZM176.333 20.6306H191.274V23.6327L190.067 26.7039H180.853V38.747H183.855V30.6377H191.412V44.7858H176.333C174.538 44.7858 173.296 43.5435 173.296 41.7836V23.6327C173.296 21.8728 174.538 20.6306 176.333 20.6306ZM202.057 33.8814H204.265L203.575 26.7039H202.747L202.057 33.8814ZM196.881 20.6306H209.442L212.823 41.7836V44.7858H205.266L204.818 39.9202H201.505L201.022 44.7858H193.499V41.7836L196.881 20.6306ZM224.025 44.7858L222.161 33.1913H221.575V44.7858H214.19V41.7836L216.675 20.6306H225.094L226.923 30.1546H227.441L229.27 20.6306H237.724L240.174 41.7836V44.7858H232.824V33.1913H232.203L230.34 44.7858H224.025ZM258.393 44.7858H242.244V20.6306H258.393V23.6327L257.185 26.7039H249.766V29.3955H257.185V35.4343H249.766V38.747H258.393V44.7858Z" fill="url(#paint1_linear_221_1517)"/>
<defs>
<linearGradient id="paint0_linear_221_1517" x1="3" y1="2.99988" x2="65.2063" y2="7.33486" gradientUnits="userSpaceOnUse">
<stop stop-color="#30BBEE"/>
<stop offset="1" stop-color="#C659FC"/>
</linearGradient>
<linearGradient id="paint1_linear_221_1517" x1="77.627" y1="11.7858" x2="257.714" y2="68.3124" gradientUnits="userSpaceOnUse">
<stop stop-color="#30BBEE"/>
<stop offset="1" stop-color="#C659FC"/>
</linearGradient>
</defs>
</svg>
