<svg width="58" height="50" viewBox="0 0 58 50" fill="none" xmlns="http://www.w3.org/2000/svg">
<path d="M6 49H53C55.2091 49 57 47.2091 57 45V5C57 2.79086 55.2091 1 53 1H6C3.79086 1 2 2.79086 2 5V45C2 47.2091 3.79086 49 6 49Z" fill="black" stroke="url(#paint0_linear_221_1513)" stroke-width="2"/>
<path d="M37 31H21C20.45 31 20 30.55 20 30C20 29.45 20.45 29 21 29H37C37.55 29 38 29.45 38 30C38 30.55 37.55 31 37 31ZM37 26H21C20.45 26 20 25.55 20 25C20 24.45 20.45 24 21 24H37C37.55 24 38 24.45 38 25C38 25.55 37.55 26 37 26ZM38 20C38 20.55 37.55 21 37 21H21C20.45 21 20 20.55 20 20C20 19.45 20.45 19 21 19H37C37.55 19 38 19.45 38 20Z" fill="url(#paint1_linear_221_1513)"/>
<defs>
<linearGradient id="paint0_linear_221_1513" x1="58" y1="4.15567e-05" x2="-4.02197" y2="5.03785" gradientUnits="userSpaceOnUse">
<stop stop-color="#30BBEE"/>
<stop offset="1" stop-color="#C659FC"/>
</linearGradient>
<linearGradient id="paint1_linear_221_1513" x1="38" y1="19" x2="18.9965" y2="20.9789" gradientUnits="userSpaceOnUse">
<stop stop-color="#30BBEE"/>
<stop offset="1" stop-color="#C659FC"/>
</linearGradient>
</defs>
</svg>
