<svg width="59" height="59" viewBox="0 0 59 59" fill="none" xmlns="http://www.w3.org/2000/svg">
<path fill-rule="evenodd" clip-rule="evenodd" d="M34.9448 9.2056L36.4694 7.62328L33.2831 4.29115L29.1803 -0.00012207L28.9166 0.263651L25.0654 4.29115L23.9767 5.42984L18.6014 11.0517L14.7503 15.0792L14.5901 15.247L13.6615 16.2179L10.9451 19.0706L10.051 19.9936L7.28909 22.8825L4.43557 25.8672L3.34681 27.0059L0 30.5062L26.6245 58.351V43.1042L25.6273 42.0612L25.157 41.5697L23.9767 40.3351L21.8792 38.1296L14.5901 30.5062L19.0253 25.8672L21.8792 22.8825L24.6297 19.9936L28.9166 15.5108L29.1683 15.247L29.3289 15.0792L34.9448 9.2056ZM52.692 36.3486L58.5716 30.1992L47.7641 18.896L47.7296 18.8599L44.8526 15.851L44.016 14.9761L43.8558 14.8083L40.2224 10.853L38.847 12.2912L36.715 14.5208L33.9071 17.4574L28.5318 23.0793L26.3999 25.3088L25.3801 26.3876L23.5919 28.2454L21.7356 30.1992L23.9816 32.7046L25.5287 34.3227L27.7642 36.6602L28.9215 37.8707L29.2768 38.2425L32.532 34.8382L32.9333 34.4306L33.5062 33.8192L36.4057 30.7866L38.1479 28.9646L39.2367 27.8259L40.2224 26.8069L40.4745 26.5314L43.9815 30.1992L33.4031 41.2631L33.0474 41.6465L31.8741 42.9995V58.2467L32.5046 57.5995L49.7695 39.4049L51.2825 37.835L52.692 36.3486Z" fill="url(#paint0_linear_2284_3418)"/>
<defs>
<linearGradient id="paint0_linear_2284_3418" x1="0" y1="-0.00012207" x2="62.2056" y2="4.33477" gradientUnits="userSpaceOnUse">
<stop stop-color="#30BBEE"/>
<stop offset="1" stop-color="#C659FC"/>
</linearGradient>
</defs>
</svg>
