<svg width="191" height="644" viewBox="0 0 191 644" fill="none" xmlns="http://www.w3.org/2000/svg">
<style>
.rocketLightFone{
    animation: rocketLightFoneAnim 150ms infinite linear; 
    transform-origin: center;
}
    @keyframes rocketLightFoneAnim{
        0%{
            opacity:1;
        }
        20%{
            opacity:0.9;
        }
        30%{
            opacity:1;
        }
        100%{
            opacity:1;
        }
    }
.rocketLightFoneLarge{
    animation: rocketLightFoneLargeAnim 150ms infinite linear; 
    transform-origin: top;
}
    @keyframes rocketLightFoneLargeAnim{
        0%{
            transform: scaleY(1);
        }
        20%{
            transform: scaleY(0.9);
        }
        30%{
            transform: scaleY(1);
        }
        100%{
            transform: scaleY(1);
        }
    }
.rocketLightFoneSmall1{
    animation: rocketLightFoneSmall1Anim 2s infinite ease; 
    transform-origin: top;
}
    @keyframes rocketLightFoneSmall1Anim{
        0%{
            transform: rotate(0deg);
        }
        30%{
            transform: rotate(0.2deg);
            opacity: 0.5;
        }
        90%{
            transform: rotate(-0.1deg);
            opacity: 1;
        }
        100%{
            transform: rotate(0deg);
        }
    }
.rocketLightFoneSmall2{
    animation: rocketLightFoneSmall2Anim 1.5s infinite linear; 
    transform-origin: top;
}
    @keyframes rocketLightFoneSmall2Anim{
        0%{
            transform: rotate(0deg);
        }
        60%{
            transform: rotate(-0.1deg);
            opacity: 1;
        }
        90%{
            transform: rotate(0.1deg);
            opacity: 0.3;
        }
        100%{
            transform: rotate(0deg);
        }
    }
</style>

<g clip-path="url(#clip0_2245_4421)">
<g filter="url(#filter0_f_2245_4421)">
<path class="rocketLightFone" d="M95.3153 604C125.865 604 150.631 535.276 150.631 450.5C150.631 365.724 125.865 297 95.3153 297C64.7655 297 40 365.724 40 450.5C40 535.276 64.7655 604 95.3153 604Z" fill="url(#paint0_radial_2245_4421)"/>
</g>
<path class="rocketLightFoneLarge" style="mix-blend-mode:screen" d="M64 327.347L66.1195 572.254L123.979 563.626L126.983 328.615C126.983 328.615 81.0893 322.123 64 327.364V327.347Z" fill="url(#paint1_linear_2245_4421)"/>
<path class='rocketLightFoneSmall1' style="mix-blend-mode:screen" d="M69.6878 575.04L69.0703 325.143L88.9465 324.025L86.51 572.036L69.6878 575.04Z" fill="url(#paint2_linear_2245_4421)"/>
<path style="mix-blend-mode:screen" d="M99.8957 324.127L97.9766 576.227L99.8623 576.243L102.883 325.061L99.8957 324.127Z" fill="url(#paint3_linear_2245_4421)"/>
<path class='rocketLightFoneSmall2' style="mix-blend-mode:screen" d="M113.884 326.363L111.414 576.911L117.405 573.54L118.523 327.548L113.884 326.363Z" fill="url(#paint4_linear_2245_4421)"/>
</g>
<g clip-path="url(#clip1_2245_4421)">
<path d="M138.923 361.4L135.189 321.672H55.0106L51.2919 361.4C50.5231 368.414 54.7438 375.522 64.0326 380.935C81.198 390.835 109.001 390.835 126.135 380.935C135.503 375.569 139.708 368.414 138.923 361.4Z" fill="#37474F"/>
<path d="M66.7444 339.638C51.0539 330.584 51.0539 315.898 66.7444 306.829C82.4349 297.76 107.885 297.776 123.575 306.829C139.266 315.883 139.266 330.584 123.575 339.638C107.885 348.691 82.4506 348.691 66.7444 339.638Z" fill="#455A64"/>
<path d="M138.061 351.671L136.806 338.35C135.66 343.48 131.691 348.439 124.865 352.377C108.469 361.791 81.8736 361.791 65.4614 352.377C58.636 348.439 54.6506 343.48 53.5052 338.365L52.25 351.655C53.2542 357.131 57.3808 362.45 64.6455 366.64C81.5127 376.352 108.83 376.352 125.681 366.64C132.93 362.45 137.073 357.178 138.061 351.671Z" fill="url(#paint5_linear_2245_4421)"/>
<path opacity="0.2" d="M95.79 364.207C118.149 364.207 131.721 356.487 137.84 349.411L136.915 339.573C126.465 346.79 112.249 350.713 96.4176 350.713H95.1624C84.9092 350.953 74.7032 349.249 65.0838 345.692C65.5074 343.166 65.9938 340.42 66.5273 337.392L63.1382 321.701H58.431L54.6967 325.216L51.3076 361.429C50.5387 368.443 54.7595 375.551 64.0482 380.964C81.2136 390.865 109.017 390.865 126.151 380.964C126.732 380.635 127.296 380.289 127.83 379.944C127.83 379.944 114.838 386.409 94.88 385.561C74.9217 384.714 62.6988 377.104 62.338 371.44C62.1766 366.831 62.4603 362.218 63.1853 357.664C71.0462 361.586 81.904 364.207 95.79 364.207Z" fill="black"/>
<path d="M96.4159 350.713H95.1607C77.5089 350.917 61.7871 346.335 50.8979 337.753C48.9208 336.168 47.6501 333.866 47.3628 331.349C47.0754 328.831 47.7947 326.302 49.3639 324.313C50.9331 322.323 53.2249 321.035 55.74 320.728C58.2552 320.421 60.7897 321.12 62.7913 322.674C70.26 328.574 81.714 331.727 95.0195 331.524H95.3019C108.623 331.665 120.061 328.574 127.53 322.674C128.519 321.882 129.655 321.293 130.873 320.941C132.09 320.59 133.365 320.483 134.625 320.626C135.884 320.77 137.102 321.162 138.209 321.778C139.316 322.395 140.29 323.225 141.075 324.22C141.86 325.215 142.44 326.356 142.782 327.576C143.124 328.796 143.221 330.072 143.067 331.33C142.914 332.588 142.513 333.803 141.887 334.906C141.262 336.008 140.425 336.976 139.423 337.753C128.801 346.194 113.534 350.713 96.4159 350.713Z" fill="#455A64"/>
<path d="M56.7191 335.651C59.6061 335.651 70.4326 343.731 94.5645 343.731C118.696 343.731 134.811 334.317 142.515 326.943C142.164 325.97 141.661 325.059 141.024 324.244C139.441 322.249 137.131 320.964 134.601 320.67C132.072 320.376 129.529 321.097 127.53 322.675C120.061 328.575 108.702 331.666 95.3019 331.524H95.0195C81.714 331.728 70.26 328.575 62.7913 322.675C60.7897 321.121 58.2552 320.422 55.7401 320.729C53.2249 321.036 50.9331 322.324 49.3639 324.314C47.7947 326.303 47.0754 328.832 47.3628 331.35C47.6501 333.867 48.9208 336.169 50.8979 337.753C61.7871 346.336 77.5717 350.918 95.1607 350.714C85.613 350.544 76.1739 348.657 67.2945 345.144C57.6919 341.488 53.9105 335.651 56.7191 335.651Z" fill="#37474F"/>
<path d="M95.1566 339.919C80.5174 339.919 66.7883 336.624 56.4639 330.662C46.1396 324.699 40.6009 316.964 40.6009 308.695V308.099C40.0047 297.712 33.399 180.127 37.2745 137.073C41.8404 86.3611 79.8584 44.3263 91.3909 32.6526C91.8858 32.1502 92.4757 31.7513 93.1262 31.479C93.7767 31.2066 94.4749 31.0664 95.1801 31.0664C95.8854 31.0664 96.5836 31.2066 97.2341 31.479C97.8846 31.7513 98.4745 32.1502 98.9694 32.6526C110.518 44.3263 148.52 86.3611 153.086 137.073C156.961 180.065 150.371 297.649 149.775 308.099V308.695C149.775 316.979 144.142 324.778 133.928 330.662C123.713 336.545 109.78 339.919 95.1566 339.919Z" fill="#F5F5F5"/>
<path d="M95.1565 31.6652C95.782 31.6657 96.401 31.7908 96.9776 32.0333C97.5541 32.2758 98.0765 32.6307 98.5143 33.0773C110.015 44.7197 147.908 86.6132 152.458 137.121C156.271 179.407 149.932 293.947 149.179 307.425H149.1V308.633C149.1 316.682 143.577 324.324 133.551 330.098C123.525 335.872 109.67 339.261 95.1565 339.261C80.6428 339.261 66.9922 336.013 56.762 330.098C46.5318 324.182 41.2127 316.682 41.2127 308.633V307.425C40.4439 293.947 34.1206 179.407 37.9177 137.121C42.468 86.6132 80.3604 44.7197 91.8615 33.0773C92.3012 32.6288 92.8262 32.2728 93.4055 32.0303C93.9849 31.7877 94.6069 31.6636 95.235 31.6652M95.235 30.4727C94.4498 30.4692 93.6718 30.6229 92.947 30.9247C92.2221 31.2265 91.5649 31.6703 91.0142 32.2301C78.352 45.0335 41.2755 86.5033 36.7253 137.011C33.2577 175.531 38.2943 276.797 40.083 308.633C40.083 316.777 45.4649 324.92 56.2442 331.149C67.0236 337.378 81.1136 340.469 95.235 340.469C109.356 340.469 123.478 337.331 134.226 331.149C144.974 324.967 150.371 316.777 150.371 308.633C152.207 276.797 157.181 175.531 153.713 137.011C149.1 86.5033 111.961 45.0335 99.4086 32.2301C98.8598 31.6722 98.2052 31.2295 97.4832 30.9277C96.7611 30.626 95.9862 30.4713 95.2036 30.4727H95.235Z" fill="#E0E0E0"/>
<path d="M149.871 258.328C147.139 262.704 143.507 266.448 139.217 269.311C137.066 270.72 134.846 272.019 132.564 273.203C130.21 274.254 127.857 275.415 125.456 276.231C105.846 283.093 84.486 283.093 64.8753 276.231C62.4276 275.431 60.1682 274.254 57.7675 273.218C55.5238 271.947 53.2173 270.818 51.0991 269.327C46.8136 266.463 43.1871 262.719 40.4609 258.344C43.5205 262.383 47.356 265.77 51.7424 268.307C53.8763 269.657 56.1828 270.677 58.4265 271.806C60.6703 272.936 63.1337 273.768 65.4715 274.458C84.8149 280.446 105.517 280.446 124.86 274.458C127.276 273.768 129.567 272.732 131.905 271.806C134.243 270.88 136.455 269.641 138.589 268.292C142.975 265.755 146.811 262.367 149.871 258.328Z" fill="#E0E0E0"/>
<path d="M149.871 198.924C147.14 203.3 143.508 207.044 139.217 209.907C137.07 211.322 134.849 212.621 132.564 213.798C130.249 214.93 127.876 215.941 125.456 216.827C105.847 223.699 84.4843 223.699 64.8753 216.827C62.4276 216.011 60.1682 214.85 57.7675 213.798C55.479 212.617 53.2532 211.318 51.0991 209.907C46.8092 207.048 43.1818 203.303 40.4609 198.924C43.5291 202.955 47.3628 206.341 51.7424 208.887C53.8763 210.221 56.1828 211.257 58.4265 212.386C60.6703 213.516 63.1337 214.348 65.4715 215.038C84.8149 221.026 105.517 221.026 124.86 215.038C127.276 214.348 129.567 213.296 131.905 212.371C134.243 211.445 136.455 210.221 138.589 208.872C142.971 206.335 146.805 202.953 149.871 198.924Z" fill="#E0E0E0"/>
<path d="M97.1496 230.758C97.1496 231.156 97.0318 231.544 96.8111 231.874C96.5904 232.204 96.2768 232.462 95.9098 232.614C95.5428 232.766 95.139 232.806 94.7494 232.728C94.3598 232.651 94.0019 232.459 93.7211 232.179C93.4402 231.898 93.2489 231.54 93.1714 231.15C93.0939 230.761 93.1337 230.357 93.2857 229.99C93.4377 229.623 93.6951 229.309 94.0254 229.088C94.3557 228.868 94.744 228.75 95.1412 228.75C95.6738 228.75 96.1847 228.962 96.5613 229.338C96.938 229.715 97.1496 230.226 97.1496 230.758Z" fill="#E0E0E0"/>
<path d="M129.27 224.327C130.379 224.327 131.278 223.428 131.278 222.319C131.278 221.21 130.379 220.311 129.27 220.311C128.161 220.311 127.262 221.21 127.262 222.319C127.262 223.428 128.161 224.327 129.27 224.327Z" fill="#E0E0E0"/>
<path d="M61.0162 224.327C62.1254 224.327 63.0246 223.428 63.0246 222.319C63.0246 221.21 62.1254 220.311 61.0162 220.311C59.907 220.311 59.0078 221.21 59.0078 222.319C59.0078 223.428 59.907 224.327 61.0162 224.327Z" fill="#E0E0E0"/>
<path d="M131.263 284.233C131.263 284.63 131.145 285.019 130.924 285.349C130.704 285.679 130.39 285.937 130.023 286.089C129.656 286.241 129.252 286.28 128.863 286.203C128.473 286.125 128.115 285.934 127.834 285.653C127.553 285.372 127.362 285.014 127.285 284.625C127.207 284.235 127.247 283.831 127.399 283.464C127.551 283.098 127.808 282.784 128.139 282.563C128.469 282.342 128.857 282.225 129.254 282.225C129.519 282.223 129.781 282.273 130.026 282.373C130.27 282.473 130.492 282.621 130.679 282.808C130.866 282.995 131.014 283.217 131.114 283.462C131.214 283.707 131.265 283.969 131.263 284.233Z" fill="#E0E0E0"/>
<path d="M63.0246 284.233C63.0246 284.63 62.9068 285.019 62.6861 285.349C62.4654 285.679 62.1518 285.937 61.7848 286.089C61.4178 286.241 61.014 286.28 60.6244 286.203C60.2348 286.125 59.8769 285.934 59.5961 285.653C59.3152 285.372 59.1239 285.014 59.0464 284.625C58.9689 284.235 59.0087 283.831 59.1607 283.464C59.3127 283.098 59.5701 282.784 59.9004 282.563C60.2307 282.342 60.619 282.225 61.0162 282.225C61.2805 282.223 61.5426 282.273 61.7872 282.373C62.0318 282.473 62.2541 282.621 62.441 282.808C62.6279 282.995 62.7757 283.217 62.8759 283.462C62.9761 283.707 63.0267 283.969 63.0246 284.233Z" fill="#E0E0E0"/>
<path d="M128.077 115.403C109.892 125.9 80.425 125.9 62.177 115.403C50.8328 108.829 46.4865 99.7129 49.4049 91.2715C50.0168 89.9221 50.6445 88.6041 51.2878 87.3018C61.5827 67.0195 74.9402 48.4439 90.8905 32.2283C91.4392 31.6727 92.0928 31.2317 92.8133 30.9307C93.5338 30.6296 94.3068 30.4746 95.0877 30.4746C95.8685 30.4746 96.6416 30.6296 97.3621 30.9307C98.0826 31.2317 98.7361 31.6727 99.2849 32.2283C115.207 48.3946 128.543 66.9174 138.825 87.1449C139.515 88.5256 140.174 89.8907 140.818 91.2872C143.673 99.8542 139.39 108.86 128.077 115.403Z" fill="url(#paint6_linear_2245_4421)"/>
<path opacity="0.15" d="M95.1605 117.271C83.7692 117.271 73.1938 114.76 65.2388 110.194C56.9542 105.487 53.2513 99.305 55.0713 93.4211C55.6205 92.2443 56.1697 91.0989 56.7345 89.9535C66.7435 70.2799 79.7019 52.2525 95.1605 36.4961C95.1605 36.4961 83.8633 59.4983 81.2901 78.8603C78.7169 98.2224 85.4167 110.728 95.1605 117.271Z" fill="black"/>
<path opacity="0.5" d="M100.023 40.9219C103.714 44.5387 107.177 48.3797 110.395 52.423C113.627 56.4397 116.671 60.6134 119.527 64.8812C120.97 67.0151 122.335 69.2118 123.7 71.3771C125.065 73.5423 126.368 75.8018 127.56 78.0769C130.037 82.5812 132.233 87.2345 134.135 92.01L125.881 79.0183C123.12 74.7191 120.343 70.4356 117.471 66.1992C114.6 61.9628 111.744 57.7421 108.841 53.5213L100.023 40.9219Z" fill="white"/>
<path d="M98.5952 33.7659L95.1433 0L91.6914 33.7659C91.7209 34.0705 91.8309 34.3619 92.0101 34.61C92.1893 34.8582 92.4313 35.0542 92.7113 35.178C93.4658 35.5575 94.2987 35.7551 95.1433 35.7551C95.9879 35.7551 96.8208 35.5575 97.5753 35.178C97.8553 35.0542 98.0973 34.8582 98.2765 34.61C98.4557 34.3619 98.5657 34.0705 98.5952 33.7659Z" fill="#455A64"/>
<path d="M106.886 194.27C122.514 187.797 129.935 169.881 123.462 154.253C116.989 138.626 99.072 131.205 83.4443 137.678C67.8166 144.151 60.3955 162.067 66.8687 177.695C73.3419 193.322 91.2581 200.744 106.886 194.27Z" fill="url(#paint7_linear_2245_4421)"/>
<path opacity="0.15" d="M106.886 194.27C122.514 187.797 129.935 169.881 123.462 154.253C116.989 138.626 99.072 131.205 83.4443 137.678C67.8166 144.151 60.3955 162.067 66.8687 177.695C73.3419 193.322 91.2581 200.744 106.886 194.27Z" fill="black"/>
<path d="M95.1629 200.164C112.078 200.164 125.791 186.451 125.791 169.536C125.791 152.621 112.078 138.908 95.1629 138.908C78.2477 138.908 64.5352 152.621 64.5352 169.536C64.5352 186.451 78.2477 200.164 95.1629 200.164Z" fill="url(#paint8_linear_2245_4421)"/>
<path opacity="0.2" d="M106.188 198.108L96.2715 170.885L121.376 185.368C121.58 185.022 121.784 184.677 121.973 184.332L96.8678 169.834L125.409 164.813C125.409 164.405 125.268 164.013 125.189 163.621L96.6482 168.657L115.273 146.471C114.975 146.204 114.677 145.937 114.363 145.686L95.7381 167.888V138.924H94.5299V167.888L75.874 145.686L74.9641 146.471L93.5886 168.657L65.0476 163.621C65.0476 164.013 64.9065 164.405 64.8438 164.813L93.3845 169.834L68.2799 184.332C68.4682 184.677 68.672 185.022 68.876 185.368L93.9809 170.885L84.0644 198.108L85.1941 198.516L95.1104 171.293L105.011 198.516C105.451 198.391 105.812 198.249 106.188 198.108Z" fill="black"/>
<path d="M95.155 191.659C107.373 191.659 117.278 181.754 117.278 169.536C117.278 157.317 107.373 147.412 95.155 147.412C82.9365 147.412 73.0312 157.317 73.0312 169.536C73.0312 181.754 82.9365 191.659 95.155 191.659Z" fill="#37474F"/>
<path d="M95.1581 147.412C89.6643 147.426 84.3723 149.484 80.312 153.185C76.2517 156.885 73.7135 161.964 73.1914 167.433C73.6837 172.926 76.2097 178.037 80.2743 181.764C84.3388 185.491 89.6489 187.566 95.1636 187.582C100.678 187.597 106 185.553 110.086 181.849C114.172 178.145 116.727 173.049 117.25 167.559C116.756 162.046 114.212 156.918 110.123 153.189C106.033 149.459 100.693 147.398 95.1581 147.412Z" fill="#5E80C1"/>
<path d="M112.829 163.903C112.829 165.209 112.441 166.486 111.715 167.572C110.989 168.659 109.958 169.505 108.751 170.005C107.544 170.505 106.216 170.636 104.934 170.381C103.653 170.126 102.476 169.497 101.552 168.573C100.628 167.65 99.999 166.473 99.7441 165.191C99.4892 163.91 99.6201 162.582 100.12 161.375C100.62 160.168 101.467 159.136 102.553 158.41C103.639 157.684 104.916 157.297 106.223 157.297C107.975 157.297 109.655 157.993 110.894 159.232C112.133 160.47 112.829 162.151 112.829 163.903Z" fill="#E0E0E0"/>
<path d="M108.7 176.989C108.7 177.743 108.476 178.48 108.057 179.107C107.638 179.734 107.043 180.223 106.346 180.511C105.649 180.8 104.883 180.875 104.143 180.728C103.404 180.581 102.724 180.218 102.191 179.685C101.658 179.151 101.295 178.472 101.147 177.732C101 176.993 101.076 176.226 101.364 175.53C101.653 174.833 102.142 174.237 102.769 173.818C103.396 173.399 104.133 173.176 104.887 173.176C105.388 173.174 105.885 173.271 106.349 173.462C106.812 173.653 107.233 173.933 107.588 174.288C107.942 174.642 108.223 175.064 108.414 175.527C108.605 175.991 108.702 176.487 108.7 176.989Z" fill="#E0E0E0"/>
<path d="M108.12 266.816C108.194 265.066 107.913 263.319 107.295 261.679C106.676 260.04 105.732 258.543 104.52 257.278C103.308 256.013 101.852 255.007 100.241 254.319C98.6296 253.631 96.8959 253.276 95.1439 253.275C93.3919 253.276 91.6581 253.631 90.0469 254.319C88.4356 255.007 86.9801 256.013 85.7679 257.278C84.5557 258.543 83.6119 260.04 82.9932 261.679C82.3746 263.319 82.0938 265.066 82.1679 266.816C82.1679 266.816 82.1679 271.602 82.1679 272.433L85.0706 341.377C85.1398 343.411 85.9968 345.339 87.4606 346.753C88.9245 348.167 90.8806 348.957 92.9158 348.956H97.2778C99.3131 348.957 101.269 348.167 102.733 346.753C104.197 345.339 105.054 343.411 105.123 341.377L108.12 272.449C108.167 271.602 108.12 266.816 108.12 266.816Z" fill="#455A64"/>
<path d="M97.3249 348.956H92.963C90.9277 348.957 88.9716 348.167 87.5078 346.753C86.0439 345.339 85.1869 343.411 85.1177 341.377L82.1522 272.449C82.0782 270.699 82.3589 268.951 82.9776 267.312C83.5963 265.673 84.5401 264.176 85.7522 262.911C86.9644 261.646 88.4199 260.639 90.0312 259.952C91.6425 259.264 93.3763 258.909 95.1283 258.908C96.8802 258.909 98.614 259.264 100.225 259.952C101.837 260.639 103.292 261.646 104.504 262.911C105.716 264.176 106.66 265.673 107.279 267.312C107.898 268.951 108.178 270.699 108.104 272.449L105.202 341.393C105.128 343.43 104.265 345.358 102.795 346.77C101.325 348.181 99.363 348.965 97.3249 348.956Z" fill="#37474F"/>
<path d="M95.1407 395.711C94.13 395.712 93.1589 395.319 92.4326 394.616C91.7064 393.914 91.2821 392.956 91.2495 391.946L87.876 277.688C87.8401 276.711 88.0015 275.738 88.3505 274.826C88.6995 273.913 89.2289 273.081 89.9071 272.377C90.5853 271.674 91.3984 271.115 92.2976 270.734C93.1968 270.352 94.1638 270.156 95.1407 270.156C96.1176 270.156 97.0845 270.352 97.9838 270.734C98.883 271.115 99.6961 271.674 100.374 272.377C101.052 273.081 101.582 273.913 101.931 274.826C102.28 275.738 102.441 276.711 102.405 277.688L99.0319 391.946C98.9993 392.956 98.575 393.914 97.8488 394.616C97.1225 395.319 96.1513 395.712 95.1407 395.711Z" fill="url(#paint9_linear_2245_4421)"/>
<path opacity="0.2" d="M91.2536 391.948C91.2536 392.989 91.6669 393.986 92.4025 394.722C93.1381 395.458 94.1359 395.871 95.1762 395.871C96.2166 395.871 97.2143 395.458 97.9499 394.722C98.6856 393.986 99.0988 392.989 99.0988 391.948L99.4126 377.576L99.24 377.121C99.24 377.121 98.6909 383.821 95.0978 382.157C92.5245 380.965 90.9398 372.978 90.3906 365.039L91.2536 391.948Z" fill="black"/>
<path opacity="0.5" d="M102.41 277.688C102.446 276.711 102.285 275.738 101.936 274.826C101.587 273.913 101.057 273.081 100.379 272.377C99.7011 271.674 98.8881 271.115 97.9888 270.734C97.0896 270.352 96.1226 270.156 95.1457 270.156C94.7355 270.161 94.3263 270.198 93.9219 270.266C98.3623 271.113 99.7744 273.812 100.025 284.591C100.276 295.873 99.1625 387.27 99.1625 387.27L102.41 277.688Z" fill="white"/>
<path d="M155.66 227.213C153.902 226.208 151.47 226.381 148.756 227.95C145.796 229.902 143.355 232.544 141.644 235.649C139.932 238.754 139.002 242.229 138.934 245.774L141.271 321.826C141.217 322.474 141.333 323.125 141.608 323.714C141.883 324.303 142.308 324.81 142.841 325.184C143.703 325.67 146.842 327.522 147.736 328.008C148.332 328.276 148.988 328.382 149.638 328.316C150.288 328.25 150.909 328.014 151.439 327.631L155.675 325.199C157.191 324.202 158.461 322.873 159.388 321.313C160.315 319.752 160.875 318.002 161.026 316.193L163.395 236.846C163.489 233.457 162.375 231.072 160.508 230.005L155.66 227.213Z" fill="#263238"/>
<path d="M151.521 327.662C148.649 329.326 146.248 327.976 146.154 324.665L143.801 248.614C143.867 245.062 144.798 241.581 146.512 238.47C148.226 235.359 150.672 232.712 153.639 230.758C159.256 227.51 163.649 230.256 163.477 236.877L161.107 316.224C160.957 318.033 160.396 319.783 159.47 321.343C158.543 322.904 157.273 324.233 155.757 325.23L151.521 327.662Z" fill="#37474F"/>
<path d="M155.663 227.214C156.511 227.684 159.759 229.567 160.575 230.038C158.802 229.018 156.37 229.191 153.624 230.76C149.385 233.523 146.253 237.688 144.774 242.527L139.895 239.703C141.383 234.865 144.52 230.701 148.76 227.935C151.49 226.382 153.906 226.209 155.663 227.214Z" fill="#455A64"/>
<path d="M162.925 247.345L158.501 244.803L153.637 247.611V371.77C158.752 374.735 163.522 374.908 167.366 372.649L172.199 369.84C177.031 367.078 180.405 360.598 181.205 351.262L185.708 300.143C187.356 280.091 176.702 255.331 162.925 247.345Z" fill="url(#paint10_linear_2245_4421)"/>
<g opacity="0.2">
<path d="M162.925 247.345L158.501 244.803L153.637 247.611V371.77C158.752 374.735 163.522 374.908 167.366 372.649L172.199 369.84C177.031 367.078 180.405 360.598 181.205 351.262L185.708 300.143C187.356 280.091 176.702 255.331 162.925 247.345Z" fill="white"/>
</g>
<path d="M153.637 371.77V247.643L158.046 250.2C171.822 258.155 182.476 282.915 180.75 302.951L176.294 354.04C174.882 370.844 165.154 378.423 153.637 371.77Z" fill="url(#paint11_linear_2245_4421)"/>
<path opacity="0.2" d="M153.637 371.77V247.643L158.046 250.2C171.822 258.155 182.476 282.915 180.75 302.951L176.294 354.04C174.882 370.844 165.154 378.423 153.637 371.77Z" fill="black"/>
<path opacity="0.2" d="M176.451 352.658C175.745 360.832 167.633 363.986 161.733 357.726C155.833 351.465 153.637 343.353 153.637 318.123V371.769C165.154 378.421 174.882 370.843 176.325 354.086L176.451 352.658Z" fill="black"/>
<path d="M34.6416 227.213C36.399 226.208 38.831 226.381 41.5454 227.95C44.5075 229.901 46.9508 232.543 48.6647 235.648C50.3786 238.753 51.3116 242.228 51.3834 245.774L49.0298 321.826C49.0847 322.474 48.9687 323.125 48.6934 323.714C48.4181 324.303 47.9931 324.81 47.4607 325.184C46.5978 325.67 43.4597 327.522 42.581 328.008C41.9824 328.276 41.3239 328.382 40.6714 328.316C40.0189 328.25 39.3952 328.014 38.8624 327.631L34.6416 325.199C33.1218 324.204 31.8486 322.876 30.9188 321.316C29.989 319.755 29.427 318.003 29.2755 316.193L26.9062 236.846C26.8278 233.457 27.9418 231.072 29.809 230.005C30.5464 229.566 33.7944 227.683 34.6416 227.213Z" fill="#263238"/>
<path d="M38.7854 327.662C41.6567 329.326 44.0574 327.976 44.1515 324.665L46.5051 248.614C46.4286 245.063 45.4922 241.583 43.776 238.473C42.0599 235.363 39.6152 232.716 36.6515 230.758C31.0343 227.51 26.6253 230.256 26.7979 236.877L29.1671 316.224C29.3186 318.034 29.8806 319.786 30.8104 321.347C31.7402 322.907 33.0134 324.235 34.5333 325.23L38.7854 327.662Z" fill="#37474F"/>
<path d="M34.6377 227.214C33.7904 227.684 30.5425 229.567 29.7266 230.038C31.4996 229.018 33.9473 229.191 36.6774 230.76C40.9206 233.518 44.0544 237.685 45.5269 242.527L50.4223 239.703C48.9273 234.864 45.7853 230.7 41.5415 227.935C38.827 226.382 36.395 226.209 34.6377 227.214Z" fill="#455A64"/>
<path d="M27.3753 247.345L31.8 244.803L36.6797 247.611V371.77C31.549 374.735 26.779 374.908 22.9349 372.649L18.1022 369.84C13.2852 367.078 9.9118 360.598 9.0959 351.262L4.68688 300.143C2.94524 280.091 13.5991 255.331 27.3753 247.345Z" fill="url(#paint12_linear_2245_4421)"/>
<g opacity="0.2">
<path d="M27.3753 247.345L31.8 244.803L36.6797 247.611V371.77C31.549 374.735 26.779 374.908 22.9349 372.649L18.1022 369.84C13.2852 367.078 9.9118 360.598 9.0959 351.262L4.68688 300.143C2.94524 280.091 13.5991 255.331 27.3753 247.345Z" fill="white"/>
</g>
<path d="M36.6524 371.77V247.643L32.2277 250.2C18.4514 258.155 7.79763 282.915 9.52358 302.951L13.9797 354.04C15.4232 370.844 25.1513 378.423 36.6524 371.77Z" fill="url(#paint13_linear_2245_4421)"/>
<path opacity="0.2" d="M36.6524 371.77V247.643L32.2277 250.2C18.4514 258.155 7.79763 282.915 9.52358 302.951L13.9797 354.04C15.4232 370.844 25.1513 378.423 36.6524 371.77Z" fill="black"/>
<path opacity="0.2" d="M13.8516 352.658C14.5576 360.832 22.6853 363.986 28.5692 357.726C34.4531 351.465 36.6655 343.353 36.6812 318.123V371.769C25.1487 378.421 15.4206 370.843 13.9771 354.086L13.8516 352.658Z" fill="black"/>
</g>
<defs>
<filter id="filter0_f_2245_4421" x="0" y="257" width="190.631" height="387" filterUnits="userSpaceOnUse" color-interpolation-filters="sRGB">
<feFlood flood-opacity="0" result="BackgroundImageFix"/>
<feBlend mode="normal" in="SourceGraphic" in2="BackgroundImageFix" result="shape"/>
<feGaussianBlur stdDeviation="20" result="effect1_foregroundBlur_2245_4421"/>
</filter>
<radialGradient id="paint0_radial_2245_4421" cx="0" cy="0" r="1" gradientUnits="userSpaceOnUse" gradientTransform="translate(95.3153 450.5) rotate(90) scale(153.5 55.3153)">
<stop stop-color="#2059ED"/>
<stop offset="0.829263" stop-color="#72B3FF" stop-opacity="0"/>
</radialGradient>
<linearGradient id="paint1_linear_2245_4421" x1="87.6361" y1="572.31" x2="88.386" y2="325.202" gradientUnits="userSpaceOnUse">
<stop stop-color="#467CC0" stop-opacity="0"/>
<stop offset="1" stop-color="#2863A9"/>
</linearGradient>
<linearGradient id="paint2_linear_2245_4421" x1="76.5294" y1="575.097" x2="78.9844" y2="323.927" gradientUnits="userSpaceOnUse">
<stop stop-color="#467CC0" stop-opacity="0"/>
<stop offset="1" stop-color="#457EC1"/>
</linearGradient>
<linearGradient id="paint3_linear_2245_4421" x1="99.8178" y1="576.3" x2="109.836" y2="324.403" gradientUnits="userSpaceOnUse">
<stop stop-color="#467CC0" stop-opacity="0"/>
<stop offset="1" stop-color="#457EC1" stop-opacity="0.37"/>
</linearGradient>
<linearGradient id="paint4_linear_2245_4421" x1="114.082" y1="576.968" x2="120.916" y2="326.428" gradientUnits="userSpaceOnUse">
<stop stop-color="#467CC0" stop-opacity="0"/>
<stop offset="1" stop-color="#457EC1" stop-opacity="0.49"/>
</linearGradient>
<linearGradient id="paint5_linear_2245_4421" x1="95.1556" y1="338.35" x2="95.1556" y2="373.924" gradientUnits="userSpaceOnUse">
<stop stop-color="#5B3190"/>
<stop offset="1" stop-color="#3384FF"/>
</linearGradient>
<linearGradient id="paint6_linear_2245_4421" x1="95.0993" y1="30.4746" x2="95.0993" y2="123.276" gradientUnits="userSpaceOnUse">
<stop stop-color="#5B3190"/>
<stop offset="1" stop-color="#3384FF"/>
</linearGradient>
<linearGradient id="paint7_linear_2245_4421" x1="83.4443" y1="137.678" x2="106.886" y2="194.27" gradientUnits="userSpaceOnUse">
<stop stop-color="#5B3190"/>
<stop offset="1" stop-color="#3384FF"/>
</linearGradient>
<linearGradient id="paint8_linear_2245_4421" x1="95.1629" y1="138.908" x2="95.1629" y2="200.164" gradientUnits="userSpaceOnUse">
<stop stop-color="#5B3190"/>
<stop offset="1" stop-color="#3384FF"/>
</linearGradient>
<linearGradient id="paint9_linear_2245_4421" x1="95.1407" y1="270.156" x2="95.1407" y2="395.711" gradientUnits="userSpaceOnUse">
<stop stop-color="#5B3190"/>
<stop offset="1" stop-color="#3384FF"/>
</linearGradient>
<linearGradient id="paint10_linear_2245_4421" x1="169.757" y1="244.803" x2="169.757" y2="374.188" gradientUnits="userSpaceOnUse">
<stop stop-color="#5B3190"/>
<stop offset="1" stop-color="#3384FF"/>
</linearGradient>
<linearGradient id="paint11_linear_2245_4421" x1="167.285" y1="247.643" x2="167.285" y2="374.171" gradientUnits="userSpaceOnUse">
<stop stop-color="#5B3190"/>
<stop offset="1" stop-color="#3384FF"/>
</linearGradient>
<linearGradient id="paint12_linear_2245_4421" x1="20.5899" y1="244.803" x2="20.5899" y2="374.188" gradientUnits="userSpaceOnUse">
<stop stop-color="#5B3190"/>
<stop offset="1" stop-color="#3384FF"/>
</linearGradient>
<linearGradient id="paint13_linear_2245_4421" x1="22.9961" y1="247.643" x2="22.9961" y2="374.171" gradientUnits="userSpaceOnUse">
<stop stop-color="#5B3190"/>
<stop offset="1" stop-color="#3384FF"/>
</linearGradient>
<clipPath id="clip0_2245_4421">
<rect width="191" height="387" fill="white" transform="translate(0 257)"/>
</clipPath>
<clipPath id="clip1_2245_4421">
<rect width="182" height="396" fill="white" transform="translate(4.5)"/>
</clipPath>
</defs>
</svg>
