<svg width="492" height="338" viewBox="0 0 492 338" fill="none" xmlns="http://www.w3.org/2000/svg">
<style>
    .rock1{
        animation: rock1anim 25s ease-in-out infinite;
    }
    @keyframes rock1anim{
        0%{
            transform: translate(0px, 0px);
        }
        50%{
            transform: translate(100px, 40px);
        }
        100%{
            transform: translate(0px, 0px);
        }
    }
</style>

<ellipse cx="279" cy="169" rx="213" ry="169" fill="url(#paint0_radial_2245_3938)"/>
<path class='rocklarge'  fill-rule="evenodd" clip-rule="evenodd" d="M0.0407534 191.887C0.0407534 191.887 8.47491 201.007 19.2315 210.78C27.299 218.149 36.6703 225.845 44.7377 230.405L54.5572 235.332L134.906 275.48L139.388 283.786L142.892 290.301L145.948 295.961L165.22 322.183C165.22 322.183 185.307 322.997 194.923 322.183L220.144 293.518L234.812 276.823L244.102 266.278L253.514 263.183L261.052 260.699L273.805 256.505L298.618 233.174L303.915 228.247L308.764 223.687L319.235 213.874L330.399 203.369C330.399 203.369 321.761 192.742 315.649 189.851L304.974 168.148C304.974 168.148 261.54 127.594 238.56 116.926C238.56 116.926 162.327 99.7431 74.6036 101.779L70.081 125.11L54.9239 123.481L33.5737 150.07L18.6203 168.678L4.15598 186.675L4.07447 186.756L3.17812 187.896L0 191.846L0.0407534 191.887Z" fill="#A1A1A1"/>
<path class='rocklarge'  fill-rule="evenodd" clip-rule="evenodd" d="M0.0407534 191.887C0.0407534 191.887 8.47491 201.007 19.2315 210.78C27.299 218.149 36.6703 225.845 44.7377 230.405L54.5572 235.332L134.906 275.48L139.388 283.786L142.892 290.301L145.948 295.961L165.22 322.183C165.22 322.183 185.307 322.997 194.923 322.183L220.144 293.518L234.812 276.823L244.102 266.278L253.514 263.183L261.052 260.699L273.805 256.505L298.618 233.174L303.915 228.247L308.764 223.687L319.235 213.874L330.399 203.369C330.399 203.369 321.761 192.742 315.649 189.851L304.974 168.148C304.974 168.148 261.54 127.594 238.56 116.926C238.56 116.926 162.327 99.7431 74.6036 101.779L70.081 125.11L54.9239 123.481L33.5737 150.07L18.6203 168.678L4.15598 186.675L4.07447 186.756L3.17812 187.896L0 191.846L0.0407534 191.887Z" fill="url(#paint1_linear_2245_3938)"/>
<path class='rocklarge'  fill-rule="evenodd" clip-rule="evenodd" d="M254.737 126.617L242.758 185.739L210.773 212.042L209.143 221.774L212.403 243.069L181.641 301.254L194.964 322.142L244.143 266.237L273.846 256.506L330.4 203.37L314.672 187.612L304.975 168.149C304.975 168.149 266.186 133.946 254.655 126.617H254.737Z" fill="url(#paint2_linear_2245_3938)"/>
<path class='rocklarge' fill-rule="evenodd" clip-rule="evenodd" d="M279.225 212.082L242.758 185.779L114.453 169.451L122.235 182.074L210.774 212.082C210.774 212.082 250.541 216.683 279.225 212.082Z" fill="url(#paint3_linear_2245_3938)"/>
<path class='rocklarge' fill-rule="evenodd" clip-rule="evenodd" d="M273.884 256.505L209.141 221.814L138.204 204.998L0.0390625 191.887L44.736 230.405L134.904 275.48L212.401 243.109L241.085 266.278L273.884 256.505Z" fill="url(#paint4_linear_2245_3938)"/>
<path class='rocklarge' fill-rule="evenodd" clip-rule="evenodd" d="M194.963 322.183L181.64 301.295L145.988 295.961C145.988 295.961 157.071 315.627 165.261 322.183H194.963Z" fill="url(#paint5_linear_2245_3938)"/>
<path class='rocklarge' fill-rule="evenodd" clip-rule="evenodd" d="M122.236 182.074L70.1641 125.11L74.6459 101.779L114.413 169.452L122.236 182.074Z" fill="url(#paint6_linear_2245_3938)"/>
<path class='rocklarge' fill-rule="evenodd" clip-rule="evenodd" d="M246.709 188.629L243.857 180.363L229.148 184.476L246.709 188.629Z" fill="#756AC9"/>
<path class='rocklarge' fill-rule="evenodd" clip-rule="evenodd" d="M184.33 296.205L186.571 310.456L176.996 300.603L184.33 296.205Z" fill="#756AC9"/>
<path class='rocklarge' style="mix-blend-mode:multiply" opacity="0.5" fill-rule="evenodd" clip-rule="evenodd" d="M279.224 212.083L209.143 221.814L138.206 204.998L122.234 182.074L210.773 212.083H279.224Z" fill="url(#paint7_linear_2245_3938)"/>
<g style="mix-blend-mode:soft-light">
<path class='rocklarge'  fill-rule="evenodd" clip-rule="evenodd" d="M18.6602 168.719C21.5938 167.66 24.4867 165.869 26.9721 164.159C42.3328 153.409 59.6901 145.714 77.7808 140.827C82.2627 139.606 86.9076 138.507 90.8598 136.104C92.5711 135.046 94.2009 133.743 96.1566 133.173C98.3976 132.521 100.761 132.928 103.083 133.335C147.25 140.624 194.433 131.992 235.789 149.134C240.637 151.129 245.364 153.531 249.357 156.952C256.569 163.141 260.684 172.261 267.284 179.102C272.907 184.884 280.119 188.833 286.475 193.719C294.95 200.275 303.262 209.436 307.459 219.371C307.825 220.226 308.355 221.774 308.926 223.687L319.397 213.875C303.67 198.891 284.927 187.123 271.114 170.144C263.088 160.331 255.917 149.337 245.242 142.578C236.196 136.837 225.44 134.516 214.846 132.684C177.116 126.21 138.735 124.5 100.476 122.83C96.4826 122.667 92.4489 122.505 88.5374 123.237C85.4408 123.808 82.5071 124.988 79.6143 126.21C63.6831 132.806 48.2816 140.827 33.6949 150.07L18.7417 168.678L18.6602 168.719Z" fill="#C39ECB"/>
</g>
<g style="mix-blend-mode:soft-light">
<path class='rocklarge' fill-rule="evenodd" clip-rule="evenodd" d="M2.07812 190.462C29.1326 188.752 53.172 173.482 78.9634 165.135C123.049 150.884 170.884 157.195 216.803 163.67C223.852 164.647 231.064 165.705 237.583 168.596C245.243 172.017 251.517 177.799 257.425 183.703C261.907 188.1 285.458 218.272 298.7 233.134L303.997 228.207C299.596 225.438 295.359 221.122 291.325 216.602C279.061 202.881 265.778 189.607 254.288 175.233C251.273 171.854 248.176 168.393 244.183 166.275C240.964 164.525 237.338 163.71 233.793 162.977C193.66 154.345 152.874 148.848 111.926 146.528C109.359 146.405 106.548 146.324 104.51 147.912C102.595 149.378 101.821 151.862 100.273 153.653C95.9133 158.58 88.0903 156.3 81.5304 156.503C72.7702 156.829 65.1917 162.285 57.6539 166.723C45.2268 174.093 31.4551 179.142 17.1944 181.626C12.631 182.44 7.2527 183.58 4.23759 186.634L4.15612 186.716L3.25973 187.856C2.73004 188.589 2.36335 189.444 2.11888 190.38L2.07812 190.462Z" fill="#C39ECB"/>
</g>
<g style="mix-blend-mode:soft-light">
<path class='rocklarge' fill-rule="evenodd" clip-rule="evenodd" d="M139.43 283.786L142.934 290.3C156.746 282.157 172.188 276.741 188.038 274.583C192.968 273.891 198.224 273.566 202.788 275.683C206.21 277.271 208.899 280.162 211.385 282.971C214.441 286.392 217.374 289.893 220.226 293.517L234.895 276.823C224.831 271.326 213.218 263.997 202.462 263.793C198.876 263.712 195.372 264.445 191.909 265.218C181.437 267.458 171.007 269.657 160.535 271.896C154.872 273.118 149.045 274.38 144.401 277.841C142.363 279.388 140.571 281.465 139.47 283.826L139.43 283.786Z" fill="#C39ECB"/>
</g>
<path class='rocklarge' style="mix-blend-mode:multiply" opacity="0.5" fill-rule="evenodd" clip-rule="evenodd" d="M19.1914 210.78C27.2589 218.15 36.6302 225.846 44.6976 230.406L54.5171 235.333C65.7219 226.538 82.2235 226.742 96.8916 227.597C112.904 228.533 128.958 229.511 144.97 230.447C167.502 231.791 190.238 233.216 211.832 239.731C228.008 244.576 241.78 252.353 253.596 263.143L261.134 260.659C252.292 254.43 239.702 248.77 236.239 246.734C224.056 239.649 211.71 232.483 198.224 228.37C175.488 221.408 151.123 223.484 127.409 222.1C91.1873 219.983 55.2505 209.64 19.2322 210.74L19.1914 210.78Z" fill="url(#paint8_linear_2245_3938)"/>
<path class='rocklarge' fill-rule="evenodd" clip-rule="evenodd" d="M305.054 168.149L301.143 181.667L247.034 164.525L229.147 149.785L187.139 154.468L95.9931 128.612L84.0141 126.617L74.6428 101.779L70.161 125.11L55.0039 123.522L87.8849 131.87L183.839 156.178L223.769 160.942L246.708 167.945L300.939 185.372L315.729 189.851L305.054 168.149Z" fill="url(#paint9_linear_2245_3938)"/>
<path class='rocklarge' fill-rule="evenodd" clip-rule="evenodd" d="M70.161 125.109L87.0293 130.118L169.008 151.576L183.839 156.177L223.769 160.941L246.708 167.944L303.995 185.371L315.729 189.85L323.104 195.999L252.331 173.156L246.708 169.451L222.872 163.628L196.836 159.19L179.52 161.552L151.324 149.214L85.8069 133.619L55.0039 123.521L70.161 125.109Z" fill="#756ABA"/>
<path class='rocklarge' fill-rule="evenodd" clip-rule="evenodd" d="M83.2807 199.704L55.0853 191.887L41.1914 195.796L63.4788 200.722L83.2807 199.704Z" fill="url(#paint10_linear_2245_3938)"/>
<path class='rocklarge' fill-rule="evenodd" clip-rule="evenodd" d="M83.2807 199.704L62.2156 197.79L41.1914 195.795L63.4788 202.391L83.2807 199.704Z" fill="#7551BA"/>
<path class='rock1' fill-rule="evenodd" clip-rule="evenodd" d="M192.319 52.2056L184.944 78.224L150.067 85.5939L145.137 60.5526C145.137 60.5526 146.604 43.8585 167.261 36C167.261 36 188.897 45.3243 192.319 52.2056Z" fill="#A1A1A1"/>
<path class='rock1' fill-rule="evenodd" clip-rule="evenodd" d="M192.319 52.2056L184.944 78.224L150.067 85.5939L145.137 60.5526C145.137 60.5526 146.604 43.8585 167.261 36C167.261 36 188.897 45.3243 192.319 52.2056Z" fill="url(#paint11_linear_2245_3938)"/>
<path class='rock1' fill-rule="evenodd" clip-rule="evenodd" d="M184.944 78.2651L178.303 64.5026L145.137 60.5938L150.067 85.635C150.067 85.635 165.55 85.3907 184.944 78.2651Z" fill="url(#paint12_linear_2245_3938)"/>
<defs>
<radialGradient id="paint0_radial_2245_3938" cx="0" cy="0" r="1" gradientUnits="userSpaceOnUse" gradientTransform="translate(279 169) rotate(90) scale(169 213)">
<stop/>
<stop offset="1" stop-opacity="0"/>
</radialGradient>
<linearGradient id="paint1_linear_2245_3938" x1="0" y1="101.611" x2="348.841" y2="137.829" gradientUnits="userSpaceOnUse">
<stop stop-color="#20C7ED"/>
<stop offset="1" stop-color="#D251FD"/>
</linearGradient>
<linearGradient id="paint2_linear_2245_3938" x1="256.081" y1="322.183" x2="256.081" y2="126.617" gradientUnits="userSpaceOnUse">
<stop stop-color="#6389FD"/>
<stop offset="1" stop-color="#5234DD"/>
</linearGradient>
<linearGradient id="paint3_linear_2245_3938" x1="196.839" y1="214.118" x2="196.839" y2="169.451" gradientUnits="userSpaceOnUse">
<stop stop-color="#002D61"/>
<stop offset="1" stop-color="#052631"/>
</linearGradient>
<linearGradient id="paint4_linear_2245_3938" x1="273.925" y1="233.704" x2="0.0798033" y2="233.704" gradientUnits="userSpaceOnUse">
<stop stop-color="#001561"/>
<stop offset="1" stop-color="#051F31"/>
</linearGradient>
<linearGradient id="paint5_linear_2245_3938" x1="170.517" y1="322.183" x2="170.517" y2="295.961" gradientUnits="userSpaceOnUse">
<stop stop-color="#240061"/>
<stop offset="1" stop-color="#1B0531"/>
</linearGradient>
<linearGradient id="paint6_linear_2245_3938" x1="96.1999" y1="182.074" x2="96.1999" y2="101.779" gradientUnits="userSpaceOnUse">
<stop stop-color="#01003E"/>
<stop offset="1" stop-color="#1B0531"/>
</linearGradient>
<linearGradient id="paint7_linear_2245_3938" x1="279.224" y1="201.944" x2="122.234" y2="201.944" gradientUnits="userSpaceOnUse">
<stop stop-color="#B77CBC"/>
<stop offset="1" stop-color="#451390"/>
</linearGradient>
<linearGradient id="paint8_linear_2245_3938" x1="261.134" y1="236.921" x2="19.2322" y2="236.921" gradientUnits="userSpaceOnUse">
<stop stop-color="#967CFF"/>
<stop offset="1" stop-color="#4513B5"/>
</linearGradient>
<linearGradient id="paint9_linear_2245_3938" x1="315.729" y1="145.836" x2="55.0039" y2="145.836" gradientUnits="userSpaceOnUse">
<stop stop-color="#00203E"/>
<stop offset="1" stop-color="#051C31"/>
</linearGradient>
<linearGradient id="paint10_linear_2245_3938" x1="62.2564" y1="200.722" x2="62.2564" y2="191.887" gradientUnits="userSpaceOnUse">
<stop stop-color="#01003E"/>
<stop offset="1" stop-color="#1B0531"/>
</linearGradient>
<linearGradient id="paint11_linear_2245_3938" x1="145.137" y1="36" x2="195.271" y2="39.3113" gradientUnits="userSpaceOnUse">
<stop stop-color="#20C7ED"/>
<stop offset="1" stop-color="#D251FD"/>
</linearGradient>
<linearGradient id="paint12_linear_2245_3938" x1="184.985" y1="73.094" x2="145.177" y2="73.094" gradientUnits="userSpaceOnUse">
<stop stop-color="#090D4C"/>
<stop offset="1" stop-color="#180033"/>
</linearGradient>
</defs>
</svg>
