<svg width="291" height="278" viewBox="0 0 291 278" fill="none" xmlns="http://www.w3.org/2000/svg">
<ellipse cx="145" cy="139" rx="145" ry="139" fill="url(#paint0_radial_2245_3950)"/>
<path fill-rule="evenodd" clip-rule="evenodd" d="M216.975 83.0462L215.86 82.6438L185.561 72.4504L137.037 94.425L116.692 79.7554L93.1073 88.1671L123.453 141.041L130.256 152.979L138.792 167.874L152.225 191.224L173.725 228.728L199.241 233.162L234.897 212.256L232.088 203.55L271.691 161.228C267.27 148.145 259.913 135.305 251.995 123.869C244.387 112.908 236.266 103.285 229.771 96.1407C226.578 92.6327 223.746 89.7371 221.612 87.5452C218.748 84.6257 216.999 83.0131 216.999 83.0131L216.975 83.0462Z" fill="#A1A1A1"/>
<path fill-rule="evenodd" clip-rule="evenodd" d="M216.975 83.0462L215.86 82.6438L185.561 72.4504L137.037 94.425L116.692 79.7554L93.1073 88.1671L123.453 141.041L130.256 152.979L138.792 167.874L152.225 191.224L173.725 228.728L199.241 233.162L234.897 212.256L232.088 203.55L271.691 161.228C267.27 148.145 259.913 135.305 251.995 123.869C244.387 112.908 236.266 103.285 229.771 96.1407C226.578 92.6327 223.746 89.7371 221.612 87.5452C218.748 84.6257 216.999 83.0131 216.999 83.0131L216.975 83.0462Z" fill="url(#paint1_linear_2245_3950)"/>
<path fill-rule="evenodd" clip-rule="evenodd" d="M199.24 233.162L142.103 156.249L115.081 114.36L132.096 107.541L137.641 99.4333L155.552 110.238C155.552 110.238 195.833 97.1888 216.941 83.0227L185.502 72.46L136.978 94.4347L116.634 79.765L93.082 88.2005L173.69 228.704L199.216 233.195L199.24 233.162Z" fill="#A1A1A1"/>
<path fill-rule="evenodd" clip-rule="evenodd" d="M199.24 233.162L142.103 156.249L115.081 114.36L132.096 107.541L137.641 99.4333L155.552 110.238C155.552 110.238 195.833 97.1888 216.941 83.0227L185.502 72.46L136.978 94.4347L116.634 79.765L93.082 88.2005L173.69 228.704L199.216 233.195L199.24 233.162Z" fill="url(#paint2_linear_2245_3950)"/>
<path style="mix-blend-mode:multiply" opacity="0.2" fill-rule="evenodd" clip-rule="evenodd" d="M232.088 203.55L155.61 110.229L216.999 83.0131C216.999 83.0131 264.66 128.581 271.691 161.228L232.088 203.55Z" fill="url(#paint3_linear_2245_3950)"/>
<g style="mix-blend-mode:soft-light">
<path fill-rule="evenodd" clip-rule="evenodd" d="M229.781 96.1982C227.581 98.8314 225.381 101.465 223.238 104.089C210.829 119.001 198.348 134.013 183.973 147.056C181.097 149.653 178.073 152.245 174.914 154.538C164.357 162.147 151.751 166.821 138.792 167.875L152.226 191.224C156.412 192.937 161.398 193.82 165.27 193.045C168.582 192.419 171.368 190.158 174.001 188.038C200.01 166.656 226.052 145.299 252.004 123.927C244.396 112.966 236.275 103.343 229.781 96.1982Z" fill="#0C5A63"/>
</g>
<g style="mix-blend-mode:soft-light">
<path fill-rule="evenodd" clip-rule="evenodd" d="M216.976 83.0457L215.861 82.6433C211.392 88.5629 206.649 94.2353 201.708 99.7647C192.113 110.427 181.559 120.399 169.229 127.683C155.384 135.884 139.493 140.449 123.454 141.041L130.257 152.979C137.979 152.921 146.361 150.626 153.016 147.94C161.863 144.373 169.819 138.908 177.328 133.02C194.065 119.972 208.967 104.597 221.614 87.5447C218.749 84.6252 217 83.0126 217 83.0126L216.976 83.0457Z" fill="#0E5D67"/>
</g>
<defs>
<radialGradient id="paint0_radial_2245_3950" cx="0" cy="0" r="1" gradientUnits="userSpaceOnUse" gradientTransform="translate(145 139) rotate(90) scale(139 145)">
<stop/>
<stop offset="1" stop-opacity="0"/>
</radialGradient>
<linearGradient id="paint1_linear_2245_3950" x1="290.088" y1="135.714" x2="194.191" y2="254.842" gradientUnits="userSpaceOnUse">
<stop stop-color="#20C7ED"/>
<stop offset="1" stop-color="#D251FD"/>
</linearGradient>
<linearGradient id="paint2_linear_2245_3950" x1="276.521" y1="125.984" x2="180.066" y2="244.548" gradientUnits="userSpaceOnUse">
<stop stop-color="#1C3693"/>
<stop offset="1" stop-color="#523189"/>
</linearGradient>
<linearGradient id="paint3_linear_2245_3950" x1="187.775" y1="171.648" x2="239.797" y2="99.5019" gradientUnits="userSpaceOnUse">
<stop stop-color="#30255D"/>
<stop offset="1" stop-color="#4513B5"/>
</linearGradient>
</defs>
</svg>
