<svg width="2706" height="1850" viewBox="0 0 2706 1850" fill="none" xmlns="http://www.w3.org/2000/svg">
<style>
.orbit1{
    animation: orbit1Anim 5s infinite ease-in-out alternate;
    transform-origin: 50%; 
}   
.orbit2{
    animation: orbit1Anim 7s infinite ease-in-out alternate;
    transform-origin: 50%; 
}   
.orbit3{
    animation: orbit1Anim 9s infinite ease-in-out alternate;
    transform-origin: 50%; 
}   

@keyframes orbit1Anim{
    0%{
        transform: rotate(0deg);
    }
    100%{
        transform: rotate(5deg);
    }
}
</style>
<path class='orbit1' d="M695.127 1275.64C601.74 1243.47 511.134 1203.99 424.182 1157.56C199.755 1035.74 85.4849 896.79 102.539 766.37C119.594 635.95 265.927 529.985 514.556 467.926C763.185 405.866 1083.16 395.024 1416.92 437.348C1750.68 479.671 2057.94 569.746 2282.02 691.373C2506.1 813.001 2620.86 952.159 2603.81 1082.58C2586.76 1213 2440.54 1319.04 2191.69 1380.99C1942.84 1442.93 1623.17 1453.77 1289.36 1411.58C1075.49 1384.56 872.37 1337.78 695.127 1275.64ZM2010.06 576.498C1833.06 514.442 1630.25 467.733 1416.49 440.718C728.821 353.789 140.98 500.044 105.972 766.684C70.9641 1033.32 602.16 1321.07 1289.89 1407.83C1623.23 1449.97 1943.24 1439.14 2190.9 1377.34C2438.57 1315.54 2583.4 1210.71 2600.27 1081.82C2617.15 952.933 2503.52 815.542 2280.32 694.408C2193.58 648.08 2103.19 608.682 2010.03 576.597L2010.06 576.498Z" fill="url(#paint0_linear_2296_1501)"/>
<path class='orbit2' d="M866.564 1059.76C797.472 1035.96 730.437 1006.75 666.106 972.401C500.065 882.276 415.524 779.478 428.143 682.989C440.763 586.5 549.029 508.101 732.979 462.185C916.928 416.268 1153.66 408.243 1400.6 439.551C1647.53 470.859 1874.85 537.495 2040.64 627.477C2206.43 717.458 2291.33 820.41 2278.71 916.899C2266.09 1013.39 2157.92 1091.85 1973.8 1137.68C1789.69 1183.51 1553.18 1191.53 1306.21 1160.32C1147.97 1140.33 997.697 1105.73 866.564 1059.76ZM1839.43 542.491C1708.47 496.583 1558.43 462.029 1400.28 442.044C891.505 377.74 456.587 485.951 430.683 683.221C404.779 880.49 797.782 1093.37 1306.6 1157.55C1553.22 1188.72 1789.98 1180.7 1973.22 1134.98C2156.46 1089.25 2263.61 1011.7 2276.1 916.339C2288.58 820.983 2204.52 719.338 2039.38 629.722C1975.21 595.448 1908.33 566.301 1839.41 542.564L1839.43 542.491Z" fill="url(#paint1_linear_2296_1501)"/>
<path class='orbit3' d="M1146.56 1059.76C1077.47 1035.96 1010.44 1006.75 946.106 972.401C780.065 882.276 695.524 779.478 708.143 682.989C720.763 586.5 829.029 508.101 1012.98 462.185C1196.93 416.268 1433.66 408.243 1680.6 439.551C1927.53 470.859 2154.85 537.495 2320.64 627.477C2486.43 717.458 2571.33 820.41 2558.71 916.899C2546.09 1013.39 2437.92 1091.85 2253.8 1137.68C2069.69 1183.51 1833.18 1191.53 1586.21 1160.32C1427.97 1140.33 1277.7 1105.73 1146.56 1059.76ZM2119.43 542.491C1988.47 496.583 1838.43 462.029 1680.28 442.044C1171.5 377.74 736.587 485.951 710.683 683.221C684.779 880.49 1077.78 1093.37 1586.6 1157.55C1833.22 1188.72 2069.98 1180.7 2253.22 1134.98C2436.46 1089.25 2543.61 1011.7 2556.1 916.339C2568.58 820.983 2484.52 719.338 2319.38 629.722C2255.21 595.448 2188.33 566.301 2119.41 542.564L2119.43 542.491Z" fill="url(#paint2_linear_2296_1501)"/>
<defs>
<linearGradient id="paint0_linear_2296_1501" x1="436.84" y1="397.892" x2="2263.02" y2="1235.23" gradientUnits="userSpaceOnUse">
<stop stop-color="#222222"/>
<stop offset="0.9999" stop-opacity="0"/>
<stop offset="1" stop-color="#222222" stop-opacity="0"/>
</linearGradient>
<linearGradient id="paint1_linear_2296_1501" x1="398.582" y1="456.11" x2="2143.11" y2="1168.82" gradientUnits="userSpaceOnUse">
<stop stop-color="#222222"/>
<stop offset="0.9999" stop-opacity="0"/>
<stop offset="1" stop-color="#222222" stop-opacity="0"/>
</linearGradient>
<linearGradient id="paint2_linear_2296_1501" x1="678.582" y1="456.11" x2="2423.11" y2="1168.82" gradientUnits="userSpaceOnUse">
<stop stop-color="#222222"/>
<stop offset="0.9999" stop-opacity="0"/>
<stop offset="1" stop-color="#222222" stop-opacity="0"/>
</linearGradient>
</defs>
</svg>
