<svg width="1256" height="1256" viewBox="0 0 1256 1256" fill="none" xmlns="http://www.w3.org/2000/svg">
<path opacity="0.5" d="M626.612 1121.52C549.099 1121.34 472.718 1102.91 403.654 1067.72C334.59 1032.53 274.785 981.571 229.083 918.968C183.381 856.365 153.067 783.879 140.595 707.38C128.123 630.881 133.845 552.52 157.296 478.644C180.748 404.768 221.27 337.454 275.581 282.152C329.892 226.851 396.466 185.118 469.909 160.333C543.352 135.549 621.6 128.409 698.316 139.492C775.032 150.575 848.059 179.57 911.483 224.128C991.339 280.261 1052.76 358.809 1087.97 449.843C1123.19 540.877 1130.62 640.307 1109.32 735.563C1088.03 830.819 1038.97 917.623 968.341 984.999C897.715 1052.37 808.696 1097.3 712.539 1114.09C684.161 1119.01 655.413 1121.5 626.612 1121.52ZM628.359 145.778C513.266 145.771 401.97 186.952 314.604 261.872C227.238 336.792 169.571 440.503 152.034 554.247C134.496 667.99 158.247 784.253 218.99 882.007C279.733 979.761 373.456 1052.55 483.207 1087.21C592.957 1121.86 711.488 1116.1 817.358 1070.96C923.228 1025.81 1009.45 944.275 1060.42 841.089C1111.39 737.903 1123.74 619.883 1095.25 508.379C1066.76 396.874 999.299 299.247 905.075 233.158C824.056 176.225 727.383 145.8 628.359 146.069V145.778Z" fill="url(#paint0_linear_2733_1389)"/>
<path opacity="0.4" d="M626.903 1156.9C543.743 1156.82 461.774 1137.14 387.641 1099.46C313.508 1061.78 249.298 1007.16 200.216 940.034C151.133 872.907 118.561 795.159 105.139 713.094C91.7163 631.029 97.8222 546.956 122.961 467.691C148.1 388.426 191.565 316.2 249.831 256.868C308.098 197.537 379.526 152.77 458.326 126.197C537.125 99.6237 621.078 91.9922 703.378 103.921C785.677 115.85 864.008 147.003 932.019 194.856C1024.12 259.539 1093.2 351.904 1129.21 458.529C1165.22 565.155 1166.29 680.486 1132.27 787.763C1098.25 895.039 1030.9 988.673 940.019 1055.06C849.136 1121.44 739.451 1157.12 626.903 1156.9ZM628.359 110.389C504.735 110.294 385.16 154.447 291.266 234.859C197.371 315.271 135.36 426.632 116.45 548.794C97.5392 670.957 122.979 795.854 188.167 900.889C253.355 1005.92 353.985 1084.16 471.852 1121.44C589.72 1158.73 717.039 1152.59 830.778 1104.16C944.516 1055.72 1037.16 968.174 1091.95 857.361C1146.74 746.548 1160.06 619.785 1129.5 500.004C1098.93 380.224 1026.51 275.338 925.319 204.322C838.41 143.094 734.672 110.281 628.359 110.389Z" fill="url(#paint1_linear_2733_1389)"/>
<path opacity="0.2" d="M626.902 1201.03C498.567 1200.79 374.024 1157.5 273.216 1078.08C172.408 998.666 101.166 887.721 70.8986 763.013C40.6306 638.305 53.0875 507.048 106.275 390.26C159.462 273.471 250.303 177.908 364.251 118.871C478.199 59.8344 608.662 40.7401 734.751 64.6455C860.839 88.551 975.259 154.073 1059.69 250.721C1144.12 347.368 1193.67 469.549 1200.41 597.7C1207.16 725.851 1170.7 852.558 1096.88 957.532C1044.09 1033.11 973.748 1094.76 891.887 1137.17C810.027 1179.58 719.096 1201.5 626.902 1201.03ZM628.504 66.2617C494.38 66.175 364.654 114.092 262.793 201.343C160.932 288.595 93.6637 409.419 73.1564 541.959C52.6491 674.499 80.2574 810.002 150.987 923.954C221.716 1037.91 330.895 1122.78 458.774 1163.23C586.653 1203.68 724.787 1197.03 848.186 1144.48C971.585 1091.93 1072.1 996.948 1131.55 876.725C1191 756.502 1205.46 618.973 1172.3 489.018C1139.15 359.062 1060.58 245.262 950.805 168.204C856.387 101.939 743.857 66.3457 628.504 66.2617Z" fill="url(#paint2_linear_2733_1389)"/>
<path opacity="0.1" d="M626.757 1255.93C486.168 1255.66 349.738 1208.21 239.313 1121.2C128.888 1034.19 50.8541 912.648 17.706 776.03C-15.442 639.412 -1.78702 495.622 56.485 367.685C114.757 239.748 214.275 135.063 339.105 70.3918C463.935 5.72088 606.856 -15.1952 744.984 10.9924C883.112 37.1801 1008.46 108.957 1100.95 214.83C1193.44 320.703 1247.73 454.549 1255.13 594.936C1262.53 735.323 1222.6 874.131 1141.74 989.135C1083.85 1071.91 1006.76 1139.43 917.075 1185.89C827.385 1232.36 727.768 1256.39 626.757 1255.93ZM628.941 11.0678C592.96 11.0732 557.048 14.1917 521.604 20.3882C365.749 47.8513 226.505 134.401 132.895 261.997C39.2851 389.594 -1.46812 548.392 19.1296 705.295C39.7274 862.198 120.087 1005.1 243.459 1104.21C366.83 1203.33 523.696 1251.01 681.359 1237.32C839.023 1223.63 985.321 1149.62 1089.76 1030.73C1194.2 911.83 1248.72 757.216 1241.96 599.112C1235.2 441.007 1167.69 291.61 1053.48 182.059C939.277 72.5076 787.198 11.2551 628.941 11.0678Z" fill="url(#paint3_linear_2733_1389)"/>
<path d="M705.802 1073.84C952.302 1030.78 1117.21 796.065 1074.14 549.581C1031.06 303.097 796.314 138.183 549.813 181.236C303.313 224.29 138.404 459.006 181.479 705.491C224.554 951.975 459.301 1116.89 705.802 1073.84Z" fill="url(#paint4_linear_2733_1389)"/>
<path opacity="0.2" d="M918.329 746.075C975.42 682.724 1034.11 616.17 1072.27 541.024C1067.93 518.704 1061.89 496.747 1054.21 475.344L1008.33 533.597C998.307 543.507 992.335 556.8 991.586 570.879C991.586 575.976 993.625 580.927 994.208 586.17C997.412 614.568 966.536 633.646 940.03 644.423C913.523 655.2 881.774 669.472 879.298 698.016C878.57 707.773 881.628 717.385 881.046 727.142C879.444 754.084 851.918 770.832 827.741 782.92C830.363 771.415 817.255 761.075 805.604 762.24C799.677 763.288 794.029 765.549 789.017 768.882C784.005 772.215 779.735 776.548 776.476 781.609C761.912 799.958 752.883 821.949 737.008 838.988C721.133 856.027 694.918 867.095 674.528 855.881C671.672 853.816 668.464 852.287 665.062 851.367C662.027 851.137 658.98 851.636 656.177 852.823C621.3 864.213 591.084 886.657 570.104 916.756C550.588 944.717 534.714 982.145 501.217 987.824L485.05 942.824C453.268 969.009 418.275 991.031 380.918 1008.36C403.986 1023.26 428.359 1036.03 453.738 1046.51C477.913 1040.29 501.615 1032.36 524.665 1022.78C541.438 1016.88 556.461 1006.86 568.357 993.65C576.001 982.187 582.675 970.106 588.309 957.533C597.115 941.78 609.486 928.307 624.432 918.192C639.378 908.077 656.485 901.6 674.382 899.28C703.51 895.639 735.115 903.503 762.932 893.018C778.746 886.104 793.085 876.216 805.167 863.891C845.51 826.901 881.919 786.415 918.329 746.075Z" fill="white"/>
<path opacity="0.2" d="M1017.51 757.873C1004.51 766.41 991.099 774.284 977.31 781.465C963.554 787.542 950.179 794.448 937.259 802.145C920.656 813.65 908.131 837.825 922.695 856.029C926.773 860.835 929.249 859.816 923.86 863.456C920.477 865.548 916.619 866.75 912.646 866.951C900.109 867.361 887.558 866.972 875.071 865.786C863.485 864.776 851.852 867.088 841.534 872.453C831.216 877.818 822.641 886.014 816.815 896.078C810.844 906.563 806.911 918.214 801.377 928.991C792.859 944.7 780.913 958.289 766.423 968.749C742.429 986.185 716.534 1000.84 689.234 1012.44C658.488 1026.09 626.92 1037.81 594.714 1047.54C571.12 1054.82 546.944 1060.93 523.496 1068.65C534.565 1071.27 545.779 1073.6 557.139 1075.35C596.852 1066.66 635.811 1054.82 673.651 1039.96C701.48 1029.48 728.373 1016.67 754.044 1001.66C778.581 988.841 800.008 970.796 816.815 948.797C829.922 929.574 835.894 894.33 860.507 887.486C879.44 882.389 900.121 890.107 919.491 887.486C934.055 885.738 961.726 874.524 954.153 855.447C952.114 850.204 945.415 847.582 943.522 842.34C940.755 834.621 947.017 826.466 952.697 822.242C967.481 813.444 982.972 805.893 999.01 799.669C1020.28 788.58 1040.64 775.821 1059.89 761.514C1064.66 746.154 1068.59 730.549 1071.68 714.766C1054.43 730.117 1036.34 744.508 1017.51 757.873Z" fill="white"/>
<path opacity="0.2" d="M994.062 361.314C980.518 387.965 965.808 414.179 950.37 439.519C911.271 501.274 865.402 558.473 813.614 610.055C708.097 715.052 579.609 794.076 438.3 840.882C378.124 860.056 316.586 874.661 254.211 884.572C260.134 893.213 266.396 901.659 272.999 909.912C326.718 903.355 379.684 891.65 431.164 874.96C651.79 806.17 841.755 663.047 968.721 469.956C985.324 444.908 1000.76 418.985 1015.03 392.626C1008.19 380.975 1001.34 371.363 994.062 361.314Z" fill="white"/>
<path opacity="0.2" d="M542.578 468.354C636.807 393.935 728.851 308.158 781.427 202.283C761.949 195.206 741.995 189.512 721.715 185.244C691.136 215.08 658.742 242.998 624.719 268.837C581.027 301.459 532.966 329.857 497.721 371.508C483.157 388.693 470.923 408.062 456.942 425.829C410.012 482.089 349.581 525.531 281.3 552.092C247.167 566.115 212.136 577.84 176.439 587.19C174.182 613.452 174.182 639.86 176.439 666.122H179.206C314.36 633.646 433.639 554.131 542.578 468.354Z" fill="white"/>
<path opacity="0.2" d="M647.001 175.341C629.574 174.563 612.116 174.806 594.716 176.069C568.854 206.031 541.487 234.661 512.721 261.847C442.912 329.418 364.575 387.58 279.697 434.858C255.332 448.133 230.297 460.139 204.693 470.829L201.634 472.14C195.942 487.35 191.081 502.859 187.07 518.596C207.751 511.897 228.286 504.033 248.239 495.587C298.938 472.284 347.189 443.989 392.277 411.12C480.384 348.941 560.42 276.051 630.544 194.127C636.224 187.865 641.758 181.603 647.001 175.341Z" fill="white"/>
<path opacity="0.2" d="M886.142 279.032C888.764 273.644 891.531 267.965 894.152 262.285L888.181 257.916C880.316 252.382 872.306 247.139 864.15 242.188C860.655 250.489 857.014 258.79 853.082 266.945C839.467 294.909 824.044 321.957 806.914 347.917C771.075 402.202 728.663 451.851 680.644 495.734C576.883 588.043 455.505 658.388 323.826 702.532C286.237 715.871 247.47 725.623 208.043 731.658C201.052 732.726 194.061 733.6 187.07 734.279C188.672 741.124 190.42 747.823 192.459 754.668C234.151 749.877 275.399 741.793 315.816 730.493C522.204 673.495 703.303 548.492 829.78 375.732C850.998 344.979 869.84 312.652 886.142 279.032Z" fill="white"/>
<g opacity="0.2">
<path d="M636.223 1080.88C707.569 1079.66 777.614 1061.58 840.639 1028.12C903.663 994.656 957.881 946.766 998.866 888.356C1009.52 873.08 1019.25 857.178 1027.99 840.735C991.887 875.595 952.913 907.358 911.482 935.687C824.098 991.61 715.596 1018.7 636.223 1080.88Z" fill="black"/>
<path d="M781.864 858.796C771.168 868.061 758.948 875.403 745.745 880.495C729.859 884.291 713.581 886.198 697.247 886.175C675.798 887.072 654.877 893.109 636.249 903.779C617.62 914.449 601.827 929.439 590.202 947.486C585.258 958.084 579.462 968.263 572.871 977.923C567.709 984.227 561.502 989.597 554.52 993.797C515.198 1019.14 462.184 1026.71 412.812 1026.56C426.211 1033.85 439.756 1040.25 453.446 1046.08C493.352 1043.46 535.004 1033.55 573.308 1028.31C618.456 1022.05 665.206 1015.35 704.384 991.613C722.369 980.681 738.171 966.509 750.989 949.816C763.95 932.777 773.562 913.262 786.67 896.515C804.536 876.104 824.339 857.473 845.8 840.883C896.104 794.683 942.299 744.202 983.867 690.008C1018.14 650.598 1048.52 607.972 1074.6 562.725C1074.6 561.851 1075.47 560.832 1076.06 559.958C1073.7 544.513 1070.54 529.201 1066.59 514.084C998.124 648.486 900.917 766.174 781.864 858.796Z" fill="black"/>
<path d="M596.756 977.048C592.678 983.31 588.746 991.611 593.552 997.437C596.499 1000.11 600.35 1001.57 604.329 1001.51C629.891 1002.1 655.109 995.541 677.149 982.582C701.471 970.058 725.939 953.456 735.405 927.242C736.459 924.174 736.459 920.843 735.405 917.776C734.337 915.582 732.763 913.672 730.814 912.204C728.865 910.736 726.595 909.75 724.191 909.329C669.867 892.727 624.136 935.252 596.756 977.048Z" fill="url(#paint5_linear_2733_1389)"/>
<path d="M623.404 969.33C622.009 970.771 620.926 972.486 620.225 974.365C619.523 976.245 619.217 978.249 619.326 980.252C619.833 982.18 620.886 983.921 622.358 985.265C623.831 986.608 625.661 987.497 627.628 987.825C631.539 988.357 635.52 988.009 639.279 986.806C664.591 980.308 687.496 966.657 705.254 947.485C706.804 945.997 708.042 944.214 708.895 942.242C710.934 936.271 705.982 930.154 700.448 927.679C669.572 911.077 639.279 947.922 623.404 969.33Z" fill="black"/>
<path d="M438.446 338.741C502.045 292.45 558.818 237.445 607.097 175.342C516.502 179.415 429.213 210.571 356.515 264.78C283.817 318.989 229.053 393.759 199.305 479.422C283.046 439.737 363.077 392.657 438.446 338.741Z" fill="black"/>
<path d="M612.776 728.162C615.398 720.443 602.436 718.259 596.173 712.87C593.317 709.558 591.884 705.254 592.184 700.891C592.484 696.528 594.493 692.459 597.775 689.569C604.561 683.974 612.697 680.258 621.369 678.793C667.093 666.046 710.605 646.403 750.406 620.54C771.581 607.669 790.479 591.381 806.332 572.335C824.863 545.076 839.29 515.243 849.15 483.791C873.761 419.455 903.722 357.295 938.718 297.964C933.912 293.304 928.96 288.789 924.154 284.42L814.633 489.034C805.294 508.351 793.761 526.53 780.262 543.209C764.389 560.35 746.086 575.07 725.938 586.899C656.047 630.659 578.599 660.985 497.575 676.317C483.661 677.09 470.484 682.825 460.437 692.482C451.698 703.259 456.65 724.23 470.486 724.23C474.564 724.23 479.079 722.337 482.574 724.23C488.545 727.871 484.759 737.191 479.661 741.997C472.652 748.137 464.358 752.631 455.387 755.151C446.416 757.671 436.995 758.153 427.813 756.56C414.123 754.23 401.453 747.385 387.908 744.618C358.78 738.939 330.526 752.191 303 762.094C270.737 773.657 237.1 780.951 202.945 783.794C211.262 806.301 221.342 828.116 233.093 849.037C366.645 832.435 506.459 810.736 612.776 728.162Z" fill="black"/>
<path d="M770.358 762.968C794.244 744.487 817.004 724.598 838.518 703.404C905.658 636.122 953.719 552.674 1001.05 470.392C1010.81 453.208 1020.71 435.732 1028.87 417.528C1024.79 409.809 1020.57 402.09 1015.91 394.518C985.021 454.417 949.981 512.082 911.047 567.092C885.406 604.124 857.075 639.219 826.284 672.093C753.554 747.055 667.007 807.239 571.414 849.328C485.634 886.924 395.816 914.533 303.728 931.61L293.242 933.795C305.589 947.229 318.719 959.921 332.565 971.805C492.242 935.703 641.824 864.349 770.358 762.968Z" fill="black"/>
<path d="M602.58 460.782C615.882 446.032 630.947 432.972 647.437 421.898C668.143 412.042 689.337 403.244 710.936 395.539C733.823 384.921 753.808 368.934 769.192 348.937C766.165 345.685 762.061 343.642 757.641 343.187C753.222 342.732 748.788 343.895 745.161 346.461C738.091 351.913 730.59 356.783 722.733 361.024C714.431 364.082 702.489 361.024 701.615 351.704C701.625 347.496 703.006 343.406 705.547 340.053C726.564 308.675 749.676 278.752 774.726 250.489C784.763 237.874 793.223 224.083 799.922 209.421C787.105 204.178 774.289 199.518 761.182 194.857C760.162 197.042 759.288 199.081 758.269 201.12C732.054 256.897 666.079 362.626 595.735 361.315C584.421 360.055 573.028 359.665 561.655 360.15C555.996 360.514 550.6 362.672 546.252 366.313C541.904 369.953 538.831 374.886 537.479 380.393C536.022 392.335 546.072 401.947 554.373 410.539C594.715 451.899 473.252 508.841 441.939 516.705C422.32 520.029 403.126 525.499 384.703 533.016C360.672 545.395 344.506 568.55 325.136 587.337C317.649 594.652 309.562 601.326 300.96 607.288C277.164 624.022 250.124 635.581 221.586 641.221C206.02 644.084 190.111 644.575 174.398 642.677C174.398 652.143 175.418 661.609 176.292 670.93C236.15 678.94 314.941 648.648 354.992 630.59C447.035 589.288 530.899 531.77 602.58 460.782Z" fill="black"/>
</g>
<path opacity="0.1" d="M940.9 300.439C1058.72 424.081 1010.81 759.618 786.813 897.532C548.546 1044.91 235.857 884.425 179.203 690.588C189.28 762.134 216.323 830.232 258.075 889.2C299.827 948.169 355.078 996.297 419.216 1029.57C483.355 1062.84 554.521 1080.29 626.776 1080.46C699.032 1080.64 770.281 1063.53 834.578 1030.56C898.875 997.599 954.355 949.736 996.389 890.968C1038.42 832.201 1065.79 764.233 1076.21 692.736C1086.63 621.239 1079.8 548.288 1056.29 479.969C1032.77 411.65 993.26 349.944 941.046 300.002L940.9 300.439Z" fill="black"/>
<path opacity="0.1" d="M367.225 998.601C447.881 1055.17 544.781 1083.92 643.241 1080.48C741.702 1077.04 836.358 1041.6 912.867 979.529C989.377 917.462 1043.57 832.15 1067.23 736.519C1090.9 640.887 1082.75 540.149 1044.01 449.566C1051.15 467.042 1142.47 687.821 912.938 913.697C673.943 1148.75 367.079 998.746 312.027 953.309C329.202 969.84 347.659 984.984 367.225 998.601Z" fill="black"/>
<path opacity="0.1" d="M412.376 388.694C403.823 377.628 392.184 369.344 378.927 364.887C365.67 360.43 351.389 360.001 337.888 363.653C324.387 367.305 312.271 374.875 303.068 385.407C293.866 395.939 287.991 408.961 286.183 422.829C284.376 436.698 286.718 450.79 292.914 463.329C299.11 475.867 308.882 486.289 320.996 493.279C333.11 500.268 347.024 503.513 360.981 502.602C374.937 501.691 388.311 496.666 399.414 488.161C406.813 482.493 413.02 475.42 417.678 467.348C422.336 459.275 425.354 450.362 426.559 441.12C427.763 431.878 427.13 422.489 424.696 413.493C422.262 404.496 418.076 396.069 412.376 388.694ZM285.524 566.948C266.41 581.637 252.081 601.663 244.348 624.495C236.616 647.326 235.826 671.938 242.079 695.218C248.333 718.498 261.349 739.401 279.482 755.285C297.615 771.169 320.051 781.32 343.952 784.455C367.854 787.59 392.149 783.569 413.765 772.899C435.381 762.229 453.348 745.389 465.395 724.51C477.442 703.63 483.027 679.648 481.444 655.595C479.862 631.541 471.183 608.497 456.505 589.376C446.766 576.657 434.612 565.985 420.741 557.971C406.869 549.958 391.553 544.761 375.669 542.677C359.785 540.594 343.647 541.665 328.178 545.83C312.709 549.995 298.214 557.172 285.524 566.948ZM492.624 468.355C483.878 475.081 477.323 484.249 473.789 494.7C470.254 505.151 469.898 516.416 472.766 527.069C475.635 537.722 481.598 547.286 489.902 554.55C498.206 561.814 508.478 566.452 519.418 567.878C530.359 569.304 541.477 567.454 551.366 562.562C561.255 557.669 569.47 549.954 574.974 540.392C580.477 530.83 583.022 519.85 582.284 508.842C581.547 497.834 577.562 487.292 570.832 478.549C561.812 466.829 548.505 459.172 533.839 457.26C519.173 455.348 504.348 459.339 492.624 468.355Z" fill="white"/>
<circle cx="627.5" cy="627.5" r="572.5" fill="url(#paint6_linear_2733_1389)"/>
<defs>
<linearGradient id="paint0_linear_2733_1389" x1="627.687" y1="134.42" x2="627.687" y2="1121.52" gradientUnits="userSpaceOnUse">
<stop stop-color="#2AC0EE"/>
<stop offset="1" stop-color="#2AC0EE" stop-opacity="0"/>
</linearGradient>
<linearGradient id="paint1_linear_2733_1389" x1="627.613" y1="98.4473" x2="627.613" y2="1156.9" gradientUnits="userSpaceOnUse">
<stop stop-color="#2AC0EE"/>
<stop offset="1" stop-color="#2AC0EE" stop-opacity="0"/>
</linearGradient>
<linearGradient id="paint2_linear_2733_1389" x1="627.966" y1="54.6113" x2="627.966" y2="1201.04" gradientUnits="userSpaceOnUse">
<stop stop-color="#2AC0EE"/>
<stop offset="1" stop-color="#2AC0EE" stop-opacity="0"/>
</linearGradient>
<linearGradient id="paint3_linear_2733_1389" x1="628" y1="0" x2="628" y2="1255.94" gradientUnits="userSpaceOnUse">
<stop stop-color="#2AC0EE"/>
<stop offset="1" stop-color="#2AC0EE" stop-opacity="0"/>
</linearGradient>
<linearGradient id="paint4_linear_2733_1389" x1="549.813" y1="181.237" x2="705.715" y2="1073.85" gradientUnits="userSpaceOnUse">
<stop stop-color="#2AC0EE"/>
<stop offset="1" stop-color="#2AC0EE" stop-opacity="0"/>
</linearGradient>
<linearGradient id="paint5_linear_2733_1389" x1="663.768" y1="905.646" x2="663.768" y2="1001.55" gradientUnits="userSpaceOnUse">
<stop stop-color="#2AC0EE"/>
<stop offset="1" stop-color="#2AC0EE" stop-opacity="0"/>
</linearGradient>
<linearGradient id="paint6_linear_2733_1389" x1="644.5" y1="-207.5" x2="644.5" y2="1322.5" gradientUnits="userSpaceOnUse">
<stop offset="0.184656" stop-opacity="0"/>
<stop offset="1"/>
</linearGradient>
</defs>
</svg>
