<svg width="1920" height="1546" viewBox="0 0 1920 1546" fill="none" xmlns="http://www.w3.org/2000/svg">
<g opacity="0.4">
<path opacity="0.5" d="M1427.18 1066.18C1493.48 1039.29 1557.81 1006.27 1619.54 967.45C1778.88 865.586 1860 749.4 1847.89 640.345C1835.78 531.291 1731.89 442.684 1555.38 390.79C1378.86 338.897 1151.69 329.829 914.732 365.218C677.775 400.606 459.635 475.923 300.546 577.625C141.457 679.326 59.9821 795.687 72.0906 904.742C84.1991 1013.8 188.004 1102.47 364.679 1154.27C541.354 1206.06 768.309 1215.13 1005.3 1179.85C1157.14 1157.26 1301.35 1118.14 1427.18 1066.18ZM493.625 481.57C619.294 429.681 763.275 390.625 915.038 368.036C1403.26 295.351 1820.6 417.648 1845.46 640.608C1870.31 863.567 1493.18 1104.17 1004.92 1176.72C768.267 1211.95 541.073 1202.9 365.238 1151.22C189.403 1099.54 86.5823 1011.88 74.6006 904.108C62.6189 796.334 143.291 681.451 301.757 580.162C363.336 541.424 427.507 508.481 493.65 481.652L493.625 481.57Z" fill="url(#paint0_linear_2733_1417)"/>
<path d="M1257 1011.99C1309.11 996.187 1360.05 975.563 1409.31 950.319C1536.55 883.886 1604.78 800.899 1601.36 716.677C1597.94 632.455 1523.27 557.28 1391.13 504.959C1258.99 452.637 1085.83 429.417 902.823 439.474C719.813 449.531 549.047 491.457 422.006 557.783C294.964 624.109 226.462 707.205 229.881 791.427C233.299 875.649 307.896 950.868 440.165 1003.13C572.434 1055.39 745.421 1078.59 928.451 1068.62C1045.72 1062.24 1158.04 1042.68 1257 1011.99ZM574.725 498.21C673.557 467.561 785.698 448.033 902.906 441.65C1279.96 421.103 1592.41 544.505 1599.48 716.703C1606.55 888.9 1305.41 1045.76 928.332 1066.2C745.559 1076.16 572.389 1052.94 440.756 1000.84C309.123 948.727 235.223 874.357 231.833 791.123C228.443 707.888 296.252 625.865 422.795 559.809C471.936 534.616 522.748 514.038 574.74 498.275L574.725 498.21Z" fill="url(#paint1_linear_2733_1417)" fill-opacity="0.5"/>
</g>
<g filter="url(#filter0_f_2733_1417)">
<circle cx="117.5" cy="117.5" r="117.5" transform="matrix(-1 0 0 1 1584.95 771)" fill="#C35CFC"/>
</g>
<g opacity="0.7">
<path opacity="0.5" d="M1472.96 965.342C1489.3 963.761 1504.72 957.021 1516.98 946.095C1529.23 935.17 1537.7 920.627 1541.14 904.571C1543.42 894.601 1543.7 884.275 1541.96 874.196C1540.22 864.116 1536.49 854.484 1530.99 845.859C1525.49 837.235 1518.33 829.789 1509.92 823.957C1501.52 818.124 1492.04 814.021 1482.04 811.885C1472.03 809.749 1461.7 809.624 1451.65 811.516C1441.6 813.409 1432.02 817.281 1423.48 822.908C1414.94 828.535 1407.6 835.804 1401.89 844.293C1396.19 852.782 1392.22 862.321 1390.24 872.355C1387.74 884.201 1388.06 896.467 1391.16 908.168C1394.27 919.869 1400.08 930.677 1408.13 939.722C1416.18 948.768 1426.23 955.798 1437.49 960.248C1448.75 964.698 1460.9 966.442 1472.96 965.342ZM1458.84 813.377C1466.47 812.7 1474.15 813.158 1481.64 814.734C1496.2 817.869 1509.51 825.243 1519.88 835.927C1530.26 846.61 1537.24 860.125 1539.95 874.769C1542.66 889.413 1540.98 904.532 1535.12 918.222C1529.25 931.911 1519.46 943.559 1506.99 951.697C1494.48 959.754 1479.86 963.93 1464.98 963.7C1450.09 963.469 1435.61 958.843 1423.35 950.402C1411.09 941.962 1401.6 930.084 1396.07 916.264C1390.55 902.444 1389.23 887.298 1392.29 872.732C1395.64 857.042 1403.91 842.827 1415.88 832.153C1427.86 821.478 1442.93 814.899 1458.9 813.371L1458.84 813.377Z" fill="url(#paint2_linear_2733_1417)"/>
<path opacity="0.4" d="M1473.34 970.865C1485.85 969.714 1497.93 965.732 1508.66 959.222C1519.4 952.711 1528.52 943.843 1535.32 933.288C1542.12 922.733 1546.43 910.768 1547.93 898.3C1549.42 885.832 1548.05 873.187 1543.94 861.324C1539.82 849.461 1533.06 838.691 1524.16 829.829C1515.26 820.967 1504.46 814.245 1492.59 810.174C1480.71 806.103 1468.06 804.788 1455.59 806.329C1443.13 807.871 1431.18 812.228 1420.65 819.071C1405.15 829.147 1393.47 844.123 1387.47 861.612C1381.48 879.1 1381.51 898.094 1387.56 915.562C1393.62 933.031 1405.35 947.969 1420.89 957.993C1436.42 968.017 1454.87 972.551 1473.28 970.87L1473.34 970.865ZM1458.22 808.068C1466.4 807.316 1474.65 807.828 1482.68 809.586C1498.33 812.926 1512.65 820.835 1523.81 832.311C1534.97 843.787 1542.48 858.316 1545.38 874.059C1548.29 889.802 1546.46 906.052 1540.12 920.755C1533.79 935.457 1523.24 947.951 1509.8 956.656C1496.37 965.361 1480.65 969.886 1464.64 969.659C1448.64 969.432 1433.06 964.462 1419.87 955.379C1406.69 946.296 1396.5 933.508 1390.58 918.632C1384.67 903.755 1383.3 887.459 1386.65 871.805C1390.31 854.999 1399.22 839.793 1412.09 828.381C1424.96 816.969 1441.12 809.944 1458.24 808.318L1458.22 808.068Z" fill="url(#paint3_linear_2733_1417)"/>
<path opacity="0.2" d="M1473.92 977.758C1496.45 975.694 1517.38 965.193 1532.5 948.357C1547.62 931.522 1555.82 909.596 1555.46 886.97C1555.1 864.344 1546.2 842.69 1530.55 826.344C1514.9 809.998 1493.66 800.168 1471.07 798.822C1448.48 797.476 1426.22 804.713 1408.74 819.085C1391.26 833.457 1379.85 853.901 1376.81 876.324C1373.77 898.747 1379.31 921.492 1392.32 940.004C1405.33 958.516 1424.86 971.428 1446.99 976.154C1455.84 978.04 1464.91 978.581 1473.92 977.758ZM1457.5 800.999C1475.98 799.236 1494.55 803.36 1510.55 812.783C1526.54 822.206 1539.15 836.445 1546.57 853.464C1553.99 870.484 1555.84 889.412 1551.85 907.544C1547.86 925.677 1538.25 942.084 1524.37 954.422C1510.5 966.76 1493.08 974.396 1474.61 976.24C1456.13 978.083 1437.55 974.039 1421.51 964.686C1405.47 955.332 1392.8 941.149 1385.31 924.162C1377.82 907.175 1375.89 888.255 1379.8 870.105C1383.73 851.828 1393.38 835.278 1407.35 822.853C1421.33 810.429 1438.89 802.774 1457.5 800.999Z" fill="url(#paint4_linear_2733_1417)"/>
<path opacity="0.1" d="M1474.69 986.084C1495.57 984.115 1515.27 975.529 1530.92 961.579C1546.58 947.63 1557.37 929.045 1561.72 908.534C1566.55 883.302 1561.3 857.182 1547.1 835.773C1532.91 814.363 1510.88 799.368 1485.76 794.002C1460.64 788.636 1434.41 793.326 1412.7 807.067C1391 820.808 1375.54 842.506 1369.64 867.51C1364.2 892.981 1369.09 919.571 1383.25 941.434C1397.41 963.296 1419.67 978.64 1445.14 984.092C1454.84 986.24 1464.8 986.912 1474.69 986.084ZM1456.66 791.98C1466.42 791.102 1476.24 791.701 1485.82 793.757C1504.48 797.734 1521.55 807.157 1534.85 820.834C1548.16 834.511 1557.11 851.828 1560.58 870.593C1564.04 889.358 1561.86 908.729 1554.32 926.255C1546.77 943.781 1534.19 958.675 1518.18 969.053C1502.16 979.431 1483.43 984.826 1464.35 984.556C1445.27 984.286 1426.7 978.363 1410.98 967.537C1395.27 956.71 1383.12 941.466 1376.07 923.734C1369.02 906.001 1367.39 886.576 1371.38 867.916C1375.77 847.913 1386.39 829.819 1401.73 816.249C1417.06 802.679 1436.32 794.333 1456.71 792.419L1456.66 791.98Z" fill="url(#paint5_linear_2733_1417)"/>
<path d="M1445.05 956.308C1407.59 944.927 1386.46 905.343 1397.84 867.894C1409.22 830.446 1448.81 809.314 1486.26 820.695C1523.71 832.076 1544.84 871.661 1533.46 909.109C1522.08 946.558 1482.5 967.689 1445.05 956.308Z" fill="url(#paint6_linear_2733_1417)"/>
<path opacity="0.3" d="M1445.05 956.308C1407.59 944.927 1386.46 905.343 1397.84 867.894C1409.22 830.446 1448.81 809.314 1486.26 820.695C1523.71 832.076 1544.84 871.661 1533.46 909.109C1522.08 946.558 1482.5 967.689 1445.05 956.308Z" fill="black"/>
<path d="M1477.92 932.608C1478.76 934.774 1480.28 936.607 1482.26 937.826C1483.86 938.249 1485.57 938.019 1487.01 937.188C1488.44 936.356 1489.5 934.99 1489.93 933.387C1490.39 930.922 1489.9 928.375 1488.57 926.251C1487.08 924.184 1485.97 921.872 1485.28 919.42C1485.37 917.426 1485.9 915.476 1486.83 913.709C1487.75 911.942 1489.06 910.401 1490.65 909.196C1491.62 907.929 1493.03 907.075 1494.6 906.808C1496.79 906.605 1498.22 909.061 1499.39 910.847C1500.83 912.974 1502.49 914.937 1504.36 916.701C1505.45 917.951 1506.9 918.832 1508.51 919.221C1510.33 919.374 1512.17 918.984 1513.77 918.101C1517.75 916.43 1521.46 914.17 1524.77 911.395L1529.86 907.07C1530.86 906.22 1534.68 903.844 1534.94 902.62L1535 903.246C1532.61 914.539 1527.49 925.075 1520.09 933.938C1512.69 942.8 1503.24 949.719 1492.56 954.092C1481.87 958.465 1470.28 960.16 1458.79 959.028C1447.3 957.897 1436.27 953.974 1426.64 947.6C1440.27 940.019 1461.79 927.538 1467.95 925.198C1474.11 922.857 1475.79 928.701 1477.92 932.608ZM1456.67 891.51C1465.23 885.726 1475.53 884.454 1484.05 878.989C1489.5 874.634 1493.79 869.009 1496.55 862.608C1498.38 859.154 1502.84 848.004 1508.06 850.488C1507.86 852.401 1505.78 856.51 1507.52 858.243C1509.26 859.976 1511.65 856.47 1512.57 855.5C1513.49 854.531 1522 845.53 1521.92 845.411C1523.55 847.513 1525.04 849.716 1526.39 852.006C1517.9 861.952 1504.23 877.936 1501.25 881.181C1496.76 885.955 1498.79 892.778 1504.13 887.734C1507.44 884.585 1521.68 872.653 1532.18 864.036C1533.97 868.84 1535.22 873.829 1535.9 878.911C1527.43 886.961 1517.62 897.028 1506.29 900.102C1504.37 900.723 1502.33 900.886 1500.34 900.577C1498.35 900.268 1496.46 899.497 1494.82 898.325C1492.7 896.627 1491.33 894.039 1488.85 892.563C1487.24 892.045 1485.53 891.858 1483.84 892.015C1482.15 892.172 1480.51 892.669 1479.02 893.476C1472.59 896.347 1466.25 899.399 1460.13 902.872C1457.02 904.273 1454.09 906.028 1451.39 908.104C1450.56 908.926 1450.03 909.999 1449.87 911.156C1449.72 912.313 1449.95 913.488 1450.53 914.499C1450.59 915.126 1452.97 915.599 1453.35 915.564C1454.34 915.422 1455.29 915.098 1456.16 914.608C1458.84 913.538 1461.55 912.719 1464.24 911.774C1466.93 910.83 1468.91 910.393 1470.57 911.944C1470.43 913.852 1468.73 915.273 1467.13 916.432C1461.49 920.478 1455.47 923.977 1449.16 926.879C1447.94 927.479 1446.63 927.877 1445.29 928.059C1444.62 928.144 1443.95 928.076 1443.32 927.861C1442.69 927.646 1442.11 927.29 1441.64 926.82C1440.72 925.768 1440.51 924.209 1439.54 923.288C1439.02 922.888 1438.4 922.628 1437.75 922.534C1437.1 922.439 1436.44 922.513 1435.83 922.749C1433.07 923.637 1430.57 925.953 1427.84 927.154C1423.02 929.66 1418.41 932.538 1414.05 935.76C1410.74 932.137 1407.83 928.173 1405.37 923.935C1419.02 915.91 1445.45 899.183 1456.67 891.51ZM1485.79 864.997C1484.66 867.1 1483.22 869.021 1481.52 870.699C1480.65 871.537 1479.63 872.196 1478.51 872.636C1477.4 873.076 1476.2 873.289 1475 873.262C1474.61 873.246 1474.22 873.129 1473.89 872.922C1473.15 872.423 1473.17 871.284 1473.28 870.39C1474.68 862.505 1477.85 855.04 1482.55 848.561C1483.34 847.478 1484.06 846.401 1484.85 845.38C1490.09 839.037 1495.66 832.976 1501.54 827.221C1505.45 829.483 1509.12 832.125 1512.5 835.107C1507 840.418 1500.39 845.453 1495.05 851.128C1491.44 855.467 1488.26 860.14 1485.54 865.083L1485.79 864.997ZM1451.16 819.205C1450.68 822.975 1448.16 827.062 1441.24 832.757C1437.67 835.867 1433.98 838.926 1430.27 841.859C1426.56 844.793 1422.5 846.622 1421.73 850.546C1421.56 851.921 1421.7 853.317 1422.14 854.631C1422.58 855.945 1423.31 857.144 1424.27 858.142C1425.71 859.936 1427.32 861.584 1429.08 863.063C1430.52 864.256 1432.24 865.801 1431.91 867.663C1431.58 869.526 1429.62 870.213 1428.03 870.739C1421.91 872.824 1415.38 874.692 1408.98 876.424C1405.97 876.908 1403.04 877.752 1400.24 878.94C1398.5 879.923 1397.21 881.622 1395.34 882.553C1395.47 879.555 1395.9 876.577 1396.59 873.658C1399.44 860.318 1406.08 848.085 1415.72 838.429C1425.35 828.773 1437.57 822.106 1450.91 819.228L1451.16 819.205ZM1406.29 891.704C1411.84 888.915 1417.91 886.962 1423.43 883.797L1439.07 876.03C1441.45 875.051 1443.49 873.389 1444.94 871.253C1445.48 870.119 1445.76 868.876 1445.75 867.619C1445.74 866.362 1445.45 865.122 1444.89 863.994C1444.29 862.734 1443.5 861.572 1442.55 860.549C1441.83 859.738 1441.04 858.987 1440.2 858.305C1438.41 856.703 1436.23 855.01 1436.17 852.363C1436.12 849.716 1439.74 847.295 1442.74 846.259L1452.22 842.915C1453.78 842.481 1455.25 841.79 1456.58 840.869C1457.93 839.809 1459.09 838.526 1460.02 837.076C1462.56 833.362 1464.88 829.498 1466.96 825.505C1467.71 824.047 1470.05 817.261 1472.54 817.536C1478.16 818.057 1483.7 819.26 1489.04 821.119C1487.68 820.74 1482.65 828.532 1481.94 829.672C1478.61 834.718 1475.68 840.015 1473.18 845.517C1470.96 850.901 1463.32 852.242 1458.21 854.359C1457.46 854.601 1456.8 855.058 1456.31 855.672C1455.9 856.524 1455.83 857.504 1456.12 858.405C1456.83 861.307 1458.28 863.951 1459.24 866.768C1459.84 868.122 1460.17 869.585 1460.2 871.069C1460.23 872.552 1459.96 874.027 1459.41 875.404C1458.02 877.75 1456.01 879.664 1453.6 880.932C1435.68 891.943 1417.24 902.181 1399.84 914.028C1397.77 908.924 1396.34 903.584 1395.58 898.13C1395.36 897.139 1404.83 892.344 1406.04 891.727L1406.29 891.704Z" fill="url(#paint7_linear_2733_1417)"/>
<path opacity="0.2" d="M1477.92 932.608C1478.76 934.774 1480.28 936.607 1482.26 937.826C1483.86 938.249 1485.57 938.019 1487.01 937.188C1488.44 936.356 1489.5 934.99 1489.93 933.387C1490.39 930.922 1489.9 928.375 1488.57 926.251C1487.08 924.184 1485.97 921.872 1485.28 919.42C1485.37 917.426 1485.9 915.476 1486.83 913.709C1487.75 911.942 1489.06 910.401 1490.65 909.196C1491.62 907.929 1493.03 907.075 1494.6 906.808C1496.79 906.605 1498.22 909.061 1499.39 910.847C1500.83 912.974 1502.49 914.937 1504.36 916.701C1505.45 917.951 1506.9 918.832 1508.51 919.221C1510.33 919.374 1512.17 918.984 1513.77 918.101C1517.75 916.43 1521.46 914.17 1524.77 911.395L1529.86 907.07C1530.86 906.22 1534.68 903.844 1534.94 902.62L1535 903.246C1532.61 914.539 1527.49 925.075 1520.09 933.938C1512.69 942.8 1503.24 949.719 1492.56 954.092C1481.87 958.465 1470.28 960.16 1458.79 959.028C1447.3 957.897 1436.27 953.974 1426.64 947.6C1440.27 940.019 1461.79 927.538 1467.95 925.198C1474.11 922.857 1475.79 928.701 1477.92 932.608ZM1456.67 891.51C1465.23 885.726 1475.53 884.454 1484.05 878.989C1489.5 874.634 1493.79 869.009 1496.55 862.608C1498.38 859.154 1502.84 848.004 1508.06 850.488C1507.86 852.401 1505.78 856.51 1507.52 858.243C1509.26 859.976 1511.65 856.47 1512.57 855.5C1513.49 854.531 1522 845.53 1521.92 845.411C1523.55 847.513 1525.04 849.716 1526.39 852.006C1517.9 861.952 1504.23 877.936 1501.25 881.181C1496.76 885.955 1498.79 892.778 1504.13 887.734C1507.44 884.585 1521.68 872.653 1532.18 864.036C1533.97 868.84 1535.22 873.829 1535.9 878.911C1527.43 886.961 1517.62 897.028 1506.29 900.102C1504.37 900.723 1502.33 900.886 1500.34 900.577C1498.35 900.268 1496.46 899.497 1494.82 898.325C1492.7 896.627 1491.33 894.039 1488.85 892.563C1487.24 892.045 1485.53 891.858 1483.84 892.015C1482.15 892.172 1480.51 892.669 1479.02 893.476C1472.59 896.347 1466.25 899.399 1460.13 902.872C1457.02 904.273 1454.09 906.028 1451.39 908.104C1450.56 908.926 1450.03 909.999 1449.87 911.156C1449.72 912.313 1449.95 913.488 1450.53 914.499C1450.59 915.126 1452.97 915.599 1453.35 915.564C1454.34 915.422 1455.29 915.098 1456.16 914.608C1458.84 913.538 1461.55 912.719 1464.24 911.774C1466.93 910.83 1468.91 910.393 1470.57 911.944C1470.43 913.852 1468.73 915.273 1467.13 916.432C1461.49 920.478 1455.47 923.977 1449.16 926.879C1447.94 927.479 1446.63 927.877 1445.29 928.059C1444.62 928.144 1443.95 928.076 1443.32 927.861C1442.69 927.646 1442.11 927.29 1441.64 926.82C1440.72 925.768 1440.51 924.209 1439.54 923.288C1439.02 922.888 1438.4 922.628 1437.75 922.534C1437.1 922.439 1436.44 922.513 1435.83 922.749C1433.07 923.637 1430.57 925.953 1427.84 927.154C1423.02 929.66 1418.41 932.538 1414.05 935.76C1410.74 932.137 1407.83 928.173 1405.37 923.935C1419.02 915.91 1445.45 899.183 1456.67 891.51ZM1485.79 864.997C1484.66 867.1 1483.22 869.021 1481.52 870.699C1480.65 871.537 1479.63 872.196 1478.51 872.636C1477.4 873.076 1476.2 873.289 1475 873.262C1474.61 873.246 1474.22 873.129 1473.89 872.922C1473.15 872.423 1473.17 871.284 1473.28 870.39C1474.68 862.505 1477.85 855.04 1482.55 848.561C1483.34 847.478 1484.06 846.401 1484.85 845.38C1490.09 839.037 1495.66 832.976 1501.54 827.221C1505.45 829.483 1509.12 832.125 1512.5 835.107C1507 840.418 1500.39 845.453 1495.05 851.128C1491.44 855.467 1488.26 860.14 1485.54 865.083L1485.79 864.997ZM1451.16 819.205C1450.68 822.975 1448.16 827.062 1441.24 832.757C1437.67 835.867 1433.98 838.926 1430.27 841.859C1426.56 844.793 1422.5 846.622 1421.73 850.546C1421.56 851.921 1421.7 853.317 1422.14 854.631C1422.58 855.945 1423.31 857.144 1424.27 858.142C1425.71 859.936 1427.32 861.584 1429.08 863.063C1430.52 864.256 1432.24 865.801 1431.91 867.663C1431.58 869.526 1429.62 870.213 1428.03 870.739C1421.91 872.824 1415.38 874.692 1408.98 876.424C1405.97 876.908 1403.04 877.752 1400.24 878.94C1398.5 879.923 1397.21 881.622 1395.34 882.553C1395.47 879.555 1395.9 876.577 1396.59 873.658C1399.44 860.318 1406.08 848.085 1415.72 838.429C1425.35 828.773 1437.57 822.106 1450.91 819.228L1451.16 819.205ZM1406.29 891.704C1411.84 888.915 1417.91 886.962 1423.43 883.797L1439.07 876.03C1441.45 875.051 1443.49 873.389 1444.94 871.253C1445.48 870.119 1445.76 868.876 1445.75 867.619C1445.74 866.362 1445.45 865.122 1444.89 863.994C1444.29 862.734 1443.5 861.572 1442.55 860.549C1441.83 859.738 1441.04 858.987 1440.2 858.305C1438.41 856.703 1436.23 855.01 1436.17 852.363C1436.12 849.716 1439.74 847.295 1442.74 846.259L1452.22 842.915C1453.78 842.481 1455.25 841.79 1456.58 840.869C1457.93 839.809 1459.09 838.526 1460.02 837.076C1462.56 833.362 1464.88 829.498 1466.96 825.505C1467.71 824.047 1470.05 817.261 1472.54 817.536C1478.16 818.057 1483.7 819.26 1489.04 821.119C1487.68 820.74 1482.65 828.532 1481.94 829.672C1478.61 834.718 1475.68 840.015 1473.18 845.517C1470.96 850.901 1463.32 852.242 1458.21 854.359C1457.46 854.601 1456.8 855.058 1456.31 855.672C1455.9 856.524 1455.83 857.504 1456.12 858.405C1456.83 861.307 1458.28 863.951 1459.24 866.768C1459.84 868.122 1460.17 869.585 1460.2 871.069C1460.23 872.552 1459.96 874.027 1459.41 875.404C1458.02 877.75 1456.01 879.664 1453.6 880.932C1435.68 891.943 1417.24 902.181 1399.84 914.028C1397.77 908.924 1396.34 903.584 1395.58 898.13C1395.36 897.139 1404.83 892.344 1406.04 891.727L1406.29 891.704Z" fill="black"/>
<path opacity="0.1" d="M1395.11 884.215C1394.75 910.962 1435.93 944.336 1476.31 936.356C1519.29 927.881 1538.05 876.247 1523.93 848.001C1530.38 857.271 1534.51 867.947 1535.99 879.139C1537.47 890.332 1536.25 901.716 1532.44 912.342C1528.63 922.967 1522.33 932.527 1514.07 940.224C1505.81 947.92 1495.83 953.53 1484.96 956.585C1474.09 959.641 1462.65 960.053 1451.59 957.788C1440.53 955.522 1430.17 950.645 1421.38 943.563C1412.58 936.481 1405.61 927.399 1401.04 917.075C1396.47 906.751 1394.44 895.484 1395.11 884.215Z" fill="black"/>
<path opacity="0.3" d="M1440.07 841.898C1439.34 845.538 1439.71 849.311 1441.12 852.744C1442.53 856.177 1444.92 859.117 1448 861.197C1451.07 863.278 1454.69 864.405 1458.4 864.438C1462.11 864.471 1465.75 863.408 1468.86 861.384C1471.97 859.359 1474.42 856.461 1475.89 853.054C1477.36 849.647 1477.79 845.881 1477.14 842.228C1476.48 838.576 1474.76 835.198 1472.19 832.519C1469.62 829.84 1466.32 827.977 1462.7 827.165C1460.24 826.615 1457.7 826.561 1455.22 827.007C1452.75 827.454 1450.39 828.391 1448.28 829.763C1446.17 831.136 1444.35 832.917 1442.94 835.001C1441.53 837.085 1440.56 839.43 1440.07 841.898Z" fill="url(#paint8_linear_2733_1417)"/>
<path opacity="0.3" d="M1414.9 858.633C1414.45 860.773 1414.65 862.997 1415.46 865.026C1416.28 867.056 1417.68 868.798 1419.48 870.034C1421.28 871.27 1423.41 871.944 1425.6 871.971C1427.78 871.998 1429.93 871.377 1431.76 870.186C1433.6 868.995 1435.04 867.288 1435.9 865.28C1436.77 863.272 1437.02 861.052 1436.62 858.902C1436.22 856.752 1435.2 854.767 1433.68 853.197C1432.16 851.628 1430.2 850.545 1428.07 850.084C1426.64 849.768 1425.16 849.739 1423.73 850C1422.29 850.26 1420.92 850.803 1419.69 851.599C1418.47 852.395 1417.41 853.427 1416.59 854.634C1415.77 855.842 1415.19 857.201 1414.9 858.633Z" fill="url(#paint9_linear_2733_1417)"/>
<path opacity="0.3" d="M1440.05 877.77C1439.69 879.461 1439.83 881.222 1440.47 882.83C1441.11 884.438 1442.21 885.821 1443.63 886.804C1445.05 887.786 1446.74 888.324 1448.46 888.35C1450.19 888.376 1451.89 887.888 1453.34 886.948C1454.8 886.008 1455.94 884.659 1456.62 883.07C1457.31 881.482 1457.5 879.726 1457.19 878.025C1456.88 876.324 1456.07 874.754 1454.86 873.515C1453.65 872.275 1452.11 871.421 1450.42 871.061C1449.29 870.813 1448.13 870.791 1447 870.995C1445.87 871.199 1444.79 871.626 1443.83 872.25C1442.87 872.874 1442.04 873.683 1441.39 874.631C1440.74 875.579 1440.28 876.646 1440.05 877.77Z" fill="url(#paint10_linear_2733_1417)"/>
<path opacity="0.1" d="M1440.07 841.898C1439.34 845.538 1439.71 849.311 1441.12 852.744C1442.53 856.177 1444.92 859.117 1448 861.197C1451.07 863.278 1454.69 864.405 1458.4 864.438C1462.11 864.471 1465.75 863.408 1468.86 861.384C1471.97 859.359 1474.42 856.461 1475.89 853.054C1477.36 849.647 1477.79 845.881 1477.14 842.228C1476.48 838.576 1474.76 835.198 1472.19 832.519C1469.62 829.84 1466.32 827.977 1462.7 827.165C1460.24 826.615 1457.7 826.561 1455.22 827.007C1452.75 827.454 1450.39 828.391 1448.28 829.763C1446.17 831.136 1444.35 832.917 1442.94 835.001C1441.53 837.085 1440.56 839.43 1440.07 841.898Z" fill="white"/>
<path opacity="0.1" d="M1414.9 858.633C1414.45 860.773 1414.65 862.997 1415.46 865.026C1416.28 867.056 1417.68 868.798 1419.48 870.034C1421.28 871.27 1423.41 871.944 1425.6 871.971C1427.78 871.998 1429.93 871.377 1431.76 870.186C1433.6 868.995 1435.04 867.288 1435.9 865.28C1436.77 863.272 1437.02 861.052 1436.62 858.902C1436.22 856.752 1435.2 854.767 1433.68 853.197C1432.16 851.628 1430.2 850.545 1428.07 850.084C1426.64 849.768 1425.16 849.739 1423.73 850C1422.29 850.26 1420.92 850.803 1419.69 851.599C1418.47 852.395 1417.41 853.427 1416.59 854.634C1415.77 855.842 1415.19 857.201 1414.9 858.633Z" fill="white"/>
<path opacity="0.1" d="M1440.05 877.77C1439.69 879.461 1439.83 881.222 1440.47 882.83C1441.11 884.438 1442.21 885.821 1443.63 886.804C1445.05 887.786 1446.74 888.324 1448.46 888.35C1450.19 888.376 1451.89 887.888 1453.34 886.948C1454.8 886.008 1455.94 884.659 1456.62 883.07C1457.31 881.482 1457.5 879.726 1457.19 878.025C1456.88 876.324 1456.07 874.754 1454.86 873.515C1453.65 872.275 1452.11 871.421 1450.42 871.061C1449.29 870.813 1448.13 870.791 1447 870.995C1445.87 871.199 1444.79 871.626 1443.83 872.25C1442.87 872.874 1442.04 873.683 1441.39 874.631C1440.74 875.579 1440.28 876.646 1440.05 877.77Z" fill="white"/>
<path opacity="0.1" d="M1535 903.246C1531.78 918.315 1523.73 931.922 1512.07 942.006C1500.42 952.09 1485.8 958.101 1470.43 959.129C1455.05 960.157 1439.76 956.145 1426.87 947.702C1413.98 939.259 1404.19 926.845 1398.98 912.34C1400 915.088 1413.04 950.127 1463.39 951.579C1515.75 953.032 1534.69 903.338 1536.44 892.25C1536.24 895.946 1535.75 899.622 1535 903.246Z" fill="black"/>
</g>
<defs>
<filter id="filter0_f_2733_1417" x="1049.95" y="471" width="835" height="835" filterUnits="userSpaceOnUse" color-interpolation-filters="sRGB">
<feFlood flood-opacity="0" result="BackgroundImageFix"/>
<feBlend mode="normal" in="SourceGraphic" in2="BackgroundImageFix" result="shape"/>
<feGaussianBlur stdDeviation="150" result="effect1_foregroundBlur_2733_1417"/>
</filter>
<linearGradient id="paint0_linear_2733_1417" x1="1699.6" y1="1119.64" x2="380.264" y2="145.101" gradientUnits="userSpaceOnUse">
<stop stop-color="#D251FD"/>
<stop offset="1" stop-color="#D251FD" stop-opacity="0"/>
</linearGradient>
<linearGradient id="paint1_linear_2733_1417" x1="806.044" y1="1810.3" x2="323.517" y2="205.086" gradientUnits="userSpaceOnUse">
<stop stop-color="white"/>
<stop offset="0.611281" stop-color="white" stop-opacity="0"/>
</linearGradient>
<linearGradient id="paint2_linear_2733_1417" x1="1458.65" y1="810.528" x2="1473.02" y2="965.335" gradientUnits="userSpaceOnUse">
<stop stop-color="#BA68C8"/>
<stop offset="1" stop-color="#BA68C8" stop-opacity="0"/>
</linearGradient>
<linearGradient id="paint3_linear_2733_1417" x1="1458.1" y1="806.058" x2="1473.4" y2="970.859" gradientUnits="userSpaceOnUse">
<stop stop-color="#BA68C8"/>
<stop offset="1" stop-color="#BA68C8" stop-opacity="0"/>
</linearGradient>
<linearGradient id="paint4_linear_2733_1417" x1="1457.43" y1="799.047" x2="1474.03" y2="977.748" gradientUnits="userSpaceOnUse">
<stop stop-color="#BA68C8"/>
<stop offset="1" stop-color="#BA68C8" stop-opacity="0"/>
</linearGradient>
<linearGradient id="paint5_linear_2733_1417" x1="1456.46" y1="792" x2="1474.48" y2="986.104" gradientUnits="userSpaceOnUse">
<stop stop-color="#BA68C8"/>
<stop offset="1" stop-color="#BA68C8" stop-opacity="0"/>
</linearGradient>
<linearGradient id="paint6_linear_2733_1417" x1="1486.26" y1="820.695" x2="1445.05" y2="956.309" gradientUnits="userSpaceOnUse">
<stop stop-color="#BA68C8"/>
<stop offset="1" stop-color="#BA68C8" stop-opacity="0"/>
</linearGradient>
<linearGradient id="paint7_linear_2733_1417" x1="1459.23" y1="818.455" x2="1472.29" y2="959.065" gradientUnits="userSpaceOnUse">
<stop stop-color="#BA68C8"/>
<stop offset="1" stop-color="#BA68C8" stop-opacity="0"/>
</linearGradient>
<linearGradient id="paint8_linear_2733_1417" x1="1456.82" y1="826.789" x2="1460.31" y2="864.358" gradientUnits="userSpaceOnUse">
<stop stop-color="#BA68C8"/>
<stop offset="1" stop-color="#BA68C8" stop-opacity="0"/>
</linearGradient>
<linearGradient id="paint9_linear_2733_1417" x1="1424.71" y1="849.867" x2="1426.76" y2="871.924" gradientUnits="userSpaceOnUse">
<stop stop-color="#BA68C8"/>
<stop offset="1" stop-color="#BA68C8" stop-opacity="0"/>
</linearGradient>
<linearGradient id="paint10_linear_2733_1417" x1="1447.78" y1="870.89" x2="1449.4" y2="888.314" gradientUnits="userSpaceOnUse">
<stop stop-color="#BA68C8"/>
<stop offset="1" stop-color="#BA68C8" stop-opacity="0"/>
</linearGradient>
</defs>
</svg>
