<svg width="1920" height="1547" viewBox="0 0 1920 1547" fill="none" xmlns="http://www.w3.org/2000/svg">
<g opacity="0.4">
<path opacity="0.5" d="M1427.18 1066.66C1493.48 1039.76 1557.81 1006.75 1619.54 967.929C1778.88 866.064 1860 749.878 1847.89 640.824C1835.78 531.769 1731.89 443.163 1555.38 391.269C1378.86 339.375 1151.69 330.308 914.732 365.696C677.775 401.085 459.635 476.402 300.546 578.103C141.457 679.805 59.9822 796.166 72.0906 905.22C84.1991 1014.27 188.004 1102.95 364.679 1154.75C541.354 1206.54 768.309 1215.61 1005.3 1180.33C1157.14 1157.74 1301.35 1118.62 1427.18 1066.66ZM493.625 482.048C619.294 430.16 763.275 391.103 915.038 368.514C1403.26 295.829 1820.6 418.127 1845.46 641.086C1870.31 864.045 1493.18 1104.65 1004.92 1177.2C768.267 1212.43 541.073 1203.37 365.238 1151.69C189.403 1100.01 86.5823 1012.36 74.6007 904.587C62.6189 796.813 143.291 681.93 301.757 580.641C363.335 541.903 427.507 508.96 493.65 482.131L493.625 482.048Z" fill="url(#paint0_linear_282_1523)"/>
</g>
<defs>
<linearGradient id="paint0_linear_282_1523" x1="1699.6" y1="1120.12" x2="380.264" y2="145.579" gradientUnits="userSpaceOnUse">
<stop stop-color="#D251FD"/>
<stop offset="1" stop-color="#D251FD" stop-opacity="0"/>
</linearGradient>
</defs>
</svg>
