<svg width="5000" height="5000" viewBox="0 0 5000 5000" fill="none" xmlns="http://www.w3.org/2000/svg">
<path opacity="0.5" d="M2627.33 2580.43C2533.92 2553.55 2443.29 2520.55 2356.32 2481.75C2131.84 2379.94 2017.56 2263.79 2034.64 2154.75C2051.73 2045.71 2198.13 1957.1 2446.85 1905.18C2695.57 1853.26 3015.66 1844.15 3349.52 1879.48C3683.38 1914.82 3990.73 1990.08 4214.86 2091.73C4439 2193.38 4553.77 2309.7 4536.68 2418.74C4519.6 2527.78 4373.32 2616.46 4124.38 2668.28C3875.43 2720.1 3555.65 2729.21 3221.74 2693.99C3007.8 2671.43 2804.63 2632.35 2627.33 2580.43ZM3942.83 1995.73C3765.78 1943.87 3562.92 1904.85 3349.09 1882.3C2661.21 1809.73 2073.15 1932.09 2038.08 2155.01C2003.01 2377.94 2534.33 2618.42 3222.27 2690.86C3555.71 2726.04 3875.83 2716.94 4123.59 2665.23C4371.35 2613.52 4516.24 2525.87 4533.15 2418.11C4550.05 2310.35 4436.41 2195.5 4213.15 2094.26C4126.4 2055.55 4035.99 2022.62 3942.8 1995.81L3942.83 1995.73Z" fill="url(#paint0_linear_282_1515)"/>
<defs>
<linearGradient id="paint0_linear_282_1515" x1="2211.92" y1="2892.66" x2="2737.13" y2="1826.59" gradientUnits="userSpaceOnUse">
<stop stop-color="#51A0FD"/>
<stop offset="0.569672" stop-color="#51BFFD" stop-opacity="0"/>
</linearGradient>
</defs>
</svg>
