<svg width="478" height="331" viewBox="0 0 478 331" fill="none" xmlns="http://www.w3.org/2000/svg">
<mask id="path-1-inside-1_2311_1335" fill="white">
<path d="M263.2 328.4H164.4L134 275.6C54 272 8 218.8 8 138C8 54.4 57.6 -2.86102e-06 142.8 -2.86102e-06C227.6 -2.86102e-06 277.2 54.4 277.2 138C277.2 195.2 254 238.8 212 260.8L263.2 328.4ZM142.8 202.8C184 202.8 196.4 189.6 196.4 138C196.4 86.4 184 73.2 142.8 73.2C101.2 73.2 88.8 86.4 88.8 138C88.8 189.6 101.2 202.8 142.8 202.8ZM465.556 272H390.356V96H329.156V37.2H342.356C367.556 37.2 383.556 28 395.556 3.99999H465.556V272Z"/>
</mask>
<path d="M263.2 328.4V332.4H271.247L266.389 325.985L263.2 328.4ZM164.4 328.4L160.934 330.396L162.087 332.4H164.4V328.4ZM134 275.6L137.466 273.604L136.372 271.703L134.18 271.604L134 275.6ZM212 260.8L210.144 257.257L205.959 259.449L208.811 263.215L212 260.8ZM263.2 324.4H164.4V332.4H263.2V324.4ZM167.866 326.404L137.466 273.604L130.534 277.596L160.934 330.396L167.866 326.404ZM134.18 271.604C95.0604 269.844 64.6371 255.997 43.971 233.072C23.2782 210.117 12 177.651 12 138H4C4 179.149 15.7218 213.683 38.029 238.428C60.3629 263.203 92.9396 277.756 133.82 279.596L134.18 271.604ZM12 138C12 96.9832 24.1566 63.5613 46.3378 40.4177C68.4964 17.2978 101.075 4 142.8 4V-4C99.3249 -4 64.5036 9.90215 40.5622 34.8822C16.6434 59.8387 4 95.4168 4 138H12ZM142.8 4C184.32 4 216.798 17.2945 238.909 40.4146C261.043 63.5591 273.2 96.9831 273.2 138H281.2C281.2 95.4169 268.557 59.8409 244.691 34.8854C220.802 9.90548 186.08 -4 142.8 -4V4ZM273.2 138C273.2 194.076 250.532 236.101 210.144 257.257L213.856 264.343C257.468 241.499 281.2 196.324 281.2 138H273.2ZM208.811 263.215L260.011 330.815L266.389 325.985L215.189 258.385L208.811 263.215ZM142.8 206.8C163.567 206.8 178.622 203.54 188.104 192.334C197.382 181.368 200.4 163.789 200.4 138H192.4C192.4 163.811 189.218 178.632 181.996 187.166C174.978 195.46 163.233 198.8 142.8 198.8V206.8ZM200.4 138C200.4 112.211 197.382 94.6319 188.104 83.6662C178.622 72.4605 163.567 69.2 142.8 69.2V77.2C163.233 77.2 174.978 80.5395 181.996 88.8338C189.218 97.3681 192.4 112.189 192.4 138H200.4ZM142.8 69.2C121.842 69.2 106.689 72.457 97.1542 83.6571C87.8168 94.6257 84.8 112.212 84.8 138H92.8C92.8 112.187 95.9832 97.3743 103.246 88.8429C110.311 80.543 122.158 77.2 142.8 77.2V69.2ZM84.8 138C84.8 163.787 87.8168 181.374 97.1542 192.343C106.689 203.543 121.842 206.8 142.8 206.8V198.8C122.158 198.8 110.311 195.457 103.246 187.157C95.9832 178.626 92.8 163.812 92.8 138H84.8ZM465.556 272V276H469.556V272H465.556ZM390.356 272H386.356V276H390.356V272ZM390.356 96H394.356V92H390.356V96ZM329.156 96H325.156V100H329.156V96ZM329.156 37.2V33.2H325.156V37.2H329.156ZM395.556 3.99999V-6.67572e-06H393.084L391.979 2.21114L395.556 3.99999ZM465.556 3.99999H469.556V-6.67572e-06H465.556V3.99999ZM465.556 268H390.356V276H465.556V268ZM394.356 272V96H386.356V272H394.356ZM390.356 92H329.156V100H390.356V92ZM333.156 96V37.2H325.156V96H333.156ZM329.156 41.2H342.356V33.2H329.156V41.2ZM342.356 41.2C355.44 41.2 366.531 38.8099 375.996 33.0107C385.463 27.2103 392.908 18.2417 399.134 5.78885L391.979 2.21114C386.205 13.7583 379.65 21.3897 371.816 26.1893C363.981 30.99 354.472 33.2 342.356 33.2V41.2ZM395.556 7.99999H465.556V-6.67572e-06H395.556V7.99999ZM461.556 3.99999V272H469.556V3.99999H461.556Z" fill="url(#paint0_linear_2311_1335)" mask="url(#path-1-inside-1_2311_1335)"/>
<path d="M326.8 330H293.86V323.7C293.86 316.2 297.52 313.5 302.74 310.98L313.42 305.76C315.16 304.92 315.88 304.32 315.88 302.52C315.88 300.24 314.68 299.46 310.36 299.46C305.56 299.46 304.78 300.6 304.78 303.72V304.8H293.5V303.84C293.5 295.8 298.42 289.2 311.26 289.2C322.36 289.2 327.16 294.96 327.16 302.28C327.16 309.96 321.52 313.5 316.24 315.3L308.74 317.82C306.4 318.6 306.04 319.38 306.04 320.46L311.8 319.86H326.8V330ZM357.012 330.6C344.712 330.6 338.352 322.26 338.352 309.9C338.352 297.6 344.712 289.2 357.012 289.2C369.252 289.2 375.672 297.6 375.672 309.9C375.672 322.26 369.252 330.6 357.012 330.6ZM357.012 319.62C362.172 319.62 363.552 318.24 363.552 309.9C363.552 301.56 362.172 300.18 357.012 300.18C351.792 300.18 350.472 301.56 350.472 309.9C350.472 318.24 351.792 319.62 357.012 319.62ZM420.562 330H387.622V323.7C387.622 316.2 391.282 313.5 396.502 310.98L407.182 305.76C408.922 304.92 409.642 304.32 409.642 302.52C409.642 300.24 408.442 299.46 404.122 299.46C399.322 299.46 398.542 300.6 398.542 303.72V304.8H387.262V303.84C387.262 295.8 392.182 289.2 405.022 289.2C416.122 289.2 420.922 294.96 420.922 302.28C420.922 309.96 415.282 313.5 410.002 315.3L402.502 317.82C400.162 318.6 399.802 319.38 399.802 320.46L405.562 319.86H420.562V330ZM463.385 330H452.165V322.98H431.045V314.76L450.305 289.8H463.385V312.84H468.785V322.98H463.385V330ZM444.785 312.84H452.165V303H451.625L444.785 312.3V312.84Z" fill="black"/>
<path d="M326.8 330H293.86V323.7C293.86 316.2 297.52 313.5 302.74 310.98L313.42 305.76C315.16 304.92 315.88 304.32 315.88 302.52C315.88 300.24 314.68 299.46 310.36 299.46C305.56 299.46 304.78 300.6 304.78 303.72V304.8H293.5V303.84C293.5 295.8 298.42 289.2 311.26 289.2C322.36 289.2 327.16 294.96 327.16 302.28C327.16 309.96 321.52 313.5 316.24 315.3L308.74 317.82C306.4 318.6 306.04 319.38 306.04 320.46L311.8 319.86H326.8V330ZM357.012 330.6C344.712 330.6 338.352 322.26 338.352 309.9C338.352 297.6 344.712 289.2 357.012 289.2C369.252 289.2 375.672 297.6 375.672 309.9C375.672 322.26 369.252 330.6 357.012 330.6ZM357.012 319.62C362.172 319.62 363.552 318.24 363.552 309.9C363.552 301.56 362.172 300.18 357.012 300.18C351.792 300.18 350.472 301.56 350.472 309.9C350.472 318.24 351.792 319.62 357.012 319.62ZM420.562 330H387.622V323.7C387.622 316.2 391.282 313.5 396.502 310.98L407.182 305.76C408.922 304.92 409.642 304.32 409.642 302.52C409.642 300.24 408.442 299.46 404.122 299.46C399.322 299.46 398.542 300.6 398.542 303.72V304.8H387.262V303.84C387.262 295.8 392.182 289.2 405.022 289.2C416.122 289.2 420.922 294.96 420.922 302.28C420.922 309.96 415.282 313.5 410.002 315.3L402.502 317.82C400.162 318.6 399.802 319.38 399.802 320.46L405.562 319.86H420.562V330ZM463.385 330H452.165V322.98H431.045V314.76L450.305 289.8H463.385V312.84H468.785V322.98H463.385V330ZM444.785 312.84H452.165V303H451.625L444.785 312.3V312.84Z" fill="#8F92D4"/>
<defs>
<linearGradient id="paint0_linear_2311_1335" x1="0" y1="4" x2="412.221" y2="350.3" gradientUnits="userSpaceOnUse">
<stop stop-color="#14D1E8"/>
<stop offset="1" stop-color="#C35CFC"/>
</linearGradient>
</defs>
</svg>
