<svg width="560" height="331" viewBox="0 0 560 331" fill="none" xmlns="http://www.w3.org/2000/svg">
<mask id="path-1-inside-1_2311_1337" fill="white">
<path d="M263.2 328.4H164.4L134 275.6C54 272 8 218.8 8 138C8 54.4 57.6 -2.86102e-06 142.8 -2.86102e-06C227.6 -2.86102e-06 277.2 54.4 277.2 138C277.2 195.2 254 238.8 212 260.8L263.2 328.4ZM142.8 202.8C184 202.8 196.4 189.6 196.4 138C196.4 86.4 184 73.2 142.8 73.2C101.2 73.2 88.8 86.4 88.8 138C88.8 189.6 101.2 202.8 142.8 202.8ZM549.156 272H329.556V230C329.556 180 353.956 162 388.756 145.2L459.956 110.4C471.556 104.8 476.356 100.8 476.356 88.8C476.356 73.6 468.356 68.4 439.556 68.4C407.556 68.4 402.356 76 402.356 96.8V104H327.156V97.6C327.156 44 359.956 -2.86102e-06 445.556 -2.86102e-06C519.556 -2.86102e-06 551.556 38.4 551.556 87.2C551.556 138.4 513.956 162 478.756 174L428.756 190.8C413.156 196 410.756 201.2 410.756 208.4L449.156 204.4H549.156V272Z"/>
</mask>
<path d="M263.2 328.4V332.4H271.247L266.389 325.985L263.2 328.4ZM164.4 328.4L160.934 330.396L162.087 332.4H164.4V328.4ZM134 275.6L137.466 273.604L136.372 271.703L134.18 271.604L134 275.6ZM212 260.8L210.144 257.257L205.959 259.449L208.811 263.215L212 260.8ZM263.2 324.4H164.4V332.4H263.2V324.4ZM167.866 326.404L137.466 273.604L130.534 277.596L160.934 330.396L167.866 326.404ZM134.18 271.604C95.0604 269.844 64.6371 255.997 43.971 233.072C23.2782 210.117 12 177.651 12 138H4C4 179.149 15.7218 213.683 38.029 238.428C60.3629 263.203 92.9396 277.756 133.82 279.596L134.18 271.604ZM12 138C12 96.9832 24.1566 63.5613 46.3378 40.4177C68.4964 17.2978 101.075 4 142.8 4V-4C99.3249 -4 64.5036 9.90215 40.5622 34.8822C16.6434 59.8387 4 95.4168 4 138H12ZM142.8 4C184.32 4 216.798 17.2945 238.909 40.4146C261.043 63.5591 273.2 96.9831 273.2 138H281.2C281.2 95.4169 268.557 59.8409 244.691 34.8854C220.802 9.90548 186.08 -4 142.8 -4V4ZM273.2 138C273.2 194.076 250.532 236.101 210.144 257.257L213.856 264.343C257.468 241.499 281.2 196.324 281.2 138H273.2ZM208.811 263.215L260.011 330.815L266.389 325.985L215.189 258.385L208.811 263.215ZM142.8 206.8C163.567 206.8 178.622 203.54 188.104 192.334C197.382 181.368 200.4 163.789 200.4 138H192.4C192.4 163.811 189.218 178.632 181.996 187.166C174.978 195.46 163.233 198.8 142.8 198.8V206.8ZM200.4 138C200.4 112.211 197.382 94.6319 188.104 83.6662C178.622 72.4605 163.567 69.2 142.8 69.2V77.2C163.233 77.2 174.978 80.5395 181.996 88.8338C189.218 97.3681 192.4 112.189 192.4 138H200.4ZM142.8 69.2C121.842 69.2 106.689 72.457 97.1542 83.6571C87.8168 94.6257 84.8 112.212 84.8 138H92.8C92.8 112.187 95.9832 97.3743 103.246 88.8429C110.311 80.543 122.158 77.2 142.8 77.2V69.2ZM84.8 138C84.8 163.787 87.8168 181.374 97.1542 192.343C106.689 203.543 121.842 206.8 142.8 206.8V198.8C122.158 198.8 110.311 195.457 103.246 187.157C95.9832 178.626 92.8 163.812 92.8 138H84.8ZM549.156 272V276H553.156V272H549.156ZM329.556 272H325.556V276H329.556V272ZM388.756 145.2L390.495 148.802L390.504 148.798L390.513 148.794L388.756 145.2ZM459.956 110.4L458.217 106.798L458.209 106.802L458.2 106.806L459.956 110.4ZM402.356 104V108H406.356V104H402.356ZM327.156 104H323.156V108H327.156V104ZM478.756 174L480.03 177.792L480.039 177.789L480.047 177.786L478.756 174ZM428.756 190.8L430.021 194.595L430.03 194.592L428.756 190.8ZM410.756 208.4H406.756V212.838L411.171 212.378L410.756 208.4ZM449.156 204.4V200.4H448.948L448.742 200.422L449.156 204.4ZM549.156 204.4H553.156V200.4H549.156V204.4ZM549.156 268H329.556V276H549.156V268ZM333.556 272V230H325.556V272H333.556ZM333.556 230C333.556 205.705 339.462 189.66 349.21 177.674C359.071 165.548 373.182 157.16 390.495 148.802L387.017 141.598C369.531 150.04 354.042 159.052 343.003 172.626C331.851 186.34 325.556 204.295 325.556 230H333.556ZM390.513 148.794L461.713 113.994L458.2 106.806L387 141.606L390.513 148.794ZM461.695 114.002C467.486 111.206 472.324 108.491 475.587 104.551C479.031 100.393 480.356 95.3616 480.356 88.8H472.356C472.356 94.2384 471.282 97.2071 469.425 99.4487C467.388 101.909 464.026 103.994 458.217 106.798L461.695 114.002ZM480.356 88.8C480.356 84.6895 479.822 80.8796 478.294 77.537C476.724 74.102 474.22 71.4152 470.741 69.427C464.12 65.644 453.924 64.4 439.556 64.4V72.4C453.989 72.4 462.192 73.756 466.772 76.373C468.892 77.5848 470.189 79.0479 471.018 80.863C471.89 82.7704 472.356 85.3105 472.356 88.8H480.356ZM439.556 64.4C423.606 64.4 412.897 66.2066 406.367 71.7508C399.558 77.5319 398.356 86.3899 398.356 96.8H406.356C406.356 86.4101 407.754 81.0681 411.545 77.8492C415.615 74.3934 423.507 72.4 439.556 72.4V64.4ZM398.356 96.8V104H406.356V96.8H398.356ZM402.356 100H327.156V108H402.356V100ZM331.156 104V97.6H323.156V104H331.156ZM331.156 97.6C331.156 71.616 339.088 48.3854 356.99 31.6196C374.921 14.8277 403.408 4 445.556 4V-4C402.104 -4 371.392 7.17225 351.522 25.7804C331.625 44.4146 323.156 69.984 323.156 97.6H331.156ZM445.556 4C481.894 4 507.315 13.4237 523.614 28.2582C539.874 43.0572 547.556 63.6947 547.556 87.2H555.556C555.556 61.9053 547.239 38.9428 528.999 22.3418C510.798 5.77625 483.218 -4 445.556 -4V4ZM547.556 87.2C547.556 111.689 538.614 129.386 525.528 142.472C512.335 155.664 494.777 164.312 477.466 170.214L480.047 177.786C497.935 171.688 516.777 162.536 531.185 148.128C545.699 133.614 555.556 113.911 555.556 87.2H547.556ZM477.482 170.208L427.482 187.008L430.03 194.592L480.03 177.792L477.482 170.208ZM427.491 187.005C419.5 189.669 414.185 192.54 410.925 196.183C407.456 200.06 406.756 204.298 406.756 208.4H414.756C414.756 205.302 415.256 203.34 416.887 201.517C418.728 199.46 422.412 197.131 430.021 194.595L427.491 187.005ZM411.171 212.378L449.571 208.378L448.742 200.422L410.342 204.422L411.171 212.378ZM449.156 208.4H549.156V200.4H449.156V208.4ZM545.156 204.4V272H553.156V204.4H545.156Z" fill="url(#paint0_linear_2311_1337)" mask="url(#path-1-inside-1_2311_1337)"/>
<path d="M405.8 330H372.86V323.7C372.86 316.2 376.52 313.5 381.74 310.98L392.42 305.76C394.16 304.92 394.88 304.32 394.88 302.52C394.88 300.24 393.68 299.46 389.36 299.46C384.56 299.46 383.78 300.6 383.78 303.72V304.8H372.5V303.84C372.5 295.8 377.42 289.2 390.26 289.2C401.36 289.2 406.16 294.96 406.16 302.28C406.16 309.96 400.52 313.5 395.24 315.3L387.74 317.82C385.4 318.6 385.04 319.38 385.04 320.46L390.8 319.86H405.8V330ZM436.012 330.6C423.712 330.6 417.352 322.26 417.352 309.9C417.352 297.6 423.712 289.2 436.012 289.2C448.252 289.2 454.672 297.6 454.672 309.9C454.672 322.26 448.252 330.6 436.012 330.6ZM436.012 319.62C441.172 319.62 442.552 318.24 442.552 309.9C442.552 301.56 441.172 300.18 436.012 300.18C430.792 300.18 429.472 301.56 429.472 309.9C429.472 318.24 430.792 319.62 436.012 319.62ZM499.562 330H466.622V323.7C466.622 316.2 470.282 313.5 475.502 310.98L486.182 305.76C487.922 304.92 488.642 304.32 488.642 302.52C488.642 300.24 487.442 299.46 483.122 299.46C478.322 299.46 477.542 300.6 477.542 303.72V304.8H466.262V303.84C466.262 295.8 471.182 289.2 484.022 289.2C495.122 289.2 499.922 294.96 499.922 302.28C499.922 309.96 494.282 313.5 489.002 315.3L481.502 317.82C479.162 318.6 478.802 319.38 478.802 320.46L484.562 319.86H499.562V330ZM542.385 330H531.165V322.98H510.045V314.76L529.305 289.8H542.385V312.84H547.785V322.98H542.385V330ZM523.785 312.84H531.165V303H530.625L523.785 312.3V312.84Z" fill="black"/>
<path d="M405.8 330H372.86V323.7C372.86 316.2 376.52 313.5 381.74 310.98L392.42 305.76C394.16 304.92 394.88 304.32 394.88 302.52C394.88 300.24 393.68 299.46 389.36 299.46C384.56 299.46 383.78 300.6 383.78 303.72V304.8H372.5V303.84C372.5 295.8 377.42 289.2 390.26 289.2C401.36 289.2 406.16 294.96 406.16 302.28C406.16 309.96 400.52 313.5 395.24 315.3L387.74 317.82C385.4 318.6 385.04 319.38 385.04 320.46L390.8 319.86H405.8V330ZM436.012 330.6C423.712 330.6 417.352 322.26 417.352 309.9C417.352 297.6 423.712 289.2 436.012 289.2C448.252 289.2 454.672 297.6 454.672 309.9C454.672 322.26 448.252 330.6 436.012 330.6ZM436.012 319.62C441.172 319.62 442.552 318.24 442.552 309.9C442.552 301.56 441.172 300.18 436.012 300.18C430.792 300.18 429.472 301.56 429.472 309.9C429.472 318.24 430.792 319.62 436.012 319.62ZM499.562 330H466.622V323.7C466.622 316.2 470.282 313.5 475.502 310.98L486.182 305.76C487.922 304.92 488.642 304.32 488.642 302.52C488.642 300.24 487.442 299.46 483.122 299.46C478.322 299.46 477.542 300.6 477.542 303.72V304.8H466.262V303.84C466.262 295.8 471.182 289.2 484.022 289.2C495.122 289.2 499.922 294.96 499.922 302.28C499.922 309.96 494.282 313.5 489.002 315.3L481.502 317.82C479.162 318.6 478.802 319.38 478.802 320.46L484.562 319.86H499.562V330ZM542.385 330H531.165V322.98H510.045V314.76L529.305 289.8H542.385V312.84H547.785V322.98H542.385V330ZM523.785 312.84H531.165V303H530.625L523.785 312.3V312.84Z" fill="#BCACFF"/>
<defs>
<linearGradient id="paint0_linear_2311_1337" x1="0" y1="4" x2="418.442" y2="415.83" gradientUnits="userSpaceOnUse">
<stop stop-color="#14D1E8"/>
<stop offset="1" stop-color="#C35CFC"/>
</linearGradient>
</defs>
</svg>
