<svg width="574" height="331" viewBox="0 0 574 331" fill="none" xmlns="http://www.w3.org/2000/svg">
<mask id="path-1-inside-1_2311_1338" fill="white">
<path d="M263.2 328.4H164.4L134 275.6C54 272 8 218.8 8 138C8 54.4 57.6 -2.86102e-06 142.8 -2.86102e-06C227.6 -2.86102e-06 277.2 54.4 277.2 138C277.2 195.2 254 238.8 212 260.8L263.2 328.4ZM142.8 202.8C184 202.8 196.4 189.6 196.4 138C196.4 86.4 184 73.2 142.8 73.2C101.2 73.2 88.8 86.4 88.8 138C88.8 189.6 101.2 202.8 142.8 202.8ZM451.956 276C367.956 276 337.156 242.8 337.156 190V172H411.156V185.6C411.156 200 418.356 204.4 449.956 204.4C478.356 204.4 492.756 203.2 492.756 183.6C492.756 168.4 485.956 164.4 470.756 164.4H422.356V106H461.556C477.156 106 481.556 102.4 481.556 88.8C481.556 74.8 475.556 71.6 446.356 71.6C417.156 71.6 411.156 76 411.156 90.4V98.8H337.156V86C337.156 33.2 378.356 -2.86102e-06 452.756 -2.86102e-06C513.556 -2.86102e-06 556.756 22.4 556.756 70C556.756 103.6 538.756 124 501.956 127.2V132.4C547.156 134 569.156 159.2 569.156 196.4C569.156 246 531.156 276 451.956 276Z"/>
</mask>
<path d="M263.2 328.4V332.4H271.247L266.389 325.985L263.2 328.4ZM164.4 328.4L160.934 330.396L162.087 332.4H164.4V328.4ZM134 275.6L137.466 273.604L136.372 271.703L134.18 271.604L134 275.6ZM212 260.8L210.144 257.257L205.959 259.449L208.811 263.215L212 260.8ZM263.2 324.4H164.4V332.4H263.2V324.4ZM167.866 326.404L137.466 273.604L130.534 277.596L160.934 330.396L167.866 326.404ZM134.18 271.604C95.0604 269.844 64.6371 255.997 43.971 233.072C23.2782 210.117 12 177.651 12 138H4C4 179.149 15.7218 213.683 38.029 238.428C60.3629 263.203 92.9396 277.756 133.82 279.596L134.18 271.604ZM12 138C12 96.9832 24.1566 63.5613 46.3378 40.4177C68.4964 17.2978 101.075 4 142.8 4V-4C99.3249 -4 64.5036 9.90215 40.5622 34.8822C16.6434 59.8387 4 95.4168 4 138H12ZM142.8 4C184.32 4 216.798 17.2945 238.909 40.4146C261.043 63.5591 273.2 96.9831 273.2 138H281.2C281.2 95.4169 268.557 59.8409 244.691 34.8854C220.802 9.90548 186.08 -4 142.8 -4V4ZM273.2 138C273.2 194.076 250.532 236.101 210.144 257.257L213.856 264.343C257.468 241.499 281.2 196.324 281.2 138H273.2ZM208.811 263.215L260.011 330.815L266.389 325.985L215.189 258.385L208.811 263.215ZM142.8 206.8C163.567 206.8 178.622 203.54 188.104 192.334C197.382 181.368 200.4 163.789 200.4 138H192.4C192.4 163.811 189.218 178.632 181.996 187.166C174.978 195.46 163.233 198.8 142.8 198.8V206.8ZM200.4 138C200.4 112.211 197.382 94.6319 188.104 83.6662C178.622 72.4605 163.567 69.2 142.8 69.2V77.2C163.233 77.2 174.978 80.5395 181.996 88.8338C189.218 97.3681 192.4 112.189 192.4 138H200.4ZM142.8 69.2C121.842 69.2 106.689 72.457 97.1542 83.6571C87.8168 94.6257 84.8 112.212 84.8 138H92.8C92.8 112.187 95.9832 97.3743 103.246 88.8429C110.311 80.543 122.158 77.2 142.8 77.2V69.2ZM84.8 138C84.8 163.787 87.8168 181.374 97.1542 192.343C106.689 203.543 121.842 206.8 142.8 206.8V198.8C122.158 198.8 110.311 195.457 103.246 187.157C95.9832 178.626 92.8 163.812 92.8 138H84.8ZM337.156 172V168H333.156V172H337.156ZM411.156 172H415.156V168H411.156V172ZM422.356 164.4H418.356V168.4H422.356V164.4ZM422.356 106V102H418.356V106H422.356ZM411.156 98.8V102.8H415.156V98.8H411.156ZM337.156 98.8H333.156V102.8H337.156V98.8ZM501.956 127.2L501.61 123.215L497.956 123.533V127.2H501.956ZM501.956 132.4H497.956V136.261L501.815 136.397L501.956 132.4ZM451.956 272C410.368 272 382.76 263.762 365.59 249.705C348.587 235.785 341.156 215.598 341.156 190H333.156C333.156 217.202 341.126 240.015 360.522 255.895C379.753 271.638 409.545 280 451.956 280V272ZM341.156 190V172H333.156V190H341.156ZM337.156 176H411.156V168H337.156V176ZM407.156 172V185.6H415.156V172H407.156ZM407.156 185.6C407.156 189.477 407.631 193.135 409.168 196.342C410.763 199.667 413.337 202.172 416.905 203.971C420.365 205.716 424.741 206.793 430.068 207.457C435.424 208.124 441.987 208.4 449.956 208.4V200.4C442.126 200.4 435.938 200.126 431.057 199.518C426.146 198.907 422.798 197.984 420.508 196.829C418.326 195.728 417.125 194.433 416.382 192.883C415.582 191.215 415.156 188.923 415.156 185.6H407.156ZM449.956 208.4C457.056 208.4 463.421 208.326 468.937 207.894C474.43 207.464 479.338 206.662 483.442 205.083C487.624 203.475 491.097 201.008 493.454 197.239C495.775 193.527 496.756 188.96 496.756 183.6H488.756C488.756 188.04 487.937 190.973 486.671 192.998C485.44 194.967 483.538 196.475 480.57 197.617C477.525 198.788 473.508 199.511 468.313 199.918C463.141 200.324 457.057 200.4 449.956 200.4V208.4ZM496.756 183.6C496.756 175.522 494.96 169.208 489.966 165.185C485.212 161.356 478.463 160.4 470.756 160.4V168.4C478.249 168.4 482.501 169.444 484.947 171.415C487.153 173.192 488.756 176.478 488.756 183.6H496.756ZM470.756 160.4H422.356V168.4H470.756V160.4ZM426.356 164.4V106H418.356V164.4H426.356ZM422.356 110H461.556V102H422.356V110ZM461.556 110C469.324 110 475.726 109.189 480.001 105.544C484.498 101.711 485.556 95.7612 485.556 88.8H477.556C477.556 95.4388 476.415 98.0892 474.811 99.4559C472.987 101.011 469.388 102 461.556 102V110ZM485.556 88.8C485.556 85.0896 485.173 81.5987 483.812 78.5677C482.378 75.3754 480.009 73.0129 476.681 71.3653C473.494 69.7873 469.47 68.8824 464.617 68.3432C459.727 67.7999 453.702 67.6 446.356 67.6V75.6C453.61 75.6 459.286 75.8001 463.733 76.2943C468.218 76.7925 471.168 77.5626 473.131 78.5346C474.954 79.4371 475.909 80.4996 476.514 81.8448C477.19 83.3512 477.556 85.5103 477.556 88.8H485.556ZM446.356 67.6C438.982 67.6 432.926 67.8761 427.996 68.5493C423.094 69.2186 419.043 70.3127 415.844 72.1146C412.522 73.9853 410.234 76.5551 408.859 79.845C407.542 82.9961 407.156 86.586 407.156 90.4H415.156C415.156 87.0139 415.52 84.6539 416.241 82.93C416.903 81.3449 417.941 80.1147 419.769 79.0854C421.719 77.9872 424.643 77.0813 429.079 76.4757C433.486 75.8738 439.13 75.6 446.356 75.6V67.6ZM407.156 90.4V98.8H415.156V90.4H407.156ZM411.156 94.8H337.156V102.8H411.156V94.8ZM341.156 98.8V86H333.156V98.8H341.156ZM341.156 86C341.156 60.7566 350.944 40.4732 369.477 26.3843C388.148 12.1904 416.084 4 452.756 4V-4C415.028 -4 385.164 4.40957 364.636 20.0157C343.969 35.7268 333.156 58.4434 333.156 86H341.156ZM452.756 4C482.76 4 507.913 9.54233 525.43 20.5378C542.726 31.395 552.756 47.648 552.756 70H560.756C560.756 44.752 549.187 26.005 529.683 13.7621C510.4 1.65766 483.552 -4 452.756 -4V4ZM552.756 70C552.756 86.0914 548.458 98.5025 540.239 107.263C532.008 116.037 519.355 121.672 501.61 123.215L502.303 131.185C521.357 129.528 536.104 123.363 546.073 112.737C556.055 102.098 560.756 87.5086 560.756 70H552.756ZM497.956 127.2V132.4H505.956V127.2H497.956ZM501.815 136.397C523.711 137.173 539.434 143.635 549.678 153.878C559.907 164.108 565.156 178.593 565.156 196.4H573.156C573.156 177.007 567.405 160.292 555.335 148.222C543.278 136.165 525.402 129.227 502.098 128.403L501.815 136.397ZM565.156 196.4C565.156 220.036 556.182 238.657 537.949 251.533C519.501 264.56 491.151 272 451.956 272V280C491.961 280 522.211 272.44 542.564 258.067C563.131 243.543 573.156 222.364 573.156 196.4H565.156Z" fill="url(#paint0_linear_2311_1338)" mask="url(#path-1-inside-1_2311_1338)"/>
<path d="M421.8 330H388.86V323.7C388.86 316.2 392.52 313.5 397.74 310.98L408.42 305.76C410.16 304.92 410.88 304.32 410.88 302.52C410.88 300.24 409.68 299.46 405.36 299.46C400.56 299.46 399.78 300.6 399.78 303.72V304.8H388.5V303.84C388.5 295.8 393.42 289.2 406.26 289.2C417.36 289.2 422.16 294.96 422.16 302.28C422.16 309.96 416.52 313.5 411.24 315.3L403.74 317.82C401.4 318.6 401.04 319.38 401.04 320.46L406.8 319.86H421.8V330ZM452.012 330.6C439.712 330.6 433.352 322.26 433.352 309.9C433.352 297.6 439.712 289.2 452.012 289.2C464.252 289.2 470.672 297.6 470.672 309.9C470.672 322.26 464.252 330.6 452.012 330.6ZM452.012 319.62C457.172 319.62 458.552 318.24 458.552 309.9C458.552 301.56 457.172 300.18 452.012 300.18C446.792 300.18 445.472 301.56 445.472 309.9C445.472 318.24 446.792 319.62 452.012 319.62ZM515.562 330H482.622V323.7C482.622 316.2 486.282 313.5 491.502 310.98L502.182 305.76C503.922 304.92 504.642 304.32 504.642 302.52C504.642 300.24 503.442 299.46 499.122 299.46C494.322 299.46 493.542 300.6 493.542 303.72V304.8H482.262V303.84C482.262 295.8 487.182 289.2 500.022 289.2C511.122 289.2 515.922 294.96 515.922 302.28C515.922 309.96 510.282 313.5 505.002 315.3L497.502 317.82C495.162 318.6 494.802 319.38 494.802 320.46L500.562 319.86H515.562V330ZM558.385 330H547.165V322.98H526.045V314.76L545.305 289.8H558.385V312.84H563.785V322.98H558.385V330ZM539.785 312.84H547.165V303H546.625L539.785 312.3V312.84Z" fill="black"/>
<path d="M421.8 330H388.86V323.7C388.86 316.2 392.52 313.5 397.74 310.98L408.42 305.76C410.16 304.92 410.88 304.32 410.88 302.52C410.88 300.24 409.68 299.46 405.36 299.46C400.56 299.46 399.78 300.6 399.78 303.72V304.8H388.5V303.84C388.5 295.8 393.42 289.2 406.26 289.2C417.36 289.2 422.16 294.96 422.16 302.28C422.16 309.96 416.52 313.5 411.24 315.3L403.74 317.82C401.4 318.6 401.04 319.38 401.04 320.46L406.8 319.86H421.8V330ZM452.012 330.6C439.712 330.6 433.352 322.26 433.352 309.9C433.352 297.6 439.712 289.2 452.012 289.2C464.252 289.2 470.672 297.6 470.672 309.9C470.672 322.26 464.252 330.6 452.012 330.6ZM452.012 319.62C457.172 319.62 458.552 318.24 458.552 309.9C458.552 301.56 457.172 300.18 452.012 300.18C446.792 300.18 445.472 301.56 445.472 309.9C445.472 318.24 446.792 319.62 452.012 319.62ZM515.562 330H482.622V323.7C482.622 316.2 486.282 313.5 491.502 310.98L502.182 305.76C503.922 304.92 504.642 304.32 504.642 302.52C504.642 300.24 503.442 299.46 499.122 299.46C494.322 299.46 493.542 300.6 493.542 303.72V304.8H482.262V303.84C482.262 295.8 487.182 289.2 500.022 289.2C511.122 289.2 515.922 294.96 515.922 302.28C515.922 309.96 510.282 313.5 505.002 315.3L497.502 317.82C495.162 318.6 494.802 319.38 494.802 320.46L500.562 319.86H515.562V330ZM558.385 330H547.165V322.98H526.045V314.76L545.305 289.8H558.385V312.84H563.785V322.98H558.385V330ZM539.785 312.84H547.165V303H546.625L539.785 312.3V312.84Z" fill="#8F92D4"/>
<defs>
<linearGradient id="paint0_linear_2311_1338" x1="0" y1="4" x2="418.479" y2="426.164" gradientUnits="userSpaceOnUse">
<stop stop-color="#14D1E8"/>
<stop offset="1" stop-color="#C35CFC"/>
</linearGradient>
</defs>
</svg>
