<svg width="577" height="331" viewBox="0 0 577 331" fill="none" xmlns="http://www.w3.org/2000/svg">
<mask id="path-1-inside-1_2311_1339" fill="white">
<path d="M263.2 328.4H164.4L134 275.6C54 272 8 218.8 8 138C8 54.4 57.6 -2.86102e-06 142.8 -2.86102e-06C227.6 -2.86102e-06 277.2 54.4 277.2 138C277.2 195.2 254 238.8 212 260.8L263.2 328.4ZM142.8 202.8C184 202.8 196.4 189.6 196.4 138C196.4 86.4 184 73.2 142.8 73.2C101.2 73.2 88.8 86.4 88.8 138C88.8 189.6 101.2 202.8 142.8 202.8ZM536.756 272H461.956V225.2H321.156V170.4L449.556 3.99999H536.756V157.6H572.756V225.2H536.756V272ZM412.756 157.6H461.956V92H458.356L412.756 154V157.6Z"/>
</mask>
<path d="M263.2 328.4V332.4H271.247L266.389 325.985L263.2 328.4ZM164.4 328.4L160.934 330.396L162.087 332.4H164.4V328.4ZM134 275.6L137.466 273.604L136.372 271.703L134.18 271.604L134 275.6ZM212 260.8L210.144 257.257L205.959 259.449L208.811 263.215L212 260.8ZM263.2 324.4H164.4V332.4H263.2V324.4ZM167.866 326.404L137.466 273.604L130.534 277.596L160.934 330.396L167.866 326.404ZM134.18 271.604C95.0604 269.844 64.6371 255.997 43.971 233.072C23.2782 210.117 12 177.651 12 138H4C4 179.149 15.7218 213.683 38.029 238.428C60.3629 263.203 92.9396 277.756 133.82 279.596L134.18 271.604ZM12 138C12 96.9832 24.1566 63.5613 46.3378 40.4177C68.4964 17.2978 101.075 4 142.8 4V-4C99.3249 -4 64.5036 9.90215 40.5622 34.8822C16.6434 59.8387 4 95.4168 4 138H12ZM142.8 4C184.32 4 216.798 17.2945 238.909 40.4146C261.043 63.5591 273.2 96.9831 273.2 138H281.2C281.2 95.4169 268.557 59.8409 244.691 34.8854C220.802 9.90548 186.08 -4 142.8 -4V4ZM273.2 138C273.2 194.076 250.532 236.101 210.144 257.257L213.856 264.343C257.468 241.499 281.2 196.324 281.2 138H273.2ZM208.811 263.215L260.011 330.815L266.389 325.985L215.189 258.385L208.811 263.215ZM142.8 206.8C163.567 206.8 178.622 203.54 188.104 192.334C197.382 181.368 200.4 163.789 200.4 138H192.4C192.4 163.811 189.218 178.632 181.996 187.166C174.978 195.46 163.233 198.8 142.8 198.8V206.8ZM200.4 138C200.4 112.211 197.382 94.6319 188.104 83.6662C178.622 72.4605 163.567 69.2 142.8 69.2V77.2C163.233 77.2 174.978 80.5395 181.996 88.8338C189.218 97.3681 192.4 112.189 192.4 138H200.4ZM142.8 69.2C121.842 69.2 106.689 72.457 97.1542 83.6571C87.8168 94.6257 84.8 112.212 84.8 138H92.8C92.8 112.187 95.9832 97.3743 103.246 88.8429C110.311 80.543 122.158 77.2 142.8 77.2V69.2ZM84.8 138C84.8 163.787 87.8168 181.374 97.1542 192.343C106.689 203.543 121.842 206.8 142.8 206.8V198.8C122.158 198.8 110.311 195.457 103.246 187.157C95.9832 178.626 92.8 163.812 92.8 138H84.8ZM536.756 272V276H540.756V272H536.756ZM461.956 272H457.956V276H461.956V272ZM461.956 225.2H465.956V221.2H461.956V225.2ZM321.156 225.2H317.156V229.2H321.156V225.2ZM321.156 170.4L317.989 167.956L317.156 169.036V170.4H321.156ZM449.556 3.99999V-6.67572e-06H447.59L446.389 1.55637L449.556 3.99999ZM536.756 3.99999H540.756V-6.67572e-06H536.756V3.99999ZM536.756 157.6H532.756V161.6H536.756V157.6ZM572.756 157.6H576.756V153.6H572.756V157.6ZM572.756 225.2V229.2H576.756V225.2H572.756ZM536.756 225.2V221.2H532.756V225.2H536.756ZM412.756 157.6H408.756V161.6H412.756V157.6ZM461.956 157.6V161.6H465.956V157.6H461.956ZM461.956 92H465.956V88H461.956V92ZM458.356 92V88H456.333L455.134 89.63L458.356 92ZM412.756 154L409.534 151.63L408.756 152.687V154H412.756ZM536.756 268H461.956V276H536.756V268ZM465.956 272V225.2H457.956V272H465.956ZM461.956 221.2H321.156V229.2H461.956V221.2ZM325.156 225.2V170.4H317.156V225.2H325.156ZM324.323 172.844L452.723 6.44362L446.389 1.55637L317.989 167.956L324.323 172.844ZM449.556 7.99999H536.756V-6.67572e-06H449.556V7.99999ZM532.756 3.99999V157.6H540.756V3.99999H532.756ZM536.756 161.6H572.756V153.6H536.756V161.6ZM568.756 157.6V225.2H576.756V157.6H568.756ZM572.756 221.2H536.756V229.2H572.756V221.2ZM532.756 225.2V272H540.756V225.2H532.756ZM412.756 161.6H461.956V153.6H412.756V161.6ZM465.956 157.6V92H457.956V157.6H465.956ZM461.956 88H458.356V96H461.956V88ZM455.134 89.63L409.534 151.63L415.979 156.37L461.579 94.37L455.134 89.63ZM408.756 154V157.6H416.756V154H408.756Z" fill="url(#paint0_linear_2311_1339)" mask="url(#path-1-inside-1_2311_1339)"/>
<path d="M425.8 330H392.86V323.7C392.86 316.2 396.52 313.5 401.74 310.98L412.42 305.76C414.16 304.92 414.88 304.32 414.88 302.52C414.88 300.24 413.68 299.46 409.36 299.46C404.56 299.46 403.78 300.6 403.78 303.72V304.8H392.5V303.84C392.5 295.8 397.42 289.2 410.26 289.2C421.36 289.2 426.16 294.96 426.16 302.28C426.16 309.96 420.52 313.5 415.24 315.3L407.74 317.82C405.4 318.6 405.04 319.38 405.04 320.46L410.8 319.86H425.8V330ZM456.012 330.6C443.712 330.6 437.352 322.26 437.352 309.9C437.352 297.6 443.712 289.2 456.012 289.2C468.252 289.2 474.672 297.6 474.672 309.9C474.672 322.26 468.252 330.6 456.012 330.6ZM456.012 319.62C461.172 319.62 462.552 318.24 462.552 309.9C462.552 301.56 461.172 300.18 456.012 300.18C450.792 300.18 449.472 301.56 449.472 309.9C449.472 318.24 450.792 319.62 456.012 319.62ZM519.562 330H486.622V323.7C486.622 316.2 490.282 313.5 495.502 310.98L506.182 305.76C507.922 304.92 508.642 304.32 508.642 302.52C508.642 300.24 507.442 299.46 503.122 299.46C498.322 299.46 497.542 300.6 497.542 303.72V304.8H486.262V303.84C486.262 295.8 491.182 289.2 504.022 289.2C515.122 289.2 519.922 294.96 519.922 302.28C519.922 309.96 514.282 313.5 509.002 315.3L501.502 317.82C499.162 318.6 498.802 319.38 498.802 320.46L504.562 319.86H519.562V330ZM562.385 330H551.165V322.98H530.045V314.76L549.305 289.8H562.385V312.84H567.785V322.98H562.385V330ZM543.785 312.84H551.165V303H550.625L543.785 312.3V312.84Z" fill="#8F92D4"/>
<defs>
<linearGradient id="paint0_linear_2311_1339" x1="0" y1="4" x2="418.454" y2="428.345" gradientUnits="userSpaceOnUse">
<stop stop-color="#14D1E8"/>
<stop offset="1" stop-color="#C35CFC"/>
</linearGradient>
</defs>
</svg>
