<svg width="1088" height="128" viewBox="0 0 1088 128" fill="none" xmlns="http://www.w3.org/2000/svg">
<path d="M97.7866 126H0.846582V2.05H35.6266V94.735H97.7866V126ZM134.1 126H98.2101L141.315 2.05H191.82L234.74 126H196.63L189.045 102.135H142.055L134.1 126ZM154.45 64.58L152.045 71.795H179.24L177.02 64.58L167.215 32.205H164.625L154.45 64.58ZM292.026 126H257.246V84.19L208.776 2.05H250.031L265.571 31.28L273.896 49.78H276.301L284.441 31.28L299.981 2.05H340.496L292.026 83.82V126ZM442.387 126H342.302V2.05H442.387V33.315H377.082V48.3H439.612V79.38H377.082V94.735H442.387V126ZM487.829 126H453.049V2.05H515.394C546.659 2.05 561.459 15.37 561.459 40.16C561.459 59.77 553.874 71.98 532.969 74.385V76.05C545.549 79.38 550.544 87.335 555.354 97.88L568.304 126H527.789L515.579 100.285C510.399 89.555 507.994 86.41 496.339 86.41H487.829V126ZM487.829 33.315V57.55H514.099C523.904 57.55 526.679 54.775 526.679 44.97C526.679 35.905 523.904 33.315 514.099 33.315H487.829ZM622.607 127.85C587.642 127.85 569.512 103.985 569.512 64.025C569.512 25.36 592.082 0.199999 633.522 0.199999C672.187 0.199999 690.872 19.44 690.872 48.485V49.78H653.687V49.225C653.687 37.94 648.877 34.055 631.117 34.055C612.802 34.055 606.882 39.05 606.882 64.025C606.882 91.59 613.542 95.845 634.262 95.845C652.207 95.845 656.832 92.885 657.387 85.3H628.157V59.215H691.057V126H658.497V108.61H656.832C653.132 117.675 645.362 127.85 622.607 127.85ZM723.788 126H687.898L731.003 2.05H781.508L824.428 126H786.318L778.733 102.135H731.743L723.788 126ZM744.138 64.58L741.733 71.795H768.928L766.708 64.58L756.903 32.205H754.313L744.138 64.58ZM860.9 126H826.12V2.05H873.11L891.61 50.89L899.565 82.895H901.97L910.48 50.89L926.945 2.05H973.935V126H939.155V80.675L941.19 54.035H938.785L931.2 82.525L921.21 113.05H878.845L868.855 82.525L861.085 54.035H858.68L860.9 80.675V126ZM1087.72 126H987.634V2.05H1087.72V33.315H1022.41V48.3H1084.94V79.38H1022.41V94.735H1087.72V126Z" fill="black"/>
<path d="M97.7866 126V128.25H100.037V126H97.7866ZM0.846582 126H-1.40342V128.25H0.846582V126ZM0.846582 2.05V-0.200003H-1.40342V2.05H0.846582ZM35.6266 2.05H37.8766V-0.200003H35.6266V2.05ZM35.6266 94.735H33.3766V96.985H35.6266V94.735ZM97.7866 94.735H100.037V92.485H97.7866V94.735ZM97.7866 123.75H0.846582V128.25H97.7866V123.75ZM3.09658 126V2.05H-1.40342V126H3.09658ZM0.846582 4.3H35.6266V-0.200003H0.846582V4.3ZM33.3766 2.05V94.735H37.8766V2.05H33.3766ZM35.6266 96.985H97.7866V92.485H35.6266V96.985ZM95.5366 94.735V126H100.037V94.735H95.5366ZM134.1 126V128.25H135.722L136.235 126.712L134.1 126ZM98.2101 126L96.0849 125.261L95.0454 128.25H98.2101V126ZM141.315 2.05V-0.200003H139.715L139.19 1.31095L141.315 2.05ZM191.82 2.05L193.946 1.31378L193.422 -0.200003H191.82V2.05ZM234.74 126V128.25H237.9L236.866 125.264L234.74 126ZM196.63 126L194.486 126.682L194.984 128.25H196.63V126ZM189.045 102.135L191.189 101.453L190.691 99.885H189.045V102.135ZM142.055 102.135V99.885H140.433L139.921 101.423L142.055 102.135ZM154.45 64.58L156.585 65.2915L156.591 65.2731L156.597 65.2546L154.45 64.58ZM152.045 71.795L149.911 71.0835L148.923 74.045H152.045V71.795ZM179.24 71.795V74.045H182.286L181.391 71.1333L179.24 71.795ZM177.02 64.58L174.867 65.2322L174.87 65.2417L177.02 64.58ZM167.215 32.205L169.368 31.5528L168.885 29.955H167.215V32.205ZM164.625 32.205V29.955H162.974L162.479 31.5304L164.625 32.205ZM134.1 123.75H98.2101V128.25H134.1V123.75ZM100.335 126.739L143.44 2.78905L139.19 1.31095L96.0849 125.261L100.335 126.739ZM141.315 4.3H191.82V-0.200003H141.315V4.3ZM189.694 2.78621L232.614 126.736L236.866 125.264L193.946 1.31378L189.694 2.78621ZM234.74 123.75H196.63V128.25H234.74V123.75ZM198.774 125.318L191.189 101.453L186.901 102.817L194.486 126.682L198.774 125.318ZM189.045 99.885H142.055V104.385H189.045V99.885ZM139.921 101.423L131.966 125.288L136.235 126.712L144.19 102.847L139.921 101.423ZM152.316 63.8685L149.911 71.0835L154.18 72.5065L156.585 65.2915L152.316 63.8685ZM152.045 74.045H179.24V69.545H152.045V74.045ZM181.391 71.1333L179.171 63.9183L174.87 65.2417L177.09 72.4567L181.391 71.1333ZM179.173 63.9278L169.368 31.5528L165.062 32.8572L174.867 65.2322L179.173 63.9278ZM167.215 29.955H164.625V34.455H167.215V29.955ZM162.479 31.5304L152.304 63.9054L156.597 65.2546L166.772 32.8796L162.479 31.5304ZM292.026 126V128.25H294.276V126H292.026ZM257.246 126H254.996V128.25H257.246V126ZM257.246 84.19H259.496V83.5756L259.184 83.0465L257.246 84.19ZM208.776 2.05V-0.200003H204.836L206.839 3.19346L208.776 2.05ZM250.031 2.05L252.018 0.993785L251.383 -0.200003H250.031V2.05ZM265.571 31.28L267.623 30.3567L267.593 30.2892L267.558 30.2238L265.571 31.28ZM273.896 49.78L271.845 50.7033L272.442 52.03H273.896V49.78ZM276.301 49.78V52.03H277.77L278.361 50.6862L276.301 49.78ZM284.441 31.28L282.455 30.2238L282.416 30.2975L282.382 30.3738L284.441 31.28ZM299.981 2.05V-0.200003H298.629L297.995 0.993785L299.981 2.05ZM340.496 2.05L342.432 3.19729L344.446 -0.200003H340.496V2.05ZM292.026 83.82L290.091 82.6727L289.776 83.2032V83.82H292.026ZM292.026 123.75H257.246V128.25H292.026V123.75ZM259.496 126V84.19H254.996V126H259.496ZM259.184 83.0465L210.714 0.906532L206.839 3.19346L255.309 85.3335L259.184 83.0465ZM208.776 4.3H250.031V-0.200003H208.776V4.3ZM248.045 3.10621L263.585 32.3362L267.558 30.2238L252.018 0.993785L248.045 3.10621ZM263.52 32.2033L271.845 50.7033L275.948 48.8567L267.623 30.3567L263.52 32.2033ZM273.896 52.03H276.301V47.53H273.896V52.03ZM278.361 50.6862L286.501 32.1862L282.382 30.3738L274.242 48.8738L278.361 50.6862ZM286.428 32.3362L301.968 3.10621L297.995 0.993785L282.455 30.2238L286.428 32.3362ZM299.981 4.3H340.496V-0.200003H299.981V4.3ZM338.561 0.902701L290.091 82.6727L293.962 84.9673L342.432 3.19729L338.561 0.902701ZM289.776 83.82V126H294.276V83.82H289.776ZM442.387 126V128.25H444.637V126H442.387ZM342.302 126H340.052V128.25H342.302V126ZM342.302 2.05V-0.200003H340.052V2.05H342.302ZM442.387 2.05H444.637V-0.200003H442.387V2.05ZM442.387 33.315V35.565H444.637V33.315H442.387ZM377.082 33.315V31.065H374.832V33.315H377.082ZM377.082 48.3H374.832V50.55H377.082V48.3ZM439.612 48.3H441.862V46.05H439.612V48.3ZM439.612 79.38V81.63H441.862V79.38H439.612ZM377.082 79.38V77.13H374.832V79.38H377.082ZM377.082 94.735H374.832V96.985H377.082V94.735ZM442.387 94.735H444.637V92.485H442.387V94.735ZM442.387 123.75H342.302V128.25H442.387V123.75ZM344.552 126V2.05H340.052V126H344.552ZM342.302 4.3H442.387V-0.200003H342.302V4.3ZM440.137 2.05V33.315H444.637V2.05H440.137ZM442.387 31.065H377.082V35.565H442.387V31.065ZM374.832 33.315V48.3H379.332V33.315H374.832ZM377.082 50.55H439.612V46.05H377.082V50.55ZM437.362 48.3V79.38H441.862V48.3H437.362ZM439.612 77.13H377.082V81.63H439.612V77.13ZM374.832 79.38V94.735H379.332V79.38H374.832ZM377.082 96.985H442.387V92.485H377.082V96.985ZM440.137 94.735V126H444.637V94.735H440.137ZM487.829 126V128.25H490.079V126H487.829ZM453.049 126H450.799V128.25H453.049V126ZM453.049 2.05V-0.200003H450.799V2.05H453.049ZM532.969 74.385L532.712 72.1497L530.719 72.379V74.385H532.969ZM532.969 76.05H530.719V77.7819L532.393 78.2251L532.969 76.05ZM555.354 97.88L553.307 98.8138L553.31 98.8212L555.354 97.88ZM568.304 126V128.25H571.817L570.347 125.059L568.304 126ZM527.789 126L525.756 126.965L526.366 128.25H527.789V126ZM515.579 100.285L517.611 99.3199L517.608 99.3134L517.605 99.3068L515.579 100.285ZM487.829 86.41V84.16H485.579V86.41H487.829ZM487.829 33.315V31.065H485.579V33.315H487.829ZM487.829 57.55H485.579V59.8H487.829V57.55ZM487.829 123.75H453.049V128.25H487.829V123.75ZM455.299 126V2.05H450.799V126H455.299ZM453.049 4.3H515.394V-0.200003H453.049V4.3ZM515.394 4.3C530.759 4.3 541.661 7.5806 548.698 13.5274C555.665 19.4138 559.209 28.226 559.209 40.16H563.709C563.709 27.304 559.853 17.0612 551.603 10.0901C543.424 3.17939 531.293 -0.200003 515.394 -0.200003V4.3ZM559.209 40.16C559.209 49.7199 557.353 57.097 553.276 62.344C549.244 67.5349 542.759 70.9939 532.712 72.1497L533.226 76.6203C544.084 75.3711 551.844 71.5226 556.83 65.1048C561.772 58.743 563.709 50.2101 563.709 40.16H559.209ZM530.719 74.385V76.05H535.219V74.385H530.719ZM532.393 78.2251C538.284 79.7846 542.298 82.3875 545.419 85.7821C548.588 89.2304 550.92 93.5823 553.307 98.8138L557.401 96.9462C554.977 91.6327 552.407 86.7346 548.731 82.7367C545.007 78.685 540.233 75.6454 533.544 73.8749L532.393 78.2251ZM553.31 98.8212L566.26 126.941L570.347 125.059L557.397 96.9388L553.31 98.8212ZM568.304 123.75H527.789V128.25H568.304V123.75ZM529.821 125.035L517.611 99.3199L513.546 101.25L525.756 126.965L529.821 125.035ZM517.605 99.3068C515.058 94.031 512.961 90.0584 509.778 87.5551C506.463 84.9485 502.309 84.16 496.339 84.16V88.66C502.024 88.66 504.9 89.444 506.996 91.0924C509.224 92.8441 510.919 95.809 513.552 101.263L517.605 99.3068ZM496.339 84.16H487.829V88.66H496.339V84.16ZM485.579 86.41V126H490.079V86.41H485.579ZM485.579 33.315V57.55H490.079V33.315H485.579ZM487.829 59.8H514.099V55.3H487.829V59.8ZM514.099 59.8C519.044 59.8 523.041 59.1437 525.657 56.5279C528.272 53.912 528.929 49.915 528.929 44.97H524.429C524.429 49.83 523.697 52.123 522.475 53.3459C521.252 54.5688 518.959 55.3 514.099 55.3V59.8ZM528.929 44.97C528.929 40.3654 528.264 36.5689 525.596 34.0936C522.984 31.6709 519.023 31.065 514.099 31.065V35.565C518.979 35.565 521.308 36.2541 522.535 37.3926C523.706 38.4786 524.429 40.5096 524.429 44.97H528.929ZM514.099 31.065H487.829V35.565H514.099V31.065ZM690.872 49.78V52.03H693.122V49.78H690.872ZM653.687 49.78H651.437V52.03H653.687V49.78ZM657.387 85.3L659.631 85.4642L659.808 83.05H657.387V85.3ZM628.157 85.3H625.907V87.55H628.157V85.3ZM628.157 59.215V56.965H625.907V59.215H628.157ZM691.057 59.215H693.307V56.965H691.057V59.215ZM691.057 126V128.25H693.307V126H691.057ZM658.497 126H656.247V128.25H658.497V126ZM658.497 108.61H660.747V106.36H658.497V108.61ZM656.832 108.61V106.36H655.32L654.749 107.76L656.832 108.61ZM622.607 125.6C605.678 125.6 593.097 119.85 584.694 109.504C576.231 99.0847 571.762 83.7052 571.762 64.025H567.262C567.262 84.3048 571.858 100.838 581.201 112.341C590.604 123.918 604.571 130.1 622.607 130.1V125.6ZM571.762 64.025C571.762 45.1241 577.272 29.7862 587.59 19.1822C597.897 8.58865 613.264 2.45 633.522 2.45V-2.05C612.34 -2.05 595.702 4.39135 584.364 16.0441C573.037 27.6863 567.262 44.2609 567.262 64.025H571.762ZM633.522 2.45C652.507 2.45 666.24 7.17359 675.202 15.133C684.128 23.0598 688.622 34.462 688.622 48.485H693.122C693.122 33.463 688.273 20.7227 678.19 11.7683C668.144 2.8464 653.202 -2.05 633.522 -2.05V2.45ZM688.622 48.485V49.78H693.122V48.485H688.622ZM690.872 47.53H653.687V52.03H690.872V47.53ZM655.937 49.78V49.225H651.437V49.78H655.937ZM655.937 49.225C655.937 43.3149 654.677 38.5747 650.347 35.5613C646.294 32.7402 639.996 31.805 631.117 31.805V36.305C639.998 36.305 644.985 37.3123 647.777 39.2549C650.292 41.0053 651.437 43.8501 651.437 49.225H655.937ZM631.117 31.805C621.931 31.805 614.91 33.0072 610.428 38.2049C606.06 43.2695 604.632 51.5622 604.632 64.025H609.132C609.132 51.5128 610.664 44.8205 613.835 41.1438C616.891 37.6003 621.988 36.305 631.117 36.305V31.805ZM604.632 64.025C604.632 77.7638 606.235 86.5906 611.166 91.816C616.159 97.1081 623.976 98.095 634.262 98.095V93.595C623.828 93.595 617.955 92.4544 614.438 88.7277C610.859 84.9344 609.132 77.8512 609.132 64.025H604.632ZM634.262 98.095C643.229 98.095 649.349 97.3778 653.33 95.44C655.403 94.4314 656.954 93.0682 658.002 91.2898C659.03 89.5444 659.478 87.5622 659.631 85.4642L655.143 85.1358C655.019 86.8303 654.68 88.0625 654.125 89.0053C653.588 89.9153 652.757 90.7143 651.361 91.3937C648.406 92.8322 643.24 93.595 634.262 93.595V98.095ZM657.387 83.05H628.157V87.55H657.387V83.05ZM630.407 85.3V59.215H625.907V85.3H630.407ZM628.157 61.465H691.057V56.965H628.157V61.465ZM688.807 59.215V126H693.307V59.215H688.807ZM691.057 123.75H658.497V128.25H691.057V123.75ZM660.747 126V108.61H656.247V126H660.747ZM658.497 106.36H656.832V110.86H658.497V106.36ZM654.749 107.76C652.998 112.048 650.353 116.439 645.574 119.786C640.794 123.135 633.647 125.6 622.607 125.6V130.1C634.322 130.1 642.438 127.477 648.156 123.472C653.876 119.466 656.966 114.237 658.915 109.46L654.749 107.76ZM723.788 126V128.25H725.409L725.922 126.712L723.788 126ZM687.898 126L685.772 125.261L684.733 128.25H687.898V126ZM731.003 2.05V-0.200003H729.403L728.877 1.31095L731.003 2.05ZM781.508 2.05L783.634 1.31378L783.11 -0.200003H781.508V2.05ZM824.428 126V128.25H827.588L826.554 125.264L824.428 126ZM786.318 126L784.173 126.682L784.672 128.25H786.318V126ZM778.733 102.135L780.877 101.453L780.378 99.885H778.733V102.135ZM731.743 102.135V99.885H730.121L729.608 101.423L731.743 102.135ZM744.138 64.58L746.272 65.2915L746.278 65.2731L746.284 65.2546L744.138 64.58ZM741.733 71.795L739.598 71.0835L738.611 74.045H741.733V71.795ZM768.928 71.795V74.045H771.974L771.078 71.1333L768.928 71.795ZM766.708 64.58L764.554 65.2322L764.557 65.2417L766.708 64.58ZM756.903 32.205L759.056 31.5528L758.572 29.955H756.903V32.205ZM754.313 32.205V29.955H752.661L752.166 31.5304L754.313 32.205ZM723.788 123.75H687.898V128.25H723.788V123.75ZM690.023 126.739L733.128 2.78905L728.877 1.31095L685.772 125.261L690.023 126.739ZM731.003 4.3H781.508V-0.200003H731.003V4.3ZM779.381 2.78621L822.301 126.736L826.554 125.264L783.634 1.31378L779.381 2.78621ZM824.428 123.75H786.318V128.25H824.428V123.75ZM788.462 125.318L780.877 101.453L776.588 102.817L784.173 126.682L788.462 125.318ZM778.733 99.885H731.743V104.385H778.733V99.885ZM729.608 101.423L721.653 125.288L725.922 126.712L733.877 102.847L729.608 101.423ZM742.003 63.8685L739.598 71.0835L743.867 72.5065L746.272 65.2915L742.003 63.8685ZM741.733 74.045H768.928V69.545H741.733V74.045ZM771.078 71.1333L768.858 63.9183L764.557 65.2417L766.777 72.4567L771.078 71.1333ZM768.861 63.9278L759.056 31.5528L754.749 32.8572L764.554 65.2322L768.861 63.9278ZM756.903 29.955H754.313V34.455H756.903V29.955ZM752.166 31.5304L741.991 63.9054L746.284 65.2546L756.459 32.8796L752.166 31.5304ZM860.9 126V128.25H863.15V126H860.9ZM826.12 126H823.87V128.25H826.12V126ZM826.12 2.05V-0.200003H823.87V2.05H826.12ZM873.11 2.05L875.214 1.25299L874.664 -0.200003H873.11V2.05ZM891.61 50.89L893.794 50.3473L893.761 50.2178L893.714 50.093L891.61 50.89ZM899.565 82.895L897.381 83.4377L897.806 85.145H899.565V82.895ZM901.97 82.895V85.145H903.7L904.144 83.4732L901.97 82.895ZM910.48 50.89L908.348 50.1712L908.324 50.2408L908.306 50.3118L910.48 50.89ZM926.945 2.05V-0.200003H925.329L924.813 1.33122L926.945 2.05ZM973.935 2.05H976.185V-0.200003H973.935V2.05ZM973.935 126V128.25H976.185V126H973.935ZM939.155 126H936.905V128.25H939.155V126ZM939.155 80.675L936.912 80.5036L936.905 80.5892V80.675H939.155ZM941.19 54.035L943.433 54.2064L943.618 51.785H941.19V54.035ZM938.785 54.035V51.785H937.056L936.611 53.4561L938.785 54.035ZM931.2 82.525L933.338 83.2248L933.358 83.1649L933.374 83.1039L931.2 82.525ZM921.21 113.05V115.3H922.841L923.348 113.75L921.21 113.05ZM878.845 113.05L876.707 113.75L877.214 115.3H878.845V113.05ZM868.855 82.525L866.684 83.117L866.699 83.1713L866.717 83.2248L868.855 82.525ZM861.085 54.035L863.256 53.443L862.804 51.785H861.085V54.035ZM858.68 54.035V51.785H856.235L856.438 54.2218L858.68 54.035ZM860.9 80.675H863.15V80.5814L863.142 80.4881L860.9 80.675ZM860.9 123.75H826.12V128.25H860.9V123.75ZM828.37 126V2.05H823.87V126H828.37ZM826.12 4.3H873.11V-0.200003H826.12V4.3ZM871.006 2.84701L889.506 51.687L893.714 50.093L875.214 1.25299L871.006 2.84701ZM889.426 51.4327L897.381 83.4377L901.749 82.3523L893.794 50.3473L889.426 51.4327ZM899.565 85.145H901.97V80.645H899.565V85.145ZM904.144 83.4732L912.654 51.4682L908.306 50.3118L899.796 82.3168L904.144 83.4732ZM912.612 51.6088L929.077 2.76877L924.813 1.33122L908.348 50.1712L912.612 51.6088ZM926.945 4.3H973.935V-0.200003H926.945V4.3ZM971.685 2.05V126H976.185V2.05H971.685ZM973.935 123.75H939.155V128.25H973.935V123.75ZM941.405 126V80.675H936.905V126H941.405ZM941.398 80.8464L943.433 54.2064L938.947 53.8636L936.912 80.5036L941.398 80.8464ZM941.19 51.785H938.785V56.285H941.19V51.785ZM936.611 53.4561L929.026 81.9461L933.374 83.1039L940.959 54.6139L936.611 53.4561ZM929.062 81.8252L919.072 112.35L923.348 113.75L933.338 83.2248L929.062 81.8252ZM921.21 110.8H878.845V115.3H921.21V110.8ZM880.983 112.35L870.993 81.8252L866.717 83.2248L876.707 113.75L880.983 112.35ZM871.026 81.933L863.256 53.443L858.914 54.627L866.684 83.117L871.026 81.933ZM861.085 51.785H858.68V56.285H861.085V51.785ZM856.438 54.2218L858.658 80.8619L863.142 80.4881L860.922 53.8481L856.438 54.2218ZM858.65 80.675V126H863.15V80.675H858.65ZM1087.72 126V128.25H1089.97V126H1087.72ZM987.634 126H985.384V128.25H987.634V126ZM987.634 2.05V-0.200003H985.384V2.05H987.634ZM1087.72 2.05H1089.97V-0.200003H1087.72V2.05ZM1087.72 33.315V35.565H1089.97V33.315H1087.72ZM1022.41 33.315V31.065H1020.16V33.315H1022.41ZM1022.41 48.3H1020.16V50.55H1022.41V48.3ZM1084.94 48.3H1087.19V46.05H1084.94V48.3ZM1084.94 79.38V81.63H1087.19V79.38H1084.94ZM1022.41 79.38V77.13H1020.16V79.38H1022.41ZM1022.41 94.735H1020.16V96.985H1022.41V94.735ZM1087.72 94.735H1089.97V92.485H1087.72V94.735ZM1087.72 123.75H987.634V128.25H1087.72V123.75ZM989.884 126V2.05H985.384V126H989.884ZM987.634 4.3H1087.72V-0.200003H987.634V4.3ZM1085.47 2.05V33.315H1089.97V2.05H1085.47ZM1087.72 31.065H1022.41V35.565H1087.72V31.065ZM1020.16 33.315V48.3H1024.66V33.315H1020.16ZM1022.41 50.55H1084.94V46.05H1022.41V50.55ZM1082.69 48.3V79.38H1087.19V48.3H1082.69ZM1084.94 77.13H1022.41V81.63H1084.94V77.13ZM1020.16 79.38V94.735H1024.66V79.38H1020.16ZM1022.41 96.985H1087.72V92.485H1022.41V96.985ZM1085.47 94.735V126H1089.97V94.735H1085.47Z" fill="url(#paint0_linear_279_168)"/>
<defs>
<linearGradient id="paint0_linear_279_168" x1="-6" y1="-47" x2="1048.74" y2="305.954" gradientUnits="userSpaceOnUse">
<stop stop-color="#20C7ED"/>
<stop offset="1" stop-color="#D251FD"/>
</linearGradient>
</defs>
</svg>
