<svg width="1120" height="228" viewBox="0 0 1120 228" fill="none" xmlns="http://www.w3.org/2000/svg">
<path d="M113.787 173V175.25H116.037V173H113.787ZM16.8466 173H14.5966V175.25H16.8466V173ZM16.8466 49.05V46.8H14.5966V49.05H16.8466ZM51.6266 49.05H53.8766V46.8H51.6266V49.05ZM51.6266 141.735H49.3766V143.985H51.6266V141.735ZM113.787 141.735H116.037V139.485H113.787V141.735ZM113.787 170.75H16.8466V175.25H113.787V170.75ZM19.0966 173V49.05H14.5966V173H19.0966ZM16.8466 51.3H51.6266V46.8H16.8466V51.3ZM49.3766 49.05V141.735H53.8766V49.05H49.3766ZM51.6266 143.985H113.787V139.485H51.6266V143.985ZM111.537 141.735V173H116.037V141.735H111.537ZM150.1 173V175.25H151.722L152.235 173.712L150.1 173ZM114.21 173L112.085 172.261L111.045 175.25H114.21V173ZM157.315 49.05V46.8H155.715L155.19 48.3109L157.315 49.05ZM207.82 49.05L209.946 48.3138L209.422 46.8H207.82V49.05ZM250.74 173V175.25H253.9L252.866 172.264L250.74 173ZM212.63 173L210.486 173.682L210.984 175.25H212.63V173ZM205.045 149.135L207.189 148.453L206.691 146.885H205.045V149.135ZM158.055 149.135V146.885H156.433L155.921 148.423L158.055 149.135ZM170.45 111.58L172.585 112.292L172.591 112.273L172.597 112.255L170.45 111.58ZM168.045 118.795L165.911 118.083L164.923 121.045H168.045V118.795ZM195.24 118.795V121.045H198.286L197.391 118.133L195.24 118.795ZM193.02 111.58L190.867 112.232L190.87 112.242L193.02 111.58ZM183.215 79.205L185.368 78.5528L184.885 76.955H183.215V79.205ZM180.625 79.205V76.955H178.974L178.479 78.5304L180.625 79.205ZM150.1 170.75H114.21V175.25H150.1V170.75ZM116.335 173.739L159.44 49.789L155.19 48.3109L112.085 172.261L116.335 173.739ZM157.315 51.3H207.82V46.8H157.315V51.3ZM205.694 49.7862L248.614 173.736L252.866 172.264L209.946 48.3138L205.694 49.7862ZM250.74 170.75H212.63V175.25H250.74V170.75ZM214.774 172.318L207.189 148.453L202.901 149.817L210.486 173.682L214.774 172.318ZM205.045 146.885H158.055V151.385H205.045V146.885ZM155.921 148.423L147.966 172.288L152.235 173.712L160.19 149.847L155.921 148.423ZM168.316 110.868L165.911 118.083L170.18 119.507L172.585 112.292L168.316 110.868ZM168.045 121.045H195.24V116.545H168.045V121.045ZM197.391 118.133L195.171 110.918L190.87 112.242L193.09 119.457L197.391 118.133ZM195.173 110.928L185.368 78.5528L181.062 79.8572L190.867 112.232L195.173 110.928ZM183.215 76.955H180.625V81.455H183.215V76.955ZM178.479 78.5304L168.304 110.905L172.597 112.255L182.772 79.8796L178.479 78.5304ZM308.026 173V175.25H310.276V173H308.026ZM273.246 173H270.996V175.25H273.246V173ZM273.246 131.19H275.496V130.576L275.184 130.047L273.246 131.19ZM224.776 49.05V46.8H220.836L222.839 50.1935L224.776 49.05ZM266.031 49.05L268.018 47.9938L267.383 46.8H266.031V49.05ZM281.571 78.28L283.623 77.3567L283.593 77.2892L283.558 77.2238L281.571 78.28ZM289.896 96.78L287.845 97.7033L288.442 99.03H289.896V96.78ZM292.301 96.78V99.03H293.77L294.361 97.6862L292.301 96.78ZM300.441 78.28L298.455 77.2238L298.416 77.2975L298.382 77.3738L300.441 78.28ZM315.981 49.05V46.8H314.629L313.995 47.9938L315.981 49.05ZM356.496 49.05L358.432 50.1973L360.446 46.8H356.496V49.05ZM308.026 130.82L306.091 129.673L305.776 130.203V130.82H308.026ZM308.026 170.75H273.246V175.25H308.026V170.75ZM275.496 173V131.19H270.996V173H275.496ZM275.184 130.047L226.714 47.9065L222.839 50.1935L271.309 132.333L275.184 130.047ZM224.776 51.3H266.031V46.8H224.776V51.3ZM264.045 50.1062L279.585 79.3362L283.558 77.2238L268.018 47.9938L264.045 50.1062ZM279.52 79.2033L287.845 97.7033L291.948 95.8567L283.623 77.3567L279.52 79.2033ZM289.896 99.03H292.301V94.53H289.896V99.03ZM294.361 97.6862L302.501 79.1862L298.382 77.3738L290.242 95.8738L294.361 97.6862ZM302.428 79.3362L317.968 50.1062L313.995 47.9938L298.455 77.2238L302.428 79.3362ZM315.981 51.3H356.496V46.8H315.981V51.3ZM354.561 47.9027L306.091 129.673L309.962 131.967L358.432 50.1973L354.561 47.9027ZM305.776 130.82V173H310.276V130.82H305.776ZM458.387 173V175.25H460.637V173H458.387ZM358.302 173H356.052V175.25H358.302V173ZM358.302 49.05V46.8H356.052V49.05H358.302ZM458.387 49.05H460.637V46.8H458.387V49.05ZM458.387 80.315V82.565H460.637V80.315H458.387ZM393.082 80.315V78.065H390.832V80.315H393.082ZM393.082 95.3H390.832V97.55H393.082V95.3ZM455.612 95.3H457.862V93.05H455.612V95.3ZM455.612 126.38V128.63H457.862V126.38H455.612ZM393.082 126.38V124.13H390.832V126.38H393.082ZM393.082 141.735H390.832V143.985H393.082V141.735ZM458.387 141.735H460.637V139.485H458.387V141.735ZM458.387 170.75H358.302V175.25H458.387V170.75ZM360.552 173V49.05H356.052V173H360.552ZM358.302 51.3H458.387V46.8H358.302V51.3ZM456.137 49.05V80.315H460.637V49.05H456.137ZM458.387 78.065H393.082V82.565H458.387V78.065ZM390.832 80.315V95.3H395.332V80.315H390.832ZM393.082 97.55H455.612V93.05H393.082V97.55ZM453.362 95.3V126.38H457.862V95.3H453.362ZM455.612 124.13H393.082V128.63H455.612V124.13ZM390.832 126.38V141.735H395.332V126.38H390.832ZM393.082 143.985H458.387V139.485H393.082V143.985ZM456.137 141.735V173H460.637V141.735H456.137ZM503.829 173V175.25H506.079V173H503.829ZM469.049 173H466.799V175.25H469.049V173ZM469.049 49.05V46.8H466.799V49.05H469.049ZM548.969 121.385L548.712 119.15L546.719 119.379V121.385H548.969ZM548.969 123.05H546.719V124.782L548.393 125.225L548.969 123.05ZM571.354 144.88L569.307 145.814L569.31 145.821L571.354 144.88ZM584.304 173V175.25H587.817L586.347 172.059L584.304 173ZM543.789 173L541.756 173.965L542.366 175.25H543.789V173ZM531.579 147.285L533.611 146.32L533.608 146.313L533.605 146.307L531.579 147.285ZM503.829 133.41V131.16H501.579V133.41H503.829ZM503.829 80.315V78.065H501.579V80.315H503.829ZM503.829 104.55H501.579V106.8H503.829V104.55ZM503.829 170.75H469.049V175.25H503.829V170.75ZM471.299 173V49.05H466.799V173H471.299ZM469.049 51.3H531.394V46.8H469.049V51.3ZM531.394 51.3C546.759 51.3 557.661 54.5806 564.698 60.5274C571.665 66.4138 575.209 75.226 575.209 87.16H579.709C579.709 74.304 575.853 64.0612 567.603 57.0901C559.424 50.1794 547.293 46.8 531.394 46.8V51.3ZM575.209 87.16C575.209 96.7199 573.353 104.097 569.276 109.344C565.244 114.535 558.759 117.994 548.712 119.15L549.226 123.62C560.084 122.371 567.844 118.523 572.83 112.105C577.772 105.743 579.709 97.2101 579.709 87.16H575.209ZM546.719 121.385V123.05H551.219V121.385H546.719ZM548.393 125.225C554.284 126.785 558.298 129.388 561.419 132.782C564.588 136.23 566.92 140.582 569.307 145.814L573.401 143.946C570.977 138.633 568.407 133.735 564.731 129.737C561.007 125.685 556.233 122.645 549.544 120.875L548.393 125.225ZM569.31 145.821L582.26 173.941L586.347 172.059L573.397 143.939L569.31 145.821ZM584.304 170.75H543.789V175.25H584.304V170.75ZM545.821 172.035L533.611 146.32L529.546 148.25L541.756 173.965L545.821 172.035ZM533.605 146.307C531.058 141.031 528.961 137.058 525.778 134.555C522.463 131.949 518.309 131.16 512.339 131.16V135.66C518.024 135.66 520.9 136.444 522.996 138.092C525.224 139.844 526.919 142.809 529.552 148.263L533.605 146.307ZM512.339 131.16H503.829V135.66H512.339V131.16ZM501.579 133.41V173H506.079V133.41H501.579ZM501.579 80.315V104.55H506.079V80.315H501.579ZM503.829 106.8H530.099V102.3H503.829V106.8ZM530.099 106.8C535.044 106.8 539.041 106.144 541.657 103.528C544.272 100.912 544.929 96.915 544.929 91.97H540.429C540.429 96.83 539.697 99.123 538.475 100.346C537.252 101.569 534.959 102.3 530.099 102.3V106.8ZM544.929 91.97C544.929 87.3654 544.264 83.5689 541.596 81.0936C538.984 78.6709 535.023 78.065 530.099 78.065V82.565C534.979 82.565 537.308 83.2541 538.535 84.3926C539.706 85.4786 540.429 87.5096 540.429 91.97H544.929ZM530.099 78.065H503.829V82.565H530.099V78.065ZM706.872 96.78V99.03H709.122V96.78H706.872ZM669.687 96.78H667.437V99.03H669.687V96.78ZM673.387 132.3L675.631 132.464L675.808 130.05H673.387V132.3ZM644.157 132.3H641.907V134.55H644.157V132.3ZM644.157 106.215V103.965H641.907V106.215H644.157ZM707.057 106.215H709.307V103.965H707.057V106.215ZM707.057 173V175.25H709.307V173H707.057ZM674.497 173H672.247V175.25H674.497V173ZM674.497 155.61H676.747V153.36H674.497V155.61ZM672.832 155.61V153.36H671.32L670.749 154.76L672.832 155.61ZM638.607 172.6C621.678 172.6 609.097 166.85 600.694 156.504C592.231 146.085 587.762 130.705 587.762 111.025H583.262C583.262 131.305 587.858 147.838 597.201 159.341C606.604 170.918 620.571 177.1 638.607 177.1V172.6ZM587.762 111.025C587.762 92.1241 593.272 76.7862 603.59 66.1822C613.897 55.5886 629.264 49.45 649.522 49.45V44.95C628.34 44.95 611.702 51.3913 600.364 63.0441C589.037 74.6863 583.262 91.2609 583.262 111.025H587.762ZM649.522 49.45C668.507 49.45 682.24 54.1736 691.202 62.133C700.128 70.0598 704.622 81.462 704.622 95.485H709.122C709.122 80.463 704.273 67.7227 694.19 58.7683C684.144 49.8464 669.202 44.95 649.522 44.95V49.45ZM704.622 95.485V96.78H709.122V95.485H704.622ZM706.872 94.53H669.687V99.03H706.872V94.53ZM671.937 96.78V96.225H667.437V96.78H671.937ZM671.937 96.225C671.937 90.3149 670.677 85.5747 666.347 82.5613C662.294 79.7402 655.996 78.805 647.117 78.805V83.305C655.998 83.305 660.985 84.3123 663.777 86.2549C666.292 88.0053 667.437 90.8501 667.437 96.225H671.937ZM647.117 78.805C637.931 78.805 630.91 80.0072 626.428 85.2049C622.06 90.2695 620.632 98.5622 620.632 111.025H625.132C625.132 98.5128 626.664 91.8205 629.835 88.1438C632.891 84.6003 637.988 83.305 647.117 83.305V78.805ZM620.632 111.025C620.632 124.764 622.235 133.591 627.166 138.816C632.159 144.108 639.976 145.095 650.262 145.095V140.595C639.828 140.595 633.955 139.454 630.438 135.728C626.859 131.934 625.132 124.851 625.132 111.025H620.632ZM650.262 145.095C659.229 145.095 665.349 144.378 669.33 142.44C671.403 141.431 672.954 140.068 674.002 138.29C675.03 136.544 675.478 134.562 675.631 132.464L671.143 132.136C671.019 133.83 670.68 135.062 670.125 136.005C669.588 136.915 668.757 137.714 667.361 138.394C664.406 139.832 659.24 140.595 650.262 140.595V145.095ZM673.387 130.05H644.157V134.55H673.387V130.05ZM646.407 132.3V106.215H641.907V132.3H646.407ZM644.157 108.465H707.057V103.965H644.157V108.465ZM704.807 106.215V173H709.307V106.215H704.807ZM707.057 170.75H674.497V175.25H707.057V170.75ZM676.747 173V155.61H672.247V173H676.747ZM674.497 153.36H672.832V157.86H674.497V153.36ZM670.749 154.76C668.998 159.048 666.353 163.439 661.574 166.786C656.794 170.135 649.647 172.6 638.607 172.6V177.1C650.322 177.1 658.438 174.477 664.156 170.472C669.876 166.466 672.966 161.237 674.915 156.46L670.749 154.76ZM739.788 173V175.25H741.409L741.922 173.712L739.788 173ZM703.898 173L701.772 172.261L700.733 175.25H703.898V173ZM747.003 49.05V46.8H745.403L744.877 48.3109L747.003 49.05ZM797.508 49.05L799.634 48.3138L799.11 46.8H797.508V49.05ZM840.428 173V175.25H843.588L842.554 172.264L840.428 173ZM802.318 173L800.173 173.682L800.672 175.25H802.318V173ZM794.733 149.135L796.877 148.453L796.378 146.885H794.733V149.135ZM747.743 149.135V146.885H746.121L745.608 148.423L747.743 149.135ZM760.138 111.58L762.272 112.292L762.278 112.273L762.284 112.255L760.138 111.58ZM757.733 118.795L755.598 118.083L754.611 121.045H757.733V118.795ZM784.928 118.795V121.045H787.974L787.078 118.133L784.928 118.795ZM782.708 111.58L780.554 112.232L780.557 112.242L782.708 111.58ZM772.903 79.205L775.056 78.5528L774.572 76.955H772.903V79.205ZM770.313 79.205V76.955H768.661L768.166 78.5304L770.313 79.205ZM739.788 170.75H703.898V175.25H739.788V170.75ZM706.023 173.739L749.128 49.789L744.877 48.3109L701.772 172.261L706.023 173.739ZM747.003 51.3H797.508V46.8H747.003V51.3ZM795.381 49.7862L838.301 173.736L842.554 172.264L799.634 48.3138L795.381 49.7862ZM840.428 170.75H802.318V175.25H840.428V170.75ZM804.462 172.318L796.877 148.453L792.588 149.817L800.173 173.682L804.462 172.318ZM794.733 146.885H747.743V151.385H794.733V146.885ZM745.608 148.423L737.653 172.288L741.922 173.712L749.877 149.847L745.608 148.423ZM758.003 110.868L755.598 118.083L759.867 119.507L762.272 112.292L758.003 110.868ZM757.733 121.045H784.928V116.545H757.733V121.045ZM787.078 118.133L784.858 110.918L780.557 112.242L782.777 119.457L787.078 118.133ZM784.861 110.928L775.056 78.5528L770.749 79.8572L780.554 112.232L784.861 110.928ZM772.903 76.955H770.313V81.455H772.903V76.955ZM768.166 78.5304L757.991 110.905L762.284 112.255L772.459 79.8796L768.166 78.5304ZM876.9 173V175.25H879.15V173H876.9ZM842.12 173H839.87V175.25H842.12V173ZM842.12 49.05V46.8H839.87V49.05H842.12ZM889.11 49.05L891.214 48.253L890.664 46.8H889.11V49.05ZM907.61 97.89L909.794 97.3473L909.761 97.2178L909.714 97.093L907.61 97.89ZM915.565 129.895L913.381 130.438L913.806 132.145H915.565V129.895ZM917.97 129.895V132.145H919.7L920.144 130.473L917.97 129.895ZM926.48 97.89L924.348 97.1712L924.324 97.2408L924.306 97.3118L926.48 97.89ZM942.945 49.05V46.8H941.329L940.813 48.3312L942.945 49.05ZM989.935 49.05H992.185V46.8H989.935V49.05ZM989.935 173V175.25H992.185V173H989.935ZM955.155 173H952.905V175.25H955.155V173ZM955.155 127.675L952.912 127.504L952.905 127.589V127.675H955.155ZM957.19 101.035L959.433 101.206L959.618 98.785H957.19V101.035ZM954.785 101.035V98.785H953.056L952.611 100.456L954.785 101.035ZM947.2 129.525L949.338 130.225L949.358 130.165L949.374 130.104L947.2 129.525ZM937.21 160.05V162.3H938.841L939.348 160.75L937.21 160.05ZM894.845 160.05L892.707 160.75L893.214 162.3H894.845V160.05ZM884.855 129.525L882.684 130.117L882.699 130.171L882.717 130.225L884.855 129.525ZM877.085 101.035L879.256 100.443L878.804 98.785H877.085V101.035ZM874.68 101.035V98.785H872.235L872.438 101.222L874.68 101.035ZM876.9 127.675H879.15V127.581L879.142 127.488L876.9 127.675ZM876.9 170.75H842.12V175.25H876.9V170.75ZM844.37 173V49.05H839.87V173H844.37ZM842.12 51.3H889.11V46.8H842.12V51.3ZM887.006 49.847L905.506 98.687L909.714 97.093L891.214 48.253L887.006 49.847ZM905.426 98.4327L913.381 130.438L917.749 129.352L909.794 97.3473L905.426 98.4327ZM915.565 132.145H917.97V127.645H915.565V132.145ZM920.144 130.473L928.654 98.4682L924.306 97.3118L915.796 129.317L920.144 130.473ZM928.612 98.6088L945.077 49.7688L940.813 48.3312L924.348 97.1712L928.612 98.6088ZM942.945 51.3H989.935V46.8H942.945V51.3ZM987.685 49.05V173H992.185V49.05H987.685ZM989.935 170.75H955.155V175.25H989.935V170.75ZM957.405 173V127.675H952.905V173H957.405ZM957.398 127.846L959.433 101.206L954.947 100.864L952.912 127.504L957.398 127.846ZM957.19 98.785H954.785V103.285H957.19V98.785ZM952.611 100.456L945.026 128.946L949.374 130.104L956.959 101.614L952.611 100.456ZM945.062 128.825L935.072 159.35L939.348 160.75L949.338 130.225L945.062 128.825ZM937.21 157.8H894.845V162.3H937.21V157.8ZM896.983 159.35L886.993 128.825L882.717 130.225L892.707 160.75L896.983 159.35ZM887.026 128.933L879.256 100.443L874.914 101.627L882.684 130.117L887.026 128.933ZM877.085 98.785H874.68V103.285H877.085V98.785ZM872.438 101.222L874.658 127.862L879.142 127.488L876.922 100.848L872.438 101.222ZM874.65 127.675V173H879.15V127.675H874.65ZM1103.72 173V175.25H1105.97V173H1103.72ZM1003.63 173H1001.38V175.25H1003.63V173ZM1003.63 49.05V46.8H1001.38V49.05H1003.63ZM1103.72 49.05H1105.97V46.8H1103.72V49.05ZM1103.72 80.315V82.565H1105.97V80.315H1103.72ZM1038.41 80.315V78.065H1036.16V80.315H1038.41ZM1038.41 95.3H1036.16V97.55H1038.41V95.3ZM1100.94 95.3H1103.19V93.05H1100.94V95.3ZM1100.94 126.38V128.63H1103.19V126.38H1100.94ZM1038.41 126.38V124.13H1036.16V126.38H1038.41ZM1038.41 141.735H1036.16V143.985H1038.41V141.735ZM1103.72 141.735H1105.97V139.485H1103.72V141.735ZM1103.72 170.75H1003.63V175.25H1103.72V170.75ZM1005.88 173V49.05H1001.38V173H1005.88ZM1003.63 51.3H1103.72V46.8H1003.63V51.3ZM1101.47 49.05V80.315H1105.97V49.05H1101.47ZM1103.72 78.065H1038.41V82.565H1103.72V78.065ZM1036.16 80.315V95.3H1040.66V80.315H1036.16ZM1038.41 97.55H1100.94V93.05H1038.41V97.55ZM1098.69 95.3V126.38H1103.19V95.3H1098.69ZM1100.94 124.13H1038.41V128.63H1100.94V124.13ZM1036.16 126.38V141.735H1040.66V126.38H1036.16ZM1038.41 143.985H1103.72V139.485H1038.41V143.985ZM1101.47 141.735V173H1105.97V141.735H1101.47Z" fill="url(#paint0_linear_182_3069)"/>
<defs>
<linearGradient id="paint0_linear_182_3069" x1="10" y1="0" x2="1064.74" y2="352.954" gradientUnits="userSpaceOnUse">
<stop stop-color="#20C7ED"/>
<stop offset="1" stop-color="#D251FD"/>
</linearGradient>
</defs>
</svg>
