<svg width="1250" height="1237" viewBox="0 0 1250 1237" fill="none" xmlns="http://www.w3.org/2000/svg">


<path d="M381.469 724.081C386.435 726.21 385.096 733.132 379.746 733.42C374.055 733.727 372.129 726.581 377.245 724.08C379.583 722.983 379.071 723.011 381.469 724.081Z" fill="url(#paint0_linear_182_2970)" fill-opacity="0.3"/>
<path d="M834.541 494.302C833.278 499.556 839.627 502.621 843.057 498.505C846.705 494.127 842.13 488.31 837.065 490.916C834.789 492.134 835.117 491.74 834.541 494.302Z" fill="url(#paint1_linear_182_2970)" fill-opacity="0.3"/>
<path d="M331.467 453.127C331.919 454.382 332.131 456.951 331.919 458.834C330.357 472.006 312.559 474.596 307.232 462.417C303.678 454.324 308.903 445.37 317.689 444.428C323.695 443.801 329.358 447.391 331.467 453.127Z" fill="url(#paint2_linear_182_2970)" fill-opacity="0.3"/>
<path d="M911.374 661.753C910.446 661.883 908.78 662.595 907.68 663.344C900.008 668.637 904.238 680.547 913.555 679.86C919.75 679.413 923.599 673.228 921.301 667.459C919.72 663.521 915.631 661.181 911.374 661.753Z" fill="url(#paint3_linear_182_2970)" fill-opacity="0.3"/>
<path d="M298.592 486.681C299.395 489.425 296.892 492.476 293.922 492.206C289.908 491.841 288.376 486.886 291.397 484.368C294.111 482.106 297.49 483.222 298.592 486.681Z" fill="url(#paint4_linear_182_2970)" fill-opacity="0.3"/>
<path d="M215.804 644.241C222.269 646.884 222.874 656.554 216.825 659.996C210.11 663.712 202.24 658.081 203.785 650.606C204.955 645.155 210.689 642.135 215.804 644.241Z" fill="url(#paint5_linear_182_2970)" fill-opacity="0.3"/>
<path id='indexUspOrbit1' d="M1134.45 618.469C1134.45 890.652 909.302 1111.33 631.531 1111.33C353.76 1111.33 128.617 890.652 128.617 618.469C128.617 346.285 353.76 125.603 631.531 125.603C909.302 125.603 1134.45 346.285 1134.45 618.469Z" stroke="url(#paint6_linear_182_2970)" stroke-opacity="0.8" stroke-width="2.00965"/>
<path id='indexUspOrbit2' d="M1192.22 618.468C1192.22 925.351 941.197 1174.14 631.532 1174.14C321.866 1174.14 70.8403 925.351 70.8403 618.468C70.8403 311.586 321.866 62.8012 631.532 62.8012C941.197 62.8012 1192.22 311.586 1192.22 618.468Z" stroke="url(#paint7_linear_182_2970)" stroke-opacity="0.6" stroke-width="1.00482"/>
<path id='indexUspOrbit3' d="M14,618a617,617 0 1,0 1234,0a617,617 0 1,0 -1234,0" stroke="url(#paint8_linear_182_2970)" stroke-opacity="0.4" stroke-width="2.00965"/>
<g id='indexUspPlanet2'>
<circle cx="1172" cy="467" r="30" stroke="#C35CFC" stroke-width="2"/>
<circle cx="1172" cy="467" r="15" fill="#C35CFC"/>
</g>
<g id='indexUspPlanet3'>
<circle cx="31" cy="481" r="30" stroke="#14D1E8" stroke-width="2"/>
<circle cx="31" cy="481" r="15" fill="#14D1E8"/>
</g>
<g id='indexUspPlanet1'>
<circle cx="582" cy="128" r="18.3871" stroke="#6C95F4" stroke-width="1.22581"/>
<circle cx="582" cy="128" r="9.19355" fill="#6C95F4"/>
</g>
<g opacity="0.6">
<path d="M330.299 664.967C368.786 694.326 423.787 686.926 453.146 648.439C482.506 609.951 475.106 554.95 436.619 525.591C398.131 496.232 343.13 503.631 313.771 542.119C284.411 580.606 291.811 635.607 330.299 664.967Z" fill="url(#paint9_linear_182_2970)"/>
<g opacity="0.2">
<path d="M414.018 681.014C409.779 683.013 405.388 684.672 400.886 685.975C384.787 685.697 368.812 683.081 353.465 678.21C336.841 673.101 321.132 665.387 306.926 655.356C304.008 651.561 301.398 647.54 299.12 643.331C327.642 669.323 375.109 684.784 414.018 681.014Z" fill="black"/>
<path d="M290.639 608.213C325.501 646.093 394.729 667.791 445.004 656.547C443.461 658.452 441.858 660.277 440.196 662.023C415.635 666.241 387.417 663.29 360.598 655.112C332.907 646.432 307.083 631.884 289.2 613.388C288.826 610.913 288.605 608.476 288.535 606.076L290.639 608.213Z" fill="black"/>
<path d="M292.921 574.216C295.412 577.857 298.163 581.312 301.154 584.555C333.581 619.803 397.945 639.87 444.726 629.476C450.415 628.222 455.961 626.39 461.278 624.009C460.779 625.872 460.234 627.729 459.569 629.428C455.061 631.203 450.42 632.622 445.69 633.67C421.599 639.062 392.986 636.574 366.2 628.165C339.414 619.755 314.489 605.523 297.809 587.361C295.466 584.84 293.265 582.19 291.217 579.424C291.816 577.858 292.335 576.02 292.921 574.216Z" fill="black"/>
</g>
<path opacity="0.2" d="M326.676 529.148C328.974 536.377 332.918 542.974 338.198 548.42C350.839 560.751 366.21 569.926 383.063 575.202C399.916 580.478 417.775 581.705 435.191 578.784C443.536 577.243 451.296 573.436 457.621 567.778C459.64 572.584 461.226 577.56 462.36 582.648C438.917 596.977 397.062 596.887 362.804 579.425C353.219 574.695 344.739 567.995 337.92 559.764C331.101 551.532 326.095 541.955 323.231 531.656C324.267 530.836 325.422 530.008 326.676 529.148Z" fill="url(#paint10_linear_182_2970)"/>
<path opacity="0.1" d="M435.086 578.863C417.673 581.778 399.818 580.545 382.97 575.266C366.122 569.987 350.756 560.81 338.12 548.48C332.832 543.026 328.881 536.42 326.578 529.181C327.844 528.228 329.204 527.453 330.524 526.625C332.488 533.719 336.223 540.197 341.379 545.449C362.34 568.202 403.943 581.254 434.102 574.478C442.207 573.059 449.692 569.215 455.568 563.455C456.264 564.874 456.907 566.333 457.523 567.812C451.191 573.471 443.432 577.293 435.086 578.863Z" fill="url(#paint11_linear_182_2970)"/>
<path opacity="0.1" d="M305.812 549.267C308.796 554.82 312.494 559.958 316.813 564.55C331.104 580.086 352.446 592.302 375.392 599.508C398.339 606.715 422.81 608.806 443.413 604.218C450.692 602.662 457.684 599.982 464.138 596.273C464.212 597.746 464.267 599.193 464.276 600.633C447.461 616.301 399.311 625.699 351.679 605.237C321.167 592.15 304.648 575.686 296.388 565.201C298.971 559.578 302.129 554.238 305.812 549.267Z" fill="url(#paint12_linear_182_2970)"/>
<path opacity="0.1" d="M443.459 604.224C422.829 608.832 398.318 606.688 375.392 599.508C352.465 592.328 331.124 580.112 316.832 564.576C312.509 559.974 308.804 554.827 305.811 549.267C306.8 547.944 307.802 546.694 308.857 545.405C311.773 551.317 315.559 556.759 320.091 561.546C347.735 591.589 402.622 608.783 442.468 599.886C450.019 598.33 457.224 595.416 463.733 591.287C463.921 592.964 464.042 594.609 464.157 596.3C457.72 600.02 450.734 602.695 443.459 604.224Z" fill="black"/>
<path opacity="0.1" d="M291.343 579.702C293.39 582.468 295.591 585.118 297.934 587.639C314.614 605.8 339.559 620.059 366.345 628.469C393.131 636.878 421.725 639.34 445.815 633.947C450.545 632.899 455.186 631.481 459.694 629.706C457.814 635.323 455.358 640.73 452.366 645.841C428.854 654.146 378.842 654.695 336.509 630.289C307.266 613.395 295.015 597.109 289.762 587.215L289.991 585.761C290.351 583.713 290.824 581.704 291.343 579.702Z" fill="black"/>
<path opacity="0.1" d="M289.331 613.289C290.308 620.561 292.194 627.682 294.944 634.485C311.965 648.225 331.25 658.893 351.933 666.011C376.878 674.121 403.408 676.108 429.283 671.803C433.204 668.859 436.87 665.59 440.241 662.03C415.68 666.248 387.462 663.297 360.643 655.118C333.038 646.333 307.214 631.785 289.331 613.289Z" fill="black"/>
<path opacity="0.3" d="M351.365 517.353C352.795 522.96 355.673 528.092 359.71 532.237C368.433 540.745 379.04 547.076 390.669 550.716C402.298 554.356 414.621 555.202 426.639 553.185C432.916 552.038 438.697 549.015 443.22 544.514L443.518 544.91C445.535 547.316 447.424 549.827 449.177 552.432C429.344 569.418 398.594 569.364 365.984 553.763C346.47 544.305 336.719 530.025 334.596 524.347C339.93 521.445 345.55 519.101 351.365 517.353Z" fill="url(#paint13_linear_182_2970)"/>
<path opacity="0.3" d="M416.738 531.288C410.203 532.426 403.491 531.986 397.162 530.004C390.832 528.022 385.067 524.555 380.349 519.894C378.659 518.094 377.301 516.009 376.337 513.736C378.015 513.714 379.679 513.784 381.364 513.881C382.004 514.952 382.756 515.952 383.608 516.863C387.798 520.956 392.895 524 398.485 525.749C404.074 527.499 409.998 527.903 415.773 526.93C417.306 526.617 418.787 526.087 420.171 525.358C421.612 526.175 423 527.032 424.382 527.935C422.114 529.606 419.503 530.751 416.738 531.288Z" fill="url(#paint14_linear_182_2970)"/>
<path opacity="0.2" d="M426.639 553.185C414.622 555.189 402.302 554.336 390.675 550.697C379.048 547.058 368.441 540.735 359.71 532.237C355.673 528.093 352.795 522.96 351.365 517.353C352.791 516.942 354.211 516.576 355.657 516.191C356.892 521.116 359.434 525.615 363.015 529.214C377.161 544.611 405.262 553.395 425.675 548.827C431.209 547.881 436.297 545.196 440.203 541.163C441.255 542.231 442.274 543.366 443.22 544.514C438.697 549.015 432.916 552.039 426.639 553.185Z" fill="url(#paint15_linear_182_2970)"/>
<path opacity="0.1" d="M288.577 598.935C289.134 632.036 341.379 671.925 391.217 660.596C444.152 648.548 465.652 583.726 447.026 549.297C455.369 560.56 460.898 573.656 463.15 587.491C465.403 601.325 464.314 615.498 459.974 628.826C455.634 642.155 448.17 654.252 438.203 664.108C428.237 673.964 416.058 681.293 402.682 685.485C389.306 689.676 375.122 690.607 361.313 688.201C347.505 685.795 334.471 680.121 323.302 671.652C312.132 663.184 303.15 652.167 297.105 639.52C291.059 626.874 288.127 612.965 288.551 598.955L288.577 598.935Z" fill="black"/>
<path opacity="0.15" d="M462.973 617.526C459.531 636.332 450.051 653.504 435.971 666.436C421.89 679.369 403.976 687.358 384.945 689.191C365.915 691.024 346.806 686.602 330.515 676.596C314.224 666.589 301.641 651.543 294.672 633.739C296.078 637.146 313.481 680.059 375.966 680.046C440.974 680.037 462.973 617.526 464.399 603.764C464.275 608.381 463.799 612.982 462.973 617.526Z" fill="black"/>
<path opacity="0.1" d="M370.842 550.44C373.191 549.073 375.083 547.041 376.278 544.6C377.472 542.159 377.916 539.418 377.553 536.725C377.189 534.031 376.035 531.506 374.237 529.468C372.438 527.431 370.076 525.972 367.448 525.277C364.821 524.583 362.046 524.683 359.476 525.565C356.905 526.447 354.654 528.072 353.006 530.234C351.359 532.395 350.39 534.997 350.222 537.71C350.053 540.422 350.693 543.124 352.061 545.473C352.965 547.035 354.169 548.403 355.603 549.499C357.038 550.595 358.674 551.396 360.419 551.858C362.164 552.319 363.983 552.432 365.772 552.188C367.561 551.945 369.283 551.351 370.842 550.44ZM384.833 568.103C387.187 572.134 390.684 575.376 394.88 577.421C399.077 579.466 403.785 580.221 408.41 579.591C413.036 578.961 417.371 576.975 420.868 573.882C424.365 570.79 426.867 566.731 428.058 562.217C429.25 557.704 429.076 552.938 427.561 548.523C426.045 544.108 423.255 540.241 419.542 537.41C415.83 534.58 411.362 532.914 406.703 532.621C402.044 532.329 397.403 533.424 393.366 535.768C387.962 538.949 384.04 544.145 382.462 550.214C380.883 556.283 381.776 562.731 384.945 568.142L384.833 568.103ZM356.518 580.517C357.595 582.37 359.198 583.862 361.123 584.804C363.048 585.746 365.21 586.096 367.334 585.809C369.458 585.522 371.449 584.612 373.056 583.193C374.662 581.775 375.812 579.911 376.359 577.839C376.906 575.767 376.826 573.578 376.13 571.552C375.433 569.525 374.151 567.75 372.445 566.452C370.739 565.154 368.687 564.391 366.548 564.26C364.409 564.128 362.278 564.635 360.427 565.714C359.197 566.438 358.121 567.398 357.262 568.538C356.403 569.678 355.776 570.976 355.419 572.358C355.061 573.74 354.98 575.179 355.179 576.592C355.377 578.006 355.853 579.367 356.578 580.596L356.518 580.517Z" fill="url(#paint16_linear_182_2970)"/>
<g opacity="0.4">
<path d="M286.432 609.27L289.157 611.354C328.135 640.475 395.993 660.516 444.548 657.261C445.665 657.207 446.787 657.106 447.884 657.025C497.765 652.566 506.172 623.798 466.802 592.947L463.667 590.593C464.241 595.089 464.46 599.623 464.321 604.154C473.793 617.405 471.214 628.975 457.557 635.654C450.438 638.835 442.807 640.712 435.025 641.196C395.171 644.809 337.424 627.824 305.877 603.032C299.598 598.378 294.195 592.647 289.919 586.105C282.065 573.083 286.191 561.92 301.329 555.945C302.747 553.59 304.29 551.312 305.95 549.121C307.005 547.666 307.994 546.344 309.306 544.902L305.376 545.172C255.403 549.783 247.042 578.393 286.432 609.27Z" fill="url(#paint17_linear_182_2970)"/>
</g>
<g opacity="0.1">
<path d="M286.432 609.27L289.157 611.354C328.135 640.475 395.993 660.516 444.548 657.261C445.665 657.207 446.787 657.106 447.884 657.025C497.765 652.566 506.172 623.798 466.802 592.947L463.667 590.593C464.241 595.089 464.46 599.623 464.321 604.154C473.793 617.405 471.214 628.975 457.557 635.654C450.438 638.835 442.807 640.712 435.025 641.196C395.171 644.809 337.424 627.824 305.877 603.032C299.598 598.378 294.195 592.647 289.919 586.105C282.065 573.083 286.191 561.92 301.329 555.945C302.747 553.59 304.29 551.312 305.95 549.121C307.005 547.666 307.994 546.344 309.306 544.902L305.376 545.172C255.403 549.783 247.042 578.393 286.432 609.27Z" fill="url(#paint18_linear_182_2970)"/>
</g>
<g opacity="0.4">
<path d="M262.968 618.573C273.813 626.926 285.412 634.251 297.615 640.454C336.302 660.134 378.27 672.55 421.437 677.087C435.052 678.512 448.77 678.666 462.414 677.548C523.992 671.936 534.476 636.48 485.808 598.323C478.293 592.471 470.374 587.158 462.109 582.424C462.574 584.306 462.914 586.241 463.207 588.17C465.727 589.87 468.16 591.677 470.475 593.49C511.604 625.746 502.743 655.723 450.623 660.503C447.539 660.798 444.388 661.06 441.066 661.038C392.891 662.437 329.295 643.611 289.633 616.327C286.968 614.488 284.429 612.596 281.962 610.691C240.832 578.435 249.693 548.458 301.813 543.678C304.752 543.409 307.784 543.319 310.803 543.156C312.096 541.688 313.402 540.292 314.8 538.909C305.285 538.414 295.747 538.587 286.257 539.427C224.764 544.934 214.28 580.39 262.968 618.573Z" fill="url(#paint19_linear_182_2970)"/>
</g>
<g opacity="0.1">
<path d="M262.968 618.573C273.813 626.926 285.412 634.251 297.615 640.454C336.302 660.134 378.27 672.55 421.437 677.087C435.052 678.512 448.77 678.666 462.414 677.548C523.992 671.936 534.476 636.48 485.808 598.323C478.293 592.471 470.374 587.158 462.109 582.424C462.574 584.306 462.914 586.241 463.207 588.17C465.727 589.87 468.16 591.677 470.475 593.49C511.604 625.746 502.743 655.723 450.623 660.503C447.539 660.798 444.388 661.06 441.066 661.038C392.891 662.437 329.295 643.611 289.633 616.327C286.968 614.488 284.429 612.596 281.962 610.691C240.832 578.435 249.693 548.458 301.813 543.678C304.752 543.409 307.784 543.319 310.803 543.156C312.096 541.688 313.402 540.292 314.8 538.909C305.285 538.414 295.747 538.587 286.257 539.427C224.764 544.934 214.28 580.39 262.968 618.573Z" fill="url(#paint20_linear_182_2970)"/>
</g>
<g opacity="0.4">
<path d="M476.537 596.493C483.491 601.885 489.653 608.227 494.843 615.333C497.346 618.904 499.366 622.791 500.851 626.891C502.344 630.98 502.879 635.356 502.416 639.684C501.891 643.973 500.258 648.05 497.677 651.516C495.029 654.933 491.756 657.816 488.032 660.012C480.472 664.359 472.167 667.257 463.543 668.556C446.184 671.146 428.545 671.265 411.152 668.91C376.299 664.512 342.387 654.501 310.732 639.265C294.856 631.823 280.1 622.195 266.894 610.66C260.348 604.894 254.853 598.036 250.653 590.391C248.624 586.571 247.271 582.43 246.652 578.149C246.043 573.873 246.586 569.512 248.225 565.516C249.895 561.508 252.543 557.981 255.926 555.259C259.311 552.491 263.079 550.227 267.113 548.538C275.296 545.311 283.9 543.278 292.662 542.502C283.852 543.088 275.174 544.952 266.901 548.036C262.744 549.661 258.852 551.893 255.35 554.659C251.793 557.379 248.958 560.931 247.095 565.003C245.318 569.173 244.689 573.742 245.271 578.237C245.863 582.681 247.217 586.99 249.273 590.974C253.459 598.8 258.967 605.843 265.554 611.791C272.048 617.803 279.076 623.21 286.552 627.945C293.988 632.728 301.7 637.071 309.645 640.951C341.391 656.521 375.538 666.619 410.646 670.82C419.423 671.87 428.253 672.418 437.092 672.459C445.951 672.539 454.799 671.791 463.519 670.227C472.316 668.801 480.77 665.749 488.45 661.227C492.244 658.882 495.574 655.858 498.273 652.308C500.947 648.66 502.611 644.371 503.097 639.875C503.498 635.408 502.859 630.909 501.228 626.732C499.644 622.549 497.496 618.603 494.842 615.003C489.618 608.023 483.459 601.794 476.537 596.493Z" fill="url(#paint21_linear_182_2970)"/>
</g>
<g opacity="0.2">
<path d="M474.131 608.513C477.771 613.401 479.82 619.29 480.001 625.382L479.945 627.615L479.493 629.816L479.263 630.939L478.862 631.944L477.999 634.039C476.602 636.682 474.7 639.026 472.401 640.937C467.724 644.723 462.294 647.469 456.473 648.993C450.653 650.581 444.688 651.579 438.668 651.972C426.574 652.642 414.443 652.073 402.465 650.275C378.486 646.752 355.105 639.946 332.981 630.05C321.923 625.136 311.377 619.142 301.498 612.155C296.592 608.636 292.02 604.673 287.839 600.317C283.593 596.026 280.179 590.985 277.77 585.449C277.182 584.076 276.72 582.653 276.39 581.197L275.898 579.004C275.791 578.258 275.777 577.525 275.716 576.785C275.636 575.29 275.698 573.79 275.901 572.306C276.006 571.566 276.295 570.852 276.466 570.145C276.618 569.408 276.877 568.698 277.236 568.037C279.918 562.564 284.432 558.204 289.993 555.711C284.332 558.101 279.68 562.39 276.839 567.839C276.468 568.514 276.191 569.237 276.017 569.987C275.758 570.714 275.543 571.455 275.372 572.208C275.099 573.726 274.999 575.271 275.075 576.813C275.109 577.572 275.117 578.352 275.198 579.118L275.657 581.376C275.972 582.886 276.409 584.368 276.965 585.807C279.351 591.465 282.762 596.634 287.028 601.052C291.191 605.521 295.754 609.601 300.66 613.24C310.547 620.409 321.152 626.532 332.303 631.511C343.43 636.537 354.9 640.767 366.626 644.171C378.332 647.57 390.272 650.109 402.348 651.768C414.434 653.566 426.678 654.055 438.868 653.227C445.009 652.729 451.082 651.595 456.989 649.845C462.932 648.212 468.455 645.325 473.188 641.379C475.504 639.34 477.413 636.881 478.812 634.13L479.641 631.936C479.76 631.599 479.931 631.222 480.029 630.859L480.233 629.755L480.652 627.456L480.668 625.17C480.214 619.086 477.936 613.281 474.131 608.513Z" fill="black"/>
</g>
<g opacity="0.1">
<path d="M240.666 631.837C261.333 647.581 283.999 660.509 308.07 670.284C336.299 682.158 365.717 690.982 395.821 696.605C421.327 701.671 447.391 703.341 473.335 701.571C483.402 700.766 493.364 698.974 503.08 696.223C535.052 686.802 544.658 669.078 547.36 655.803C551.667 633.508 537.791 608.36 508.261 584.985C494.446 574.28 479.605 564.968 463.955 557.187C464.584 558.408 465.161 559.669 465.697 560.877C480.109 568.292 493.797 577.034 506.587 586.989C535.355 609.738 548.927 634.041 544.796 655.417C542.364 667.952 533.081 684.896 502.251 693.912C492.721 696.596 482.947 698.328 473.074 699.081C449.279 700.726 425.371 699.382 401.91 695.083C368.105 689.295 335.134 679.398 303.729 665.613C281.785 656.283 261.093 644.246 242.137 629.78C213.348 607.006 199.777 582.703 203.907 561.327C206.339 548.792 215.622 531.847 246.426 522.851C255.966 520.185 265.745 518.463 275.623 517.709C291.764 516.443 307.989 516.691 324.084 518.45C325.14 517.656 326.361 517.027 327.543 516.344C310.23 514.235 292.749 513.858 275.361 515.219C265.352 515.996 255.445 517.772 245.788 520.52C213.862 529.948 204.211 547.665 201.561 560.901C197.195 583.281 211.17 608.562 240.666 631.837Z" fill="url(#paint22_linear_182_2970)"/>
</g>
<g opacity="0.2">
<path d="M251.79 626.734C268.152 639.266 285.94 649.817 304.783 658.167C336.724 672.663 370.465 682.811 405.104 688.341C425.434 691.742 446.095 692.723 466.655 691.263C475.786 690.531 484.824 688.909 493.64 686.421C521.406 678.222 529.938 663.247 531.963 652.093C535.581 632.838 523.229 610.925 496.94 590.155C485.784 581.502 473.879 573.859 461.367 567.318C461.811 568.347 462.242 569.47 462.587 570.533C474.14 576.728 485.145 583.894 495.483 591.954C521.071 612.177 533.217 633.377 529.664 651.674C527.638 662.167 519.619 676.342 492.989 684.182C484.329 686.644 475.444 688.233 466.467 688.924C447.523 690.245 428.49 689.438 409.726 686.517C372.357 681.033 335.988 670.131 301.764 654.155C284.53 646.208 268.232 636.373 253.168 624.83C227.607 604.587 215.46 583.387 219.007 565.136C221.013 554.617 229.052 540.469 255.636 532.621C264.32 530.155 273.229 528.562 282.231 527.866C295.271 526.823 308.376 526.892 321.404 528.073C322.354 527.358 323.278 526.663 324.228 525.948C310.18 524.527 296.033 524.366 281.956 525.468C272.809 526.191 263.756 527.811 254.925 530.304C227.206 538.509 218.627 553.478 216.675 564.618C213.07 583.945 225.568 605.997 251.79 626.734Z" fill="url(#paint23_linear_182_2970)"/>
</g>
<g opacity="0.4">
<path d="M259.513 622.495C272.798 632.77 287.157 641.578 302.338 648.763C337.067 665.446 374.204 676.562 412.387 681.704C429.04 684.02 445.893 684.56 462.66 683.315C471.121 682.673 479.496 681.178 487.657 678.852C512.147 671.629 519.481 658.796 521.356 649.367C524.582 632.722 513.218 613.165 489.376 594.275C480.186 587.109 470.437 580.691 460.222 575.081C460.574 576.098 460.873 577.154 461.132 578.158C470.515 583.433 479.487 589.409 487.971 596.034C511.139 614.358 522.231 633.168 519.196 648.967C517.551 657.769 510.487 669.861 487.079 676.766C479.049 679.042 470.813 680.517 462.492 681.168C447.035 682.331 431.5 681.929 416.123 679.968C375.807 674.958 336.619 663.207 300.199 645.206C286.295 638.413 273.116 630.227 260.864 620.776C237.724 602.432 226.631 583.621 229.713 567.829C231.358 559.027 238.375 546.928 261.757 540.044C269.799 537.755 278.052 536.282 286.39 535.648C297.103 534.784 307.866 534.728 318.587 535.482C319.405 534.866 320.276 534.211 321.127 533.364C309.542 532.438 297.901 532.433 286.314 533.349C277.83 534.009 269.433 535.509 261.245 537.825C236.754 545.048 229.473 557.841 227.572 567.29C224.26 584.041 235.625 603.598 259.513 622.495Z" fill="url(#paint24_linear_182_2970)"/>
</g>
<g opacity="0.5">
<path d="M262.249 618.99C273.515 627.737 285.593 635.384 298.318 641.826C336.258 661.011 377.303 673.307 419.543 678.139C433.751 679.797 448.086 680.086 462.35 679.002C470.547 678.351 478.66 676.898 486.574 674.665C502.87 669.846 513.236 661.758 516.457 650.986C521.065 635.574 510.482 616.67 486.633 597.826C478.821 591.714 470.578 586.174 461.969 581.248L462.614 584.193C470.502 588.796 478.067 593.931 485.255 599.565C508.336 617.83 518.668 635.849 514.309 650.328C509.951 664.808 491.449 674.222 462.168 676.782C449.057 677.811 435.88 677.653 422.797 676.311C378.776 671.689 336.01 658.859 296.714 638.486C285.082 632.437 274.021 625.347 263.667 617.303C240.586 599.039 230.28 581 234.613 566.54C237.637 556.495 247.435 548.917 262.893 544.356C270.706 542.143 278.722 540.724 286.82 540.119C295.901 539.369 305.022 539.232 314.121 539.709C314.913 539.114 315.572 538.287 316.305 537.612C306.422 536.989 296.507 537.086 286.638 537.9C278.409 538.525 270.262 539.973 262.322 542.223C246.052 547.023 235.732 555.117 232.465 565.883C227.837 581.268 238.401 600.145 262.249 618.99Z" fill="url(#paint25_linear_182_2970)"/>
</g>
</g>
<g opacity="0.6" >
<path opacity="0.5" d="M949.381 598.866C941.847 601.303 933.845 601.932 926.023 600.702C918.2 599.471 910.778 596.416 904.356 591.783C897.935 587.15 892.694 581.069 889.06 574.034C885.426 566.999 883.5 559.206 883.437 551.288C883.375 543.37 885.179 535.548 888.702 528.457C892.226 521.365 897.37 515.203 903.718 510.47C910.066 505.736 917.439 502.565 925.241 501.211C933.043 499.858 941.055 500.362 948.626 502.681C958.16 505.604 966.613 511.288 972.916 519.015C979.22 526.741 983.091 536.164 984.04 546.09C984.989 556.017 982.973 566.002 978.247 574.783C973.522 583.564 966.299 590.746 957.491 595.423C954.891 596.8 952.178 597.951 949.381 598.866ZM918.646 504.038C907.468 507.682 897.962 515.207 891.85 525.251C885.738 535.295 883.422 547.195 885.321 558.798C887.22 570.401 893.209 580.941 902.205 588.512C911.201 596.083 922.609 600.185 934.366 600.075C946.123 599.965 957.453 595.651 966.306 587.913C975.158 580.176 980.95 569.525 982.632 557.889C984.314 546.252 981.776 534.398 975.477 524.47C969.178 514.542 959.534 507.196 948.289 503.761C938.617 500.797 928.264 500.904 918.655 504.066L918.646 504.038Z" fill="url(#paint26_linear_182_2970)"/>
<path opacity="0.4" d="M950.53 602.293C942.45 604.919 933.866 605.603 925.472 604.292C917.079 602.98 909.112 599.708 902.219 594.743C895.326 589.778 889.7 583.258 885.797 575.712C881.894 568.166 879.824 559.807 879.755 551.311C879.686 542.816 881.62 534.425 885.4 526.816C889.18 519.208 894.699 512.598 901.511 507.521C908.323 502.444 916.235 499.044 924.606 497.596C932.977 496.148 941.572 496.693 949.693 499.187C960.687 502.553 970.321 509.336 977.196 518.552C984.071 527.768 987.828 538.936 987.921 550.433C988.015 561.931 984.439 573.158 977.715 582.484C970.991 591.811 961.468 598.75 950.53 602.293ZM917.525 500.6C905.515 504.506 895.3 512.582 888.727 523.366C882.155 534.15 879.659 546.931 881.692 559.395C883.724 571.86 890.151 583.185 899.809 591.322C909.467 599.46 921.719 603.872 934.348 603.76C946.976 603.648 959.148 599.02 968.66 590.713C978.173 582.406 984.398 570.969 986.21 558.47C988.022 545.972 985.3 533.238 978.538 522.571C971.776 511.905 961.419 504.012 949.342 500.319C938.962 497.124 927.847 497.223 917.525 500.6Z" fill="url(#paint27_linear_182_2970)"/>
<path opacity="0.2" d="M951.928 606.579C939.456 610.621 925.988 610.36 913.682 605.839C901.376 601.319 890.943 592.799 884.053 581.645C877.163 570.491 874.216 557.347 875.683 544.319C877.149 531.291 882.945 519.132 892.142 509.789C901.34 500.446 913.406 494.459 926.409 492.788C939.413 491.116 952.601 493.857 963.862 500.57C975.123 507.283 983.806 517.581 988.52 529.815C993.234 542.048 993.706 555.51 989.862 568.044C987.128 577.057 982.249 585.272 975.642 591.984C969.034 598.696 960.897 603.705 951.928 606.579ZM916.142 496.31C903.112 500.549 892.03 509.312 884.901 521.013C877.771 532.713 875.065 546.58 877.271 560.103C879.477 573.625 886.45 585.912 896.929 594.74C907.408 603.568 920.7 608.355 934.401 608.233C948.103 608.112 961.308 603.09 971.628 594.078C981.949 585.066 988.703 572.657 990.669 559.097C992.635 545.537 989.684 531.721 982.348 520.149C975.012 508.576 963.776 500.011 950.674 496.004C939.404 492.558 927.348 492.664 916.142 496.31Z" fill="url(#paint28_linear_182_2970)"/>
<path opacity="0.1" d="M953.653 611.917C939.989 616.342 925.236 616.055 911.755 611.101C898.274 606.147 886.846 596.813 879.299 584.594C871.752 572.374 868.524 557.975 870.132 543.703C871.739 529.431 878.089 516.111 888.165 505.876C898.24 495.641 911.459 489.083 925.704 487.252C939.949 485.421 954.397 488.423 966.733 495.777C979.07 503.131 988.582 514.411 993.747 527.813C998.912 541.214 999.43 555.961 995.219 569.692C992.219 579.566 986.87 588.565 979.631 595.919C972.392 603.272 963.478 608.762 953.653 611.917ZM914.436 490.935C910.941 492.075 907.552 493.515 904.306 495.24C890.039 502.843 879.256 515.66 874.206 531.018C869.155 546.376 870.227 563.091 877.197 577.678C884.167 592.266 896.498 603.6 911.62 609.32C926.741 615.039 943.487 614.702 958.366 608.379C973.246 602.056 985.111 590.234 991.488 575.378C997.866 560.522 998.264 543.778 992.6 528.636C986.936 513.493 975.647 501.121 961.085 494.097C946.523 487.073 929.812 485.941 914.436 490.935Z" fill="url(#paint29_linear_182_2970)"/>
<path d="M955.559 591.726C978.136 579.736 986.718 551.715 974.729 529.138C962.739 506.561 934.717 497.978 912.14 509.968C889.563 521.957 880.98 549.979 892.97 572.556C904.96 595.133 932.982 603.716 955.559 591.726Z" fill="url(#paint30_linear_182_2970)"/>
<path opacity="0.2" d="M965.823 553.16C969.362 545.199 972.954 536.875 974.28 528.368C973.151 526.338 971.87 524.396 970.446 522.56L967.835 529.672C967.175 530.952 967.016 532.432 967.389 533.823C967.551 534.318 967.905 534.735 968.128 535.225C969.339 537.882 966.944 540.713 964.711 542.599C962.478 544.486 959.847 546.877 960.51 549.728C960.748 550.699 961.35 551.536 961.602 552.502C962.3 555.169 960.157 557.668 958.192 559.608C958.082 558.407 956.482 557.818 955.387 558.3C954.844 558.59 954.368 558.988 953.986 559.471C953.605 559.953 953.328 560.509 953.171 561.104C952.338 563.348 952.158 565.769 951.155 567.927C950.153 570.085 947.958 571.99 945.622 571.547C945.279 571.437 944.919 571.39 944.56 571.408C944.258 571.482 943.978 571.627 943.743 571.831C940.716 574.042 938.493 577.179 937.408 580.767C936.398 584.101 936.042 588.239 932.969 589.851L929.973 585.993C927.716 589.543 925.014 592.79 921.935 595.656C924.647 596.372 927.419 596.841 930.216 597.056C932.367 595.686 934.418 594.165 936.353 592.504C937.795 591.4 938.937 589.951 939.674 588.291C940.053 586.935 940.319 585.551 940.468 584.151C940.824 582.342 941.599 580.642 942.73 579.186C943.861 577.73 945.318 576.559 946.983 575.767C949.696 574.491 953.015 574.254 955.385 572.354C956.702 571.182 957.781 569.767 958.564 568.187C961.311 563.317 963.565 558.231 965.823 553.16Z" fill="url(#paint31_linear_182_2970)"/>
<path opacity="0.2" d="M975.83 551.164C974.839 552.405 973.785 553.595 972.673 554.729C971.53 555.755 970.449 556.849 969.438 558.006C968.19 559.649 967.739 562.394 969.73 563.701C970.279 564.039 970.487 563.861 970.079 564.386C969.816 564.696 969.48 564.935 969.1 565.08C967.896 565.517 966.664 565.877 965.414 566.157C964.257 566.426 963.2 567.019 962.368 567.867C961.536 568.715 960.963 569.782 960.715 570.944C960.468 572.152 960.455 573.408 960.258 574.63C959.929 576.426 959.199 578.124 958.123 579.599C956.345 582.052 954.294 584.296 952.01 586.287C949.456 588.587 946.761 590.725 943.941 592.69C941.88 594.144 939.726 595.504 937.693 596.996C938.851 596.9 940.014 596.771 941.173 596.581C944.754 594.479 948.164 592.096 951.368 589.454C953.739 587.555 955.945 585.458 957.963 583.188C959.94 581.165 961.45 578.734 962.385 576.065C963.049 573.783 962.513 570.17 964.687 568.726C966.364 567.631 968.617 567.726 970.416 566.858C971.775 566.227 974.107 564.261 972.767 562.648C972.403 562.204 971.67 562.161 971.32 561.712C970.806 561.05 971.156 560.059 971.574 559.469C972.731 558.146 973.997 556.922 975.357 555.81C977.072 554.059 978.645 552.175 980.062 550.176C980.038 548.533 979.926 546.892 979.727 545.262C978.537 547.299 977.236 549.27 975.83 551.164Z" fill="url(#paint32_linear_182_2970)"/>
<path opacity="0.2" d="M960.991 513.39C960.52 516.407 959.921 519.419 959.225 522.369C957.383 529.606 954.74 536.614 951.344 543.264C944.421 556.805 934.445 568.55 922.203 577.571C916.965 581.34 911.451 584.707 905.707 587.645C906.556 588.297 907.432 588.919 908.334 589.512C913.344 587.173 918.118 584.359 922.589 581.107C941.838 567.438 955.755 547.52 961.971 524.744C962.79 521.786 963.468 518.779 964.02 515.767C962.986 514.852 962.017 514.135 960.991 513.39Z" fill="url(#paint33_linear_182_2970)"/>
<path opacity="0.2" d="M920.532 538.086C927.327 527.873 933.55 516.626 935.303 504.678C933.187 504.607 931.069 504.686 928.964 504.914C926.939 508.78 924.677 512.518 922.191 516.105C918.98 520.658 915.212 524.938 913.108 530.1C912.238 532.23 911.663 534.499 910.868 536.668C908.092 543.618 903.599 549.752 897.808 554.494C894.937 556.937 891.906 559.186 888.735 561.224C889.348 563.847 890.184 566.412 891.235 568.891L891.504 568.803C903.602 561.368 912.668 549.867 920.532 538.086Z" fill="url(#paint34_linear_182_2970)"/>
<path opacity="0.2" d="M921.393 506.318C919.676 506.795 917.988 507.371 916.338 508.045C914.776 511.774 913.024 515.422 911.091 518.973C906.452 527.747 900.685 535.878 893.939 543.158C891.993 545.219 889.942 547.178 887.794 549.027L887.538 549.251C887.467 550.909 887.486 552.569 887.595 554.225C889.392 552.919 891.137 551.505 892.807 550.053C896.993 546.184 900.783 541.907 904.121 537.287C910.709 528.457 916.174 518.842 920.39 508.664C920.743 507.876 921.083 507.093 921.393 506.318Z" fill="url(#paint35_linear_182_2970)"/>
<path opacity="0.2" d="M947.904 508.816C947.987 508.21 948.076 507.57 948.151 506.936L947.433 506.7C946.494 506.412 945.55 506.156 944.601 505.934C944.524 506.851 944.433 507.772 944.31 508.689C943.873 511.836 943.232 514.952 942.39 518.016C940.629 524.424 938.082 530.589 934.808 536.372C927.654 548.625 918.094 559.301 906.703 567.759C903.474 570.246 900.018 572.421 896.38 574.256C895.735 574.581 895.083 574.887 894.426 575.174C894.798 575.788 895.18 576.384 895.595 576.984C899.493 575.198 903.243 573.107 906.81 570.729C925.05 558.656 938.68 540.779 945.492 519.993C946.579 516.334 947.385 512.598 947.904 508.816Z" fill="url(#paint36_linear_182_2970)"/>
<g opacity="0.2">
<path d="M949.028 594.614C955.919 592.236 962.149 588.261 967.211 583.015C972.272 577.769 976.021 571.4 978.152 564.429C978.703 562.608 979.144 560.755 979.472 558.881C977.07 563.411 974.29 567.73 971.164 571.794C964.448 579.993 954.768 586.061 949.028 594.614Z" fill="black"/>
<path d="M956.139 568.43C955.394 569.669 954.439 570.769 953.318 571.682C951.895 572.554 950.375 573.254 948.788 573.77C946.733 574.536 944.892 575.785 943.421 577.411C941.95 579.038 940.89 580.994 940.333 583.115C940.189 584.301 939.948 585.473 939.614 586.62C939.312 587.396 938.879 588.114 938.334 588.743C935.318 592.45 930.409 594.864 925.609 596.414C927.141 596.697 928.659 596.89 930.173 597.022C933.966 595.504 937.698 593.223 941.252 591.501C945.439 589.462 949.767 587.331 952.82 583.785C954.221 582.153 955.307 580.276 956.023 578.249C956.742 576.183 957.058 573.984 957.8 571.942C958.889 569.393 960.222 566.957 961.781 564.665C965.204 558.585 968.091 552.219 970.412 545.638C972.492 540.725 974.093 535.623 975.193 530.402C975.165 530.317 975.218 530.19 975.247 530.087C974.529 528.661 973.737 527.274 972.874 525.931C970.482 541.154 964.768 555.663 956.139 568.43Z" fill="black"/>
<path d="M941.907 585.779C941.709 586.516 941.59 587.447 942.241 587.861C942.612 588.027 943.032 588.046 943.417 587.915C945.918 587.162 948.16 585.727 949.89 583.77C951.856 581.783 953.706 579.396 953.795 576.55C953.801 576.219 953.695 575.895 953.496 575.63C953.322 575.451 953.109 575.316 952.873 575.235C952.637 575.154 952.386 575.13 952.139 575.165C946.337 575.273 943.242 580.852 941.907 585.779Z" fill="url(#paint37_linear_182_2970)"/>
<path d="M944.25 584.185C944.16 584.369 944.109 584.57 944.101 584.775C944.092 584.98 944.126 585.184 944.2 585.375C944.31 585.546 944.468 585.682 944.653 585.766C944.839 585.85 945.045 585.878 945.246 585.848C945.643 585.775 946.018 585.616 946.345 585.38C948.598 583.947 950.39 581.895 951.508 579.471C951.611 579.277 951.675 579.065 951.695 578.846C951.704 578.202 951.03 577.765 950.414 577.699C946.889 577.065 945.114 581.603 944.25 584.185Z" fill="black"/>
<path d="M906.313 528.795C911.024 522.284 914.795 515.144 917.518 507.583C908.848 510.848 901.357 516.638 896.013 524.206C890.669 531.774 887.718 540.771 887.542 550.033C894.419 543.526 900.7 536.419 906.313 528.795Z" fill="black"/>
<path d="M935.579 561.097C935.589 560.265 934.261 560.463 933.482 560.138C933.1 559.907 932.824 559.534 932.715 559.101C932.606 558.667 932.672 558.209 932.9 557.824C933.381 557.066 934.054 556.447 934.85 556.03C938.887 553.344 942.491 550.058 945.537 546.285C947.186 544.364 948.506 542.184 949.442 539.832C950.379 536.597 950.835 533.243 950.796 529.875C951.149 522.847 952.09 515.861 953.61 508.989C952.996 508.689 952.372 508.407 951.766 508.135L947.61 531.478C947.315 533.65 946.771 535.781 945.988 537.828C944.989 539.996 943.678 542.006 942.095 543.792C936.693 550.256 930.132 555.655 922.748 559.71C921.421 560.226 920.323 561.2 919.653 562.457C919.146 563.78 920.291 565.66 921.635 565.222C922.031 565.093 922.409 564.766 922.809 564.839C923.504 565.004 923.431 566.029 923.088 566.657C922.602 567.475 921.939 568.175 921.147 568.704C920.356 569.232 919.456 569.578 918.514 569.714C917.111 569.921 915.663 569.657 914.26 569.818C911.251 570.189 908.927 572.371 906.567 574.204C903.8 576.349 900.764 578.123 897.537 579.481C899.057 581.403 900.727 583.203 902.531 584.863C914.976 579.021 927.868 572.485 935.579 561.097Z" fill="black"/>
<path d="M951.986 559.487C953.721 556.936 955.301 554.283 956.719 551.543C961.109 542.882 963.134 533.254 965.125 523.763C965.529 521.785 965.937 519.774 966.152 517.747C965.512 517.127 964.857 516.511 964.165 515.923C963.062 522.719 961.485 529.43 959.446 536.006C958.129 540.415 956.489 544.721 954.539 548.889C949.85 558.474 943.35 567.061 935.399 574.176C928.259 580.545 920.41 586.071 912.006 590.646L911.057 591.191C912.682 592.104 914.359 592.921 916.08 593.637C930.445 585.073 942.713 573.405 951.986 559.487Z" fill="black"/>
<path d="M926.12 535.45C926.945 533.596 927.994 531.85 929.245 530.253C930.944 528.639 932.724 527.114 934.577 525.681C936.464 523.925 937.899 521.739 938.759 519.31C938.362 519.09 937.899 519.021 937.455 519.117C937.012 519.213 936.618 519.466 936.347 519.83C935.833 520.584 935.259 521.294 934.63 521.955C933.92 522.515 932.664 522.596 932.284 521.719C932.151 521.31 932.156 520.869 932.297 520.463C933.344 516.749 934.641 513.111 936.179 509.572C936.754 508.029 937.139 506.422 937.325 504.785C935.914 504.682 934.522 504.635 933.101 504.598C933.071 504.842 933.051 505.068 933.017 505.298C932.237 511.546 929.178 523.905 922.304 526.006C921.166 526.242 920.047 526.565 918.958 526.972C918.419 527.186 917.964 527.567 917.657 528.058C917.35 528.55 917.208 529.126 917.251 529.704C917.487 530.91 918.768 531.525 919.846 532.097C925.075 534.836 915.081 544.214 912.289 545.969C910.489 546.914 908.798 548.053 907.247 549.366C905.305 551.33 904.468 554.091 903.182 556.529C902.686 557.477 902.112 558.381 901.466 559.233C899.684 561.612 897.424 563.591 894.831 565.042C893.41 565.814 891.88 566.365 890.294 566.678C890.594 567.598 890.993 568.485 891.373 569.363C897.44 568.245 904.133 562.807 907.451 559.785C915.083 552.858 921.406 544.615 926.12 535.45Z" fill="black"/>
</g>
<path opacity="0.1" d="M953.9 509.161C969.26 517.439 975.234 551.547 957.846 572.036C939.373 593.897 903.92 588.213 892.278 571.18C895.523 577.81 900.307 583.568 906.229 587.973C912.152 592.378 919.043 595.303 926.326 596.503C933.609 597.703 941.074 597.144 948.097 594.873C955.12 592.601 961.498 588.683 966.699 583.445C971.9 578.206 975.772 571.8 977.993 564.761C980.215 557.722 980.72 550.253 979.467 542.979C978.215 535.704 975.241 528.835 970.793 522.944C966.346 517.053 960.554 512.311 953.9 509.114L953.9 509.161Z" fill="url(#paint38_linear_182_2970)"/>
<path opacity="0.1" d="M920.296 595.142C929.921 598.082 940.243 597.805 949.697 594.353C959.151 590.9 967.222 584.46 972.687 576.008C978.152 567.557 980.713 557.554 979.982 547.516C979.252 537.478 975.269 527.951 968.638 520.38C969.885 521.851 985.747 540.403 970.608 569.612C954.841 600.011 920.286 595.161 913.5 592.491C915.692 593.553 917.964 594.439 920.296 595.142Z" fill="black"/>
<path opacity="0.1" d="M905.363 534.472C904.182 533.668 902.789 533.232 901.36 533.219C899.931 533.206 898.531 533.617 897.335 534.399C896.14 535.181 895.203 536.3 894.642 537.615C894.082 538.929 893.924 540.38 894.188 541.784C894.452 543.189 895.125 544.483 896.124 545.505C897.123 546.527 898.402 547.229 899.8 547.525C901.198 547.82 902.652 547.694 903.979 547.164C905.306 546.633 906.446 545.722 907.255 544.544C907.794 543.759 908.172 542.875 908.369 541.944C908.566 541.012 908.577 540.051 908.401 539.115C908.225 538.179 907.866 537.287 907.345 536.491C906.824 535.694 906.15 535.008 905.363 534.472ZM898.688 555.803C897.297 557.836 896.54 560.234 896.512 562.697C896.484 565.159 897.187 567.575 898.532 569.638C899.876 571.701 901.803 573.319 904.067 574.288C906.331 575.256 908.832 575.532 911.252 575.079C913.673 574.627 915.905 573.467 917.667 571.746C919.428 570.025 920.64 567.82 921.149 565.41C921.657 563.001 921.44 560.495 920.525 558.208C919.609 555.922 918.036 553.959 916.005 552.567C914.656 551.64 913.138 550.988 911.537 550.649C909.936 550.31 908.284 550.29 906.675 550.591C905.066 550.892 903.533 551.507 902.162 552.401C900.792 553.296 899.611 554.452 898.688 555.803ZM915.68 539.668C915.044 540.598 914.697 541.696 914.685 542.823C914.673 543.95 914.995 545.056 915.611 546C916.227 546.944 917.109 547.684 918.146 548.126C919.182 548.569 920.327 548.694 921.435 548.486C922.543 548.278 923.564 547.746 924.369 546.958C925.175 546.169 925.728 545.16 925.96 544.057C926.192 542.954 926.091 541.807 925.671 540.761C925.25 539.715 924.529 538.817 923.599 538.181C922.352 537.328 920.817 537.006 919.332 537.285C917.847 537.564 916.533 538.421 915.68 539.668Z" fill="white"/>
</g>
<defs>
<linearGradient id="paint0_linear_182_2970" x1="383.837" y1="726.346" x2="374.416" y2="731.265" gradientUnits="userSpaceOnUse">
<stop stop-color="#14D1E8"/>
<stop offset="0.683233" stop-color="#523A70" stop-opacity="0"/>
</linearGradient>
<linearGradient id="paint1_linear_182_2970" x1="834.94" y1="497.555" x2="844.517" y2="492.944" gradientUnits="userSpaceOnUse">
<stop stop-color="#C35CFC"/>
<stop offset="0.683233" stop-color="#523A70" stop-opacity="0"/>
</linearGradient>
<linearGradient id="paint2_linear_182_2970" x1="329.9" y1="463.237" x2="305.65" y2="451.48" gradientUnits="userSpaceOnUse">
<stop stop-color="#14D1E8"/>
<stop offset="0.683233" stop-color="#523A70" stop-opacity="0"/>
</linearGradient>
<linearGradient id="paint3_linear_182_2970" x1="905.607" y1="666.044" x2="920.87" y2="677.254" gradientUnits="userSpaceOnUse">
<stop stop-color="#C35CFC"/>
<stop offset="0.683233" stop-color="#523A70" stop-opacity="0"/>
</linearGradient>
<linearGradient id="paint4_linear_182_2970" x1="297.949" y1="489.758" x2="289.699" y2="485.717" gradientUnits="userSpaceOnUse">
<stop stop-color="#14D1E8"/>
<stop offset="0.683233" stop-color="#523A70" stop-opacity="0"/>
</linearGradient>
<linearGradient id="paint5_linear_182_2970" x1="219.762" y1="648.805" x2="203.78" y2="657.286" gradientUnits="userSpaceOnUse">
<stop stop-color="#14D1E8"/>
<stop offset="0.683233" stop-color="#523A70" stop-opacity="0"/>
</linearGradient>
<linearGradient id="paint6_linear_182_2970" x1="631.531" y1="124.598" x2="631.924" y2="1112.34" gradientUnits="userSpaceOnUse">
<stop stop-color="#5C6BB8"/>
<stop offset="0.615" stop-color="#5C6BB8" stop-opacity="0"/>
<stop offset="1" stop-color="#5C6BB8" stop-opacity="0"/>
</linearGradient>
<linearGradient id="paint7_linear_182_2970" x1="631.532" y1="62.2988" x2="631.979" y2="1174.64" gradientUnits="userSpaceOnUse">
<stop stop-color="#5C6BB8"/>
<stop offset="0.615" stop-color="#5C6BB8" stop-opacity="0"/>
<stop offset="1" stop-color="#5C6BB8" stop-opacity="0"/>
</linearGradient>
<linearGradient id="paint8_linear_182_2970" x1="631.531" y1="-1.4973e-08" x2="632.034" y2="1236.94" gradientUnits="userSpaceOnUse">
<stop stop-color="#5C6BB8"/>
<stop offset="0.615" stop-color="#5C6BB8" stop-opacity="0"/>
<stop offset="1" stop-color="#5C6BB8" stop-opacity="0"/>
</linearGradient>
<linearGradient id="paint9_linear_182_2970" x1="462" y1="632.5" x2="304" y2="552" gradientUnits="userSpaceOnUse">
<stop stop-color="#14D1E8"/>
<stop offset="0.575858" stop-color="#14D1E8" stop-opacity="0"/>
<stop offset="0.910859" stop-color="#14D1E8" stop-opacity="0"/>
</linearGradient>
<linearGradient id="paint10_linear_182_2970" x1="429.084" y1="529.845" x2="356.427" y2="584.504" gradientUnits="userSpaceOnUse">
<stop stop-color="white"/>
<stop offset="1" stop-color="white" stop-opacity="0"/>
</linearGradient>
<linearGradient id="paint11_linear_182_2970" x1="425.476" y1="523.454" x2="357.362" y2="574.696" gradientUnits="userSpaceOnUse">
<stop stop-color="#14D1E8"/>
<stop offset="1" stop-color="#14D1E8" stop-opacity="0"/>
</linearGradient>
<linearGradient id="paint12_linear_182_2970" x1="425.363" y1="544.732" x2="333.168" y2="614.091" gradientUnits="userSpaceOnUse">
<stop stop-color="white"/>
<stop offset="1" stop-color="white" stop-opacity="0"/>
</linearGradient>
<linearGradient id="paint13_linear_182_2970" x1="421.855" y1="515.908" x2="361.242" y2="561.507" gradientUnits="userSpaceOnUse">
<stop stop-color="#14D1E8"/>
<stop offset="1" stop-color="#14D1E8" stop-opacity="0"/>
</linearGradient>
<linearGradient id="paint14_linear_182_2970" x1="412.29" y1="511.86" x2="387.934" y2="530.183" gradientUnits="userSpaceOnUse">
<stop stop-color="#14D1E8"/>
<stop offset="1" stop-color="#14D1E8" stop-opacity="0"/>
</linearGradient>
<linearGradient id="paint15_linear_182_2970" x1="420.187" y1="513.898" x2="372.543" y2="549.74" gradientUnits="userSpaceOnUse">
<stop stop-color="#14D1E8"/>
<stop offset="1" stop-color="#14D1E8" stop-opacity="0"/>
</linearGradient>
<linearGradient id="paint16_linear_182_2970" x1="435.5" y1="594.5" x2="359" y2="554" gradientUnits="userSpaceOnUse">
<stop stop-color="white"/>
<stop offset="1" stop-color="white" stop-opacity="0"/>
</linearGradient>
<linearGradient id="paint17_linear_182_2970" x1="440.927" y1="552.742" x2="312.312" y2="649.499" gradientUnits="userSpaceOnUse">
<stop stop-color="#14D1E8"/>
<stop offset="1" stop-color="#14D1E8" stop-opacity="0"/>
</linearGradient>
<linearGradient id="paint18_linear_182_2970" x1="492" y1="632.5" x2="363.5" y2="577" gradientUnits="userSpaceOnUse">
<stop stop-color="white"/>
<stop offset="0.0001" stop-color="#14D1E8"/>
<stop offset="1" stop-color="#14D1E8" stop-opacity="0"/>
</linearGradient>
<linearGradient id="paint19_linear_182_2970" x1="453.843" y1="548.661" x2="294.919" y2="668.218" gradientUnits="userSpaceOnUse">
<stop stop-color="#14D1E8"/>
<stop offset="1" stop-color="#14D1E8" stop-opacity="0"/>
</linearGradient>
<linearGradient id="paint20_linear_182_2970" x1="512.999" y1="644" x2="349.499" y2="561.5" gradientUnits="userSpaceOnUse">
<stop stop-color="white"/>
<stop offset="1" stop-color="white" stop-opacity="0"/>
</linearGradient>
<linearGradient id="paint21_linear_182_2970" x1="514.999" y1="645.5" x2="332.999" y2="569" gradientUnits="userSpaceOnUse">
<stop stop-color="#14D1E8"/>
<stop offset="1" stop-color="#14D1E8" stop-opacity="0"/>
</linearGradient>
<linearGradient id="paint22_linear_182_2970" x1="516" y1="647.5" x2="230" y2="542" gradientUnits="userSpaceOnUse">
<stop stop-color="#14D1E8"/>
<stop offset="0.427181" stop-color="#14D1E8" stop-opacity="0"/>
</linearGradient>
<linearGradient id="paint23_linear_182_2970" x1="521.5" y1="651.5" x2="256" y2="550" gradientUnits="userSpaceOnUse">
<stop stop-color="#14D1E8"/>
<stop offset="1" stop-color="#14D1E8" stop-opacity="0"/>
</linearGradient>
<linearGradient id="paint24_linear_182_2970" x1="472" y1="626" x2="265.5" y2="558" gradientUnits="userSpaceOnUse">
<stop stop-color="#14D1E8"/>
<stop offset="1" stop-color="#14D1E8" stop-opacity="0"/>
</linearGradient>
<linearGradient id="paint25_linear_182_2970" x1="454.582" y1="548.167" x2="294.347" y2="668.711" gradientUnits="userSpaceOnUse">
<stop stop-color="#14D1E8"/>
<stop offset="1" stop-color="#14D1E8" stop-opacity="0"/>
</linearGradient>
<linearGradient id="paint26_linear_182_2970" x1="918.221" y1="502.956" x2="949.486" y2="598.831" gradientUnits="userSpaceOnUse">
<stop stop-color="#C35CFC"/>
<stop offset="1" stop-color="#C35CFC" stop-opacity="0"/>
</linearGradient>
<linearGradient id="paint27_linear_182_2970" x1="917.074" y1="499.464" x2="950.599" y2="602.271" gradientUnits="userSpaceOnUse">
<stop stop-color="#C35CFC"/>
<stop offset="1" stop-color="#C35CFC" stop-opacity="0"/>
</linearGradient>
<linearGradient id="paint28_linear_182_2970" x1="915.72" y1="495.195" x2="952.031" y2="606.546" gradientUnits="userSpaceOnUse">
<stop stop-color="#C35CFC"/>
<stop offset="1" stop-color="#C35CFC" stop-opacity="0"/>
</linearGradient>
<linearGradient id="paint29_linear_182_2970" x1="913.994" y1="489.89" x2="953.774" y2="611.878" gradientUnits="userSpaceOnUse">
<stop stop-color="#C35CFC"/>
<stop offset="1" stop-color="#C35CFC" stop-opacity="0"/>
</linearGradient>
<linearGradient id="paint30_linear_182_2970" x1="877.5" y1="530.5" x2="985" y2="577" gradientUnits="userSpaceOnUse">
<stop stop-color="#C35CFC"/>
<stop offset="0.792405" stop-color="#C35CFC" stop-opacity="0"/>
<stop offset="1" stop-color="#C35CFC" stop-opacity="0"/>
</linearGradient>
<linearGradient id="paint31_linear_182_2970" x1="938.626" y1="532.937" x2="956.717" y2="588.414" gradientUnits="userSpaceOnUse">
<stop stop-color="white"/>
<stop offset="1" stop-color="white" stop-opacity="0"/>
</linearGradient>
<linearGradient id="paint32_linear_182_2970" x1="883.001" y1="513.5" x2="979.001" y2="589.5" gradientUnits="userSpaceOnUse">
<stop stop-color="white"/>
<stop offset="1" stop-color="white" stop-opacity="0"/>
</linearGradient>
<linearGradient id="paint33_linear_182_2970" x1="926.081" y1="524.774" x2="943.457" y2="578.058" gradientUnits="userSpaceOnUse">
<stop stop-color="white"/>
<stop offset="1" stop-color="white" stop-opacity="0"/>
</linearGradient>
<linearGradient id="paint34_linear_182_2970" x1="878.501" y1="522" x2="985.001" y2="579" gradientUnits="userSpaceOnUse">
<stop stop-color="white"/>
<stop offset="1" stop-color="white" stop-opacity="0"/>
</linearGradient>
<linearGradient id="paint35_linear_182_2970" x1="878.5" y1="518.499" x2="979.5" y2="580.499" gradientUnits="userSpaceOnUse">
<stop stop-color="white"/>
<stop offset="1" stop-color="white" stop-opacity="0"/>
</linearGradient>
<linearGradient id="paint36_linear_182_2970" x1="913.177" y1="516.181" x2="929.409" y2="565.957" gradientUnits="userSpaceOnUse">
<stop stop-color="white"/>
<stop offset="1" stop-color="white" stop-opacity="0"/>
</linearGradient>
<linearGradient id="paint37_linear_182_2970" x1="946.154" y1="576.721" x2="949.191" y2="586.036" gradientUnits="userSpaceOnUse">
<stop stop-color="#C35CFC"/>
<stop offset="1" stop-color="#C35CFC" stop-opacity="0"/>
</linearGradient>
<linearGradient id="paint38_linear_182_2970" x1="923.698" y1="518.963" x2="948.418" y2="594.768" gradientUnits="userSpaceOnUse">
<stop/>
<stop offset="1" stop-opacity="0"/>
</linearGradient>
</defs>
</svg>
