<svg width="1846" height="1085" viewBox="0 0 1846 1085" fill="none" xmlns="http://www.w3.org/2000/svg">
<style>
    .star1{
        animation: blink 5s infinite alternate;
    }


    .star2{
        animation: blink 4s infinite alternate;
    }

    .star3{
        animation: blink 7s infinite alternate;
    }

    @keyframes blink{
        from{
            opacity: 1;
        }
        to{
            opacity: 0.3;
        }
    } 


</style>

<!-- <rect width="1846" height="1085" fill="black"/> -->
<g clip-path="url(#clip0_2296_1594)">
<path class='star1' d="M9.94699 782.114C9.92515 782.202 9.67404 784.053 9.39018 786.23C9.10632 788.408 8.83338 790.314 8.80063 790.466C8.71329 790.782 9.06265 790.717 1.76964 791.686C0.765213 791.827 -0.0317786 791.958 0.000974501 791.99C0.0337276 792.023 1.99891 792.306 4.37897 792.622C6.75902 792.938 8.72421 793.221 8.74604 793.243C8.77879 793.264 9.06265 795.235 9.39018 797.62C9.71771 800.005 10.0016 801.965 10.0234 801.997C10.078 802.052 10.1872 801.344 10.7658 796.912C11.0169 794.963 11.268 793.33 11.3117 793.286C11.3554 793.232 13.3096 792.927 15.6679 792.611C18.0152 792.295 19.9694 792.012 19.9913 791.98C20.0677 791.903 19.7292 791.86 15.4495 791.294C13.255 791.011 11.41 790.727 11.3444 790.662C11.2789 790.597 10.9623 788.626 10.6457 786.296C10.34 783.955 10.0562 782.027 10.0343 782.006C10.0125 781.984 9.97974 782.027 9.94699 782.114Z" fill="white" fill-opacity="0.3"/>
<path class='star1' d="M107.947 467.114C107.925 467.202 107.674 469.053 107.39 471.23C107.106 473.408 106.833 475.314 106.801 475.466C106.713 475.782 107.063 475.717 99.7696 476.686C98.7652 476.827 97.9682 476.958 98.001 476.99C98.0337 477.023 99.9989 477.306 102.379 477.622C104.759 477.938 106.724 478.221 106.746 478.243C106.779 478.264 107.063 480.235 107.39 482.62C107.718 485.005 108.002 486.965 108.023 486.997C108.078 487.052 108.187 486.344 108.766 481.912C109.017 479.963 109.268 478.33 109.312 478.286C109.355 478.232 111.31 477.927 113.668 477.611C116.015 477.295 117.969 477.012 117.991 476.98C118.068 476.903 117.729 476.86 113.449 476.294C111.255 476.011 109.41 475.727 109.344 475.662C109.279 475.597 108.962 473.626 108.646 471.296C108.34 468.955 108.056 467.027 108.034 467.006C108.012 466.984 107.98 467.027 107.947 467.114Z" fill="white" fill-opacity="0.3"/>
<path class='star1' d="M179.947 254.114C179.925 254.202 179.674 256.053 179.39 258.23C179.106 260.408 178.833 262.314 178.801 262.466C178.713 262.782 179.063 262.717 171.77 263.686C170.765 263.827 169.968 263.958 170.001 263.99C170.034 264.023 171.999 264.306 174.379 264.622C176.759 264.938 178.724 265.221 178.746 265.243C178.779 265.264 179.063 267.235 179.39 269.62C179.718 272.005 180.002 273.965 180.023 273.997C180.078 274.052 180.187 273.344 180.766 268.912C181.017 266.963 181.268 265.33 181.312 265.286C181.355 265.232 183.31 264.927 185.668 264.611C188.015 264.295 189.969 264.012 189.991 263.98C190.068 263.903 189.729 263.86 185.449 263.294C183.255 263.011 181.41 262.727 181.344 262.662C181.279 262.597 180.962 260.626 180.646 258.296C180.34 255.955 180.056 254.027 180.034 254.006C180.012 253.984 179.98 254.027 179.947 254.114Z" fill="white" fill-opacity="0.3"/>
<path class='star1' d="M1767.05 782.114C1767.07 782.202 1767.33 784.053 1767.61 786.23C1767.89 788.408 1768.17 790.314 1768.2 790.466C1768.29 790.782 1767.94 790.717 1775.23 791.686C1776.23 791.827 1777.03 791.958 1777 791.99C1776.97 792.023 1775 792.306 1772.62 792.622C1770.24 792.938 1768.28 793.221 1768.25 793.243C1768.22 793.264 1767.94 795.235 1767.61 797.62C1767.28 800.005 1767 801.965 1766.98 801.997C1766.92 802.052 1766.81 801.344 1766.23 796.912C1765.98 794.963 1765.73 793.33 1765.69 793.286C1765.64 793.232 1763.69 792.927 1761.33 792.611C1758.98 792.295 1757.03 792.012 1757.01 791.98C1756.93 791.903 1757.27 791.86 1761.55 791.294C1763.74 791.011 1765.59 790.727 1765.66 790.662C1765.72 790.597 1766.04 788.626 1766.35 786.296C1766.66 783.955 1766.94 782.027 1766.97 782.006C1766.99 781.984 1767.02 782.027 1767.05 782.114Z" fill="white" fill-opacity="0.3"/>
<path class='star1' d="M1251.95 488.114C1251.93 488.202 1251.67 490.053 1251.39 492.23C1251.11 494.408 1250.83 496.314 1250.8 496.466C1250.71 496.782 1251.06 496.717 1243.77 497.686C1242.77 497.827 1241.97 497.958 1242 497.99C1242.03 498.023 1244 498.306 1246.38 498.622C1248.76 498.938 1250.72 499.221 1250.75 499.243C1250.78 499.264 1251.06 501.235 1251.39 503.62C1251.72 506.005 1252 507.965 1252.02 507.997C1252.08 508.052 1252.19 507.344 1252.77 502.912C1253.02 500.963 1253.27 499.33 1253.31 499.286C1253.36 499.232 1255.31 498.927 1257.67 498.611C1260.02 498.295 1261.97 498.012 1261.99 497.98C1262.07 497.903 1261.73 497.86 1257.45 497.294C1255.26 497.011 1253.41 496.727 1253.34 496.662C1253.28 496.597 1252.96 494.626 1252.65 492.296C1252.34 489.955 1252.06 488.027 1252.03 488.006C1252.01 487.984 1251.98 488.027 1251.95 488.114Z" fill="white" fill-opacity="0.3"/>
<path class='star1' d="M624.053 53.1144C624.075 53.2015 624.326 55.0526 624.61 57.2304C624.894 59.4081 625.167 61.3136 625.199 61.4661C625.287 61.7818 624.937 61.7165 632.23 62.6856C633.235 62.8272 634.032 62.9578 633.999 62.9905C633.966 63.0232 632.001 63.3063 629.621 63.622C627.241 63.9378 625.276 64.2209 625.254 64.2427C625.221 64.2645 624.937 66.2353 624.61 68.6199C624.282 71.0046 623.998 72.9645 623.977 72.9972C623.922 73.0516 623.813 72.3439 623.234 67.9122C622.983 65.9631 622.732 64.3298 622.688 64.2862C622.645 64.2318 620.69 63.9269 618.332 63.6111C615.985 63.2954 614.031 63.0123 614.009 62.9796C613.932 62.9034 614.271 62.8598 618.551 62.2936C620.745 62.0105 622.59 61.7274 622.656 61.6621C622.721 61.5967 623.038 59.6259 623.354 57.2957C623.66 54.9546 623.944 53.0273 623.966 53.0055C623.988 52.9838 624.02 53.0273 624.053 53.1144Z" fill="white" fill-opacity="0.3"/>
<path class='star1' d="M1576.95 1083.11C1576.93 1083.2 1576.67 1085.05 1576.39 1087.23C1576.11 1089.41 1575.83 1091.31 1575.8 1091.47C1575.71 1091.78 1576.06 1091.72 1568.77 1092.69C1567.77 1092.83 1566.97 1092.96 1567 1092.99C1567.03 1093.02 1569 1093.31 1571.38 1093.62C1573.76 1093.94 1575.72 1094.22 1575.75 1094.24C1575.78 1094.26 1576.06 1096.24 1576.39 1098.62C1576.72 1101 1577 1102.96 1577.02 1103C1577.08 1103.05 1577.19 1102.34 1577.77 1097.91C1578.02 1095.96 1578.27 1094.33 1578.31 1094.29C1578.36 1094.23 1580.31 1093.93 1582.67 1093.61C1585.02 1093.3 1586.97 1093.01 1586.99 1092.98C1587.07 1092.9 1586.73 1092.86 1582.45 1092.29C1580.26 1092.01 1578.41 1091.73 1578.34 1091.66C1578.28 1091.6 1577.96 1089.63 1577.65 1087.3C1577.34 1084.95 1577.06 1083.03 1577.03 1083.01C1577.01 1082.98 1576.98 1083.03 1576.95 1083.11Z" fill="white" fill-opacity="0.3"/>
<path class='star1' d="M881.947 920.114C881.925 920.202 881.674 922.053 881.39 924.23C881.106 926.408 880.833 928.314 880.801 928.466C880.713 928.782 881.063 928.717 873.77 929.686C872.765 929.827 871.968 929.958 872.001 929.99C872.034 930.023 873.999 930.306 876.379 930.622C878.759 930.938 880.724 931.221 880.746 931.243C880.779 931.264 881.063 933.235 881.39 935.62C881.718 938.005 882.002 939.965 882.023 939.997C882.078 940.052 882.187 939.344 882.766 934.912C883.017 932.963 883.268 931.33 883.312 931.286C883.355 931.232 885.31 930.927 887.668 930.611C890.015 930.295 891.969 930.012 891.991 929.98C892.068 929.903 891.729 929.86 887.449 929.294C885.255 929.011 883.41 928.727 883.344 928.662C883.279 928.597 882.962 926.626 882.646 924.296C882.34 921.955 882.056 920.027 882.034 920.006C882.012 919.984 881.98 920.027 881.947 920.114Z" fill="white" fill-opacity="0.3"/>
<path class='star1' d="M840.947 357.114C840.925 357.202 840.674 359.053 840.39 361.23C840.106 363.408 839.833 365.314 839.801 365.466C839.713 365.782 840.063 365.717 832.77 366.686C831.765 366.827 830.968 366.958 831.001 366.99C831.034 367.023 832.999 367.306 835.379 367.622C837.759 367.938 839.724 368.221 839.746 368.243C839.779 368.264 840.063 370.235 840.39 372.62C840.718 375.005 841.002 376.965 841.023 376.997C841.078 377.052 841.187 376.344 841.766 371.912C842.017 369.963 842.268 368.33 842.312 368.286C842.355 368.232 844.31 367.927 846.668 367.611C849.015 367.295 850.969 367.012 850.991 366.98C851.068 366.903 850.729 366.86 846.449 366.294C844.255 366.011 842.41 365.727 842.344 365.662C842.279 365.597 841.962 363.626 841.646 361.296C841.34 358.955 841.056 357.027 841.034 357.006C841.012 356.984 840.98 357.027 840.947 357.114Z" fill="white" fill-opacity="0.3"/>
<path class='star1' d="M703.947 733.114C703.925 733.202 703.674 735.053 703.39 737.23C703.106 739.408 702.833 741.314 702.801 741.466C702.713 741.782 703.063 741.717 695.77 742.686C694.765 742.827 693.968 742.958 694.001 742.99C694.034 743.023 695.999 743.306 698.379 743.622C700.759 743.938 702.724 744.221 702.746 744.243C702.779 744.264 703.063 746.235 703.39 748.62C703.718 751.005 704.002 752.965 704.023 752.997C704.078 753.052 704.187 752.344 704.766 747.912C705.017 745.963 705.268 744.33 705.312 744.286C705.355 744.232 707.31 743.927 709.668 743.611C712.015 743.295 713.969 743.012 713.991 742.98C714.068 742.903 713.729 742.86 709.449 742.294C707.255 742.011 705.41 741.727 705.344 741.662C705.279 741.597 704.962 739.626 704.646 737.296C704.34 734.955 704.056 733.027 704.034 733.006C704.012 732.984 703.98 733.027 703.947 733.114Z" fill="white" fill-opacity="0.3"/>
<path class='star1' d="M120.947 977.114C120.925 977.202 120.674 979.053 120.39 981.23C120.106 983.408 119.833 985.314 119.801 985.466C119.713 985.782 120.063 985.717 112.77 986.686C111.765 986.827 110.968 986.958 111.001 986.99C111.034 987.023 112.999 987.306 115.379 987.622C117.759 987.938 119.724 988.221 119.746 988.243C119.779 988.264 120.063 990.235 120.39 992.62C120.718 995.005 121.002 996.965 121.023 996.997C121.078 997.052 121.187 996.344 121.766 991.912C122.017 989.963 122.268 988.33 122.312 988.286C122.355 988.232 124.31 987.927 126.668 987.611C129.015 987.295 130.969 987.012 130.991 986.98C131.068 986.903 130.729 986.86 126.449 986.294C124.255 986.011 122.41 985.727 122.344 985.662C122.279 985.597 121.962 983.626 121.646 981.296C121.34 978.955 121.056 977.027 121.034 977.006C121.012 976.984 120.98 977.027 120.947 977.114Z" fill="white" fill-opacity="0.3"/>
<path class='star1' d="M382.947 813.114C382.925 813.202 382.674 815.053 382.39 817.23C382.106 819.408 381.833 821.314 381.801 821.466C381.713 821.782 382.063 821.717 374.77 822.686C373.765 822.827 372.968 822.958 373.001 822.99C373.034 823.023 374.999 823.306 377.379 823.622C379.759 823.938 381.724 824.221 381.746 824.243C381.779 824.264 382.063 826.235 382.39 828.62C382.718 831.005 383.002 832.965 383.023 832.997C383.078 833.052 383.187 832.344 383.766 827.912C384.017 825.963 384.268 824.33 384.312 824.286C384.355 824.232 386.31 823.927 388.668 823.611C391.015 823.295 392.969 823.012 392.991 822.98C393.068 822.903 392.729 822.86 388.449 822.294C386.255 822.011 384.41 821.727 384.344 821.662C384.279 821.597 383.962 819.626 383.646 817.296C383.34 814.955 383.056 813.027 383.034 813.006C383.012 812.984 382.98 813.027 382.947 813.114Z" fill="white" fill-opacity="0.3"/>
<path class='star1' d="M1588.95 416.114C1588.93 416.202 1588.67 418.053 1588.39 420.23C1588.11 422.408 1587.83 424.314 1587.8 424.466C1587.71 424.782 1588.06 424.717 1580.77 425.686C1579.77 425.827 1578.97 425.958 1579 425.99C1579.03 426.023 1581 426.306 1583.38 426.622C1585.76 426.938 1587.72 427.221 1587.75 427.243C1587.78 427.264 1588.06 429.235 1588.39 431.62C1588.72 434.005 1589 435.965 1589.02 435.997C1589.08 436.052 1589.19 435.344 1589.77 430.912C1590.02 428.963 1590.27 427.33 1590.31 427.286C1590.36 427.232 1592.31 426.927 1594.67 426.611C1597.02 426.295 1598.97 426.012 1598.99 425.98C1599.07 425.903 1598.73 425.86 1594.45 425.294C1592.26 425.011 1590.41 424.727 1590.34 424.662C1590.28 424.597 1589.96 422.626 1589.65 420.296C1589.34 417.955 1589.06 416.027 1589.03 416.006C1589.01 415.984 1588.98 416.027 1588.95 416.114Z" fill="white" fill-opacity="0.3"/>
<path class='star1' d="M523.053 452.114C523.075 452.202 523.326 454.053 523.61 456.23C523.894 458.408 524.167 460.314 524.199 460.466C524.287 460.782 523.937 460.717 531.23 461.686C532.235 461.827 533.032 461.958 532.999 461.99C532.966 462.023 531.001 462.306 528.621 462.622C526.241 462.938 524.276 463.221 524.254 463.243C524.221 463.264 523.937 465.235 523.61 467.62C523.282 470.005 522.998 471.965 522.977 471.997C522.922 472.052 522.813 471.344 522.234 466.912C521.983 464.963 521.732 463.33 521.688 463.286C521.645 463.232 519.69 462.927 517.332 462.611C514.985 462.295 513.031 462.012 513.009 461.98C512.932 461.903 513.271 461.86 517.551 461.294C519.745 461.011 521.59 460.727 521.656 460.662C521.721 460.597 522.038 458.626 522.354 456.296C522.66 453.955 522.944 452.027 522.966 452.006C522.988 451.984 523.02 452.027 523.053 452.114Z" fill="white" fill-opacity="0.3"/>
<path class='star1' d="M1805.95 0.114436C1805.93 0.201545 1805.67 2.05262 1805.39 4.23037C1805.11 6.40811 1804.83 8.31363 1804.8 8.46607C1804.71 8.78184 1805.06 8.71651 1797.77 9.68561C1796.77 9.82716 1795.97 9.95782 1796 9.99049C1796.03 10.0232 1798 10.3063 1800.38 10.622C1802.76 10.9378 1804.72 11.2209 1804.75 11.2427C1804.78 11.2645 1805.06 13.2353 1805.39 15.6199C1805.72 18.0046 1806 19.9645 1806.02 19.9972C1806.08 20.0516 1806.19 19.3439 1806.77 14.9122C1807.02 12.9631 1807.27 11.3298 1807.31 11.2862C1807.36 11.2318 1809.31 10.9269 1811.67 10.6111C1814.02 10.2954 1815.97 10.0123 1815.99 9.9796C1816.07 9.90338 1815.73 9.85982 1811.45 9.29361C1809.26 9.01051 1807.41 8.7274 1807.34 8.66207C1807.28 8.59673 1806.96 6.62588 1806.65 4.2957C1806.34 1.95463 1806.06 0.0273261 1806.03 0.00554874C1806.01 -0.0162287 1805.98 0.0273261 1805.95 0.114436Z" fill="white" fill-opacity="0.3"/>
<path class='star1' d="M32.947 157.114C32.9252 157.202 32.674 159.053 32.3902 161.23C32.1063 163.408 31.8334 165.314 31.8006 165.466C31.7133 165.782 32.0627 165.717 24.7696 166.686C23.7652 166.827 22.9682 166.958 23.001 166.99C23.0337 167.023 24.9989 167.306 27.379 167.622C29.759 167.938 31.7242 168.221 31.746 168.243C31.7788 168.264 32.0627 170.235 32.3902 172.62C32.7177 175.005 33.0016 176.965 33.0234 176.997C33.078 177.052 33.1872 176.344 33.7658 171.912C34.0169 169.963 34.268 168.33 34.3117 168.286C34.3554 168.232 36.3096 167.927 38.6679 167.611C41.0152 167.295 42.9694 167.012 42.9913 166.98C43.0677 166.903 42.7292 166.86 38.4495 166.294C36.255 166.011 34.41 165.727 34.3444 165.662C34.2789 165.597 33.9623 163.626 33.6457 161.296C33.34 158.955 33.0562 157.027 33.0343 157.006C33.0125 156.984 32.9797 157.027 32.947 157.114Z" fill="white" fill-opacity="0.3"/>
<path class='star1' d="M902.947 650.114C902.925 650.202 902.674 652.053 902.39 654.23C902.106 656.408 901.833 658.314 901.801 658.466C901.713 658.782 902.063 658.717 894.77 659.686C893.765 659.827 892.968 659.958 893.001 659.99C893.034 660.023 894.999 660.306 897.379 660.622C899.759 660.938 901.724 661.221 901.746 661.243C901.779 661.264 902.063 663.235 902.39 665.62C902.718 668.005 903.002 669.965 903.023 669.997C903.078 670.052 903.187 669.344 903.766 664.912C904.017 662.963 904.268 661.33 904.312 661.286C904.355 661.232 906.31 660.927 908.668 660.611C911.015 660.295 912.969 660.012 912.991 659.98C913.068 659.903 912.729 659.86 908.449 659.294C906.255 659.011 904.41 658.727 904.344 658.662C904.279 658.597 903.962 656.626 903.646 654.296C903.34 651.955 903.056 650.027 903.034 650.006C903.012 649.984 902.98 650.027 902.947 650.114Z" fill="white" fill-opacity="0.3"/>
<path class='star1' d="M1352.95 109.114C1352.93 109.202 1352.67 111.053 1352.39 113.23C1352.11 115.408 1351.83 117.314 1351.8 117.466C1351.71 117.782 1352.06 117.717 1344.77 118.686C1343.77 118.827 1342.97 118.958 1343 118.99C1343.03 119.023 1345 119.306 1347.38 119.622C1349.76 119.938 1351.72 120.221 1351.75 120.243C1351.78 120.264 1352.06 122.235 1352.39 124.62C1352.72 127.005 1353 128.965 1353.02 128.997C1353.08 129.052 1353.19 128.344 1353.77 123.912C1354.02 121.963 1354.27 120.33 1354.31 120.286C1354.36 120.232 1356.31 119.927 1358.67 119.611C1361.02 119.295 1362.97 119.012 1362.99 118.98C1363.07 118.903 1362.73 118.86 1358.45 118.294C1356.26 118.011 1354.41 117.727 1354.34 117.662C1354.28 117.597 1353.96 115.626 1353.65 113.296C1353.34 110.955 1353.06 109.027 1353.03 109.006C1353.01 108.984 1352.98 109.027 1352.95 109.114Z" fill="white" fill-opacity="0.3"/>
<path class='star1' d="M973.053 215.114C973.075 215.202 973.326 217.053 973.61 219.23C973.894 221.408 974.167 223.314 974.199 223.466C974.287 223.782 973.937 223.717 981.23 224.686C982.235 224.827 983.032 224.958 982.999 224.99C982.966 225.023 981.001 225.306 978.621 225.622C976.241 225.938 974.276 226.221 974.254 226.243C974.221 226.264 973.937 228.235 973.61 230.62C973.282 233.005 972.998 234.965 972.977 234.997C972.922 235.052 972.813 234.344 972.234 229.912C971.983 227.963 971.732 226.33 971.688 226.286C971.645 226.232 969.69 225.927 967.332 225.611C964.985 225.295 963.031 225.012 963.009 224.98C962.932 224.903 963.271 224.86 967.551 224.294C969.745 224.011 971.59 223.727 971.656 223.662C971.721 223.597 972.038 221.626 972.354 219.296C972.66 216.955 972.944 215.027 972.966 215.006C972.988 214.984 973.02 215.027 973.053 215.114Z" fill="white" fill-opacity="0.3"/>
<path class='star1' d="M1138.95 766.114C1138.93 766.202 1138.67 768.053 1138.39 770.23C1138.11 772.408 1137.83 774.314 1137.8 774.466C1137.71 774.782 1138.06 774.717 1130.77 775.686C1129.77 775.827 1128.97 775.958 1129 775.99C1129.03 776.023 1131 776.306 1133.38 776.622C1135.76 776.938 1137.72 777.221 1137.75 777.243C1137.78 777.264 1138.06 779.235 1138.39 781.62C1138.72 784.005 1139 785.965 1139.02 785.997C1139.08 786.052 1139.19 785.344 1139.77 780.912C1140.02 778.963 1140.27 777.33 1140.31 777.286C1140.36 777.232 1142.31 776.927 1144.67 776.611C1147.02 776.295 1148.97 776.012 1148.99 775.98C1149.07 775.903 1148.73 775.86 1144.45 775.294C1142.26 775.011 1140.41 774.727 1140.34 774.662C1140.28 774.597 1139.96 772.626 1139.65 770.296C1139.34 767.955 1139.06 766.027 1139.03 766.006C1139.01 765.984 1138.98 766.027 1138.95 766.114Z" fill="white" fill-opacity="0.3"/>
<path class='star1' d="M1588.95 225.114C1588.93 225.202 1588.67 227.053 1588.39 229.23C1588.11 231.408 1587.83 233.314 1587.8 233.466C1587.71 233.782 1588.06 233.717 1580.77 234.686C1579.77 234.827 1578.97 234.958 1579 234.99C1579.03 235.023 1581 235.306 1583.38 235.622C1585.76 235.938 1587.72 236.221 1587.75 236.243C1587.78 236.264 1588.06 238.235 1588.39 240.62C1588.72 243.005 1589 244.965 1589.02 244.997C1589.08 245.052 1589.19 244.344 1589.77 239.912C1590.02 237.963 1590.27 236.33 1590.31 236.286C1590.36 236.232 1592.31 235.927 1594.67 235.611C1597.02 235.295 1598.97 235.012 1598.99 234.98C1599.07 234.903 1598.73 234.86 1594.45 234.294C1592.26 234.011 1590.41 233.727 1590.34 233.662C1590.28 233.597 1589.96 231.626 1589.65 229.296C1589.34 226.955 1589.06 225.027 1589.03 225.006C1589.01 224.984 1588.98 225.027 1588.95 225.114Z" fill="white" fill-opacity="0.3"/>
<path class='star1' d="M840.947 995.114C840.925 995.202 840.674 997.053 840.39 999.23C840.106 1001.41 839.833 1003.31 839.801 1003.47C839.713 1003.78 840.063 1003.72 832.77 1004.69C831.765 1004.83 830.968 1004.96 831.001 1004.99C831.034 1005.02 832.999 1005.31 835.379 1005.62C837.759 1005.94 839.724 1006.22 839.746 1006.24C839.779 1006.26 840.063 1008.24 840.39 1010.62C840.718 1013 841.002 1014.96 841.023 1015C841.078 1015.05 841.187 1014.34 841.766 1009.91C842.017 1007.96 842.268 1006.33 842.312 1006.29C842.355 1006.23 844.31 1005.93 846.668 1005.61C849.015 1005.3 850.969 1005.01 850.991 1004.98C851.068 1004.9 850.729 1004.86 846.449 1004.29C844.255 1004.01 842.41 1003.73 842.344 1003.66C842.279 1003.6 841.962 1001.63 841.646 999.296C841.34 996.955 841.056 995.027 841.034 995.006C841.012 994.984 840.98 995.027 840.947 995.114Z" fill="white" fill-opacity="0.3"/>
<path class='star1' d="M799.947 432.114C799.925 432.202 799.674 434.053 799.39 436.23C799.106 438.408 798.833 440.314 798.801 440.466C798.713 440.782 799.063 440.717 791.77 441.686C790.765 441.827 789.968 441.958 790.001 441.99C790.034 442.023 791.999 442.306 794.379 442.622C796.759 442.938 798.724 443.221 798.746 443.243C798.779 443.264 799.063 445.235 799.39 447.62C799.718 450.005 800.002 451.965 800.023 451.997C800.078 452.052 800.187 451.344 800.766 446.912C801.017 444.963 801.268 443.33 801.312 443.286C801.355 443.232 803.31 442.927 805.668 442.611C808.015 442.295 809.969 442.012 809.991 441.98C810.068 441.903 809.729 441.86 805.449 441.294C803.255 441.011 801.41 440.727 801.344 440.662C801.279 440.597 800.962 438.626 800.646 436.296C800.34 433.955 800.056 432.027 800.034 432.006C800.012 431.984 799.98 432.027 799.947 432.114Z" fill="white" fill-opacity="0.3"/>
<path class='star1' d="M662.947 808.114C662.925 808.202 662.674 810.053 662.39 812.23C662.106 814.408 661.833 816.314 661.801 816.466C661.713 816.782 662.063 816.717 654.77 817.686C653.765 817.827 652.968 817.958 653.001 817.99C653.034 818.023 654.999 818.306 657.379 818.622C659.759 818.938 661.724 819.221 661.746 819.243C661.779 819.264 662.063 821.235 662.39 823.62C662.718 826.005 663.002 827.965 663.023 827.997C663.078 828.052 663.187 827.344 663.766 822.912C664.017 820.963 664.268 819.33 664.312 819.286C664.355 819.232 666.31 818.927 668.668 818.611C671.015 818.295 672.969 818.012 672.991 817.98C673.068 817.903 672.729 817.86 668.449 817.294C666.255 817.011 664.41 816.727 664.344 816.662C664.279 816.597 663.962 814.626 663.646 812.296C663.34 809.955 663.056 808.027 663.034 808.006C663.012 807.984 662.98 808.027 662.947 808.114Z" fill="white" fill-opacity="0.3"/>
<path class='star2' d="M1818.95 1009.11C1818.93 1009.2 1818.67 1011.05 1818.39 1013.23C1818.11 1015.41 1817.83 1017.31 1817.8 1017.47C1817.71 1017.78 1818.06 1017.72 1810.77 1018.69C1809.77 1018.83 1808.97 1018.96 1809 1018.99C1809.03 1019.02 1811 1019.31 1813.38 1019.62C1815.76 1019.94 1817.72 1020.22 1817.75 1020.24C1817.78 1020.26 1818.06 1022.24 1818.39 1024.62C1818.72 1027 1819 1028.96 1819.02 1029C1819.08 1029.05 1819.19 1028.34 1819.77 1023.91C1820.02 1021.96 1820.27 1020.33 1820.31 1020.29C1820.36 1020.23 1822.31 1019.93 1824.67 1019.61C1827.02 1019.3 1828.97 1019.01 1828.99 1018.98C1829.07 1018.9 1828.73 1018.86 1824.45 1018.29C1822.26 1018.01 1820.41 1017.73 1820.34 1017.66C1820.28 1017.6 1819.96 1015.63 1819.65 1013.3C1819.34 1010.95 1819.06 1009.03 1819.03 1009.01C1819.01 1008.98 1818.98 1009.03 1818.95 1009.11Z" fill="white" fill-opacity="0.3"/>
<path class='star2' d="M1261.95 925.114C1261.93 925.202 1261.67 927.053 1261.39 929.23C1261.11 931.408 1260.83 933.314 1260.8 933.466C1260.71 933.782 1261.06 933.717 1253.77 934.686C1252.77 934.827 1251.97 934.958 1252 934.99C1252.03 935.023 1254 935.306 1256.38 935.622C1258.76 935.938 1260.72 936.221 1260.75 936.243C1260.78 936.264 1261.06 938.235 1261.39 940.62C1261.72 943.005 1262 944.965 1262.02 944.997C1262.08 945.052 1262.19 944.344 1262.77 939.912C1263.02 937.963 1263.27 936.33 1263.31 936.286C1263.36 936.232 1265.31 935.927 1267.67 935.611C1270.02 935.295 1271.97 935.012 1271.99 934.98C1272.07 934.903 1271.73 934.86 1267.45 934.294C1265.26 934.011 1263.41 933.727 1263.34 933.662C1263.28 933.597 1262.96 931.626 1262.65 929.296C1262.34 926.955 1262.06 925.027 1262.03 925.006C1262.01 924.984 1261.98 925.027 1261.95 925.114Z" fill="white" fill-opacity="0.3"/>
<path class='star2' d="M577.947 712.114C577.925 712.202 577.674 714.053 577.39 716.23C577.106 718.408 576.833 720.314 576.801 720.466C576.713 720.782 577.063 720.717 569.77 721.686C568.765 721.827 567.968 721.958 568.001 721.99C568.034 722.023 569.999 722.306 572.379 722.622C574.759 722.938 576.724 723.221 576.746 723.243C576.779 723.264 577.063 725.235 577.39 727.62C577.718 730.005 578.002 731.965 578.023 731.997C578.078 732.052 578.187 731.344 578.766 726.912C579.017 724.963 579.268 723.33 579.312 723.286C579.355 723.232 581.31 722.927 583.668 722.611C586.015 722.295 587.969 722.012 587.991 721.98C588.068 721.903 587.729 721.86 583.449 721.294C581.255 721.011 579.41 720.727 579.344 720.662C579.279 720.597 578.962 718.626 578.646 716.296C578.34 713.955 578.056 712.027 578.034 712.006C578.012 711.984 577.98 712.027 577.947 712.114Z" fill="white" fill-opacity="0.3"/>
<path class='star2' d="M1783.95 315.114C1783.93 315.202 1783.67 317.053 1783.39 319.23C1783.11 321.408 1782.83 323.314 1782.8 323.466C1782.71 323.782 1783.06 323.717 1775.77 324.686C1774.77 324.827 1773.97 324.958 1774 324.99C1774.03 325.023 1776 325.306 1778.38 325.622C1780.76 325.938 1782.72 326.221 1782.75 326.243C1782.78 326.264 1783.06 328.235 1783.39 330.62C1783.72 333.005 1784 334.965 1784.02 334.997C1784.08 335.052 1784.19 334.344 1784.77 329.912C1785.02 327.963 1785.27 326.33 1785.31 326.286C1785.36 326.232 1787.31 325.927 1789.67 325.611C1792.02 325.295 1793.97 325.012 1793.99 324.98C1794.07 324.903 1793.73 324.86 1789.45 324.294C1787.26 324.011 1785.41 323.727 1785.34 323.662C1785.28 323.597 1784.96 321.626 1784.65 319.296C1784.34 316.955 1784.06 315.027 1784.03 315.006C1784.01 314.984 1783.98 315.027 1783.95 315.114Z" fill="white" fill-opacity="0.3"/>
<path class='star2' d="M227.947 56.1144C227.925 56.2015 227.674 58.0526 227.39 60.2304C227.106 62.4081 226.833 64.3136 226.801 64.4661C226.713 64.7818 227.063 64.7165 219.77 65.6856C218.765 65.8272 217.968 65.9578 218.001 65.9905C218.034 66.0232 219.999 66.3063 222.379 66.622C224.759 66.9378 226.724 67.2209 226.746 67.2427C226.779 67.2645 227.063 69.2353 227.39 71.6199C227.718 74.0046 228.002 75.9645 228.023 75.9972C228.078 76.0516 228.187 75.3439 228.766 70.9122C229.017 68.9631 229.268 67.3298 229.312 67.2862C229.355 67.2318 231.31 66.9269 233.668 66.6111C236.015 66.2954 237.969 66.0123 237.991 65.9796C238.068 65.9034 237.729 65.8598 233.449 65.2936C231.255 65.0105 229.41 64.7274 229.344 64.6621C229.279 64.5967 228.962 62.6259 228.646 60.2957C228.34 57.9546 228.056 56.0273 228.034 56.0055C228.012 55.9838 227.98 56.0273 227.947 56.1144Z" fill="white" fill-opacity="0.3"/>
<path class='star2' d="M1097.95 549.114C1097.93 549.202 1097.67 551.053 1097.39 553.23C1097.11 555.408 1096.83 557.314 1096.8 557.466C1096.71 557.782 1097.06 557.717 1089.77 558.686C1088.77 558.827 1087.97 558.958 1088 558.99C1088.03 559.023 1090 559.306 1092.38 559.622C1094.76 559.938 1096.72 560.221 1096.75 560.243C1096.78 560.264 1097.06 562.235 1097.39 564.62C1097.72 567.005 1098 568.965 1098.02 568.997C1098.08 569.052 1098.19 568.344 1098.77 563.912C1099.02 561.963 1099.27 560.33 1099.31 560.286C1099.36 560.232 1101.31 559.927 1103.67 559.611C1106.02 559.295 1107.97 559.012 1107.99 558.98C1108.07 558.903 1107.73 558.86 1103.45 558.294C1101.26 558.011 1099.41 557.727 1099.34 557.662C1099.28 557.597 1098.96 555.626 1098.65 553.296C1098.34 550.955 1098.06 549.027 1098.03 549.006C1098.01 548.984 1097.98 549.027 1097.95 549.114Z" fill="white" fill-opacity="0.3"/>
<path class='star2' d="M1547.95 8.11444C1547.93 8.20155 1547.67 10.0526 1547.39 12.2304C1547.11 14.4081 1546.83 16.3136 1546.8 16.4661C1546.71 16.7818 1547.06 16.7165 1539.77 17.6856C1538.77 17.8272 1537.97 17.9578 1538 17.9905C1538.03 18.0232 1540 18.3063 1542.38 18.622C1544.76 18.9378 1546.72 19.2209 1546.75 19.2427C1546.78 19.2645 1547.06 21.2353 1547.39 23.6199C1547.72 26.0046 1548 27.9645 1548.02 27.9972C1548.08 28.0516 1548.19 27.3439 1548.77 22.9122C1549.02 20.9631 1549.27 19.3298 1549.31 19.2862C1549.36 19.2318 1551.31 18.9269 1553.67 18.6111C1556.02 18.2954 1557.97 18.0123 1557.99 17.9796C1558.07 17.9034 1557.73 17.8598 1553.45 17.2936C1551.26 17.0105 1549.41 16.7274 1549.34 16.6621C1549.28 16.5967 1548.96 14.6259 1548.65 12.2957C1548.34 9.95463 1548.06 8.02733 1548.03 8.00555C1548.01 7.98377 1547.98 8.02733 1547.95 8.11444Z" fill="white" fill-opacity="0.3"/>
<path class='star2' d="M778.053 114.114C778.075 114.202 778.326 116.053 778.61 118.23C778.894 120.408 779.167 122.314 779.199 122.466C779.287 122.782 778.937 122.717 786.23 123.686C787.235 123.827 788.032 123.958 787.999 123.99C787.966 124.023 786.001 124.306 783.621 124.622C781.241 124.938 779.276 125.221 779.254 125.243C779.221 125.264 778.937 127.235 778.61 129.62C778.282 132.005 777.998 133.965 777.977 133.997C777.922 134.052 777.813 133.344 777.234 128.912C776.983 126.963 776.732 125.33 776.688 125.286C776.645 125.232 774.69 124.927 772.332 124.611C769.985 124.295 768.031 124.012 768.009 123.98C767.932 123.903 768.271 123.86 772.551 123.294C774.745 123.011 776.59 122.727 776.656 122.662C776.721 122.597 777.038 120.626 777.354 118.296C777.66 115.955 777.944 114.027 777.966 114.006C777.988 113.984 778.02 114.027 778.053 114.114Z" fill="white" fill-opacity="0.3"/>
<path class='star2' d="M1169.95 336.114C1169.93 336.202 1169.67 338.053 1169.39 340.23C1169.11 342.408 1168.83 344.314 1168.8 344.466C1168.71 344.782 1169.06 344.717 1161.77 345.686C1160.77 345.827 1159.97 345.958 1160 345.99C1160.03 346.023 1162 346.306 1164.38 346.622C1166.76 346.938 1168.72 347.221 1168.75 347.243C1168.78 347.264 1169.06 349.235 1169.39 351.62C1169.72 354.005 1170 355.965 1170.02 355.997C1170.08 356.052 1170.19 355.344 1170.77 350.912C1171.02 348.963 1171.27 347.33 1171.31 347.286C1171.36 347.232 1173.31 346.927 1175.67 346.611C1178.02 346.295 1179.97 346.012 1179.99 345.98C1180.07 345.903 1179.73 345.86 1175.45 345.294C1173.26 345.011 1171.41 344.727 1171.34 344.662C1171.28 344.597 1170.96 342.626 1170.65 340.296C1170.34 337.955 1170.06 336.027 1170.03 336.006C1170.01 335.984 1169.98 336.027 1169.95 336.114Z" fill="white" fill-opacity="0.3"/>
<path class='star2' d="M1461.95 792.114C1461.93 792.202 1461.67 794.053 1461.39 796.23C1461.11 798.408 1460.83 800.314 1460.8 800.466C1460.71 800.782 1461.06 800.717 1453.77 801.686C1452.77 801.827 1451.97 801.958 1452 801.99C1452.03 802.023 1454 802.306 1456.38 802.622C1458.76 802.938 1460.72 803.221 1460.75 803.243C1460.78 803.264 1461.06 805.235 1461.39 807.62C1461.72 810.005 1462 811.965 1462.02 811.997C1462.08 812.052 1462.19 811.344 1462.77 806.912C1463.02 804.963 1463.27 803.33 1463.31 803.286C1463.36 803.232 1465.31 802.927 1467.67 802.611C1470.02 802.295 1471.97 802.012 1471.99 801.98C1472.07 801.903 1471.73 801.86 1467.45 801.294C1465.26 801.011 1463.41 800.727 1463.34 800.662C1463.28 800.597 1462.96 798.626 1462.65 796.296C1462.34 793.955 1462.06 792.027 1462.03 792.006C1462.01 791.984 1461.98 792.027 1461.95 792.114Z" fill="white" fill-opacity="0.3"/>
<path class='star2' d="M1747.05 588.114C1747.07 588.202 1747.33 590.053 1747.61 592.23C1747.89 594.408 1748.17 596.314 1748.2 596.466C1748.29 596.782 1747.94 596.717 1755.23 597.686C1756.23 597.827 1757.03 597.958 1757 597.99C1756.97 598.023 1755 598.306 1752.62 598.622C1750.24 598.938 1748.28 599.221 1748.25 599.243C1748.22 599.264 1747.94 601.235 1747.61 603.62C1747.28 606.005 1747 607.965 1746.98 607.997C1746.92 608.052 1746.81 607.344 1746.23 602.912C1745.98 600.963 1745.73 599.33 1745.69 599.286C1745.64 599.232 1743.69 598.927 1741.33 598.611C1738.98 598.295 1737.03 598.012 1737.01 597.98C1736.93 597.903 1737.27 597.86 1741.55 597.294C1743.74 597.011 1745.59 596.727 1745.66 596.662C1745.72 596.597 1746.04 594.626 1746.35 592.296C1746.66 589.955 1746.94 588.027 1746.97 588.006C1746.99 587.984 1747.02 588.027 1747.05 588.114Z" fill="white" fill-opacity="0.3"/>
<path class='star2' d="M554.947 534.114C554.925 534.202 554.674 536.053 554.39 538.23C554.106 540.408 553.833 542.314 553.801 542.466C553.713 542.782 554.063 542.717 546.77 543.686C545.765 543.827 544.968 543.958 545.001 543.99C545.034 544.023 546.999 544.306 549.379 544.622C551.759 544.938 553.724 545.221 553.746 545.243C553.779 545.264 554.063 547.235 554.39 549.62C554.718 552.005 555.002 553.965 555.023 553.997C555.078 554.052 555.187 553.344 555.766 548.912C556.017 546.963 556.268 545.33 556.312 545.286C556.355 545.232 558.31 544.927 560.668 544.611C563.015 544.295 564.969 544.012 564.991 543.98C565.068 543.903 564.729 543.86 560.449 543.294C558.255 543.011 556.41 542.727 556.344 542.662C556.279 542.597 555.962 540.626 555.646 538.296C555.34 535.955 555.056 534.027 555.034 534.006C555.012 533.984 554.98 534.027 554.947 534.114Z" fill="white" fill-opacity="0.3"/>
<path class='star2' d="M1774.05 82.1144C1774.07 82.2015 1774.33 84.0526 1774.61 86.2304C1774.89 88.4081 1775.17 90.3136 1775.2 90.4661C1775.29 90.7818 1774.94 90.7165 1782.23 91.6856C1783.23 91.8272 1784.03 91.9578 1784 91.9905C1783.97 92.0232 1782 92.3063 1779.62 92.622C1777.24 92.9378 1775.28 93.2209 1775.25 93.2427C1775.22 93.2645 1774.94 95.2353 1774.61 97.6199C1774.28 100.005 1774 101.965 1773.98 101.997C1773.92 102.052 1773.81 101.344 1773.23 96.9122C1772.98 94.9631 1772.73 93.3298 1772.69 93.2862C1772.64 93.2318 1770.69 92.9269 1768.33 92.6111C1765.98 92.2954 1764.03 92.0123 1764.01 91.9796C1763.93 91.9034 1764.27 91.8598 1768.55 91.2936C1770.74 91.0105 1772.59 90.7274 1772.66 90.6621C1772.72 90.5967 1773.04 88.6259 1773.35 86.2957C1773.66 83.9546 1773.94 82.0273 1773.97 82.0055C1773.99 81.9838 1774.02 82.0273 1774.05 82.1144Z" fill="white" fill-opacity="0.3"/>
<path class='star2' d="M318.947 63.1144C318.925 63.2015 318.674 65.0526 318.39 67.2304C318.106 69.4081 317.833 71.3136 317.801 71.4661C317.713 71.7818 318.063 71.7165 310.77 72.6856C309.765 72.8272 308.968 72.9578 309.001 72.9905C309.034 73.0232 310.999 73.3063 313.379 73.622C315.759 73.9378 317.724 74.2209 317.746 74.2427C317.779 74.2645 318.063 76.2353 318.39 78.6199C318.718 81.0046 319.002 82.9645 319.023 82.9972C319.078 83.0516 319.187 82.3439 319.766 77.9122C320.017 75.9631 320.268 74.3298 320.312 74.2862C320.355 74.2318 322.31 73.9269 324.668 73.6111C327.015 73.2954 328.969 73.0123 328.991 72.9796C329.068 72.9034 328.729 72.8598 324.449 72.2936C322.255 72.0105 320.41 71.7274 320.344 71.6621C320.279 71.5967 319.962 69.6259 319.646 67.2957C319.34 64.9546 319.056 63.0273 319.034 63.0055C319.012 62.9838 318.98 63.0273 318.947 63.1144Z" fill="white" fill-opacity="0.3"/>
<path class='star2' d="M777.947 579.114C777.925 579.202 777.674 581.053 777.39 583.23C777.106 585.408 776.833 587.314 776.801 587.466C776.713 587.782 777.063 587.717 769.77 588.686C768.765 588.827 767.968 588.958 768.001 588.99C768.034 589.023 769.999 589.306 772.379 589.622C774.759 589.938 776.724 590.221 776.746 590.243C776.779 590.264 777.063 592.235 777.39 594.62C777.718 597.005 778.002 598.965 778.023 598.997C778.078 599.052 778.187 598.344 778.766 593.912C779.017 591.963 779.268 590.33 779.312 590.286C779.355 590.232 781.31 589.927 783.668 589.611C786.015 589.295 787.969 589.012 787.991 588.98C788.068 588.903 787.729 588.86 783.449 588.294C781.255 588.011 779.41 587.727 779.344 587.662C779.279 587.597 778.962 585.626 778.646 583.296C778.34 580.955 778.056 579.027 778.034 579.006C778.012 578.984 777.98 579.027 777.947 579.114Z" fill="white" fill-opacity="0.3"/>
<path class='star2' d="M1227.95 38.1144C1227.93 38.2015 1227.67 40.0526 1227.39 42.2304C1227.11 44.4081 1226.83 46.3136 1226.8 46.4661C1226.71 46.7818 1227.06 46.7165 1219.77 47.6856C1218.77 47.8272 1217.97 47.9578 1218 47.9905C1218.03 48.0232 1220 48.3063 1222.38 48.622C1224.76 48.9378 1226.72 49.2209 1226.75 49.2427C1226.78 49.2645 1227.06 51.2353 1227.39 53.6199C1227.72 56.0046 1228 57.9645 1228.02 57.9972C1228.08 58.0516 1228.19 57.3439 1228.77 52.9122C1229.02 50.9631 1229.27 49.3298 1229.31 49.2862C1229.36 49.2318 1231.31 48.9269 1233.67 48.6111C1236.02 48.2954 1237.97 48.0123 1237.99 47.9796C1238.07 47.9034 1237.73 47.8598 1233.45 47.2936C1231.26 47.0105 1229.41 46.7274 1229.34 46.6621C1229.28 46.5967 1228.96 44.6259 1228.65 42.2957C1228.34 39.9546 1228.06 38.0273 1228.03 38.0055C1228.01 37.9838 1227.98 38.0273 1227.95 38.1144Z" fill="white" fill-opacity="0.3"/>
<path class='star2' d="M1098.05 144.114C1098.07 144.202 1098.33 146.053 1098.61 148.23C1098.89 150.408 1099.17 152.314 1099.2 152.466C1099.29 152.782 1098.94 152.717 1106.23 153.686C1107.23 153.827 1108.03 153.958 1108 153.99C1107.97 154.023 1106 154.306 1103.62 154.622C1101.24 154.938 1099.28 155.221 1099.25 155.243C1099.22 155.264 1098.94 157.235 1098.61 159.62C1098.28 162.005 1098 163.965 1097.98 163.997C1097.92 164.052 1097.81 163.344 1097.23 158.912C1096.98 156.963 1096.73 155.33 1096.69 155.286C1096.64 155.232 1094.69 154.927 1092.33 154.611C1089.98 154.295 1088.03 154.012 1088.01 153.98C1087.93 153.903 1088.27 153.86 1092.55 153.294C1094.74 153.011 1096.59 152.727 1096.66 152.662C1096.72 152.597 1097.04 150.626 1097.35 148.296C1097.66 145.955 1097.94 144.027 1097.97 144.006C1097.99 143.984 1098.02 144.027 1098.05 144.114Z" fill="white" fill-opacity="0.3"/>
<path class='star2' d="M91.4655 698.074C91.4513 698.131 91.2881 699.334 91.1036 700.75C90.9191 702.165 90.7417 703.404 90.7204 703.503C90.6636 703.708 90.8907 703.666 86.1503 704.296C85.4974 704.388 84.9793 704.473 85.0006 704.494C85.0219 704.515 86.2993 704.699 87.8463 704.904C89.3934 705.11 90.6707 705.294 90.6849 705.308C90.7062 705.322 90.8907 706.603 91.1036 708.153C91.3165 709.703 91.501 710.977 91.5152 710.998C91.5507 711.034 91.6217 710.574 91.9978 707.693C92.161 706.426 92.3242 705.364 92.3526 705.336C92.381 705.301 93.6513 705.102 95.1841 704.897C96.7099 704.692 97.9801 704.508 97.9943 704.487C98.044 704.437 97.824 704.409 95.0422 704.041C93.6158 703.857 92.4165 703.673 92.3739 703.63C92.3313 703.588 92.1255 702.307 91.9197 700.792C91.721 699.271 91.5365 698.018 91.5223 698.004C91.5081 697.989 91.4868 698.018 91.4655 698.074Z" fill="white" fill-opacity="0.3"/>
<path class='star2' d="M257.466 535.074C257.451 535.131 257.288 536.334 257.104 537.75C256.919 539.165 256.742 540.404 256.72 540.503C256.664 540.708 256.891 540.666 252.15 541.296C251.497 541.388 250.979 541.473 251.001 541.494C251.022 541.515 252.299 541.699 253.846 541.904C255.393 542.11 256.671 542.294 256.685 542.308C256.706 542.322 256.891 543.603 257.104 545.153C257.317 546.703 257.501 547.977 257.515 547.998C257.551 548.034 257.622 547.574 257.998 544.693C258.161 543.426 258.324 542.364 258.353 542.336C258.381 542.301 259.651 542.102 261.184 541.897C262.71 541.692 263.98 541.508 263.994 541.487C264.044 541.437 263.824 541.409 261.042 541.041C259.616 540.857 258.416 540.673 258.374 540.63C258.331 540.588 258.126 539.307 257.92 537.792C257.721 536.271 257.537 535.018 257.522 535.004C257.508 534.989 257.487 535.018 257.466 535.074Z" fill="white" fill-opacity="0.3"/>
<path class='star2' d="M329.466 322.074C329.451 322.131 329.288 323.334 329.104 324.75C328.919 326.165 328.742 327.404 328.72 327.503C328.664 327.708 328.891 327.666 324.15 328.296C323.497 328.388 322.979 328.473 323.001 328.494C323.022 328.515 324.299 328.699 325.846 328.904C327.393 329.11 328.671 329.294 328.685 329.308C328.706 329.322 328.891 330.603 329.104 332.153C329.317 333.703 329.501 334.977 329.515 334.998C329.551 335.034 329.622 334.574 329.998 331.693C330.161 330.426 330.324 329.364 330.353 329.336C330.381 329.301 331.651 329.102 333.184 328.897C334.71 328.692 335.98 328.508 335.994 328.487C336.044 328.437 335.824 328.409 333.042 328.041C331.616 327.857 330.416 327.673 330.374 327.63C330.331 327.588 330.126 326.307 329.92 324.792C329.721 323.271 329.537 322.018 329.522 322.004C329.508 321.989 329.487 322.018 329.466 322.074Z" fill="white" fill-opacity="0.3"/>
<path class='star2' d="M1685.53 698.074C1685.55 698.131 1685.71 699.334 1685.9 700.75C1686.08 702.165 1686.26 703.404 1686.28 703.503C1686.34 703.708 1686.11 703.666 1690.85 704.296C1691.5 704.388 1692.02 704.473 1692 704.494C1691.98 704.515 1690.7 704.699 1689.15 704.904C1687.61 705.11 1686.33 705.294 1686.32 705.308C1686.29 705.322 1686.11 706.603 1685.9 708.153C1685.68 709.703 1685.5 710.977 1685.48 710.998C1685.45 711.034 1685.38 710.574 1685 707.693C1684.84 706.426 1684.68 705.364 1684.65 705.336C1684.62 705.301 1683.35 705.102 1681.82 704.897C1680.29 704.692 1679.02 704.508 1679.01 704.487C1678.96 704.437 1679.18 704.409 1681.96 704.041C1683.38 703.857 1684.58 703.673 1684.63 703.63C1684.67 703.588 1684.87 702.307 1685.08 700.792C1685.28 699.271 1685.46 698.018 1685.48 698.004C1685.49 697.989 1685.51 698.018 1685.53 698.074Z" fill="white" fill-opacity="0.3"/>
<path class='star2' d="M1333.47 404.074C1333.45 404.131 1333.29 405.334 1333.1 406.75C1332.92 408.165 1332.74 409.404 1332.72 409.503C1332.66 409.708 1332.89 409.666 1328.15 410.296C1327.5 410.388 1326.98 410.473 1327 410.494C1327.02 410.515 1328.3 410.699 1329.85 410.904C1331.39 411.11 1332.67 411.294 1332.68 411.308C1332.71 411.322 1332.89 412.603 1333.1 414.153C1333.32 415.703 1333.5 416.977 1333.52 416.998C1333.55 417.034 1333.62 416.574 1334 413.693C1334.16 412.426 1334.32 411.364 1334.35 411.336C1334.38 411.301 1335.65 411.102 1337.18 410.897C1338.71 410.692 1339.98 410.508 1339.99 410.487C1340.04 410.437 1339.82 410.409 1337.04 410.041C1335.62 409.857 1334.42 409.673 1334.37 409.63C1334.33 409.588 1334.13 408.307 1333.92 406.792C1333.72 405.271 1333.54 404.018 1333.52 404.004C1333.51 403.989 1333.49 404.018 1333.47 404.074Z" fill="white" fill-opacity="0.3"/>
<path class='star2' d="M1405.47 191.074C1405.45 191.131 1405.29 192.334 1405.1 193.75C1404.92 195.165 1404.74 196.404 1404.72 196.503C1404.66 196.708 1404.89 196.666 1400.15 197.296C1399.5 197.388 1398.98 197.473 1399 197.494C1399.02 197.515 1400.3 197.699 1401.85 197.904C1403.39 198.11 1404.67 198.294 1404.68 198.308C1404.71 198.322 1404.89 199.603 1405.1 201.153C1405.32 202.703 1405.5 203.977 1405.52 203.998C1405.55 204.034 1405.62 203.574 1406 200.693C1406.16 199.426 1406.32 198.364 1406.35 198.336C1406.38 198.301 1407.65 198.102 1409.18 197.897C1410.71 197.692 1411.98 197.508 1411.99 197.487C1412.04 197.437 1411.82 197.409 1409.04 197.041C1407.62 196.857 1406.42 196.673 1406.37 196.63C1406.33 196.588 1406.13 195.307 1405.92 193.792C1405.72 192.271 1405.54 191.018 1405.52 191.004C1405.51 190.989 1405.49 191.018 1405.47 191.074Z" fill="white" fill-opacity="0.3"/>
<path class='star2' d="M231.466 916.074C231.451 916.131 231.288 917.334 231.104 918.75C230.919 920.165 230.742 921.404 230.72 921.503C230.664 921.708 230.891 921.666 226.15 922.296C225.497 922.388 224.979 922.473 225.001 922.494C225.022 922.515 226.299 922.699 227.846 922.904C229.393 923.11 230.671 923.294 230.685 923.308C230.706 923.322 230.891 924.603 231.104 926.153C231.317 927.703 231.501 928.977 231.515 928.998C231.551 929.034 231.622 928.574 231.998 925.693C232.161 924.426 232.324 923.364 232.353 923.336C232.381 923.301 233.651 923.102 235.184 922.897C236.71 922.692 237.98 922.508 237.994 922.487C238.044 922.437 237.824 922.409 235.042 922.041C233.616 921.857 232.416 921.673 232.374 921.63C232.331 921.588 232.126 920.307 231.92 918.792C231.721 917.271 231.537 916.018 231.522 916.004C231.508 915.989 231.487 916.018 231.466 916.074Z" fill="white" fill-opacity="0.3"/>
<path class='star2' d="M987.466 869.074C987.451 869.131 987.288 870.334 987.104 871.75C986.919 873.165 986.742 874.404 986.72 874.503C986.664 874.708 986.891 874.666 982.15 875.296C981.497 875.388 980.979 875.473 981.001 875.494C981.022 875.515 982.299 875.699 983.846 875.904C985.393 876.11 986.671 876.294 986.685 876.308C986.706 876.322 986.891 877.603 987.104 879.153C987.317 880.703 987.501 881.977 987.515 881.998C987.551 882.034 987.622 881.574 987.998 878.693C988.161 877.426 988.324 876.364 988.353 876.336C988.381 876.301 989.651 876.102 991.184 875.897C992.71 875.692 993.98 875.508 993.994 875.487C994.044 875.437 993.824 875.409 991.042 875.041C989.616 874.857 988.416 874.673 988.374 874.63C988.331 874.588 988.126 873.307 987.92 871.792C987.721 870.271 987.537 869.018 987.522 869.004C987.508 868.989 987.487 869.018 987.466 869.074Z" fill="white" fill-opacity="0.3"/>
<path class='star2' d="M935.466 356.074C935.451 356.131 935.288 357.334 935.104 358.75C934.919 360.165 934.742 361.404 934.72 361.503C934.664 361.708 934.891 361.666 930.15 362.296C929.497 362.388 928.979 362.473 929.001 362.494C929.022 362.515 930.299 362.699 931.846 362.904C933.393 363.11 934.671 363.294 934.685 363.308C934.706 363.322 934.891 364.603 935.104 366.153C935.317 367.703 935.501 368.977 935.515 368.998C935.551 369.034 935.622 368.574 935.998 365.693C936.161 364.426 936.324 363.364 936.353 363.336C936.381 363.301 937.651 363.102 939.184 362.897C940.71 362.692 941.98 362.508 941.994 362.487C942.044 362.437 941.824 362.409 939.042 362.041C937.616 361.857 936.416 361.673 936.374 361.63C936.331 361.588 936.126 360.307 935.92 358.792C935.721 357.271 935.537 356.018 935.522 356.004C935.508 355.989 935.487 356.018 935.466 356.074Z" fill="white" fill-opacity="0.3"/>
<path class='star2' d="M798.466 732.074C798.451 732.131 798.288 733.334 798.104 734.75C797.919 736.165 797.742 737.404 797.72 737.503C797.664 737.708 797.891 737.666 793.15 738.296C792.497 738.388 791.979 738.473 792.001 738.494C792.022 738.515 793.299 738.699 794.846 738.904C796.393 739.11 797.671 739.294 797.685 739.308C797.706 739.322 797.891 740.603 798.104 742.153C798.317 743.703 798.501 744.977 798.515 744.998C798.551 745.034 798.622 744.574 798.998 741.693C799.161 740.426 799.324 739.364 799.353 739.336C799.381 739.301 800.651 739.102 802.184 738.897C803.71 738.692 804.98 738.508 804.994 738.487C805.044 738.437 804.824 738.409 802.042 738.041C800.616 737.857 799.416 737.673 799.374 737.63C799.331 737.588 799.126 736.307 798.92 734.792C798.721 733.271 798.537 732.018 798.522 732.004C798.508 731.989 798.487 732.018 798.466 732.074Z" fill="white" fill-opacity="0.3"/>
<path class='star2' d="M456.466 630.074C456.451 630.131 456.288 631.334 456.104 632.75C455.919 634.165 455.742 635.404 455.72 635.503C455.664 635.708 455.891 635.666 451.15 636.296C450.497 636.388 449.979 636.473 450.001 636.494C450.022 636.515 451.299 636.699 452.846 636.904C454.393 637.11 455.671 637.294 455.685 637.308C455.706 637.322 455.891 638.603 456.104 640.153C456.317 641.703 456.501 642.977 456.515 642.998C456.551 643.034 456.622 642.574 456.998 639.693C457.161 638.426 457.324 637.364 457.353 637.336C457.381 637.301 458.651 637.102 460.184 636.897C461.71 636.692 462.98 636.508 462.994 636.487C463.044 636.437 462.824 636.409 460.042 636.041C458.616 635.857 457.416 635.673 457.374 635.63C457.331 635.588 457.126 634.307 456.92 632.792C456.721 631.271 456.537 630.018 456.522 630.004C456.508 629.989 456.487 630.018 456.466 630.074Z" fill="white" fill-opacity="0.3"/>
<path class='star3' d="M976.466 467.074C976.451 467.131 976.288 468.334 976.104 469.75C975.919 471.165 975.742 472.404 975.72 472.503C975.664 472.708 975.891 472.666 971.15 473.296C970.497 473.388 969.979 473.473 970.001 473.494C970.022 473.515 971.299 473.699 972.846 473.904C974.393 474.11 975.671 474.294 975.685 474.308C975.706 474.322 975.891 475.603 976.104 477.153C976.317 478.703 976.501 479.977 976.515 479.998C976.551 480.034 976.622 479.574 976.998 476.693C977.161 475.426 977.324 474.364 977.353 474.336C977.381 474.301 978.651 474.102 980.184 473.897C981.71 473.692 982.98 473.508 982.994 473.487C983.044 473.437 982.824 473.409 980.042 473.041C978.616 472.857 977.416 472.673 977.374 472.63C977.331 472.588 977.126 471.307 976.92 469.792C976.721 468.271 976.537 467.018 976.522 467.004C976.508 466.989 976.487 467.018 976.466 467.074Z" fill="white" fill-opacity="0.3"/>
<path class='star3' d="M839.466 843.074C839.451 843.131 839.288 844.334 839.104 845.75C838.919 847.165 838.742 848.404 838.72 848.503C838.664 848.708 838.891 848.666 834.15 849.296C833.497 849.388 832.979 849.473 833.001 849.494C833.022 849.515 834.299 849.699 835.846 849.904C837.393 850.11 838.671 850.294 838.685 850.308C838.706 850.322 838.891 851.603 839.104 853.153C839.317 854.703 839.501 855.977 839.515 855.998C839.551 856.034 839.622 855.574 839.998 852.693C840.161 851.426 840.324 850.364 840.353 850.336C840.381 850.301 841.651 850.102 843.184 849.897C844.71 849.692 845.98 849.508 845.994 849.487C846.044 849.437 845.824 849.409 843.042 849.041C841.616 848.857 840.416 848.673 840.374 848.63C840.331 848.588 840.126 847.307 839.92 845.792C839.721 844.271 839.537 843.018 839.522 843.004C839.508 842.989 839.487 843.018 839.466 843.074Z" fill="white" fill-opacity="0.3"/>
<path class='star3' d="M899.534 32.0744C899.549 32.131 899.712 33.3342 899.896 34.7497C900.081 36.1653 900.258 37.4039 900.28 37.5029C900.336 37.7082 900.109 37.6657 904.85 38.2956C905.503 38.3877 906.021 38.4726 905.999 38.4938C905.978 38.5151 904.701 38.6991 903.154 38.9043C901.607 39.1096 900.329 39.2936 900.315 39.3077C900.294 39.3219 900.109 40.603 899.896 42.153C899.683 43.703 899.499 44.977 899.485 44.9982C899.449 45.0336 899.378 44.5735 899.002 41.6929C898.839 40.426 898.676 39.3644 898.647 39.3361C898.619 39.3007 897.349 39.1025 895.816 38.8972C894.29 38.692 893.02 38.508 893.006 38.4867C892.956 38.4372 893.176 38.4089 895.958 38.0408C897.384 37.8568 898.584 37.6728 898.626 37.6303C898.669 37.5879 898.874 36.3068 899.08 34.7922C899.279 33.2705 899.463 32.0178 899.478 32.0036C899.492 31.9895 899.513 32.0178 899.534 32.0744Z" fill="white" fill-opacity="0.3"/>
<path class='star3' d="M1048.47 254.074C1048.45 254.131 1048.29 255.334 1048.1 256.75C1047.92 258.165 1047.74 259.404 1047.72 259.503C1047.66 259.708 1047.89 259.666 1043.15 260.296C1042.5 260.388 1041.98 260.473 1042 260.494C1042.02 260.515 1043.3 260.699 1044.85 260.904C1046.39 261.11 1047.67 261.294 1047.68 261.308C1047.71 261.322 1047.89 262.603 1048.1 264.153C1048.32 265.703 1048.5 266.977 1048.52 266.998C1048.55 267.034 1048.62 266.574 1049 263.693C1049.16 262.426 1049.32 261.364 1049.35 261.336C1049.38 261.301 1050.65 261.102 1052.18 260.897C1053.71 260.692 1054.98 260.508 1054.99 260.487C1055.04 260.437 1054.82 260.409 1052.04 260.041C1050.62 259.857 1049.42 259.673 1049.37 259.63C1049.33 259.588 1049.13 258.307 1048.92 256.792C1048.72 255.271 1048.54 254.018 1048.52 254.004C1048.51 253.989 1048.49 254.018 1048.47 254.074Z" fill="white" fill-opacity="0.3"/>
<path class='star3' d="M633.466 1002.07C633.451 1002.13 633.288 1003.33 633.104 1004.75C632.919 1006.17 632.742 1007.4 632.72 1007.5C632.664 1007.71 632.891 1007.67 628.15 1008.3C627.497 1008.39 626.979 1008.47 627.001 1008.49C627.022 1008.52 628.299 1008.7 629.846 1008.9C631.393 1009.11 632.671 1009.29 632.685 1009.31C632.706 1009.32 632.891 1010.6 633.104 1012.15C633.317 1013.7 633.501 1014.98 633.515 1015C633.551 1015.03 633.622 1014.57 633.998 1011.69C634.161 1010.43 634.324 1009.36 634.353 1009.34C634.381 1009.3 635.651 1009.1 637.184 1008.9C638.71 1008.69 639.98 1008.51 639.994 1008.49C640.044 1008.44 639.824 1008.41 637.042 1008.04C635.616 1007.86 634.416 1007.67 634.374 1007.63C634.331 1007.59 634.126 1006.31 633.92 1004.79C633.721 1003.27 633.537 1002.02 633.522 1002C633.508 1001.99 633.487 1002.02 633.466 1002.07Z" fill="white" fill-opacity="0.3"/>
<path class='star3' d="M1839.47 605.074C1839.45 605.131 1839.29 606.334 1839.1 607.75C1838.92 609.165 1838.74 610.404 1838.72 610.503C1838.66 610.708 1838.89 610.666 1834.15 611.296C1833.5 611.388 1832.98 611.473 1833 611.494C1833.02 611.515 1834.3 611.699 1835.85 611.904C1837.39 612.11 1838.67 612.294 1838.68 612.308C1838.71 612.322 1838.89 613.603 1839.1 615.153C1839.32 616.703 1839.5 617.977 1839.52 617.998C1839.55 618.034 1839.62 617.574 1840 614.693C1840.16 613.426 1840.32 612.364 1840.35 612.336C1840.38 612.301 1841.65 612.102 1843.18 611.897C1844.71 611.692 1845.98 611.508 1845.99 611.487C1846.04 611.437 1845.82 611.409 1843.04 611.041C1841.62 610.857 1840.42 610.673 1840.37 610.63C1840.33 610.588 1840.13 609.307 1839.92 607.792C1839.72 606.271 1839.54 605.018 1839.52 605.004C1839.51 604.989 1839.49 605.018 1839.47 605.074Z" fill="white" fill-opacity="0.3"/>
<path class='star3' d="M1278.47 1072.07C1278.45 1072.13 1278.29 1073.33 1278.1 1074.75C1277.92 1076.17 1277.74 1077.4 1277.72 1077.5C1277.66 1077.71 1277.89 1077.67 1273.15 1078.3C1272.5 1078.39 1271.98 1078.47 1272 1078.49C1272.02 1078.52 1273.3 1078.7 1274.85 1078.9C1276.39 1079.11 1277.67 1079.29 1277.68 1079.31C1277.71 1079.32 1277.89 1080.6 1278.1 1082.15C1278.32 1083.7 1278.5 1084.98 1278.52 1085C1278.55 1085.03 1278.62 1084.57 1279 1081.69C1279.16 1080.43 1279.32 1079.36 1279.35 1079.34C1279.38 1079.3 1280.65 1079.1 1282.18 1078.9C1283.71 1078.69 1284.98 1078.51 1284.99 1078.49C1285.04 1078.44 1284.82 1078.41 1282.04 1078.04C1280.62 1077.86 1279.42 1077.67 1279.37 1077.63C1279.33 1077.59 1279.13 1076.31 1278.92 1074.79C1278.72 1073.27 1278.54 1072.02 1278.52 1072C1278.51 1071.99 1278.49 1072.02 1278.47 1072.07Z" fill="white" fill-opacity="0.3"/>
<path class='star3' d="M555.466 890.074C555.451 890.131 555.288 891.334 555.104 892.75C554.919 894.165 554.742 895.404 554.72 895.503C554.664 895.708 554.891 895.666 550.15 896.296C549.497 896.388 548.979 896.473 549.001 896.494C549.022 896.515 550.299 896.699 551.846 896.904C553.393 897.11 554.671 897.294 554.685 897.308C554.706 897.322 554.891 898.603 555.104 900.153C555.317 901.703 555.501 902.977 555.515 902.998C555.551 903.034 555.622 902.574 555.998 899.693C556.161 898.426 556.324 897.364 556.353 897.336C556.381 897.301 557.651 897.102 559.184 896.897C560.71 896.692 561.98 896.508 561.994 896.487C562.044 896.437 561.824 896.409 559.042 896.041C557.616 895.857 556.416 895.673 556.374 895.63C556.331 895.588 556.126 894.307 555.92 892.792C555.721 891.271 555.537 890.018 555.522 890.004C555.508 889.989 555.487 890.018 555.466 890.074Z" fill="white" fill-opacity="0.3"/>
<path class='star3' d="M542.466 346.074C542.451 346.131 542.288 347.334 542.104 348.75C541.919 350.165 541.742 351.404 541.72 351.503C541.664 351.708 541.891 351.666 537.15 352.296C536.497 352.388 535.979 352.473 536.001 352.494C536.022 352.515 537.299 352.699 538.846 352.904C540.393 353.11 541.671 353.294 541.685 353.308C541.706 353.322 541.891 354.603 542.104 356.153C542.317 357.703 542.501 358.977 542.515 358.998C542.551 359.034 542.622 358.574 542.998 355.693C543.161 354.426 543.324 353.364 543.353 353.336C543.381 353.301 544.651 353.102 546.184 352.897C547.71 352.692 548.98 352.508 548.994 352.487C549.044 352.437 548.824 352.409 546.042 352.041C544.616 351.857 543.416 351.673 543.374 351.63C543.331 351.588 543.126 350.307 542.92 348.792C542.721 347.271 542.537 346.018 542.522 346.004C542.508 345.989 542.487 346.018 542.466 346.074Z" fill="white" fill-opacity="0.3"/>
<path class='star3' d="M1800.47 462.074C1800.45 462.131 1800.29 463.334 1800.1 464.75C1799.92 466.165 1799.74 467.404 1799.72 467.503C1799.66 467.708 1799.89 467.666 1795.15 468.296C1794.5 468.388 1793.98 468.473 1794 468.494C1794.02 468.515 1795.3 468.699 1796.85 468.904C1798.39 469.11 1799.67 469.294 1799.68 469.308C1799.71 469.322 1799.89 470.603 1800.1 472.153C1800.32 473.703 1800.5 474.977 1800.52 474.998C1800.55 475.034 1800.62 474.574 1801 471.693C1801.16 470.426 1801.32 469.364 1801.35 469.336C1801.38 469.301 1802.65 469.102 1804.18 468.897C1805.71 468.692 1806.98 468.508 1806.99 468.487C1807.04 468.437 1806.82 468.409 1804.04 468.041C1802.62 467.857 1801.42 467.673 1801.37 467.63C1801.33 467.588 1801.13 466.307 1800.92 464.792C1800.72 463.271 1800.54 462.018 1800.52 462.004C1800.51 461.989 1800.49 462.018 1800.47 462.074Z" fill="white" fill-opacity="0.3"/>
<path class='star3' d="M244.466 203.074C244.451 203.131 244.288 204.334 244.104 205.75C243.919 207.165 243.742 208.404 243.72 208.503C243.664 208.708 243.891 208.666 239.15 209.296C238.497 209.388 237.979 209.473 238.001 209.494C238.022 209.515 239.299 209.699 240.846 209.904C242.393 210.11 243.671 210.294 243.685 210.308C243.706 210.322 243.891 211.603 244.104 213.153C244.317 214.703 244.501 215.977 244.515 215.998C244.551 216.034 244.622 215.574 244.998 212.693C245.161 211.426 245.324 210.364 245.353 210.336C245.381 210.301 246.651 210.102 248.184 209.897C249.71 209.692 250.98 209.508 250.994 209.487C251.044 209.437 250.824 209.409 248.042 209.041C246.616 208.857 245.416 208.673 245.374 208.63C245.331 208.588 245.126 207.307 244.92 205.792C244.721 204.271 244.537 203.018 244.522 203.004C244.508 202.989 244.487 203.018 244.466 203.074Z" fill="white" fill-opacity="0.3"/>
<path class='star3' d="M1114.47 696.074C1114.45 696.131 1114.29 697.334 1114.1 698.75C1113.92 700.165 1113.74 701.404 1113.72 701.503C1113.66 701.708 1113.89 701.666 1109.15 702.296C1108.5 702.388 1107.98 702.473 1108 702.494C1108.02 702.515 1109.3 702.699 1110.85 702.904C1112.39 703.11 1113.67 703.294 1113.68 703.308C1113.71 703.322 1113.89 704.603 1114.1 706.153C1114.32 707.703 1114.5 708.977 1114.52 708.998C1114.55 709.034 1114.62 708.574 1115 705.693C1115.16 704.426 1115.32 703.364 1115.35 703.336C1115.38 703.301 1116.65 703.102 1118.18 702.897C1119.71 702.692 1120.98 702.508 1120.99 702.487C1121.04 702.437 1120.82 702.409 1118.04 702.041C1116.62 701.857 1115.42 701.673 1115.37 701.63C1115.33 701.588 1115.13 700.307 1114.92 698.792C1114.72 697.271 1114.54 696.018 1114.52 696.004C1114.51 695.989 1114.49 696.018 1114.47 696.074Z" fill="white" fill-opacity="0.3"/>
<path class='star3' d="M1564.47 155.074C1564.45 155.131 1564.29 156.334 1564.1 157.75C1563.92 159.165 1563.74 160.404 1563.72 160.503C1563.66 160.708 1563.89 160.666 1559.15 161.296C1558.5 161.388 1557.98 161.473 1558 161.494C1558.02 161.515 1559.3 161.699 1560.85 161.904C1562.39 162.11 1563.67 162.294 1563.68 162.308C1563.71 162.322 1563.89 163.603 1564.1 165.153C1564.32 166.703 1564.5 167.977 1564.52 167.998C1564.55 168.034 1564.62 167.574 1565 164.693C1565.16 163.426 1565.32 162.364 1565.35 162.336C1565.38 162.301 1566.65 162.102 1568.18 161.897C1569.71 161.692 1570.98 161.508 1570.99 161.487C1571.04 161.437 1570.82 161.409 1568.04 161.041C1566.62 160.857 1565.42 160.673 1565.37 160.63C1565.33 160.588 1565.13 159.307 1564.92 157.792C1564.72 156.271 1564.54 155.018 1564.52 155.004C1564.51 154.989 1564.49 155.018 1564.47 155.074Z" fill="white" fill-opacity="0.3"/>
<path class='star3' d="M761.534 261.074C761.549 261.131 761.712 262.334 761.896 263.75C762.081 265.165 762.258 266.404 762.28 266.503C762.336 266.708 762.109 266.666 766.85 267.296C767.503 267.388 768.021 267.473 767.999 267.494C767.978 267.515 766.701 267.699 765.154 267.904C763.607 268.11 762.329 268.294 762.315 268.308C762.294 268.322 762.109 269.603 761.896 271.153C761.683 272.703 761.499 273.977 761.485 273.998C761.449 274.034 761.378 273.574 761.002 270.693C760.839 269.426 760.676 268.364 760.647 268.336C760.619 268.301 759.349 268.102 757.816 267.897C756.29 267.692 755.02 267.508 755.006 267.487C754.956 267.437 755.176 267.409 757.958 267.041C759.384 266.857 760.584 266.673 760.626 266.63C760.669 266.588 760.874 265.307 761.08 263.792C761.279 262.271 761.463 261.018 761.478 261.004C761.492 260.989 761.513 261.018 761.534 261.074Z" fill="white" fill-opacity="0.3"/>
<path class='star3' d="M1638.47 918.074C1638.45 918.131 1638.29 919.334 1638.1 920.75C1637.92 922.165 1637.74 923.404 1637.72 923.503C1637.66 923.708 1637.89 923.666 1633.15 924.296C1632.5 924.388 1631.98 924.473 1632 924.494C1632.02 924.515 1633.3 924.699 1634.85 924.904C1636.39 925.11 1637.67 925.294 1637.68 925.308C1637.71 925.322 1637.89 926.603 1638.1 928.153C1638.32 929.703 1638.5 930.977 1638.52 930.998C1638.55 931.034 1638.62 930.574 1639 927.693C1639.16 926.426 1639.32 925.364 1639.35 925.336C1639.38 925.301 1640.65 925.102 1642.18 924.897C1643.71 924.692 1644.98 924.508 1644.99 924.487C1645.04 924.437 1644.82 924.409 1642.04 924.041C1640.62 923.857 1639.42 923.673 1639.37 923.63C1639.33 923.588 1639.13 922.307 1638.92 920.792C1638.72 919.271 1638.54 918.018 1638.52 918.004C1638.51 917.989 1638.49 918.018 1638.47 918.074Z" fill="white" fill-opacity="0.3"/>
<path class='star3' d="M1380.53 624.074C1380.55 624.131 1380.71 625.334 1380.9 626.75C1381.08 628.165 1381.26 629.404 1381.28 629.503C1381.34 629.708 1381.11 629.666 1385.85 630.296C1386.5 630.388 1387.02 630.473 1387 630.494C1386.98 630.515 1385.7 630.699 1384.15 630.904C1382.61 631.11 1381.33 631.294 1381.32 631.308C1381.29 631.322 1381.11 632.603 1380.9 634.153C1380.68 635.703 1380.5 636.977 1380.48 636.998C1380.45 637.034 1380.38 636.574 1380 633.693C1379.84 632.426 1379.68 631.364 1379.65 631.336C1379.62 631.301 1378.35 631.102 1376.82 630.897C1375.29 630.692 1374.02 630.508 1374.01 630.487C1373.96 630.437 1374.18 630.409 1376.96 630.041C1378.38 629.857 1379.58 629.673 1379.63 629.63C1379.67 629.588 1379.87 628.307 1380.08 626.792C1380.28 625.271 1380.46 624.018 1380.48 624.004C1380.49 623.989 1380.51 624.018 1380.53 624.074Z" fill="white" fill-opacity="0.3"/>
<path class='star3' d="M495.466 189.074C495.451 189.131 495.288 190.334 495.104 191.75C494.919 193.165 494.742 194.404 494.72 194.503C494.664 194.708 494.891 194.666 490.15 195.296C489.497 195.388 488.979 195.473 489.001 195.494C489.022 195.515 490.299 195.699 491.846 195.904C493.393 196.11 494.671 196.294 494.685 196.308C494.706 196.322 494.891 197.603 495.104 199.153C495.317 200.703 495.501 201.977 495.515 201.998C495.551 202.034 495.622 201.574 495.998 198.693C496.161 197.426 496.324 196.364 496.353 196.336C496.381 196.301 497.651 196.102 499.184 195.897C500.71 195.692 501.98 195.508 501.994 195.487C502.044 195.437 501.824 195.409 499.042 195.041C497.616 194.857 496.416 194.673 496.374 194.63C496.331 194.588 496.126 193.307 495.92 191.792C495.721 190.271 495.537 189.018 495.522 189.004C495.508 188.989 495.487 189.018 495.466 189.074Z" fill="white" fill-opacity="0.3"/>
<path class='star3' d="M186.471 729.063C186.459 729.111 186.321 730.129 186.165 731.327C186.008 732.524 185.858 733.572 185.84 733.656C185.792 733.83 185.984 733.794 181.973 734.327C181.421 734.405 180.983 734.477 181.001 734.495C181.019 734.513 182.099 734.668 183.408 734.842C184.717 735.016 185.798 735.172 185.81 735.183C185.828 735.195 185.984 736.279 186.165 737.591C186.345 738.903 186.501 739.98 186.513 739.998C186.543 740.028 186.603 739.639 186.921 737.202C187.059 736.13 187.197 735.231 187.221 735.207C187.245 735.177 188.32 735.01 189.617 734.836C190.908 734.662 191.983 734.507 191.995 734.489C192.037 734.447 191.851 734.423 189.497 734.111C188.29 733.956 187.275 733.8 187.239 733.764C187.203 733.728 187.029 732.644 186.855 731.363C186.687 730.075 186.531 729.015 186.519 729.003C186.507 728.991 186.489 729.015 186.471 729.063Z" fill="white" fill-opacity="0.3"/>
<path class='star3' d="M411.471 443.063C411.459 443.111 411.321 444.129 411.165 445.327C411.008 446.524 410.858 447.572 410.84 447.656C410.792 447.83 410.984 447.794 406.973 448.327C406.421 448.405 405.983 448.477 406.001 448.495C406.019 448.513 407.099 448.668 408.408 448.842C409.717 449.016 410.798 449.172 410.81 449.183C410.828 449.195 410.984 450.279 411.165 451.591C411.345 452.903 411.501 453.98 411.513 453.998C411.543 454.028 411.603 453.639 411.921 451.202C412.059 450.13 412.197 449.231 412.221 449.207C412.245 449.177 413.32 449.01 414.617 448.836C415.908 448.662 416.983 448.507 416.995 448.489C417.037 448.447 416.851 448.423 414.497 448.111C413.29 447.956 412.275 447.8 412.239 447.764C412.203 447.728 412.029 446.644 411.855 445.363C411.687 444.075 411.531 443.015 411.519 443.003C411.507 442.991 411.489 443.015 411.471 443.063Z" fill="white" fill-opacity="0.3"/>
<path class='star3' d="M483.471 230.063C483.459 230.111 483.321 231.129 483.165 232.327C483.008 233.524 482.858 234.572 482.84 234.656C482.792 234.83 482.984 234.794 478.973 235.327C478.421 235.405 477.983 235.477 478.001 235.495C478.019 235.513 479.099 235.668 480.408 235.842C481.717 236.016 482.798 236.172 482.81 236.183C482.828 236.195 482.984 237.279 483.165 238.591C483.345 239.903 483.501 240.98 483.513 240.998C483.543 241.028 483.603 240.639 483.921 238.202C484.059 237.13 484.197 236.231 484.221 236.207C484.245 236.177 485.32 236.01 486.617 235.836C487.908 235.662 488.983 235.507 488.995 235.489C489.037 235.447 488.851 235.423 486.497 235.111C485.29 234.956 484.275 234.8 484.239 234.764C484.203 234.728 484.029 233.644 483.855 232.363C483.687 231.075 483.531 230.015 483.519 230.003C483.507 229.991 483.489 230.015 483.471 230.063Z" fill="white" fill-opacity="0.3"/>
<path class='star3' d="M1590.53 729.063C1590.54 729.111 1590.68 730.129 1590.84 731.327C1590.99 732.524 1591.14 733.572 1591.16 733.656C1591.21 733.83 1591.02 733.794 1595.03 734.327C1595.58 734.405 1596.02 734.477 1596 734.495C1595.98 734.513 1594.9 734.668 1593.59 734.842C1592.28 735.016 1591.2 735.172 1591.19 735.183C1591.17 735.195 1591.02 736.279 1590.84 737.591C1590.66 738.903 1590.5 739.98 1590.49 739.998C1590.46 740.028 1590.4 739.639 1590.08 737.202C1589.94 736.13 1589.8 735.231 1589.78 735.207C1589.75 735.177 1588.68 735.01 1587.38 734.836C1586.09 734.662 1585.02 734.507 1585 734.489C1584.96 734.447 1585.15 734.423 1587.5 734.111C1588.71 733.956 1589.72 733.8 1589.76 733.764C1589.8 733.728 1589.97 732.644 1590.14 731.363C1590.31 730.075 1590.47 729.015 1590.48 729.003C1590.49 728.991 1590.51 729.015 1590.53 729.063Z" fill="white" fill-opacity="0.3"/>
<path class='star3' d="M285.471 294.063C285.459 294.111 285.321 295.129 285.165 296.327C285.008 297.524 284.858 298.572 284.84 298.656C284.792 298.83 284.984 298.794 280.973 299.327C280.421 299.405 279.983 299.477 280.001 299.495C280.019 299.513 281.099 299.668 282.408 299.842C283.717 300.016 284.798 300.172 284.81 300.183C284.828 300.195 284.984 301.279 285.165 302.591C285.345 303.903 285.501 304.98 285.513 304.998C285.543 305.028 285.603 304.639 285.921 302.202C286.059 301.13 286.197 300.231 286.221 300.207C286.245 300.177 287.32 300.01 288.617 299.836C289.908 299.662 290.983 299.507 290.995 299.489C291.037 299.447 290.851 299.423 288.497 299.111C287.29 298.956 286.275 298.8 286.239 298.764C286.203 298.728 286.029 297.644 285.855 296.363C285.687 295.075 285.531 294.015 285.519 294.003C285.507 293.991 285.489 294.015 285.471 294.063Z" fill="white" fill-opacity="0.3"/>
<path class='star3' d="M1428.47 435.063C1428.46 435.111 1428.32 436.129 1428.16 437.327C1428.01 438.524 1427.86 439.572 1427.84 439.656C1427.79 439.83 1427.98 439.794 1423.97 440.327C1423.42 440.405 1422.98 440.477 1423 440.495C1423.02 440.513 1424.1 440.668 1425.41 440.842C1426.72 441.016 1427.8 441.172 1427.81 441.183C1427.83 441.195 1427.98 442.279 1428.16 443.591C1428.34 444.903 1428.5 445.98 1428.51 445.998C1428.54 446.028 1428.6 445.639 1428.92 443.202C1429.06 442.13 1429.2 441.231 1429.22 441.207C1429.25 441.177 1430.32 441.01 1431.62 440.836C1432.91 440.662 1433.98 440.507 1434 440.489C1434.04 440.447 1433.85 440.423 1431.5 440.111C1430.29 439.956 1429.28 439.8 1429.24 439.764C1429.2 439.728 1429.03 438.644 1428.86 437.363C1428.69 436.075 1428.53 435.015 1428.52 435.003C1428.51 434.991 1428.49 435.015 1428.47 435.063Z" fill="white" fill-opacity="0.3"/>
<path class='star3' d="M683.529 471.063C683.541 471.111 683.679 472.129 683.835 473.327C683.992 474.524 684.142 475.572 684.16 475.656C684.208 475.83 684.016 475.794 688.027 476.327C688.579 476.405 689.017 476.477 688.999 476.495C688.981 476.513 687.901 476.668 686.592 476.842C685.283 477.016 684.202 477.172 684.19 477.183C684.172 477.195 684.016 478.279 683.835 479.591C683.655 480.903 683.499 481.98 683.487 481.998C683.457 482.028 683.397 481.639 683.079 479.202C682.941 478.13 682.803 477.231 682.779 477.207C682.755 477.177 681.68 477.01 680.383 476.836C679.092 476.662 678.017 476.507 678.005 476.489C677.963 476.447 678.149 476.423 680.503 476.111C681.71 475.956 682.725 475.8 682.761 475.764C682.797 475.728 682.971 474.644 683.145 473.363C683.313 472.075 683.469 471.015 683.481 471.003C683.493 470.991 683.511 471.015 683.529 471.063Z" fill="white" fill-opacity="0.3"/>
<path class='star3' d="M1645.47 19.0629C1645.46 19.1109 1645.32 20.1289 1645.16 21.3267C1645.01 22.5245 1644.86 23.5725 1644.84 23.6563C1644.79 23.83 1644.98 23.7941 1640.97 24.3271C1640.42 24.4049 1639.98 24.4768 1640 24.4948C1640.02 24.5127 1641.1 24.6684 1642.41 24.8421C1643.72 25.0158 1644.8 25.1715 1644.81 25.1835C1644.83 25.1955 1644.98 26.2794 1645.16 27.591C1645.34 28.9025 1645.5 29.9805 1645.51 29.9985C1645.54 30.0284 1645.6 29.6391 1645.92 27.2017C1646.06 26.1297 1646.2 25.2314 1646.22 25.2074C1646.25 25.1775 1647.32 25.0098 1648.62 24.8361C1649.91 24.6625 1650.98 24.5067 1651 24.4888C1651.04 24.4469 1650.85 24.4229 1648.5 24.1115C1647.29 23.9558 1646.28 23.8001 1646.24 23.7641C1646.2 23.7282 1646.03 22.6442 1645.86 21.3626C1645.69 20.075 1645.53 19.015 1645.52 19.0031C1645.51 18.9911 1645.49 19.015 1645.47 19.0629Z" fill="white" fill-opacity="0.3"/>
<path class='star3' d="M447.529 0.0629401C447.541 0.11085 447.679 1.12894 447.835 2.3267C447.992 3.52446 448.142 4.5725 448.16 4.65634C448.208 4.83001 448.016 4.79408 452.027 5.32708C452.579 5.40494 453.017 5.4768 452.999 5.49477C452.981 5.51274 451.901 5.66844 450.592 5.84212C449.283 6.01579 448.202 6.1715 448.19 6.18348C448.172 6.19546 448.016 7.27943 447.835 8.59097C447.655 9.90252 447.499 10.9805 447.487 10.9985C447.457 11.0284 447.397 10.6391 447.079 8.2017C446.941 7.12971 446.803 6.23139 446.779 6.20743C446.755 6.17749 445.68 6.0098 444.383 5.83613C443.092 5.66246 442.017 5.50675 442.005 5.48878C441.963 5.44686 442.149 5.4229 444.503 5.11149C445.71 4.95578 446.725 4.80007 446.761 4.76414C446.797 4.7282 446.971 3.64423 447.145 2.36263C447.313 1.07504 447.469 0.0150298 447.481 0.00305224C447.493 -0.00892534 447.511 0.0150298 447.529 0.0629401Z" fill="white" fill-opacity="0.3"/>
<path class='star3' d="M1500.47 222.063C1500.46 222.111 1500.32 223.129 1500.16 224.327C1500.01 225.524 1499.86 226.572 1499.84 226.656C1499.79 226.83 1499.98 226.794 1495.97 227.327C1495.42 227.405 1494.98 227.477 1495 227.495C1495.02 227.513 1496.1 227.668 1497.41 227.842C1498.72 228.016 1499.8 228.172 1499.81 228.183C1499.83 228.195 1499.98 229.279 1500.16 230.591C1500.34 231.903 1500.5 232.98 1500.51 232.998C1500.54 233.028 1500.6 232.639 1500.92 230.202C1501.06 229.13 1501.2 228.231 1501.22 228.207C1501.25 228.177 1502.32 228.01 1503.62 227.836C1504.91 227.662 1505.98 227.507 1506 227.489C1506.04 227.447 1505.85 227.423 1503.5 227.111C1502.29 226.956 1501.28 226.8 1501.24 226.764C1501.2 226.728 1501.03 225.644 1500.86 224.363C1500.69 223.075 1500.53 222.015 1500.52 222.003C1500.51 221.991 1500.49 222.015 1500.47 222.063Z" fill="white" fill-opacity="0.3"/>
<path class='star3' d="M362.471 1012.06C362.459 1012.11 362.321 1013.13 362.165 1014.33C362.008 1015.52 361.858 1016.57 361.84 1016.66C361.792 1016.83 361.984 1016.79 357.973 1017.33C357.421 1017.4 356.983 1017.48 357.001 1017.49C357.019 1017.51 358.099 1017.67 359.408 1017.84C360.717 1018.02 361.798 1018.17 361.81 1018.18C361.828 1018.2 361.984 1019.28 362.165 1020.59C362.345 1021.9 362.501 1022.98 362.513 1023C362.543 1023.03 362.603 1022.64 362.921 1020.2C363.059 1019.13 363.197 1018.23 363.221 1018.21C363.245 1018.18 364.32 1018.01 365.617 1017.84C366.908 1017.66 367.983 1017.51 367.995 1017.49C368.037 1017.45 367.851 1017.42 365.497 1017.11C364.29 1016.96 363.275 1016.8 363.239 1016.76C363.203 1016.73 363.029 1015.64 362.855 1014.36C362.687 1013.08 362.531 1012.02 362.519 1012C362.507 1011.99 362.489 1012.02 362.471 1012.06Z" fill="white" fill-opacity="0.3"/>
<path class='star3' d="M1562.47 594.063C1562.46 594.111 1562.32 595.129 1562.16 596.327C1562.01 597.524 1561.86 598.572 1561.84 598.656C1561.79 598.83 1561.98 598.794 1557.97 599.327C1557.42 599.405 1556.98 599.477 1557 599.495C1557.02 599.513 1558.1 599.668 1559.41 599.842C1560.72 600.016 1561.8 600.172 1561.81 600.183C1561.83 600.195 1561.98 601.279 1562.16 602.591C1562.34 603.903 1562.5 604.98 1562.51 604.998C1562.54 605.028 1562.6 604.639 1562.92 602.202C1563.06 601.13 1563.2 600.231 1563.22 600.207C1563.25 600.177 1564.32 600.01 1565.62 599.836C1566.91 599.662 1567.98 599.507 1568 599.489C1568.04 599.447 1567.85 599.423 1565.5 599.111C1564.29 598.956 1563.28 598.8 1563.24 598.764C1563.2 598.728 1563.03 597.644 1562.86 596.363C1562.69 595.075 1562.53 594.015 1562.52 594.003C1562.51 593.991 1562.49 594.015 1562.47 594.063Z" fill="white" fill-opacity="0.3"/>
<path class='star3' d="M1779.47 178.063C1779.46 178.111 1779.32 179.129 1779.16 180.327C1779.01 181.524 1778.86 182.572 1778.84 182.656C1778.79 182.83 1778.98 182.794 1774.97 183.327C1774.42 183.405 1773.98 183.477 1774 183.495C1774.02 183.513 1775.1 183.668 1776.41 183.842C1777.72 184.016 1778.8 184.172 1778.81 184.183C1778.83 184.195 1778.98 185.279 1779.16 186.591C1779.34 187.903 1779.5 188.98 1779.51 188.998C1779.54 189.028 1779.6 188.639 1779.92 186.202C1780.06 185.13 1780.2 184.231 1780.22 184.207C1780.25 184.177 1781.32 184.01 1782.62 183.836C1783.91 183.662 1784.98 183.507 1785 183.489C1785.04 183.447 1784.85 183.423 1782.5 183.111C1781.29 182.956 1780.28 182.8 1780.24 182.764C1780.2 182.728 1780.03 181.644 1779.86 180.363C1779.69 179.075 1779.53 178.015 1779.52 178.003C1779.51 177.991 1779.49 178.015 1779.47 178.063Z" fill="white" fill-opacity="0.3"/>
<path class='star3' d="M6.47084 335.063C6.45883 335.111 6.32072 336.129 6.1646 337.327C6.00848 338.524 5.85836 339.572 5.84035 339.656C5.79231 339.83 5.98446 339.794 1.9733 340.327C1.42087 340.405 0.982522 340.477 1.00054 340.495C1.01855 340.513 2.0994 340.668 3.40843 340.842C4.71746 341.016 5.79831 341.172 5.81032 341.183C5.82834 341.195 5.98446 342.279 6.1646 343.591C6.34474 344.903 6.50087 345.98 6.51288 345.998C6.5429 346.028 6.60295 345.639 6.9212 343.202C7.05931 342.13 7.19741 341.231 7.22143 341.207C7.24545 341.177 8.3203 341.01 9.61732 340.836C10.9083 340.662 11.9832 340.507 11.9952 340.489C12.0372 340.447 11.8511 340.423 9.49723 340.111C8.29027 339.956 7.27548 339.8 7.23945 339.764C7.20342 339.728 7.02928 338.644 6.85515 337.363C6.68701 336.075 6.53089 335.015 6.51888 335.003C6.50687 334.991 6.48886 335.015 6.47084 335.063Z" fill="white" fill-opacity="0.3"/>
<path class='star3' d="M1112.47 944.063C1112.46 944.111 1112.32 945.129 1112.16 946.327C1112.01 947.524 1111.86 948.572 1111.84 948.656C1111.79 948.83 1111.98 948.794 1107.97 949.327C1107.42 949.405 1106.98 949.477 1107 949.495C1107.02 949.513 1108.1 949.668 1109.41 949.842C1110.72 950.016 1111.8 950.172 1111.81 950.183C1111.83 950.195 1111.98 951.279 1112.16 952.591C1112.34 953.903 1112.5 954.98 1112.51 954.998C1112.54 955.028 1112.6 954.639 1112.92 952.202C1113.06 951.13 1113.2 950.231 1113.22 950.207C1113.25 950.177 1114.32 950.01 1115.62 949.836C1116.91 949.662 1117.98 949.507 1118 949.489C1118.04 949.447 1117.85 949.423 1115.5 949.111C1114.29 948.956 1113.28 948.8 1113.24 948.764C1113.2 948.728 1113.03 947.644 1112.86 946.363C1112.69 945.075 1112.53 944.015 1112.52 944.003C1112.51 943.991 1112.49 944.015 1112.47 944.063Z" fill="white" fill-opacity="0.3"/>
</g>
<defs>
<clipPath id="clip0_2296_1594">
<rect width="1846" height="1085" fill="white"/>
</clipPath>
</defs>
</svg>
