<svg width="553" height="501" viewBox="0 0 553 501" fill="none" xmlns="http://www.w3.org/2000/svg">
<mask id="path-1-outside-1_184_3072" maskUnits="userSpaceOnUse" x="17" y="100" width="510" height="290" fill="black">
<rect fill="white" x="17" y="100" width="510" height="290"/>
<path d="M143.701 385.071C65.1338 385.071 21.1685 329.707 21.1685 244.626C21.1685 159.952 65.1338 104.181 143.701 104.181C221.862 104.181 265.827 159.952 265.827 244.626C265.827 329.707 221.862 385.071 143.701 385.071ZM143.701 326.043C185.224 326.043 200.694 309.353 200.694 244.626C200.694 179.899 185.224 163.209 143.701 163.209C101.772 163.209 86.3023 179.899 86.3023 244.626C86.3023 309.353 101.772 326.043 143.701 326.043ZM521.528 381H308.215V344.362C308.215 291.441 344.039 269.458 381.898 251.139L429.12 228.75C453.138 217.351 461.687 208.395 461.687 190.484C461.687 170.944 452.731 159.952 416.5 159.952C377.013 159.952 368.871 170.944 368.871 200.254V207.174H307.808V200.661C307.808 147.74 340.375 104.181 421.385 104.181C493.439 104.181 522.343 140.819 522.343 190.077C522.343 237.299 488.961 261.317 453.545 277.193L412.429 295.105C390.039 305.282 373.349 313.831 373.349 326.858L417.314 326.043H521.528V381Z"/>
</mask>
<path d="M143.701 381.071C105.427 381.071 75.9714 367.627 56.0194 344.163C35.9938 320.612 25.1685 286.521 25.1685 244.626H17.1685C17.1685 287.812 28.3258 323.944 49.9248 349.345C71.5974 374.833 103.409 389.071 143.701 389.071V381.071ZM25.1685 244.626C25.1685 202.939 35.9919 168.844 56.022 145.239C75.9786 121.721 105.436 108.181 143.701 108.181V100.181C103.399 100.181 71.5902 114.528 49.9222 140.063C28.3277 165.512 17.1685 201.64 17.1685 244.626H25.1685ZM143.701 108.181C181.757 108.181 211.113 121.716 231.022 145.235C251.004 168.842 261.827 202.939 261.827 244.626H269.827C269.827 201.639 258.668 165.514 237.128 140.067C215.513 114.532 183.806 100.181 143.701 100.181V108.181ZM261.827 244.626C261.827 286.521 251.002 320.614 231.024 344.166C211.12 367.632 181.766 381.071 143.701 381.071V389.071C183.797 389.071 215.506 374.828 237.125 349.341C258.67 323.941 269.827 287.812 269.827 244.626H261.827ZM143.701 330.043C164.876 330.043 180.78 325.802 190.986 311.984C200.886 298.579 204.694 277.021 204.694 244.626H196.694C196.694 276.958 192.766 296.108 184.551 307.231C176.642 317.939 164.05 322.043 143.701 322.043V330.043ZM204.694 244.626C204.694 212.231 200.886 190.673 190.986 177.269C180.78 163.45 164.876 159.209 143.701 159.209V167.209C164.05 167.209 176.642 171.313 184.551 182.021C192.766 193.144 196.694 212.294 196.694 244.626H204.694ZM143.701 159.209C122.335 159.209 106.329 163.444 96.067 177.26C86.1085 190.668 82.3023 212.233 82.3023 244.626H90.3023C90.3023 212.292 94.2307 193.149 102.489 182.03C110.445 171.319 123.138 167.209 143.701 167.209V159.209ZM82.3023 244.626C82.3023 277.019 86.1085 298.585 96.067 311.992C106.329 325.808 122.335 330.043 143.701 330.043V322.043C123.138 322.043 110.445 317.933 102.489 307.222C94.2307 296.103 90.3023 276.96 90.3023 244.626H82.3023ZM521.528 381V385H525.528V381H521.528ZM308.215 381H304.215V385H308.215V381ZM381.898 251.139L380.184 247.525L380.17 247.532L380.156 247.539L381.898 251.139ZM429.12 228.75L430.833 232.364L430.835 232.363L429.12 228.75ZM368.871 207.174V211.174H372.871V207.174H368.871ZM307.808 207.174H303.808V211.174H307.808V207.174ZM453.545 277.193L455.142 280.86L455.162 280.852L455.181 280.843L453.545 277.193ZM412.429 295.105L410.832 291.438L410.803 291.45L410.774 291.463L412.429 295.105ZM373.349 326.858H369.349V330.932L373.423 330.857L373.349 326.858ZM417.314 326.043V322.043H417.277L417.24 322.044L417.314 326.043ZM521.528 326.043H525.528V322.043H521.528V326.043ZM521.528 377H308.215V385H521.528V377ZM312.215 381V344.362H304.215V381H312.215ZM312.215 344.362C312.215 318.947 320.763 301.203 333.759 287.531C346.906 273.699 364.743 263.884 383.64 254.74L380.156 247.539C361.193 256.714 342.189 267.05 327.96 282.019C313.579 297.149 304.215 316.856 304.215 344.362H312.215ZM383.611 254.754L430.833 232.364L427.406 225.135L380.184 247.525L383.611 254.754ZM430.835 232.363C442.93 226.623 451.714 221.247 457.427 214.686C463.332 207.904 465.687 200.184 465.687 190.484H457.687C457.687 198.695 455.767 204.409 451.393 209.433C446.827 214.677 439.328 219.478 427.405 225.136L430.835 232.363ZM465.687 190.484C465.687 180.139 463.3 170.994 455.114 164.716C447.25 158.685 434.809 155.952 416.5 155.952V163.952C434.422 163.952 444.574 166.715 450.246 171.064C455.595 175.167 457.687 181.289 457.687 190.484H465.687ZM416.5 155.952C396.699 155.952 383.363 158.632 375.17 166.167C366.839 173.83 364.871 185.513 364.871 200.254H372.871C372.871 185.684 374.974 177.217 380.586 172.056C386.335 166.768 396.814 163.952 416.5 163.952V155.952ZM364.871 200.254V207.174H372.871V200.254H364.871ZM368.871 203.174H307.808V211.174H368.871V203.174ZM311.808 207.174V200.661H303.808V207.174H311.808ZM311.808 200.661C311.808 175.017 319.682 152.044 336.985 135.464C354.298 118.874 381.578 108.181 421.385 108.181V100.181C380.182 100.181 350.673 111.268 331.45 129.688C312.217 148.117 303.808 173.383 303.808 200.661H311.808ZM421.385 108.181C456.774 108.181 480.887 117.175 496.139 131.567C511.362 145.931 518.343 166.224 518.343 190.077H526.343C526.343 164.671 518.872 142.018 501.629 125.748C484.417 109.507 458.051 100.181 421.385 100.181V108.181ZM518.343 190.077C518.343 234.795 486.988 257.818 451.909 273.543L455.181 280.843C490.935 264.816 526.343 239.802 526.343 190.077H518.343ZM451.947 273.526L410.832 291.438L414.027 298.772L455.142 280.86L451.947 273.526ZM410.774 291.463C399.636 296.526 389.498 301.361 382.15 306.67C374.838 311.954 369.349 318.389 369.349 326.858H377.349C377.349 322.299 380.205 317.946 386.836 313.155C393.431 308.389 402.833 303.861 414.084 298.746L410.774 291.463ZM373.423 330.857L417.388 330.043L417.24 322.044L373.275 322.858L373.423 330.857ZM417.314 330.043H521.528V322.043H417.314V330.043ZM517.528 326.043V381H525.528V326.043H517.528Z" fill="url(#paint0_linear_184_3072)" mask="url(#path-1-outside-1_184_3072)"/>
<path d="M534.752 310.761C534.698 309.77 534.411 308.805 533.915 307.946C533.42 307.086 532.729 306.355 531.899 305.812C531.638 305.635 531.341 305.518 531.03 305.47C530.718 305.421 530.4 305.442 530.098 305.531L517.737 310.343L523.787 320.734L534.104 312.456C534.33 312.239 534.505 311.974 534.617 311.681C534.729 311.388 534.775 311.074 534.752 310.761Z" fill="#F5F5F5"/>
<path d="M527.904 306.341C528.223 306.269 528.553 306.262 528.874 306.321C529.195 306.38 529.501 306.503 529.773 306.684C530.691 307.284 531.454 308.092 532.002 309.041C532.549 309.991 532.866 311.056 532.926 312.151C532.943 312.47 532.896 312.79 532.79 313.092C532.683 313.393 532.517 313.671 532.303 313.908L533.306 313.098L534.11 312.431C534.331 312.216 534.503 311.955 534.614 311.667C534.725 311.378 534.772 311.069 534.751 310.761C534.697 309.77 534.41 308.805 533.915 307.946C533.419 307.086 532.728 306.355 531.898 305.812C531.637 305.635 531.34 305.518 531.029 305.47C530.718 305.421 530.4 305.442 530.097 305.531L529.051 305.924L527.904 306.341Z" fill="#8B81F7"/>
<path opacity="0.1" d="M534.497 309.233L521.476 316.75L523.787 320.733L534.104 312.456C534.33 312.238 534.506 311.974 534.618 311.681C534.73 311.388 534.775 311.073 534.752 310.761C534.747 310.241 534.661 309.726 534.497 309.233Z" fill="#455A64"/>
<path d="M520.484 310.76C521.73 311.574 522.766 312.669 523.51 313.958C524.253 315.246 524.683 316.692 524.764 318.178C524.764 320.908 522.845 322.011 520.484 320.671C519.239 319.858 518.202 318.762 517.459 317.474C516.715 316.185 516.285 314.739 516.204 313.254C516.204 310.474 518.123 309.37 520.484 310.76Z" fill="#E0E0E0"/>
<path d="M530.889 299.079C530.834 298.089 530.547 297.126 530.051 296.267C529.556 295.409 528.865 294.679 528.035 294.137C527.775 293.959 527.478 293.841 527.167 293.793C526.855 293.744 526.537 293.766 526.235 293.856L513.874 298.668L519.936 309.096L530.241 300.787C530.468 300.568 530.644 300.301 530.756 300.006C530.868 299.711 530.913 299.394 530.889 299.079Z" fill="#F5F5F5"/>
<path d="M524.042 294.691C524.356 294.621 524.68 294.615 524.996 294.674C525.312 294.733 525.613 294.855 525.88 295.034C526.799 295.632 527.563 296.437 528.112 297.386C528.661 298.335 528.978 299.4 529.039 300.494C529.056 300.814 529.01 301.134 528.903 301.436C528.796 301.737 528.631 302.015 528.416 302.252L529.419 301.448L530.222 300.781C530.444 300.56 530.615 300.293 530.722 299.999C530.83 299.705 530.872 299.391 530.845 299.079C530.791 298.089 530.504 297.126 530.008 296.267C529.512 295.409 528.822 294.679 527.992 294.137C527.732 293.959 527.435 293.841 527.123 293.793C526.812 293.744 526.493 293.766 526.191 293.856L525.145 294.243L524.042 294.691Z" fill="#8B81F7"/>
<path opacity="0.1" d="M530.627 297.578L517.612 305.101L519.924 309.078L530.241 300.788C530.463 300.567 530.633 300.3 530.741 300.006C530.849 299.712 530.891 299.398 530.864 299.087C530.862 298.575 530.782 298.066 530.627 297.578Z" fill="#455A64"/>
<path d="M519.645 309.263C521.316 308.297 521.317 305.168 519.647 302.273C517.976 299.378 515.267 297.814 513.595 298.78C511.924 299.746 511.923 302.875 513.593 305.77C515.264 308.665 517.973 310.228 519.645 309.263Z" fill="#E0E0E0"/>
<path d="M455.292 336.497L469.248 320.372L472.737 294.169L479.714 290.136L507.632 306.267L455.292 336.497Z" fill="#8B81F7"/>
<path opacity="0.6" d="M455.292 336.497L469.248 320.372L472.737 294.169L479.714 290.136L507.632 306.267L455.292 336.497Z" fill="white"/>
<path d="M479.714 290.136L472.736 294.169L500.654 310.293L507.632 306.267L479.714 290.136Z" fill="#8B81F7"/>
<path opacity="0.3" d="M479.714 290.136L472.736 294.169L500.654 310.293L507.632 306.267L479.714 290.136Z" fill="#455A64"/>
<path d="M518.104 296.138C515.662 294.73 513.4 294.318 511.544 294.767C511.075 294.874 510.624 295.048 510.204 295.284L509.93 295.434L468.007 319.656C461.124 323.634 455.265 329.166 450.899 335.812L437.417 356.319L440.115 360.108L460.83 356.78C467.282 355.748 473.49 353.543 479.147 350.273L526.278 323.053C527.929 322.03 529.038 320.104 529.356 317.443C529.417 316.901 529.448 316.356 529.449 315.81C529.443 308.561 524.366 299.76 518.104 296.138Z" fill="#8B81F7"/>
<path opacity="0.9" d="M518.104 296.138C515.662 294.73 513.4 294.318 511.544 294.767C511.075 294.874 510.624 295.048 510.204 295.284L509.93 295.434L468.007 319.656C461.124 323.634 455.265 329.166 450.899 335.812L437.417 356.319L440.115 360.108L460.83 356.78C467.282 355.748 473.49 353.543 479.147 350.273L526.278 323.053C527.929 322.03 529.038 320.104 529.356 317.443C529.417 316.901 529.448 316.356 529.449 315.81C529.443 308.561 524.366 299.76 518.104 296.138Z" fill="white"/>
<path d="M520.884 326.15C522.535 325.128 523.644 323.202 523.961 320.54C524.022 319.998 524.053 319.453 524.055 318.907C524.055 311.671 518.977 302.869 512.716 299.254C510.274 297.839 508.018 297.428 506.162 297.877C505.692 297.982 505.241 298.157 504.822 298.394L510.205 295.278C510.624 295.041 511.076 294.867 511.545 294.76C513.414 294.311 515.663 294.723 518.105 296.131C524.335 299.753 529.444 308.554 529.444 315.791C529.442 316.336 529.411 316.881 529.351 317.424C529.033 320.098 527.924 322.024 526.273 323.033L520.884 326.15Z" fill="#8B81F7"/>
<path d="M441.617 352.653C441.164 352.364 440.633 352.222 440.096 352.248L438.576 354.561L437.417 356.325C437.172 356.7 437.032 357.135 437.013 357.583C436.994 358.031 437.096 358.476 437.308 358.871C437.521 359.266 437.836 359.596 438.22 359.827C438.604 360.058 439.044 360.181 439.492 360.183C439.703 360.18 439.912 360.15 440.115 360.096L441.884 359.815L444.271 359.429C444.484 359.11 444.614 358.744 444.651 358.363C444.651 358.226 444.651 358.076 444.651 357.92C444.594 356.866 444.29 355.839 443.762 354.924C443.235 354.009 442.5 353.231 441.617 352.653Z" fill="#8B81F7"/>
<path opacity="0.6" d="M469.247 330.451C475.372 326.83 504.965 309.77 522.478 299.685C521.204 298.298 519.735 297.103 518.117 296.138C515.675 294.73 513.413 294.318 511.557 294.767C511.088 294.874 510.636 295.048 510.217 295.284L509.943 295.434L468.02 319.656C461.137 323.634 455.278 329.166 450.912 335.812L437.891 355.596L437.417 356.325C437.146 356.733 437.001 357.212 437 357.702C436.998 358.307 437.22 358.891 437.623 359.342C436.377 356.655 447.448 349.437 453.579 343.647C459.709 337.856 465.802 332.49 469.247 330.451Z" fill="white"/>
<path d="M463.123 344.338C461.366 340.723 458.712 337.7 455.84 336.048C454.569 335.269 453.123 334.823 451.634 334.752C451.391 335.107 451.136 335.45 450.899 335.812L445.292 344.338L445.971 344.276C446.056 344.27 446.141 344.27 446.227 344.276C447.039 344.311 447.829 344.556 448.519 344.987C450.286 346.11 451.726 347.679 452.693 349.537L453.092 350.26L463.497 345.118L463.123 344.338Z" fill="#8B81F7"/>
<path d="M455.41 336.791C454.111 335.962 452.588 335.555 451.049 335.625L445.891 343.423C446.968 343.368 448.035 343.652 448.943 344.233C450.852 345.43 452.406 347.115 453.448 349.113L462.351 344.713C460.743 341.403 458.233 338.417 455.41 336.791Z" fill="#455A64"/>
<path opacity="0.1" d="M455.41 336.791C454.111 335.962 452.588 335.555 451.049 335.625L445.891 343.423C446.262 343.394 446.635 343.417 447 343.491C447.704 342.706 448.414 341.447 449.629 341.671C451.037 341.933 452.121 343.354 453.267 344.077C453.565 344.282 453.902 344.423 454.257 344.491C454.612 344.56 454.977 344.555 455.329 344.476C455.936 344.215 456.482 343.833 456.937 343.354C457.165 343.117 457.446 342.937 457.756 342.829C458.067 342.72 458.399 342.687 458.725 342.731C459.423 342.918 459.697 343.591 459.971 344.183C460.214 344.64 460.422 345.115 460.594 345.604L462.376 344.719C460.743 341.403 458.233 338.417 455.41 336.791Z" fill="white"/>
<path opacity="0.05" d="M451 340.056L451.043 340.088C451.611 340.466 452.199 340.811 452.806 341.122C453.311 341.384 453.984 341.602 454.407 341.222C454.831 340.842 454.738 340.106 455.186 339.795C455.375 339.685 455.591 339.631 455.809 339.639C456.826 339.652 457.826 339.903 458.729 340.373C459.631 340.843 460.411 341.518 461.005 342.344C459.589 340.082 457.67 338.177 455.398 336.778C454.099 335.949 452.576 335.542 451.037 335.612L448.021 340.187C449.112 339.383 449.884 339.346 451 340.056Z" fill="white"/>
<path opacity="0.15" d="M529.35 317.43C529.411 316.888 529.442 316.343 529.443 315.797C529.435 315.158 529.394 314.519 529.319 313.884C514.759 322.261 479.234 342.712 472.736 346.576C464.518 351.463 444.295 358.419 439.093 358.668C437.847 358.737 437.411 357.783 437.442 356.294V356.325C437.198 356.698 437.058 357.131 437.038 357.577C437.017 358.023 437.117 358.466 437.327 358.86C437.536 359.254 437.848 359.585 438.228 359.818C438.609 360.051 439.046 360.177 439.492 360.183C439.702 360.18 439.911 360.15 440.115 360.096L460.83 356.767C467.282 355.736 473.49 353.53 479.147 350.26L526.278 323.04C527.923 322.03 529.032 320.111 529.35 317.43Z" fill="#8B81F7"/>
<path opacity="0.6" d="M440.116 360.096L441.885 359.815L444.271 359.429C444.484 359.11 444.615 358.744 444.651 358.363C444.651 358.226 444.651 358.076 444.651 357.92C444.651 357.764 444.651 357.671 444.651 357.546C442.838 358.085 440.98 358.459 439.1 358.662C437.854 358.73 437.418 357.777 437.449 356.287V356.318C437.203 356.691 437.062 357.124 437.041 357.57C437.02 358.017 437.118 358.461 437.327 358.856C437.536 359.251 437.847 359.582 438.228 359.816C438.609 360.049 439.046 360.176 439.493 360.183C439.684 360.181 439.874 360.156 440.06 360.108L440.116 360.096Z" fill="#455A64"/>
<path d="M553 332.47L525.082 316.339L472.736 346.575L500.654 340.529L546.022 338.516L553 334.483V332.47Z" fill="#8B81F7"/>
<path opacity="0.6" d="M553 332.47L525.082 316.339L472.736 346.575L500.654 340.529L546.022 338.516L553 334.483V332.47Z" fill="white"/>
<path d="M500.654 340.53V338.517L472.736 346.576L500.654 340.53Z" fill="#8B81F7"/>
<path d="M500.654 338.517L546.023 336.497V338.517L500.654 340.53V338.517Z" fill="#8B81F7"/>
<path opacity="0.3" d="M500.654 338.517L546.023 336.497V338.517L500.654 340.53V338.517Z" fill="white"/>
<path d="M518.104 320.372L546.022 336.497L553 332.47L525.082 316.339L518.104 320.372Z" fill="#8B81F7"/>
<path opacity="0.3" d="M518.104 320.372L546.022 336.497L553 332.47L525.082 316.339L518.104 320.372Z" fill="#455A64"/>
<path d="M553 332.471L546.022 336.497V338.517L553 334.484V332.471Z" fill="#8B81F7"/>
<path opacity="0.5" d="M553 332.471L546.022 336.497V338.517L553 334.484V332.471Z" fill="#455A64"/>
<path d="M523.344 271L519.855 273.02L502.404 303.25L504.143 304.247L518.142 296.163L525.082 271.997L523.344 271Z" fill="#8B81F7"/>
<path d="M504.143 304.247L518.142 296.163L525.082 271.997L521.593 274.01L504.143 304.247Z" fill="#8B81F7"/>
<path opacity="0.5" d="M519.855 273.02L521.594 274.011L525.083 271.997L523.344 271L519.855 273.02Z" fill="white"/>
<path opacity="0.6" d="M521.593 274.01L504.143 304.247L518.142 296.163L525.082 271.997L521.593 274.01Z" fill="#455A64"/>
<path opacity="0.8" d="M529.207 297.528C527.817 295.122 527.063 290.672 531.181 287.954C535.3 285.237 538.577 286.758 538.577 286.758C538.577 286.758 537.025 288.004 537.069 289.201C537.069 289.201 541.536 285.274 544.888 286.932C544.888 286.932 542.147 288.279 542.539 289.482C542.932 290.684 547.692 288.484 549.343 286.271C549.343 286.271 549.579 288.21 547.642 290.597C545.704 292.984 541.567 294.892 541.567 294.892C542.067 295.096 542.606 295.186 543.144 295.156C543.683 295.125 544.209 294.976 544.682 294.717C544.682 294.717 542.084 298.775 538.483 300.514C536.851 301.313 534.973 301.448 533.244 300.891C531.514 300.334 530.067 299.129 529.207 297.528Z" fill="#8B81F7"/>
<path opacity="0.8" d="M531.25 296.325C529.973 294.113 532.135 290.803 536.421 291.189C536.421 291.189 534.446 292.504 535.051 293.633C535.655 294.761 539.674 292.598 540.484 291.95C540.484 291.95 539.132 295.409 536.478 296.936C534.577 298.039 532.447 298.407 531.25 296.325Z" fill="white"/>
<path opacity="0.8" d="M532.777 308.629C534.166 311.035 537.63 313.915 542.054 311.702C546.477 309.489 546.783 305.893 546.783 305.893C546.783 305.893 544.914 306.603 543.917 305.98C543.917 305.98 549.524 304.073 549.786 300.339C549.786 300.339 547.256 302.041 546.403 301.1C545.549 300.158 549.848 297.135 552.589 296.811C552.589 296.811 551.032 295.639 547.991 296.119C544.951 296.599 541.076 299.897 541.076 299.897C541.027 299.334 541.1 298.768 541.288 298.236C541.476 297.704 541.775 297.218 542.166 296.811C539.557 296.9 537.02 297.684 534.814 299.08C533.305 300.098 532.249 301.662 531.869 303.443C531.489 305.224 531.814 307.083 532.777 308.629Z" fill="#8B81F7"/>
<path opacity="0.8" d="M534.814 307.476C536.091 309.683 540.035 309.465 541.842 305.556C541.842 305.556 539.717 306.616 539.044 305.519C538.372 304.422 542.253 302.035 543.219 301.661C543.219 301.661 539.543 301.1 536.895 302.633C535.007 303.73 533.63 305.394 534.814 307.476Z" fill="white"/>
<path d="M1.33473 133.637C0.802529 135.777 28.2651 158.478 93.3422 153.809C149.263 149.803 176.651 124.194 176.651 124.194L1.33473 133.637Z" fill="black"/>
<path opacity="0.2" d="M1.33473 133.637C0.802529 135.777 28.2651 158.478 93.3422 153.809C149.263 149.803 176.651 124.194 176.651 124.194L1.33473 133.637Z" fill="#609FF1"/>
<path d="M89.0582 139.943C137.627 137.627 176.75 130.509 176.442 124.043C176.133 117.578 136.511 114.214 87.9418 116.53C39.3729 118.846 0.249918 125.965 0.558208 132.43C0.866498 138.895 40.4893 142.259 89.0582 139.943Z" fill="#609FF1"/>
<path d="M48.2312 125.241C48.2312 125.241 45.6675 85.4636 85.1074 80.422C124.547 75.3805 128.061 117.172 128.061 117.172C128.061 117.172 102.533 136.629 48.2312 125.241Z" fill="#F5F5F5"/>
<path d="M68.5751 89.887C68.7067 90.0759 67.339 91.1346 65.3418 93.0344C64.8497 93.5094 64.306 94.0302 63.7567 94.6253C63.2073 95.2205 62.6121 95.8557 62.0399 96.5367C59.4915 99.5322 57.3729 102.868 55.7451 106.448C55.3845 107.284 55.024 108.068 54.7551 108.823C54.4861 109.578 54.1828 110.288 53.9882 110.94C53.1184 113.55 52.7464 115.238 52.5175 115.204C52.2886 115.169 52.3459 113.424 52.9753 110.626C53.1356 109.933 53.3244 109.178 53.5877 108.388C53.8509 107.598 54.1599 106.757 54.4861 105.876C56.0248 102.08 58.2325 98.5911 61.0041 95.5753C61.6565 94.9 62.2631 94.2476 62.8926 93.6925C63.4542 93.1613 64.0425 92.659 64.6551 92.1875C66.8869 90.4593 68.4835 89.7211 68.5751 89.887Z" fill="white"/>
<path d="M169.808 123.416C169.74 123.524 169.659 123.624 169.567 123.714C169.314 123.979 169.04 124.224 168.749 124.446C167.651 125.229 166.449 125.855 165.178 126.306C156.909 129.512 148.22 131.509 139.381 132.234C137.664 132.366 136.313 132.429 135.375 132.452H134.282C134.154 132.461 134.026 132.461 133.898 132.452C134.024 132.421 134.153 132.406 134.282 132.406L135.369 132.332C136.319 132.269 137.687 132.177 139.375 132.017C148.182 131.181 156.84 129.187 165.126 126.088C166.391 125.66 167.595 125.069 168.709 124.332C169.091 124.046 169.457 123.74 169.808 123.416Z" fill="white"/>
<path d="M78.0859 154.553C77.8942 154.463 77.7136 154.352 77.548 154.221C77.0718 153.896 76.6186 153.538 76.1917 153.151C75.5493 152.582 74.9523 151.964 74.4063 151.302C73.7373 150.492 73.1381 149.627 72.6151 148.716C72.101 147.799 71.6627 146.842 71.3047 145.854C71.019 145.046 70.7933 144.218 70.6294 143.376C70.5163 142.81 70.4398 142.236 70.4005 141.66C70.3769 141.449 70.3769 141.235 70.4005 141.024C70.4577 141.024 70.5207 141.917 70.8411 143.313C71.0308 144.137 71.2736 144.948 71.5679 145.74C71.9384 146.706 72.3763 147.645 72.8784 148.55C73.3971 149.444 73.9804 150.299 74.6238 151.108C75.154 151.767 75.7275 152.39 76.3405 152.973C77.382 153.98 78.1202 154.501 78.0859 154.553Z" fill="#263238"/>
<path d="M75.3843 145.465C75.3843 145.505 75.2413 145.574 75.1955 145.785C75.1779 145.84 75.1734 145.898 75.1824 145.955C75.1913 146.011 75.2135 146.065 75.247 146.112C75.2901 146.154 75.3435 146.184 75.4018 146.198C75.4601 146.213 75.5213 146.213 75.5793 146.196C75.6373 146.18 75.6899 146.149 75.7321 146.106C75.7742 146.063 75.8042 146.01 75.8192 145.951C75.8236 145.894 75.8151 145.837 75.7943 145.783C75.7735 145.73 75.741 145.682 75.6991 145.642C75.5446 145.482 75.3786 145.511 75.3672 145.465C75.3557 145.419 75.5503 145.299 75.8307 145.465C75.9121 145.517 75.9789 145.589 76.025 145.674C76.071 145.759 76.0947 145.855 76.0939 145.951C76.0885 146.076 76.0425 146.195 75.963 146.291C75.8834 146.388 75.7747 146.455 75.6533 146.484C75.5488 146.512 75.4382 146.511 75.3345 146.479C75.2308 146.448 75.1381 146.388 75.0674 146.305C74.9966 146.223 74.9507 146.123 74.9348 146.015C74.919 145.908 74.934 145.799 74.978 145.7C75.144 145.396 75.3958 145.425 75.3843 145.465Z" fill="#263238"/>
<path d="M77.9484 150.048C77.9484 150.088 77.811 150.151 77.7595 150.369C77.7437 150.424 77.7401 150.481 77.749 150.538C77.7579 150.594 77.7791 150.648 77.8111 150.695C77.8519 150.744 77.9068 150.779 77.9683 150.795C78.0297 150.811 78.0947 150.808 78.1544 150.787C78.217 150.774 78.2742 150.743 78.3183 150.697C78.3623 150.651 78.391 150.592 78.4005 150.529C78.404 150.473 78.395 150.416 78.3743 150.364C78.3535 150.312 78.3214 150.264 78.2803 150.226C78.1258 150.066 77.9598 150.088 77.9484 150.048C77.9369 150.008 78.1315 149.882 78.4119 150.048C78.4933 150.101 78.5602 150.173 78.6062 150.258C78.6522 150.343 78.676 150.438 78.6752 150.535C78.6606 150.61 78.6311 150.682 78.5884 150.745C78.5457 150.809 78.4906 150.863 78.4265 150.905C78.3623 150.947 78.2904 150.976 78.2149 150.989C78.1395 151.003 78.0621 151.001 77.9873 150.985C77.9125 150.968 77.8419 150.936 77.7796 150.891C77.7174 150.847 77.6647 150.79 77.6248 150.724C77.5848 150.659 77.5585 150.586 77.5472 150.51C77.536 150.434 77.5401 150.357 77.5593 150.283C77.7081 149.974 77.9598 150.008 77.9484 150.048Z" fill="#263238"/>
<path d="M0.762695 132.046C0.911908 131.979 1.06713 131.928 1.22622 131.891L2.57675 131.508C3.72126 131.182 5.43803 130.741 7.57255 130.232C11.8015 129.213 17.7015 128 24.2825 127.056C30.8634 126.111 36.8721 125.648 41.2213 125.442C43.3958 125.339 45.1584 125.287 46.3716 125.282H47.7736C47.9373 125.267 48.102 125.267 48.2657 125.282C48.105 125.309 47.9424 125.324 47.7793 125.327L46.3773 125.39C45.1641 125.436 43.4015 125.516 41.227 125.648C36.8835 125.905 30.892 126.415 24.3168 127.365C17.7416 128.315 11.853 129.482 7.61261 130.449C5.48954 130.93 3.77849 131.336 2.59964 131.634L1.23767 131.966C1.08171 132.005 0.92289 132.032 0.762695 132.046Z" fill="#263238"/>
<path d="M128.673 136.526C128.417 136.399 128.171 136.249 127.941 136.079L125.989 134.786C124.341 133.693 122.047 132.217 119.46 130.666C116.873 129.115 114.487 127.805 112.747 126.855L110.687 125.744C110.428 125.62 110.179 125.474 109.943 125.31C110.217 125.398 110.483 125.509 110.739 125.641C111.242 125.87 111.963 126.214 112.845 126.666C114.613 127.559 117.022 128.858 119.614 130.408C122.207 131.959 124.49 133.476 126.11 134.609C126.916 135.181 127.569 135.65 128.009 135.982C128.246 136.144 128.468 136.326 128.673 136.526Z" fill="#263238"/>
<path d="M112.639 129.018C112.673 129.052 112.501 129.195 112.513 129.493C112.516 129.653 112.582 129.805 112.696 129.917C112.771 129.967 112.858 129.997 112.948 130.005C113.038 130.012 113.129 129.997 113.211 129.961C113.294 129.924 113.366 129.868 113.421 129.796C113.476 129.724 113.512 129.64 113.526 129.55C113.526 129.47 113.509 129.392 113.476 129.319C113.444 129.246 113.396 129.18 113.337 129.127C113.125 128.921 112.908 128.949 112.902 128.904C112.896 128.858 113.137 128.738 113.474 128.961C113.568 129.026 113.647 129.111 113.704 129.21C113.761 129.309 113.796 129.419 113.806 129.533C113.806 129.682 113.761 129.828 113.677 129.951C113.594 130.074 113.475 130.17 113.337 130.226C113.204 130.29 113.055 130.312 112.909 130.291C112.764 130.269 112.627 130.205 112.519 130.105C112.437 130.023 112.375 129.923 112.339 129.813C112.302 129.702 112.291 129.585 112.307 129.47C112.358 129.081 112.633 128.984 112.639 129.018Z" fill="#263238"/>
<path d="M38.5891 126.803C38.5891 126.838 38.4517 126.981 38.4632 127.272C38.4627 127.352 38.4787 127.431 38.5102 127.503C38.5417 127.576 38.5881 127.642 38.6463 127.696C38.7212 127.748 38.808 127.779 38.8986 127.788C38.9892 127.796 39.0804 127.782 39.1636 127.745C39.2469 127.708 39.3193 127.651 39.374 127.578C39.4287 127.505 39.4638 127.42 39.4761 127.33C39.4751 127.251 39.4578 127.173 39.4253 127.101C39.3928 127.029 39.3458 126.965 39.2872 126.912C39.0755 126.7 38.858 126.735 38.8523 126.689C38.8466 126.643 39.087 126.523 39.4246 126.746C39.5191 126.811 39.598 126.895 39.6554 126.995C39.7129 127.094 39.7474 127.204 39.7565 127.318C39.7563 127.467 39.7115 127.612 39.6278 127.734C39.5441 127.856 39.4254 127.951 39.2872 128.005C39.1536 128.069 39.0037 128.092 38.8568 128.071C38.71 128.05 38.5729 127.985 38.4632 127.885C38.3832 127.801 38.3231 127.701 38.2874 127.591C38.2517 127.481 38.2414 127.364 38.2572 127.25C38.3087 126.866 38.5834 126.763 38.5891 126.803Z" fill="#263238"/>
<path d="M24.9289 128.526C24.9289 128.561 24.7916 128.698 24.7973 128.996C24.7992 129.075 24.8168 129.154 24.8492 129.226C24.8817 129.299 24.9282 129.365 24.9861 129.419C25.0587 129.475 25.1454 129.509 25.2364 129.518C25.3273 129.527 25.419 129.511 25.5012 129.471C25.5869 129.437 25.6615 129.38 25.7162 129.306C25.7709 129.233 25.8035 129.145 25.8102 129.053C25.8107 128.973 25.7947 128.895 25.7632 128.822C25.7317 128.749 25.6853 128.683 25.6271 128.629C25.4154 128.423 25.1979 128.452 25.1922 128.406C25.1864 128.36 25.4268 128.246 25.7644 128.469C25.8588 128.533 25.9372 128.618 25.9937 128.718C26.0503 128.817 26.0834 128.927 26.0906 129.041C26.0933 129.19 26.0503 129.335 25.9673 129.458C25.8844 129.581 25.7656 129.675 25.6271 129.728C25.4934 129.793 25.3435 129.816 25.1967 129.794C25.0498 129.773 24.9127 129.708 24.803 129.608C24.723 129.524 24.6629 129.424 24.6272 129.314C24.5916 129.204 24.5812 129.087 24.597 128.973C24.6542 128.589 24.9232 128.486 24.9289 128.526Z" fill="#263238"/>
<path d="M9.35244 130.929C9.38105 130.964 9.20938 131.107 9.22082 131.404C9.22101 131.484 9.23791 131.563 9.27044 131.636C9.30296 131.709 9.35039 131.774 9.40967 131.828C9.48223 131.884 9.56926 131.918 9.6605 131.926C9.75175 131.934 9.84341 131.916 9.9247 131.873C10.0104 131.842 10.0851 131.786 10.1399 131.713C10.1947 131.64 10.2273 131.553 10.2337 131.461C10.2308 131.302 10.165 131.149 10.0506 131.038C9.83886 130.832 9.61568 130.861 9.61568 130.815C9.61568 130.769 9.85031 130.649 10.1879 130.878C10.282 130.942 10.3602 131.027 10.4167 131.126C10.4732 131.226 10.5065 131.336 10.5141 131.45C10.5144 131.598 10.4704 131.742 10.3878 131.864C10.3051 131.987 10.1877 132.082 10.0506 132.137C9.91692 132.201 9.76702 132.224 9.62018 132.203C9.47333 132.181 9.33624 132.116 9.22654 132.017C9.1472 131.932 9.08715 131.832 9.05058 131.722C9.01402 131.613 9.00181 131.496 9.01481 131.381C9.07203 130.992 9.34672 130.895 9.35244 130.929Z" fill="#263238"/>
<path d="M118.877 133.23C118.911 133.264 118.739 133.407 118.751 133.699C118.75 133.779 118.766 133.857 118.798 133.93C118.829 134.003 118.876 134.069 118.934 134.123C119.006 134.18 119.093 134.215 119.184 134.224C119.275 134.233 119.367 134.216 119.449 134.174C119.535 134.141 119.611 134.085 119.666 134.011C119.722 133.937 119.756 133.849 119.764 133.756C119.763 133.678 119.745 133.6 119.713 133.528C119.68 133.456 119.633 133.392 119.575 133.339C119.363 133.127 119.146 133.161 119.14 133.116C119.134 133.07 119.375 132.95 119.712 133.173C119.807 133.237 119.886 133.322 119.943 133.421C120.001 133.52 120.035 133.631 120.044 133.745C120.051 133.851 120.036 133.958 119.999 134.058C119.963 134.158 119.905 134.249 119.831 134.325C119.756 134.401 119.667 134.461 119.568 134.5C119.469 134.539 119.362 134.556 119.256 134.551C119.15 134.547 119.045 134.519 118.95 134.471C118.855 134.423 118.771 134.356 118.704 134.273C118.637 134.191 118.588 134.095 118.561 133.992C118.533 133.889 118.528 133.781 118.545 133.676C118.596 133.293 118.871 133.19 118.877 133.23Z" fill="#263238"/>
<path d="M91.2196 84.9027C89.5919 84.3551 87.8658 84.1627 86.1574 84.3385C84.4491 84.5144 82.7983 85.0543 81.3163 85.9219C79.8342 86.7896 78.5554 87.9648 77.5658 89.3684C76.5763 90.772 75.8991 92.3714 75.5798 94.0588L75.5283 94.3735C75.3304 95.5268 75.3304 96.7053 75.5283 97.8586C75.897 100.005 76.6741 102.06 77.8174 103.913C81.0964 109.229 82.8532 109.401 83.1737 112.434C83.4942 115.467 83.952 116.114 82.4012 117.407C82.4012 117.407 80.2724 117.538 79.1107 118.248C77.949 118.958 76.9761 119.473 76.8503 123.026C76.7244 126.58 76.5699 128.749 76.5699 128.749C82.7664 129.113 88.9837 128.873 95.1339 128.034L94.3556 119.072C94.231 118.657 93.9976 118.282 93.6797 117.988C93.3618 117.693 92.9708 117.488 92.5473 117.395C91.1281 117.138 88.9363 117.201 88.8047 116.428C88.6731 115.656 88.9993 115.393 88.9993 115.393C88.9993 115.393 91.5802 116.428 93.2569 115.65C94.9336 114.872 96.8106 113.847 97.131 112.554C97.4515 111.261 98.4644 106.872 98.2756 106.677C98.0867 106.482 100.799 104.291 100.914 99.2377C101.028 94.1847 97.6747 87.4836 93.2168 85.6123C92.5263 85.3529 91.8606 85.1163 91.2196 84.9027Z" fill="#69BB5B"/>
<path d="M82.9725 96.3191C82.9725 96.3191 92.5636 93.4063 91.1329 104.497C91.1329 104.497 80.8781 105.784 82.9725 96.3191Z" fill="#263238"/>
<path d="M95.2652 104.257C95.2652 104.257 91.2251 94.6197 98.3096 95.5811C98.3096 95.6097 102.155 102.557 95.2652 104.257Z" fill="#263238"/>
<path d="M108.233 116.349C108.233 116.349 106.516 116.921 106.092 117.39C105.669 117.859 105.028 119.565 104.324 119.771C103.726 119.866 103.114 119.809 102.544 119.605C102.544 119.605 102.172 117.533 101.4 116.612C100.627 115.691 100.433 115.908 100.433 115.908C100.433 115.908 98.4928 115.862 98.5958 114.763C98.5958 114.763 99.4027 113.819 100.77 115.135C100.967 115.327 101.226 115.442 101.5 115.459C101.774 115.476 102.045 115.394 102.264 115.227C103.031 114.603 103.145 113.07 103.065 112.045C103.065 112.045 102.293 110.254 103.5 109.894C103.5 109.894 104.513 109.968 103.958 112.062C103.958 112.062 103.071 114.288 104.295 115.17C104.295 115.17 105.291 115.605 106.413 113.67L106.785 112.961C106.785 112.961 106.848 111.427 108.181 111.387C108.259 111.384 108.335 111.409 108.396 111.458C108.456 111.506 108.498 111.574 108.513 111.65C108.583 112.014 108.515 112.39 108.324 112.707C108.133 113.024 107.831 113.259 107.477 113.367C107.477 113.367 105.949 114.512 106.15 115.834C106.15 115.834 106.613 116.331 107.763 115.805L108.204 115.639C108.204 115.639 109.652 114.403 109.863 114.969C110.081 115.668 109.257 116.4 108.233 116.349Z" fill="#69BB5B"/>
<path d="M102.538 119.307L100.667 127.273L102.286 127.015L103.957 126.683L104.925 119.284L102.538 119.307Z" fill="#69BB5B"/>
<g opacity="0.2">
<path d="M81.7889 87.7923C81.4379 87.7919 81.0974 87.9113 80.8237 88.1309C80.55 88.3505 80.3595 88.6571 80.2838 88.9997C80.233 89.3547 80.3023 89.7164 80.4806 90.0275C80.6589 90.3385 80.9361 90.5811 81.2681 90.7165C81.6096 90.832 81.9801 90.828 82.319 90.7053C82.658 90.5826 82.9452 90.3485 83.1337 90.0413C83.3033 89.7233 83.3578 89.3565 83.288 89.0029C83.2181 88.6493 83.0281 88.3308 82.7502 88.1013C82.5715 87.9653 82.3651 87.8702 82.1456 87.8227C81.9261 87.7753 81.6988 87.7766 81.4798 87.8266" fill="white"/>
</g>
<path d="M84.4778 98.5458C84.3328 98.5322 84.1874 98.5684 84.0657 98.6485C83.944 98.7286 83.8532 98.8478 83.8083 98.9864C83.7643 99.1331 83.7743 99.2907 83.8364 99.4307C83.8986 99.5707 84.0088 99.6838 84.1472 99.7495C84.2855 99.8152 84.4428 99.8292 84.5906 99.7889C84.7384 99.7487 84.8669 99.6568 84.9528 99.53C85.0357 99.4049 85.0725 99.2548 85.0568 99.1055C85.0412 98.9562 84.974 98.8169 84.867 98.7117C84.7983 98.6485 84.7165 98.6014 84.6275 98.5736C84.5384 98.5459 84.4443 98.5384 84.3519 98.5515" fill="#455A64"/>
<path d="M84.7408 100.903C84.6674 100.896 84.5938 100.914 84.5322 100.955C84.4707 100.996 84.4251 101.056 84.4031 101.127C84.385 101.2 84.3928 101.278 84.425 101.347C84.4573 101.416 84.5122 101.471 84.5805 101.504C84.6487 101.537 84.7263 101.545 84.7997 101.526C84.873 101.507 84.9373 101.463 84.9811 101.401C85.0183 101.351 85.0397 101.291 85.0425 101.228C85.0453 101.166 85.0294 101.104 84.9968 101.05C84.9643 100.997 84.9166 100.954 84.8597 100.928C84.8029 100.902 84.7396 100.893 84.6778 100.903" fill="#455A64"/>
<g opacity="0.2">
<path d="M79.4993 91.3525C79.3661 91.4022 79.2545 91.4971 79.1841 91.6206C79.1136 91.7442 79.0889 91.8886 79.1141 92.0285C79.1393 92.1685 79.2129 92.2952 79.3221 92.3864C79.4312 92.4776 79.5689 92.5276 79.7111 92.5276C79.8533 92.5276 79.991 92.4776 80.1001 92.3864C80.2092 92.2952 80.2828 92.1685 80.3081 92.0285C80.3333 91.8886 80.3085 91.7442 80.2381 91.6206C80.1677 91.4971 80.0561 91.4022 79.9228 91.3525" fill="white"/>
</g>
<path d="M88.2663 105.55C88.1171 105.58 87.9634 105.58 87.8142 105.55C87.4004 105.535 86.9895 105.474 86.5896 105.367C85.2459 105.027 84.0419 104.275 83.1462 103.217C82.2505 102.159 81.7077 100.848 81.5938 99.4666C81.5508 99.0538 81.5508 98.6376 81.5938 98.2248C81.5985 98.0725 81.6335 97.9227 81.6968 97.7842C81.754 97.7842 81.6453 98.4251 81.7827 99.438C81.9484 100.758 82.4942 102.002 83.3536 103.018C84.2131 104.034 85.3493 104.778 86.624 105.161C87.6025 105.492 88.2721 105.498 88.2663 105.55Z" fill="#263238"/>
<path d="M91.1508 98.4253C90.4386 97.4976 89.5642 96.7065 88.5699 96.0905C87.5308 95.5566 86.405 95.2117 85.2451 95.0719C85.5896 94.9855 85.9487 94.9738 86.2981 95.0376C87.1498 95.1389 87.9727 95.4093 88.7185 95.8328C89.4643 96.2563 90.1181 96.8245 90.6415 97.504C90.8782 97.769 91.0523 98.0839 91.1508 98.4253Z" fill="#263238"/>
<path d="M94.0801 99.6157C93.9752 99.3356 93.921 99.0392 93.9199 98.7401C93.837 98.0175 93.9012 97.2856 94.1087 96.5884C94.2205 96.2342 94.4015 95.9056 94.6412 95.6217C94.8809 95.3378 95.1745 95.1043 95.505 94.9346C95.6356 94.8522 95.7814 94.797 95.9339 94.7724C96.0863 94.7478 96.2421 94.7543 96.392 94.7916C96.1227 94.8851 95.8591 94.994 95.6023 95.1177C95.0286 95.4843 94.5999 96.0384 94.3891 96.6857C94.1956 97.3507 94.1087 98.0422 94.1316 98.7344C94.163 99.029 94.1456 99.3268 94.0801 99.6157Z" fill="#263238"/>
<path d="M98.6644 103.204C98.5528 103.507 98.3784 103.783 98.1525 104.014C97.9266 104.245 97.6545 104.425 97.354 104.543C97.0768 104.708 96.7678 104.813 96.4473 104.851C96.1268 104.888 95.802 104.858 95.4941 104.761C96.0815 104.66 96.6569 104.499 97.2109 104.28C97.7323 103.974 98.2196 103.613 98.6644 103.204Z" fill="#263238"/>
<path d="M93.1244 108.772C93.1244 108.806 93.0099 108.927 92.7352 108.995C92.5529 109.04 92.3635 109.048 92.178 109.019C91.9925 108.99 91.8146 108.925 91.6548 108.826C91.4949 108.727 91.3564 108.598 91.2471 108.445C91.1379 108.293 91.0601 108.12 91.0185 107.937C90.9612 107.656 91.0185 107.49 91.0528 107.49C91.0871 107.49 91.1215 107.65 91.2188 107.868C91.3372 108.152 91.5362 108.394 91.791 108.566C92.0573 108.723 92.3632 108.801 92.6723 108.789C92.9527 108.772 93.1072 108.726 93.1244 108.772Z" fill="#263238"/>
<path d="M91.454 115.759C91.1172 115.845 90.7657 115.857 90.4239 115.793C89.5902 115.69 88.7869 115.415 88.0649 114.986C87.3429 114.556 86.7178 113.982 86.2293 113.298C86.0069 113.031 85.8501 112.716 85.7715 112.377C85.998 112.628 86.2083 112.894 86.401 113.172C87.4336 114.424 88.8705 115.276 90.464 115.582C90.7976 115.618 91.1284 115.678 91.454 115.759Z" fill="#263238"/>
<path d="M80.5121 128.835C80.3137 127.011 80.3137 125.171 80.5121 123.347C80.7104 125.171 80.7104 127.011 80.5121 128.835Z" fill="#263238"/>
<path d="M86.4006 126.712C85.5898 127.022 84.7168 127.134 83.854 127.038C83.2192 127.069 82.593 126.881 82.08 126.506C81.7024 126.157 81.7081 125.802 81.7424 125.808C81.7767 125.813 81.8626 126.088 82.2116 126.34C82.7128 126.63 83.2871 126.769 83.8655 126.74C85.2561 126.815 86.3834 126.626 86.4006 126.712Z" fill="#263238"/>
<path d="M92.0029 128.377C91.7937 127.631 91.6764 126.862 91.6538 126.088C91.5367 125.319 91.5175 124.538 91.5966 123.765C91.9334 125.28 92.07 126.832 92.0029 128.383V128.377Z" fill="#263238"/>
<path d="M91.723 124.68C91.5531 125.2 91.1995 125.639 90.7285 125.916C90.2575 126.193 89.7016 126.289 89.165 126.185C89.6496 126.048 90.1223 125.872 90.5785 125.659C91.2938 125.247 91.6429 124.634 91.723 124.68Z" fill="#263238"/>
<path d="M97.3765 84.3022C96.7344 84.5902 96.1277 84.9512 95.5682 85.3781C95.0751 85.8806 94.6429 86.4396 94.2807 87.0433C94.2463 87.0433 94.2807 86.7801 94.4409 86.4138C94.6598 85.9344 94.9766 85.5061 95.3707 85.1563C95.7649 84.8064 96.2279 84.5428 96.7299 84.3823C97.119 84.2679 97.3708 84.2679 97.3765 84.3022Z" fill="#69BB5B"/>
<path d="M98.0743 83.6894C97.8969 83.6011 97.6926 83.5833 97.5025 83.6395C97.3125 83.6958 97.1508 83.822 97.05 83.9927C96.9845 84.1157 96.9576 84.2558 96.973 84.3944C96.9883 84.533 97.0452 84.6637 97.1361 84.7695C97.227 84.8753 97.3478 84.9511 97.4825 84.9871C97.6172 85.0231 97.7597 85.0175 97.8912 84.9712C98.003 84.9296 98.1036 84.8627 98.1851 84.7757C98.2667 84.6887 98.327 84.5841 98.3614 84.4699C98.3957 84.3557 98.4032 84.2351 98.3832 84.1176C98.3632 84.0001 98.3162 83.8887 98.246 83.7924C98.2 83.7261 98.1368 83.6735 98.0633 83.6402C97.9897 83.607 97.9085 83.5943 97.8283 83.6035" fill="#69BB5B"/>
<path d="M94.7497 83.26C94.1063 83.5431 93.4992 83.9024 92.9413 84.3301C92.4482 84.8327 92.016 85.3916 91.6538 85.9954C91.6194 85.9954 91.6538 85.7379 91.8083 85.3659C92.0303 84.8857 92.3499 84.4569 92.7468 84.1069C93.1416 83.7568 93.6056 83.4936 94.1088 83.3344C94.4693 83.22 94.744 83.2257 94.7497 83.26Z" fill="#69BB5B"/>
<path d="M95.448 82.6428C95.2699 82.555 95.0651 82.5381 94.8749 82.5955C94.6848 82.6528 94.5235 82.7802 94.4237 82.9519C94.3567 83.0746 94.3289 83.2149 94.3438 83.3539C94.3587 83.4929 94.4156 83.6241 94.5071 83.7298C94.5986 83.8356 94.7201 83.9109 94.8555 83.9458C94.991 83.9806 95.1338 83.9732 95.2649 83.9247C95.3765 83.8838 95.4771 83.8175 95.5587 83.7311C95.6403 83.6447 95.7006 83.5404 95.7351 83.4267C95.7695 83.3129 95.777 83.1927 95.7569 83.0755C95.7369 82.9584 95.6899 82.8475 95.6197 82.7516C95.575 82.6838 95.5121 82.6301 95.4382 82.5967C95.3642 82.5633 95.2823 82.5515 95.202 82.5627" fill="#69BB5B"/>
<defs>
<linearGradient id="paint0_linear_184_3072" x1="0" y1="0" x2="634.314" y2="324.411" gradientUnits="userSpaceOnUse">
<stop stop-color="#14D1E8"/>
<stop offset="1" stop-color="#C35CFC"/>
</linearGradient>
</defs>
</svg>
