<svg width="25" height="24" viewBox="0 0 25 24" fill="none" xmlns="http://www.w3.org/2000/svg">
<path d="M18.5 4H6.5C5.39543 4 4.5 4.89543 4.5 6V18C4.5 19.1046 5.39543 20 6.5 20H18.5C19.6046 20 20.5 19.1046 20.5 18V6C20.5 4.89543 19.6046 4 18.5 4Z" stroke="#14D1E8" stroke-width="2" stroke-linecap="round" stroke-linejoin="round"/>
<path d="M15.5 9H9.5V15H15.5V9Z" stroke="#14D1E8" stroke-width="2" stroke-linecap="round" stroke-linejoin="round"/>
<path d="M15.5 2V4" stroke="#14D1E8" stroke-width="2" stroke-linecap="round" stroke-linejoin="round"/>
<path d="M15.5 20V22" stroke="#14D1E8" stroke-width="2" stroke-linecap="round" stroke-linejoin="round"/>
<path d="M2.5 15H4.5" stroke="#14D1E8" stroke-width="2" stroke-linecap="round" stroke-linejoin="round"/>
<path d="M2.5 9H4.5" stroke="#14D1E8" stroke-width="2" stroke-linecap="round" stroke-linejoin="round"/>
<path d="M20.5 15H22.5" stroke="#14D1E8" stroke-width="2" stroke-linecap="round" stroke-linejoin="round"/>
<path d="M20.5 9H22.5" stroke="#14D1E8" stroke-width="2" stroke-linecap="round" stroke-linejoin="round"/>
<path d="M9.5 2V4" stroke="#14D1E8" stroke-width="2" stroke-linecap="round" stroke-linejoin="round"/>
<path d="M9.5 20V22" stroke="#14D1E8" stroke-width="2" stroke-linecap="round" stroke-linejoin="round"/>
</svg>
