<svg width="390" height="106" viewBox="0 0 390 106" fill="none" xmlns="http://www.w3.org/2000/svg">
<path d="M108.824 12.7445H126.765C131.324 12.7445 134.658 13.97 136.814 16.0779C138.922 17.8916 139.854 20.3426 139.854 22.7445C139.854 23.6759 139.854 24.8524 139.559 25.7837C138.971 27.3033 138.04 28.8229 136.814 30.0484C136.226 30.6367 135.589 30.9798 135.001 31.2739C137.108 31.8622 138.971 33.0877 140.491 34.6073C141.716 36.1269 142.305 37.9406 142.305 40.6857C142.305 42.2053 142.01 44.019 141.373 45.2445C140.785 46.47 139.559 47.6955 138.334 48.5778C136.814 49.5092 135.295 50.0974 133.775 50.6857C131.961 51.2739 129.805 51.2739 127.697 51.2739H109.118V12.6465H108.824V12.7445ZM125.246 28.5288C126.765 28.5288 128.285 28.2347 129.805 27.5975C131.03 27.0092 131.618 25.7837 131.618 24.5582C131.618 23.3328 131.03 22.1073 130.099 21.519C128.873 20.5877 127.354 20.2935 125.834 20.5877H117.305V28.7739H125.197V28.5288H125.246ZM127.354 44.068C128.873 44.068 130.393 43.7739 131.912 43.1367C133.138 42.5484 133.726 41.3229 133.432 39.8033C133.432 38.5778 132.844 37.3523 131.912 36.7641C130.981 36.1759 129.167 35.5386 127.059 35.5386H117.01V44.068H127.354Z" fill="#F3BA2F"/>
<path d="M152.893 12.7451H161.422V51.6666H152.893V12.7451Z" fill="#F3BA2F"/>
<path d="M174.509 12.7451H182.401L200.636 36.7647V12.7451H209.117V51.6666H201.862L182.695 27.0098V51.6666H174.509V12.7451Z" fill="#F3BA2F"/>
<path d="M235 12.4502H242.892L259.608 51.6658H250.784L247.157 42.8423H230.735L227.108 51.6658H218.284L235 12.4502ZM244.117 35.5384L238.97 22.7933L233.823 35.5384H244.117Z" fill="#F3BA2F"/>
<path d="M268.726 12.7451H276.618L294.853 36.7647V12.7451H303.382V51.6666H296.079L277.206 27.0098V51.6666H268.726V12.7451Z" fill="#F3BA2F"/>
<path d="M334.362 52.2543C331.616 52.2543 328.871 51.666 326.469 50.7346C321.616 48.6268 317.94 44.9503 315.832 40.0974C314.901 37.6464 314.312 34.9503 314.312 32.2052C314.312 27.0582 316.42 21.8621 320.097 17.9406C321.911 16.1268 324.067 14.6072 326.469 13.6759C329.214 12.4504 331.96 12.1562 334.656 12.1562C336.175 12.1562 337.989 12.1563 339.509 12.4504C341.028 12.7445 342.254 13.0386 343.479 13.6759C344.705 14.2641 345.93 14.9014 346.812 15.4896C347.744 16.0778 348.92 17.0092 349.852 17.9406L344.705 24.3131C343.185 23.0876 341.665 21.8621 340.146 20.9798C338.626 20.0974 336.812 19.7543 334.999 19.7543C333.479 19.7543 331.96 20.0484 330.44 20.6856C328.92 21.2739 327.695 22.2053 326.812 23.4307C325.93 24.6562 324.999 25.8817 324.362 27.4013C323.773 28.9209 323.43 30.4405 323.43 31.9601C323.43 33.4798 323.724 35.2935 324.362 36.8131C324.999 38.3327 325.587 39.5582 326.812 40.7837C328.92 43.2346 331.96 44.4111 334.999 44.4111C336.812 44.4111 338.969 44.117 340.783 43.1856C342.303 42.2543 344.116 41.0778 345.342 39.8523L350.783 45.2935C349.852 46.2248 348.675 47.4013 347.744 48.3327C346.518 49.2641 345.293 49.8523 344.116 50.4405C342.891 51.0288 341.371 51.666 339.852 51.9601C337.695 52.2543 335.881 52.2543 334.362 52.2543Z" fill="#F3BA2F"/>
<path d="M360.538 12.7451H389.705V20.3431H368.724V28.2353H387.254V35.8333H368.724V44.0686H389.999V51.6666H360.538V12.7451Z" fill="#F3BA2F"/>
<path d="M119.755 89.9511C117.647 89.9511 115.49 89.657 113.677 88.7256C111.863 88.1374 110.049 86.9119 108.187 85.3923L111.226 82.059C112.451 83.2844 113.677 83.8727 115.196 84.8041C116.716 85.3923 118.236 85.7354 119.755 85.7354C120.981 85.7354 122.206 85.4413 123.383 84.8041C124.314 84.2158 124.608 83.2844 124.608 82.3531C124.608 82.059 124.608 81.4217 124.314 81.1276C124.02 80.8335 123.726 80.1962 123.383 79.9021C122.794 79.608 122.157 79.3139 121.569 78.9707C120.637 78.6766 119.461 78.3825 118.53 78.0393C117.304 77.7452 115.785 77.4511 114.559 76.8139C113.628 76.5197 112.451 75.8825 111.814 75.2943C111.226 74.706 110.588 74.0688 110 73.1864C109.412 71.9609 109.412 70.7354 109.412 69.8531C109.412 68.6276 109.706 67.7452 110 66.5198C110.294 65.5884 111.226 64.706 111.814 64.0688C112.745 63.4805 113.628 62.8433 114.853 62.5492C116.079 62.2551 117.304 61.9609 118.481 61.9609C120.294 61.9609 122.108 62.2551 123.971 62.8923C125.49 63.4805 127.01 64.4119 128.53 65.3433L126.079 68.9707C124.853 68.0394 123.628 67.4511 122.451 66.8629C121.226 66.2747 120 66.2747 118.824 66.2747C117.598 66.2747 116.373 66.5688 115.49 67.206C114.902 67.7943 114.265 68.7256 114.265 69.657C114.265 70.2452 114.265 70.5884 114.559 71.1766C114.853 71.4707 115.147 72.108 115.49 72.4021C116.079 72.6962 116.716 72.9903 117.598 73.3335C118.53 73.6276 119.412 73.9217 120.932 74.2648C122.157 74.559 123.383 74.8531 124.902 75.4903C125.834 75.7845 126.716 76.4217 127.647 77.0099C128.236 77.5982 128.873 78.5295 129.167 79.1178C129.461 80.0492 129.755 80.9315 129.755 82.157C129.755 83.3825 129.461 84.608 129.167 85.4903C128.579 86.4217 127.941 87.3041 127.059 88.2354C126.128 88.8237 125.245 89.4609 124.02 89.755C122.5 89.657 120.981 89.9511 119.755 89.9511Z" fill="#F3BA2F"/>
<path d="M134.95 62.3037H140.146L148.333 75.0488L156.862 62.3037H162.009V89.6566H157.156V69.9017L148.627 82.6468H148.333L139.852 69.9017V89.6566H134.95V62.3037Z" fill="#F3BA2F"/>
<path d="M178.431 62.0098H182.99L194.852 89.3627H189.705L186.96 82.696H174.215L171.47 89.3627H166.617L178.431 62.0098ZM185.441 78.7254L180.588 67.7941L176.029 78.7254H185.441Z" fill="#F3BA2F"/>
<path d="M199.705 62.3037H211.862C213.382 62.3037 214.901 62.5978 216.421 62.8919C217.646 63.1861 218.872 64.1174 219.754 64.9998C220.342 65.588 220.98 66.5194 221.568 67.7449C221.862 68.6762 222.156 69.8527 222.156 71.0782C222.156 72.0096 221.862 73.186 221.568 74.1174C221.274 75.0488 220.637 75.637 220.342 76.5684C219.754 77.1566 219.117 77.7939 218.235 78.3821C217.303 78.9704 216.421 79.3135 215.49 79.6076L222.793 89.9507H217.009L210.342 80.539H204.264V89.9507H199.411L199.705 62.3037ZM211.568 75.686C213.088 75.686 214.607 75.3919 215.539 74.4606C216.47 73.5292 217.058 72.3527 217.058 71.1272C217.058 69.9017 216.47 68.6762 215.539 67.7939C214.313 66.8625 212.793 66.5684 211.274 66.5684H204.264V75.686H211.568Z" fill="#F3BA2F"/>
<path d="M234.657 66.5684H225.833V62.3037H248.039V66.5684H239.215V89.6566H234.362L234.657 66.5684Z" fill="#F3BA2F"/>
<path d="M277.549 89.9515C275.735 89.9515 273.921 89.6574 272.058 88.726C268.725 87.2064 265.98 84.7554 264.755 81.4221C264.166 79.6084 263.529 77.7946 263.823 75.9319C263.823 74.1182 264.117 72.3044 264.755 70.4417C265.98 67.1084 268.725 64.3633 272.058 62.8437C273.872 62.2554 275.686 61.6182 277.843 61.6182C279.068 61.6182 280.294 61.6182 281.176 61.9123C282.107 62.2064 282.99 62.5005 283.921 62.8437C284.853 63.1378 285.441 63.775 286.372 64.0691C286.96 64.6574 287.892 65.2946 288.48 65.8829L285.441 69.5103C284.509 68.5789 283.333 67.6966 282.107 67.0593C280.882 66.4711 279.362 66.128 277.843 66.128C276.617 66.128 275.392 66.4221 274.215 66.7162C272.99 67.3044 272.107 67.9417 271.176 68.824C270.245 69.7554 269.656 70.6378 269.362 71.8633C269.068 73.0888 268.774 74.3142 268.774 75.4907C268.774 76.7162 269.068 77.9417 269.362 79.1182C269.656 80.2946 270.294 81.226 271.176 82.1574C272.107 83.0887 272.99 83.677 274.215 84.2652C275.441 84.8534 276.666 85.1966 277.843 84.8534C279.362 84.8534 280.882 84.5593 282.107 83.9221C283.333 83.3338 284.558 82.4025 285.735 81.177L288.774 84.2162C288.186 84.8044 287.254 85.7358 286.666 86.324C285.735 86.9123 285.147 87.5495 284.215 87.8436C283.284 88.1377 282.402 88.775 281.176 88.775C279.951 89.9515 278.725 89.9515 277.549 89.9515Z" fill="#F3BA2F"/>
<path d="M293.628 62.3037H298.187V73.5292H311.275V62.3037H316.128V89.6566H311.275V78.088H298.187V89.6566H293.628V62.3037Z" fill="#F3BA2F"/>
<path d="M332.842 62.0098H337.401L349.264 89.3627H344.117L341.371 82.696H328.626L325.881 89.3627H321.028L332.842 62.0098ZM339.558 78.7254L334.999 67.7941L330.44 78.7254H339.558Z" fill="#F3BA2F"/>
<path d="M354.118 62.3037H359.02V89.6566H354.118V62.3037Z" fill="#F3BA2F"/>
<path d="M366.274 62.3037H370.539L385.147 81.1272V62.3037H390V89.6566H386.029L371.176 70.1958V89.6566H366.274V62.3037Z" fill="#F3BA2F"/>
<path d="M55.3431 87.843V99.7058L45 105.784L34.951 99.7058V87.843L45 93.9215L55.3431 87.843ZM0 46.8137L10.049 52.8921V73.2352L27.3529 83.5784V95.4411L0 79.3136V46.8137ZM89.9999 46.8137V79.3627L62.3529 95.4901V83.6274L79.6568 73.2842V52.9411L89.9999 46.8137ZM62.3039 30.6862L72.647 36.7647V48.6274L55.3431 58.9705V79.6078L45.2941 85.6862L35.2941 79.6078V58.9215L17.3529 48.5784V36.7156L27.6961 30.6372L45 40.9804L62.3039 30.6862ZM17.3529 57.1078L27.4019 63.1862V75.049L17.3529 68.9705V57.1078ZM72.647 57.1078V68.9705L62.598 75.049V63.1862L72.647 57.1078ZM10.049 20.3431L20.3921 26.4215L10.049 32.5V44.3627L0 38.2843V26.4215L10.049 20.3431ZM79.9509 20.3431L90.294 26.4215V38.2843L79.9509 44.3627V32.5L69.9019 26.4215L79.9509 20.3431ZM45 20.3431L55.3431 26.4215L45 32.5L34.951 26.4215L45 20.3431ZM45 0L72.647 16.1274L62.598 22.2059L45.2941 11.8627L27.647 22.2059L17.598 16.1274L45 0Z" fill="#F3BA2F"/>
</svg>
