<svg width="863" height="802" viewBox="0 0 863 802" fill="none" xmlns="http://www.w3.org/2000/svg">
<path d="M431.474 414.496C427.762 414.4 424.239 412.841 421.672 410.157C419.106 407.474 417.706 403.884 417.776 400.172C417.871 396.46 419.431 392.937 422.114 390.371C424.798 387.804 428.388 386.404 432.1 386.474C432.1 386.474 833.52 401.615 833.346 409.413C833.172 417.211 431.474 414.496 431.474 414.496Z" fill="url(#paint0_linear_243_174)"/>
<path d="M424.818 403.797C423.981 401.986 423.896 399.917 424.584 398.045C425.271 396.172 426.675 394.65 428.485 393.812C430.295 392.974 432.364 392.889 434.237 393.577C436.109 394.264 437.632 395.668 438.47 397.478C438.885 398.375 439.119 399.344 439.159 400.331C439.2 401.318 439.045 402.303 438.705 403.23C438.364 404.157 437.845 405.008 437.175 405.735C436.506 406.461 435.7 407.048 434.804 407.463C433.907 407.878 432.938 408.112 431.951 408.153C430.964 408.193 429.979 408.038 429.052 407.698C428.124 407.357 427.273 406.838 426.547 406.168C425.821 405.499 425.233 404.693 424.818 403.797Z" fill="#FAFAFA"/>
<defs>
<linearGradient id="paint0_linear_243_174" x1="432.087" y1="400.492" x2="834.587" y2="409.484" gradientUnits="userSpaceOnUse">
<stop stop-color="#C759FC"/>
<stop offset="1" stop-color="#6E94F4" stop-opacity="0"/>
</linearGradient>
</defs>
</svg>
